<svg xmlns="http://www.w3.org/2000/svg" width="51.638" height="57" viewBox="0 0 51.638 57">
  <g id="email_1_" data-name="email (1)" transform="translate(-24.082)">
    <g id="Grupo_98981" data-name="Grupo 98981" transform="translate(24.917 0.835)">
      <path id="Trazado_126178" data-name="Trazado 126178" d="M58.543,68.841a3.519,3.519,0,0,0-3.953,0L31.582,84.462l23.007,15.621a3.519,3.519,0,0,0,3.953,0L81.55,84.462Z" transform="translate(-31.582 -61.472)" fill="#169b62"/>
      <path id="Trazado_126179" data-name="Trazado 126179" d="M115.641,53.312H80.873a2.119,2.119,0,0,1-2.119-2.119V9.619A2.119,2.119,0,0,1,80.873,7.5h34.768a2.119,2.119,0,0,1,2.119,2.119V51.193A2.119,2.119,0,0,1,115.641,53.312Z" transform="translate(-73.502 -7.5)" fill="#96cc7f"/>
      <path id="Trazado_126180" data-name="Trazado 126180" d="M374.547,7.5h-4.453a2.119,2.119,0,0,1,2.119,2.119V51.193a2.119,2.119,0,0,1-2.119,2.119h4.453a2.119,2.119,0,0,0,2.119-2.119V9.619A2.119,2.119,0,0,0,374.547,7.5Z" transform="translate(-332.408 -7.5)" fill="#78b75b"/>
      <path id="Trazado_126181" data-name="Trazado 126181" d="M58.543,229.627a3.519,3.519,0,0,1-3.953,0L31.582,214.006v30.113a2.227,2.227,0,0,0,2.227,2.227H79.323a2.227,2.227,0,0,0,2.227-2.227V214.006Z" transform="translate(-31.582 -191.016)" fill="#35e298"/>
      <path id="Trazado_126182" data-name="Trazado 126182" d="M440.417,192.895l4.453-3.024-4.453-3.023Z" transform="translate(-394.902 -166.882)" fill="#596c76"/>
      <path id="Trazado_126183" data-name="Trazado 126183" d="M444.87,214.006l-4.453,3.023v29.317h2.227a2.227,2.227,0,0,0,2.227-2.227Z" transform="translate(-394.902 -191.016)" fill="#01998d"/>
      <g id="Grupo_98980" data-name="Grupo 98980" transform="translate(13.971 14.819)">
        <path id="Trazado_126184" data-name="Trazado 126184" d="M160.746,152.736V140.613h-3.67v12.123a1.809,1.809,0,0,0,1.807,1.809h.052A1.809,1.809,0,0,0,160.746,152.736Z" transform="translate(-157.076 -140.613)" fill="#169b62"/>
      </g>
      <path id="Trazado_126185" data-name="Trazado 126185" d="M287.493,114.532h-4.4v-5.873h4.4a1.248,1.248,0,0,1,1.248,1.248v3.377A1.248,1.248,0,0,1,287.493,114.532Z" transform="translate(-255.092 -97.397)" fill="#35e298"/>
      <path id="Trazado_126186" data-name="Trazado 126186" d="M124.092,100.118h-6.1a5,5,0,0,1,0-10h6.1Z" transform="translate(-103.932 -80.923)" fill="#35e298"/>
      <path id="Trazado_126187" data-name="Trazado 126187" d="M222.554,59.757l-9.89,3.356v10l9.89,3.356a.508.508,0,0,0,.672-.481V60.238A.508.508,0,0,0,222.554,59.757Z" transform="translate(-192.505 -53.915)" fill="#169b62"/>
      <path id="Trazado_126188" data-name="Trazado 126188" d="M55.071,326.578,37.243,345.709a2.219,2.219,0,0,0,1.6.676H84.354a2.218,2.218,0,0,0,1.6-.676L68.122,326.578l-4.549,3.089a3.518,3.518,0,0,1-3.953,0Z" transform="translate(-36.613 -291.056)" fill="#169b62"/>
      <path id="Trazado_126189" data-name="Trazado 126189" d="M444.241,465.677l-3.823-4.1v4.779h2.227a2.219,2.219,0,0,0,1.6-.676Z" transform="translate(-394.903 -411.024)" fill="#008b81"/>
    </g>
    <g id="Grupo_98982" data-name="Grupo 98982" transform="translate(24.082 0)">
      <path id="Trazado_126190" data-name="Trazado 126190" d="M24.917,49.207a.835.835,0,0,0-.835.835v3.9A3.066,3.066,0,0,0,27.143,57H72.658a3.066,3.066,0,0,0,3.061-3.062V23.825a.844.844,0,0,0-.356-.683l-.01-.008L70.01,19.506V2.954A2.957,2.957,0,0,0,67.056,0H32.287a2.957,2.957,0,0,0-2.954,2.954V19.817c-.063.043-4.834,3.281-4.9,3.325l-.034.026a.839.839,0,0,0-.322.656V46.146a.835.835,0,1,0,1.67,0V25.4L42.1,36.5,25.757,54.039c-.008-.11-.005.263-.005-4a.835.835,0,0,0-.835-.835ZM74.05,25.4c0,.224,0,28.528-.005,28.638L57.7,36.5ZM73.4,23.825l-3.389,2.3v-4.6ZM31,2.954A1.285,1.285,0,0,1,32.287,1.67H67.056A1.285,1.285,0,0,1,68.34,2.954V27.259l-16.931,11.5a2.683,2.683,0,0,1-3.015,0L31,26.948V2.954Zm-1.67,18.882v3.979L26.4,23.825Zm18.122,18.3a4.332,4.332,0,0,0,4.891,0L56.3,37.45,72.939,55.3c-.25.051-45.88.04-46.076,0L43.5,37.45Z" transform="translate(-24.082 0)"/>
      <path id="Trazado_126191" data-name="Trazado 126191" d="M110.4,67.2v6.987a2.648,2.648,0,0,0,2.642,2.644h.055a2.643,2.643,0,0,0,2.644-2.644V67.279h1.545l3.918,1.329a.835.835,0,0,0,.537-1.581l-3.481-1.182v-8.8l8.891-3.017V68.863l-1.72-.584a.835.835,0,1,0-.537,1.581l2.152.73a1.344,1.344,0,0,0,1.775-1.272v-4.1h.846a2.085,2.085,0,0,0,2.083-2.083V59.759a2.085,2.085,0,0,0-2.083-2.083h-.846v-4.1a1.342,1.342,0,0,0-1.775-1.272l-9.759,3.312h-5.96A5.833,5.833,0,0,0,110.4,67.2Zm19.265-7.859a.413.413,0,0,1,.413.413v3.377a.413.413,0,0,1-.413.413h-.846v-4.2Zm-15.6,14.845a.973.973,0,0,1-.975.974h-.053a.975.975,0,0,1-.973-.974V67.279h2ZM111.33,57.283h5.263v8.327c-5.667,0-5.226,0-5.337,0h0a4.163,4.163,0,0,1,.079-8.324Z" transform="translate(-96.433 -46.414)"/>
      <path id="Trazado_126192" data-name="Trazado 126192" d="M355.052,129.2h3.321a.835.835,0,0,0,0-1.67h-3.321a.835.835,0,1,0,0,1.67Z" transform="translate(-317.464 -113.336)"/>
      <path id="Trazado_126193" data-name="Trazado 126193" d="M359.946,71.293l2.348-1.907a.835.835,0,1,0-1.053-1.3L358.893,70a.835.835,0,1,0,1.053,1.3Z" transform="translate(-321.345 -60.343)"/>
      <path id="Trazado_126194" data-name="Trazado 126194" d="M362.294,172.126l-2.348-1.907a.835.835,0,1,0-1.053,1.3l2.348,1.907a.835.835,0,1,0,1.053-1.3Z" transform="translate(-321.345 -151.103)"/>
    </g>
  </g>
</svg>
