<svg xmlns="http://www.w3.org/2000/svg" width="85" height="78" viewBox="0 0 85 78">
  <g id="Grupo_963242" data-name="Grupo 963242" transform="translate(-180 -4789)">
    <rect id="Rectángulo_337254" data-name="Rectángulo 337254" width="85" height="78" rx="2" transform="translate(180 4789)" fill="#e8e1fc"/>
    <g id="_x33_0_Story_Telling" transform="translate(187.293 4755.213)">
      <g id="Grupo_952121" data-name="Grupo 952121" transform="translate(7.707 48.787)">
        <path id="Trazado_655931" data-name="Trazado 655931" d="M120.95,61.236V95.03H88.424V56.686a2.727,2.727,0,0,1,2.727-2.727h22.521Z" transform="translate(-78.93 -53.351)" fill="#f7f3f1"/>
        <path id="Trazado_655932" data-name="Trazado 655932" d="M310.366,61.236h-4.55a2.727,2.727,0,0,1-2.727-2.727v-4.55Z" transform="translate(-268.347 -53.351)" fill="#dbc0b2"/>
        <path id="Trazado_655933" data-name="Trazado 655933" d="M358.564,105.228v32.017H352.58V103.451l-1.65-1.65h4.207A3.428,3.428,0,0,1,358.564,105.228Z" transform="translate(-310.561 -95.566)" fill="#dbc0b2"/>
        <path id="Trazado_655934" data-name="Trazado 655934" d="M40.981,101.8h2.557v35.444H37.554V105.228A3.428,3.428,0,0,1,40.981,101.8Z" transform="translate(-34.043 -95.566)" fill="#dbc0b2"/>
        <path id="Trazado_655935" data-name="Trazado 655935" d="M290.111,173.463v13.385l-5.981,4.4-.931.688a1.84,1.84,0,0,1-.821.335l-6.127.876a2.534,2.534,0,0,1-2.653-3.59l2.634-5.6a1.753,1.753,0,0,1,.566-.694l7.331-5.4Z" transform="translate(-242.108 -158.799)" opacity="0.1"/>
        <path id="Trazado_655936" data-name="Trazado 655936" d="M37.549,387.615H82.042v1.825H37.549Z" transform="translate(-34.039 -347.763)" opacity="0.1"/>
        <path id="Trazado_655937" data-name="Trazado 655937" d="M63.17,403.815a6.459,6.459,0,0,1-6.423,5.772H19.3a6.463,6.463,0,0,1-6.423-5.772.621.621,0,0,1,.615-.686H62.555A.622.622,0,0,1,63.17,403.815Z" transform="translate(-12.268 -361.451)" fill="#7a6d79"/>
        <path id="Trazado_655938" data-name="Trazado 655938" d="M312.938,165.392,295.816,178l-6.129.876a.71.71,0,0,1-.743-1.006l2.636-5.606L308.7,159.657a1.637,1.637,0,0,1,2.289.344l2.291,3.1A1.637,1.637,0,0,1,312.938,165.392Z" transform="translate(-255.804 -146.334)" fill="#41b3e7"/>
        <path id="Trazado_655939" data-name="Trazado 655939" d="M295.816,275.012l-6.129.876a.71.71,0,0,1-.743-1.006l2.636-5.606Z" transform="translate(-255.804 -243.344)" fill="#ffd36c"/>
        <path id="Trazado_655940" data-name="Trazado 655940" d="M435.271,167.686l3.106-2.295a1.637,1.637,0,0,0,.344-2.289l-2.291-3.1a1.637,1.637,0,0,0-2.289-.344l-3.106,2.295Z" transform="translate(-381.244 -146.333)" fill="#ffd36c"/>
        <g id="Grupo_952120" data-name="Grupo 952120" transform="translate(0 0)">
          <path id="Trazado_655941" data-name="Trazado 655941" d="M128.593,150.2h11.727a.608.608,0,1,0,0-1.217H128.593a.608.608,0,1,0,0,1.217Z" transform="translate(-113.838 -137.197)" fill="#25294f"/>
          <path id="Trazado_655942" data-name="Trazado 655942" d="M128.593,192.21h19.329a.608.608,0,0,0,0-1.217H128.593a.608.608,0,0,0,0,1.217Z" transform="translate(-113.838 -174.267)" fill="#25294f"/>
          <path id="Trazado_655943" data-name="Trazado 655943" d="M128.593,234.218h16.055a.608.608,0,1,0,0-1.217H128.593a.608.608,0,1,0,0,1.217Z" transform="translate(-113.838 -211.334)" fill="#25294f"/>
          <path id="Trazado_655944" data-name="Trazado 655944" d="M128.593,276.229h18.053a.608.608,0,0,0,0-1.217H128.593a.608.608,0,0,0,0,1.217Z" transform="translate(-113.838 -248.404)" fill="#25294f"/>
          <path id="Trazado_655945" data-name="Trazado 655945" d="M128.593,318.238h14.668a.608.608,0,0,0,0-1.217H128.593a.608.608,0,0,0,0,1.217Z" transform="translate(-113.838 -285.472)" fill="#25294f"/>
          <path id="Trazado_655946" data-name="Trazado 655946" d="M128.593,360.249h22a.608.608,0,1,0,0-1.217h-22a.608.608,0,1,0,0,1.217Z" transform="translate(-113.838 -322.542)" fill="#25294f"/>
          <path id="Trazado_655947" data-name="Trazado 655947" d="M193.988,425.414h-8.656a.608.608,0,1,0,0,1.217h8.656a.608.608,0,1,0,0-1.217Z" transform="translate(-163.903 -381.116)" fill="#25294f"/>
          <path id="Trazado_655948" data-name="Trazado 655948" d="M63.383,62.092a2.244,2.244,0,0,0-3.139-.472l-3.925,2.891V58.449a4.039,4.039,0,0,0-4.035-4.035H48.328l-5.449-5.449a.684.684,0,0,0-.43-.178H19.928a3.339,3.339,0,0,0-3.336,3.336v2.291H14.644a4.039,4.039,0,0,0-4.035,4.035V89.856H8.933a1.23,1.23,0,0,0-1.22,1.359,7.07,7.07,0,0,0,7.028,6.316H52.186a7.054,7.054,0,0,0,7.028-6.316.015.015,0,0,0,0-.005,1.23,1.23,0,0,0-1.22-1.354H56.317V74.878L65.2,68.335a2.244,2.244,0,0,0,.473-3.14Zm-.979.723,2.292,3.1a1.031,1.031,0,0,1-.216,1.438l-2.62,1.93-3.511-4.753L60.966,62.6A1.027,1.027,0,0,1,62.4,62.815ZM47.846,79.606l-3.513-4.757,13.033-9.6,3.513,4.757ZM41.5,80.73a.1.1,0,0,1-.106-.145L43.6,75.9,46.623,80Zm1.554-29.866,4.587,4.587h0l.612.612H45.176a2.121,2.121,0,0,1-2.119-2.119V50.864Zm9.225,4.767A2.821,2.821,0,0,1,55.1,58.449v6.959l-4.766,3.51V56.673a.682.682,0,0,0-.178-.43l-.612-.612h2.738ZM17.809,52.123A2.121,2.121,0,0,1,19.928,50H41.841v3.942a3.339,3.339,0,0,0,3.336,3.336h3.942V69.814l-6,4.417s0,.006-.006.008a.607.607,0,0,0-.184.223L40.3,80.067a1.32,1.32,0,0,0,1.38,1.867l6.129-.876a.622.622,0,0,0,.275-.112l1.039-.765v9.675H17.809V52.123Zm-5.984,6.326a2.821,2.821,0,0,1,2.818-2.818h1.949V89.855H11.826ZM58,91.072A.02.02,0,0,1,58,91.09a5.839,5.839,0,0,1-5.818,5.224H14.741a5.831,5.831,0,0,1-5.808-5.242C13.429,91.073,19.6,91.076,58,91.072Zm-2.9-1.217H50.335V79.284L55.1,75.774Z" transform="translate(-7.707 -48.787)" fill="#25294f"/>
        </g>
      </g>
    </g>
  </g>
</svg>
