<svg xmlns="http://www.w3.org/2000/svg" xmlns:xlink="http://www.w3.org/1999/xlink" width="505" height="630" viewBox="0 0 505 630">
  <defs>
    <clipPath id="clip-path">
      <rect id="Rectángulo_337965" data-name="Rectángulo 337965" width="505" height="630" transform="translate(180 3203)" fill="#e8e1fc" opacity="0.57"/>
    </clipPath>
    <filter id="Trazado_658752" x="141" y="-6" width="339" height="646" filterUnits="userSpaceOnUse">
      <feOffset dy="3" input="SourceAlpha"/>
      <feGaussianBlur stdDeviation="3" result="blur"/>
      <feFlood flood-opacity="0.161"/>
      <feComposite operator="in" in2="blur"/>
      <feComposite in="SourceGraphic"/>
    </filter>
    <filter id="Rectángulo_337961" x="-9" y="366" width="523" height="276" filterUnits="userSpaceOnUse">
      <feOffset dy="3" input="SourceAlpha"/>
      <feGaussianBlur stdDeviation="3" result="blur-2"/>
      <feFlood flood-opacity="0.161"/>
      <feComposite operator="in" in2="blur-2"/>
      <feComposite in="SourceGraphic"/>
    </filter>
    <filter id="Trazado_658768">
      <feOffset dy="3" input="SourceAlpha"/>
      <feGaussianBlur stdDeviation="3" result="blur-3"/>
      <feFlood flood-opacity="0.161" result="color"/>
      <feComposite operator="out" in="SourceGraphic" in2="blur-3"/>
      <feComposite operator="in" in="color"/>
      <feComposite operator="in" in2="SourceGraphic"/>
    </filter>
    <filter id="Trazado_658769" x="233.627" y="33.443" width="157.315" height="157.315" filterUnits="userSpaceOnUse">
      <feOffset dy="3" input="SourceAlpha"/>
      <feGaussianBlur stdDeviation="3" result="blur-4"/>
      <feFlood flood-opacity="0.161"/>
      <feComposite operator="in" in2="blur-4"/>
      <feComposite in="SourceGraphic"/>
    </filter>
  </defs>
  <g id="Enmascarar_grupo_459" data-name="Enmascarar grupo 459" transform="translate(-180 -3203)" clip-path="url(#clip-path)">
    <path id="Trazado_658750" data-name="Trazado 658750" d="M339.506,85.873,334.2,84.241l5.305-1.632,1.632-5.305,1.632,5.305,5.305,1.632-5.305,1.632-1.632,5.305Z" transform="translate(43.776 3707.81)" fill="#f6f6f6"/>
    <g id="Grupo_963889" data-name="Grupo 963889">
      <path id="Trazado_658751" data-name="Trazado 658751" d="M-1953.9-8137.834h79.119" transform="translate(2173.356 11713.334)" fill="#263238" stroke="#263238" stroke-width="2"/>
      <g id="Grupo_963811" data-name="Grupo 963811" transform="translate(180.23 3203)">
        <g transform="matrix(1, 0, 0, 1, -0.23, 0)" filter="url(#Trazado_658752)">
          <path id="Trazado_658752-2" data-name="Trazado 658752" d="M41,0H280a41,41,0,0,1,41,41V587a41,41,0,0,1-41,41H41A41,41,0,0,1,0,587V41A41,41,0,0,1,41,0Z" transform="translate(150 0)" fill="#ffdb42"/>
        </g>
        <g transform="matrix(1, 0, 0, 1, -0.23, 0)" filter="url(#Rectángulo_337961)">
          <path id="Rectángulo_337961-2" data-name="Rectángulo 337961" d="M42,0H247A258,258,0,0,1,505,258v0a0,0,0,0,1,0,0H0a0,0,0,0,1,0,0V42A42,42,0,0,1,42,0Z" transform="translate(0 372)" fill="#25195f"/>
        </g>
      </g>
      <circle id="Elipse_6542" data-name="Elipse 6542" cx="17.634" cy="17.634" r="17.634" transform="translate(387.359 3653.732)" fill="#26d19e" opacity="0.45"/>
      <ellipse id="Elipse_6543" data-name="Elipse 6543" cx="13.521" cy="13.521" rx="13.521" ry="13.521" transform="translate(207.512 3230.781)" fill="#764cf0"/>
      <rect id="Rectángulo_337962" data-name="Rectángulo 337962" width="34.943" height="34.943" rx="8" transform="matrix(0.985, 0.174, -0.174, 0.985, 218.863, 3613.252)" fill="#26d19e"/>
      <path id="Trazado_658753" data-name="Trazado 658753" d="M225.979,264.154c-9.638-4.422-19.322-8.708-28.948-12.959-48.177-21.278-97.985-43.287-135.08-81.454A195.769,195.769,0,0,1,9.1,62.61,183.252,183.252,0,0,1,10.452,0H3.279a189.957,189.957,0,0,0-1.15,63.582,202.662,202.662,0,0,0,54.7,110.868c38.046,39.139,88.5,61.433,137.287,82.985,10.6,4.685,21.271,9.393,31.86,14.318Z" transform="translate(288.849 3635.628) rotate(-30)" fill="#ffdb42" opacity="0.57"/>
      <g id="Grupo_963825" data-name="Grupo 963825" transform="translate(285.573 3730.301)">
        <g id="Grupo_963824" data-name="Grupo 963824" transform="translate(0 0)">
          <g id="Grupo_963817" data-name="Grupo 963817">
            <g id="Grupo_963816" data-name="Grupo 963816">
              <g id="Grupo_963815" data-name="Grupo 963815">
                <g id="Grupo_963814" data-name="Grupo 963814">
                  <g id="Grupo_963813" data-name="Grupo 963813">
                    <g id="Grupo_963812" data-name="Grupo 963812">
                      <path id="Trazado_658754" data-name="Trazado 658754" d="M134.166,402.579l-3.593,1-10.882-8.742-2-7.171s-5.647,1.2-2.379,10.411,1.894,7.014,1.894,7.014-11.776,3.327-12.47,4.626c-.506.942,2.433,12.742,4.079,19.128a7.138,7.138,0,0,0,6.8,5.569,5.332,5.332,0,0,0,1.316-.183c2.942-.819,17.3-7.393,17.3-7.393l6.2-1.728Z" transform="translate(-104.683 -387.668)" fill="#f6f6f6"/>
                    </g>
                  </g>
                </g>
              </g>
            </g>
          </g>
          <g id="Grupo_963823" data-name="Grupo 963823" transform="translate(30.994 10.08)">
            <g id="Grupo_963822" data-name="Grupo 963822" transform="translate(0)">
              <g id="Grupo_963821" data-name="Grupo 963821">
                <g id="Grupo_963820" data-name="Grupo 963820">
                  <g id="Grupo_963819" data-name="Grupo 963819">
                    <g id="Grupo_963818" data-name="Grupo 963818">
                      <path id="Trazado_658755" data-name="Trazado 658755" d="M131.721,393.787l4.632,25.183-6.152,1.713-6.7-24.074Z" transform="translate(-123.498 -393.787)" fill="#f6f6f6"/>
                    </g>
                  </g>
                </g>
              </g>
            </g>
          </g>
        </g>
      </g>
      <g id="Grupo_963861" data-name="Grupo 963861" transform="translate(233.035 3282.374)">
        <g id="Grupo_963830" data-name="Grupo 963830" transform="translate(0 0.001)">
          <g id="Grupo_963829" data-name="Grupo 963829">
            <g id="Grupo_963828" data-name="Grupo 963828">
              <g id="Grupo_963827" data-name="Grupo 963827">
                <g id="Grupo_963826" data-name="Grupo 963826">
                  <path id="Trazado_658756" data-name="Trazado 658756" d="M574.466,365.784a8.231,8.231,0,0,1-.206-1.828,15.1,15.1,0,0,0-.246-2.195,21.584,21.584,0,0,0-.576-2.949,27.62,27.62,0,0,0-3.062-7.586,28.389,28.389,0,0,0-7.053-8.124,28.1,28.1,0,0,0-26.495-4.553,26.3,26.3,0,0,0-7.165,3.656,25.567,25.567,0,0,0-6.049,5.807,27.88,27.88,0,0,0-.8,33.052,32.056,32.056,0,0,0,2.656,3.314,31.584,31.584,0,0,0,3.1,2.78,26.3,26.3,0,0,0,6.981,4,28.322,28.322,0,0,0,34.124-11.037,27.633,27.633,0,0,0,3.426-7.428,21.494,21.494,0,0,0,.719-2.916,15.026,15.026,0,0,0,.35-2.181,8.275,8.275,0,0,1,.3-1.814,7.909,7.909,0,0,1,.022,1.842,12.83,12.83,0,0,1-.2,2.229,20.118,20.118,0,0,1-.589,3,27.069,27.069,0,0,1-3.272,7.734,29.141,29.141,0,0,1-19.969,13.494,29.384,29.384,0,0,1-15.432-1.573,27.61,27.61,0,0,1-7.379-4.164,26.977,26.977,0,0,1-6.1-6.4,29.3,29.3,0,0,1,.849-34.886,27.054,27.054,0,0,1,6.4-6.095,27.676,27.676,0,0,1,7.572-3.8,29.393,29.393,0,0,1,15.489-.822,29.132,29.132,0,0,1,19.292,14.447,27.029,27.029,0,0,1,2.892,7.883,20.083,20.083,0,0,1,.444,3.031,12.923,12.923,0,0,1,.1,2.236A8,8,0,0,1,574.466,365.784Z" transform="translate(-516.201 -335.684)" fill="#21155c"/>
                </g>
              </g>
            </g>
          </g>
        </g>
        <g id="Grupo_963835" data-name="Grupo 963835" transform="translate(7.4 11.035)">
          <g id="Grupo_963834" data-name="Grupo 963834">
            <g id="Grupo_963833" data-name="Grupo 963833">
              <g id="Grupo_963832" data-name="Grupo 963832">
                <g id="Grupo_963831" data-name="Grupo 963831">
                  <path id="Trazado_658757" data-name="Trazado 658757" d="M566.017,343.8c.063.088-.455.538-1.456,1.283-.548.4-1.162.835-1.848,1.329-.367.25-.751.534-1.178.8l-1.415.74a32.439,32.439,0,0,1-16.9,4.256q-1.294-.059-2.557-.113l-2.456-.384c-.4-.068-.8-.123-1.192-.2l-1.146-.3c-.754-.209-1.5-.387-2.211-.614a37.112,37.112,0,0,1-7.169-3.3c-3.853-2.33-5.728-4.449-5.581-4.585.156-.178,2.248,1.595,6.129,3.61a43.241,43.241,0,0,0,7.057,2.888c.688.2,1.408.351,2.132.537l1.1.274,1.143.173c.77.113,1.552.227,2.346.345l2.437.1a34.972,34.972,0,0,0,16.363-3.675q.746-.321,1.431-.62c.436-.228.833-.472,1.214-.683l1.962-1.082C565.314,343.991,565.954,343.712,566.017,343.8Z" transform="translate(-520.901 -342.692)" fill="#21155c"/>
                </g>
              </g>
            </g>
          </g>
        </g>
        <g id="Grupo_963840" data-name="Grupo 963840" transform="translate(6.528 38.663)">
          <g id="Grupo_963839" data-name="Grupo 963839">
            <g id="Grupo_963838" data-name="Grupo 963838">
              <g id="Grupo_963837" data-name="Grupo 963837">
                <g id="Grupo_963836" data-name="Grupo 963836">
                  <path id="Trazado_658758" data-name="Trazado 658758" d="M520.352,368.666c-.063-.088.455-.538,1.456-1.283l1.848-1.327c.367-.252.751-.535,1.178-.8l1.415-.74a32.454,32.454,0,0,1,16.9-4.256l2.557.115,2.456.384c.4.068.8.121,1.192.2l1.146.305c.754.209,1.5.386,2.21.614a36.931,36.931,0,0,1,7.168,3.3c3.853,2.328,5.728,4.448,5.581,4.583-.154.178-2.248-1.595-6.128-3.61a43.322,43.322,0,0,0-7.058-2.887c-.688-.2-1.408-.351-2.132-.537l-1.1-.274-1.143-.172-2.346-.345-2.437-.1a34.97,34.97,0,0,0-16.363,3.675l-1.431.62c-.436.228-.833.474-1.214.683l-1.962,1.082C521.054,368.476,520.415,368.756,520.352,368.666Z" transform="translate(-520.347 -360.24)" fill="#21155c"/>
                </g>
              </g>
            </g>
          </g>
        </g>
        <g id="Grupo_963845" data-name="Grupo 963845" transform="translate(0.777 29.016)">
          <g id="Grupo_963844" data-name="Grupo 963844">
            <g id="Grupo_963843" data-name="Grupo 963843">
              <g id="Grupo_963842" data-name="Grupo 963842">
                <g id="Grupo_963841" data-name="Grupo 963841">
                  <path id="Trazado_658759" data-name="Trazado 658759" d="M574.167,355.865c-.011.436-12.887.477-28.754.091s-28.73-1.052-28.719-1.488,12.884-.477,28.757-.091S574.178,355.429,574.167,355.865Z" transform="translate(-516.694 -354.113)" fill="#21155c"/>
                </g>
              </g>
            </g>
          </g>
        </g>
        <g id="Grupo_963850" data-name="Grupo 963850" transform="translate(27.832 0.659)">
          <g id="Grupo_963849" data-name="Grupo 963849">
            <g id="Grupo_963848" data-name="Grupo 963848">
              <g id="Grupo_963847" data-name="Grupo 963847">
                <g id="Grupo_963846" data-name="Grupo 963846">
                  <path id="Trazado_658760" data-name="Trazado 658760" d="M534.234,393.555c-.436-.009-.477-12.88-.091-28.744s1.05-28.719,1.488-28.708.477,12.879.091,28.748S534.67,393.566,534.234,393.555Z" transform="translate(-533.878 -336.102)" fill="#21155c"/>
                </g>
              </g>
            </g>
          </g>
        </g>
        <g id="Grupo_963855" data-name="Grupo 963855" transform="translate(13.893 0.642)">
          <g id="Grupo_963854" data-name="Grupo 963854">
            <g id="Grupo_963853" data-name="Grupo 963853">
              <g id="Grupo_963852" data-name="Grupo 963852">
                <g id="Grupo_963851" data-name="Grupo 963851">
                  <path id="Trazado_658761" data-name="Trazado 658761" d="M539.321,393.518c-.109.167-3.275-1.979-6.929-6.841a38.677,38.677,0,0,1-5.137-9.327,34.643,34.643,0,0,1-2.223-12.879,32.971,32.971,0,0,1,2.9-12.748,39.9,39.9,0,0,1,5.614-9.039c3.87-4.678,7.063-6.751,7.17-6.584.154.179-2.736,2.532-6.29,7.272a43.014,43.014,0,0,0-5.158,8.93,33.146,33.146,0,0,0-2.658,12.2,35,35,0,0,0,2.012,12.348,41.456,41.456,0,0,0,4.681,9.182C536.63,390.93,539.482,393.345,539.321,393.518Z" transform="translate(-525.024 -336.091)" fill="#21155c"/>
                </g>
              </g>
            </g>
          </g>
        </g>
        <g id="Grupo_963860" data-name="Grupo 963860" transform="translate(28.827 0.658)">
          <g id="Grupo_963859" data-name="Grupo 963859">
            <g id="Grupo_963858" data-name="Grupo 963858">
              <g id="Grupo_963857" data-name="Grupo 963857">
                <g id="Grupo_963856" data-name="Grupo 963856">
                  <path id="Trazado_658762" data-name="Trazado 658762" d="M535.911,336.11c.107-.167,3.275,1.979,6.929,6.841a38.617,38.617,0,0,1,5.136,9.327,34.647,34.647,0,0,1,2.225,12.877,32.962,32.962,0,0,1-2.9,12.748,39.948,39.948,0,0,1-5.613,9.04c-3.872,4.678-7.063,6.751-7.17,6.584-.156-.179,2.736-2.532,6.29-7.272a43.009,43.009,0,0,0,5.156-8.93,33.077,33.077,0,0,0,2.658-12.2,34.978,34.978,0,0,0-2.01-12.348,41.475,41.475,0,0,0-4.681-9.18C538.6,338.7,535.75,336.283,535.911,336.11Z" transform="translate(-534.51 -336.101)" fill="#21155c"/>
                </g>
              </g>
            </g>
          </g>
        </g>
      </g>
      <g id="Grupo_963874" data-name="Grupo 963874" transform="translate(284.906 3246.961)">
        <g id="Grupo_963863" data-name="Grupo 963863" transform="translate(0 5.426)">
          <g id="Grupo_963862" data-name="Grupo 963862">
            <path id="Trazado_658763" data-name="Trazado 658763" d="M614.989,313.245a6.439,6.439,0,1,1-3.653-8.341A6.439,6.439,0,0,1,614.989,313.245Z" transform="translate(-602.552 -304.461)" fill="#21155c"/>
          </g>
        </g>
        <g id="Grupo_963865" data-name="Grupo 963865" transform="translate(21.49)">
          <g id="Grupo_963864" data-name="Grupo 963864">
            <path id="Trazado_658764" data-name="Trazado 658764" d="M630.9,309.228a6.438,6.438,0,1,1-3.652-8.341A6.439,6.439,0,0,1,630.9,309.228Z" transform="translate(-618.464 -300.443)" fill="#21155c"/>
          </g>
        </g>
        <g id="Grupo_963867" data-name="Grupo 963867" transform="translate(11.475 24.923)">
          <g id="Grupo_963866" data-name="Grupo 963866">
            <path id="Trazado_658765" data-name="Trazado 658765" d="M623.564,328.177a6.461,6.461,0,1,1-3.447-8.869A6.74,6.74,0,0,1,623.564,328.177Z" transform="translate(-611.049 -318.898)" fill="#21155c"/>
          </g>
        </g>
        <g id="Grupo_963870" data-name="Grupo 963870" transform="translate(4.108 12.279)">
          <g id="Grupo_963869" data-name="Grupo 963869">
            <g id="Grupo_963868" data-name="Grupo 963868">
              <path id="Trazado_658766" data-name="Trazado 658766" d="M618.012,327.652c-.4.277-3.5-3.552-6.919-8.55s-5.86-9.275-5.456-9.552,3.5,3.552,6.919,8.551S618.416,327.376,618.012,327.652Z" transform="translate(-605.594 -309.536)" fill="#21155c"/>
            </g>
          </g>
        </g>
        <g id="Grupo_963873" data-name="Grupo 963873" transform="translate(7.588 5.402)">
          <g id="Grupo_963872" data-name="Grupo 963872">
            <g id="Grupo_963871" data-name="Grupo 963871">
              <path id="Trazado_658767" data-name="Trazado 658767" d="M627.421,304.57c.138.47-4.059,2.113-9.374,3.671s-9.736,2.442-9.874,1.972,4.06-2.113,9.375-3.672S627.285,304.1,627.421,304.57Z" transform="translate(-608.171 -304.443)" fill="#21155c"/>
            </g>
          </g>
        </g>
      </g>
      <g id="Grupo_963876" data-name="Grupo 963876" transform="translate(422.627 3242.443)">
        <g data-type="innerShadowGroup">
          <path id="Trazado_658768-2" data-name="Trazado 658768" d="M1876.656,635.934l.025,19.024a19.025,19.025,0,0,0,19.049,19h0a19.025,19.025,0,0,0,19-19.049l-.025-19.025Z" transform="translate(-1825.97 -525.857)" fill="#26d19e"/>
          <g transform="matrix(1, 0, 0, 1, -242.63, -39.44)" filter="url(#Trazado_658768)">
            <path id="Trazado_658768-3" data-name="Trazado 658768" d="M1876.656,635.934l.025,19.024a19.025,19.025,0,0,0,19.049,19h0a19.025,19.025,0,0,0,19-19.049l-.025-19.025Z" transform="translate(-1583.34 -486.41)" fill="#fff"/>
          </g>
        </g>
        <g transform="matrix(1, 0, 0, 1, -242.63, -39.44)" filter="url(#Trazado_658769)">
          <path id="Trazado_658769-2" data-name="Trazado 658769" d="M49.255,0A49.255,49.255,0,1,1,0,49.255,49.255,49.255,0,0,1,49.255,0Z" transform="translate(242.63 109.1) rotate(-45)" fill="#f6f6f6"/>
        </g>
        <path id="Trazado_658770" data-name="Trazado 658770" d="M1896.016,685.747c-1.231,0-18.685-.054-18.688-3.066a.485.485,0,0,1,.485-.486h0a.485.485,0,0,1,.485.485c.331.738,6.494,2.1,17.584,2.1h.176c11.2-.014,17.424-1.4,17.76-2.173a.471.471,0,0,1,.482-.471h0a.5.5,0,0,1,.483.5c0,.7-.653,1.594-5.757,2.33a96.608,96.608,0,0,1-12.968.785Z" transform="translate(-1826.316 -549.671)" fill="#363e44"/>
        <path id="Trazado_658771" data-name="Trazado 658771" d="M1895.995,668.556c-1.231,0-18.684-.054-18.688-3.067a.485.485,0,0,1,.485-.486h0a.485.485,0,0,1,.485.484c.331.738,6.494,2.1,17.584,2.1h.176c11.2-.015,17.424-1.4,17.759-2.173a.471.471,0,0,1,.482-.471h0a.5.5,0,0,1,.483.5c0,.7-.653,1.595-5.757,2.33a96.7,96.7,0,0,1-12.967.785Z" transform="translate(-1826.305 -540.819)" fill="#363e44"/>
        <g id="Grupo_963875" data-name="Grupo 963875" transform="translate(47.117 55.365)">
          <path id="Trazado_658772" data-name="Trazado 658772" d="M1885.309,590.889a.485.485,0,0,1-.446-.295l-15.526-36.355a.485.485,0,0,1,.893-.381l15.525,36.355a.486.486,0,0,1-.446.676Z" transform="translate(-1869.298 -538.835)" fill="#12263f"/>
          <path id="Trazado_658773" data-name="Trazado 658773" d="M1928.911,590.811a.5.5,0,0,1-.19-.038.485.485,0,0,1-.257-.636l15.431-36.395a.485.485,0,1,1,.894.378l-15.431,36.4A.486.486,0,0,1,1928.911,590.811Z" transform="translate(-1899.743 -538.775)" fill="#12263f"/>
          <path id="Trazado_658774" data-name="Trazado 658774" d="M1891.367,543.288a11.235,11.235,0,0,1-5.553-1.427.485.485,0,1,1,.48-.843,10.731,10.731,0,0,0,11.283-.639,13.1,13.1,0,0,1-6.249-7.422,8.86,8.86,0,0,1,.177-6.382,5.589,5.589,0,0,1,5.4-3.351c2.5.246,4.258,2.435,5.069,4.4a11.714,11.714,0,0,1-2.619,12.534,11.587,11.587,0,0,0,5.527.834,12.325,12.325,0,0,0,10.7-10.684.485.485,0,0,1,.965.1,13.325,13.325,0,0,1-11.568,11.551,12.623,12.623,0,0,1-6.427-1.095A11.639,11.639,0,0,1,1891.367,543.288Zm5.1-19.115a4.758,4.758,0,0,0-4.086,2.813,7.905,7.905,0,0,0-.13,5.681,12.163,12.163,0,0,0,6.141,7.056,10.7,10.7,0,0,0,2.676-11.728c-.7-1.7-2.194-3.6-4.268-3.8C1896.693,524.178,1896.581,524.173,1896.469,524.173Z" transform="translate(-1877.676 -523.202)" fill="#12263f"/>
        </g>
      </g>
      <rect id="Rectángulo_337963" data-name="Rectángulo 337963" width="42.248" height="42.248" rx="8" transform="matrix(-0.985, 0.174, -0.174, -0.985, 581.712, 3258.176)" fill="#26d19e"/>
      <path id="Trazado_658775" data-name="Trazado 658775" d="M341.675,89.378l-7.475-2.3,7.475-2.3,2.3-7.475,2.3,7.475,7.475,2.3-7.475,2.3-2.3,7.475Z" transform="translate(-100.475 3614.182)" fill="#f6f6f6"/>
      <path id="Trazado_658776" data-name="Trazado 658776" d="M339.506,85.873,334.2,84.241l5.305-1.632,1.632-5.305,1.632,5.305,5.305,1.632-5.305,1.632-1.632,5.305Z" transform="translate(21.261 3562.554)" fill="#f6f6f6"/>
      <path id="Trazado_658777" data-name="Trazado 658777" d="M-1953.9-8137.834h294.44" transform="translate(2257.903 11713.334)" fill="#263238" stroke="#263238" stroke-width="2"/>
      <g id="Grupo_963888" data-name="Grupo 963888" transform="translate(199.704 3289.797)">
        <g id="Grupo_963879" data-name="Grupo 963879" transform="translate(0 139.886)">
          <g id="Grupo_963877" data-name="Grupo 963877" transform="translate(107.739 63.239)">
            <rect id="Rectángulo_337964" data-name="Rectángulo 337964" width="193.797" height="84.966" fill="#8b865c"/>
            <path id="Trazado_658778" data-name="Trazado 658778" d="M1330.714,1741.547c-.026,1.887-.46,69.07-.46,69.07l37.649-1.779,21.11-67.29Z" transform="translate(-1165.837 -1577.864)" fill="#84524d"/>
            <path id="Trazado_658779" data-name="Trazado 658779" d="M1322.75,1904.744l43.87-.572,24.358,78.9s-66.986,21.682-67.135,20.267S1322.75,1904.744,1322.75,1904.744Z" transform="translate(-1161.201 -1678.323)" fill="#363e44"/>
            <path id="Trazado_658780" data-name="Trazado 658780" d="M1375.5,1963.434h-17.733a.382.382,0,0,1,0-.765H1375.5a.382.382,0,1,1,0,.765Z" transform="translate(-1182.597 -1714.459)" fill="#fff"/>
            <path id="Trazado_658781" data-name="Trazado 658781" d="M1375.308,1992.371h-17.54a.382.382,0,0,1,0-.765h17.54a.382.382,0,0,1,0,.765Z" transform="translate(-1182.597 -1732.335)" fill="#fff"/>
            <path id="Trazado_658782" data-name="Trazado 658782" d="M1311.722,1524.649h69.037l19.729-100.2a42.221,42.221,0,0,0-38.84-50.3l-37.716-2.314Z" transform="translate(-1154.389 -1349.48)" fill="#8b865c"/>
          </g>
          <g id="Grupo_963878" data-name="Grupo 963878" transform="translate(0 0)">
            <path id="Trazado_658783" data-name="Trazado 658783" d="M767.933,1365.93l47.385,45.737,40.165-30.006-38.692-53.343Z" transform="translate(-710.732 -1259.36)" fill="#84524d"/>
            <path id="Trazado_658784" data-name="Trazado 658784" d="M869.248,1476.061l24.163,54.979,67.024-43.829-46.946-43.6Z" transform="translate(-773.318 -1330.578)" fill="#363e44"/>
            <path id="Trazado_658785" data-name="Trazado 658785" d="M675.5,1264.764l58.989-42.285-35.377-54.526a43.946,43.946,0,0,0-64.592-10.177h0a43.946,43.946,0,0,0-2.42,66.074Z" transform="translate(-618.296 -1147.922)" fill="#8b865c"/>
            <path id="Trazado_658786" data-name="Trazado 658786" d="M925.4,1515.662a.382.382,0,0,1-.206-.7l19.9-12.629a.382.382,0,1,1,.41.646L925.6,1515.6A.38.38,0,0,1,925.4,1515.662Z" transform="translate(-807.768 -1366.814)" fill="#fff"/>
            <path id="Trazado_658787" data-name="Trazado 658787" d="M936.7,1532.181a.382.382,0,0,1-.206-.7l19.9-12.629a.382.382,0,1,1,.41.646l-19.9,12.629A.38.38,0,0,1,936.7,1532.181Z" transform="translate(-814.746 -1377.019)" fill="#fff"/>
          </g>
        </g>
        <g id="Grupo_963883" data-name="Grupo 963883" transform="translate(39.768 71.578)">
          <path id="Trazado_658788" data-name="Trazado 658788" d="M932.783,1112.352s78.006.607,137.8,1.487L1057.54,990.6s-59.38-22.241-125.081-18Z" transform="translate(-852.134 -970.975)" fill="#fff"/>
          <path id="Trazado_658789" data-name="Trazado 658789" d="M1215.665,1004.287l12.883,132.764,110.833,2.515s4.679-44.689-35.592-89.742a107.554,107.554,0,0,0-33.276-25.014C1256.534,1018.024,1233.682,1007.613,1215.665,1004.287Z" transform="translate(-1027.08 -990.885)" fill="#363e44"/>
          <path id="Trazado_658790" data-name="Trazado 658790" d="M824.413,969.723l4.318,141.657s-106.372,28.455-106.4-42.5c-.013-30.416,8.315-52.89,16.7-67.805a57.788,57.788,0,0,1,39.142-28.393A169.066,169.066,0,0,1,824.413,969.723Z" transform="translate(-722.329 -969.228)" fill="#363e44"/>
          <path id="Trazado_658791" data-name="Trazado 658791" d="M868.631,1128.089a.381.381,0,0,1-.37-.481l4.811-18.06a.382.382,0,1,1,.739.2L869,1127.8A.382.382,0,0,1,868.631,1128.089Z" transform="translate(-812.468 -1055.734)" fill="#363e44"/>
          <path id="Trazado_658792" data-name="Trazado 658792" d="M759.419,1181.744a.382.382,0,0,1-.35-.534,34.389,34.389,0,0,1,8.616-11.045c5.6-4.872,15.457-10.385,30.615-8.982a.382.382,0,1,1-.07.761c-14.869-1.377-24.531,4.012-30.016,8.775a34.34,34.34,0,0,0-8.443,10.8A.383.383,0,0,1,759.419,1181.744Z" transform="translate(-745.005 -1087.668)" fill="#363e44"/>
          <g id="Grupo_963880" data-name="Grupo 963880" transform="translate(31.733 78.785)">
            <path id="Trazado_658793" data-name="Trazado 658793" d="M1182.526,1219.029c-5.365-3.507-25.332-21.667-37.095-17.219-11.847,4.48-18.782,16.64-21.215,29.071l.084.135a24.909,24.909,0,0,0,6.821,12.357c4.812,4.54,8.2,3.45,14.026,7.45,9.829,6.752,9.681,16.78,13.8,15.837,2.827-.647,3.166-6.486,2.089-11.893-1.105-5.551-4.156-8.675-3.447-9.272.778-.655,3.467,2.92,7.219,7.059,1.743,1.923,3.277,10.15,7.269,9.835,3.182-.25,3.728-9.2.019-16.092-2.624-4.874-7.635-6.812-7.09-7.663.408-.639,3.366.59,5.6,2.408,3.686,3,5.346,11.4,9.014,11.039,3.594-.354,3.933-8.181.923-14.733-2.537-5.525-8.229-7.419-7.558-8.481.471-.747,3.2-.428,8.446,1.9,4.382,1.946,11.649,8.556,14.37,4.274C1198.091,1231.443,1190.623,1224.321,1182.526,1219.029Z" transform="translate(-1002.322 -1191.256)" fill="#84524d"/>
            <path id="Trazado_658794" data-name="Trazado 658794" d="M832.211,1177.942a30.878,30.878,0,0,0-25.008,20.421c-3.6,10.475-3.257,23.587,12.841,33.833,31.9,20.3,118.408-14.7,118.408-14.7l16.229-32.154C914.949,1175.767,871.062,1172.536,832.211,1177.942Z" transform="translate(-805.342 -1175.329)" fill="#84524d"/>
          </g>
          <g id="Grupo_963881" data-name="Grupo 963881" transform="translate(148.72 64.573)">
            <path id="Trazado_658795" data-name="Trazado 658795" d="M1404.523,1226.705a16.432,16.432,0,0,1-14.883,9.468H1287.231l45.864-98.023h112.862Z" transform="translate(-1220.009 -1138.15)" fill="#e6d0be"/>
            <path id="Trazado_658796" data-name="Trazado 658796" d="M1111.378,1368.835h0a9.888,9.888,0,0,0,9.889,9.888h94.43l4.627-9.888Z" transform="translate(-1111.378 -1280.652)" fill="#e6d0be"/>
          </g>
          <g id="Grupo_963882" data-name="Grupo 963882" transform="translate(330.514 103.097)">
            <path id="Trazado_658797" data-name="Trazado 658797" d="M1632.733,1246.354c-.361,3.676-.963,6.626-7.33,6s-16.088-4.588-15.727-8.264,10.667-5.674,17.034-5.049S1633.094,1242.677,1632.733,1246.354Z" transform="translate(-1600.983 -1238.928)" fill="#84524d"/>
            <path id="Trazado_658798" data-name="Trazado 658798" d="M1598.334,1268.813c.361-3.676,10.667-5.674,17.034-5.049s6.385,3.636,6.024,7.312Z" transform="translate(-1593.983 -1254.2)" fill="#84524d"/>
            <path id="Trazado_658799" data-name="Trazado 658799" d="M1621.376,1279.418c-.36,3.676-.963,6.626-7.33,6s-16.088-4.588-15.728-8.264Z" transform="translate(-1593.967 -1262.542)" fill="#84524d"/>
            <path id="Trazado_658800" data-name="Trazado 658800" d="M1586.977,1293.535c.361-3.677,10.667-5.674,17.034-5.049s6.385,3.635,6.024,7.312Z" transform="translate(-1586.967 -1269.472)" fill="#84524d"/>
            <path id="Trazado_658801" data-name="Trazado 658801" d="M1610.019,1304.14c-.361,3.677-.963,6.626-7.331,6s-16.088-4.588-15.727-8.264Z" transform="translate(-1586.952 -1277.814)" fill="#84524d"/>
            <path id="Trazado_658802" data-name="Trazado 658802" d="M1588.343,1317.61c.287-2.922,8.479-4.51,13.54-4.013s5.075,2.89,4.788,5.812Z" transform="translate(-1587.811 -1284.998)" fill="#84524d"/>
            <path id="Trazado_658803" data-name="Trazado 658803" d="M1606.659,1326.04c-.287,2.922-.766,5.267-5.827,4.77s-12.788-3.647-12.5-6.569Z" transform="translate(-1587.799 -1291.629)" fill="#84524d"/>
          </g>
        </g>
        <g id="Grupo_963887" data-name="Grupo 963887" transform="translate(146.953)">
          <ellipse id="Elipse_6544" data-name="Elipse 6544" cx="6.725" cy="7.902" rx="6.725" ry="7.902" transform="translate(1.023 33.614) rotate(-36.539)" fill="#84524d"/>
          <ellipse id="Elipse_6545" data-name="Elipse 6545" cx="7.902" cy="6.725" rx="7.902" ry="6.725" transform="translate(44.58 37.117) rotate(-59.289)" fill="#84524d"/>
          <path id="Trazado_658804" data-name="Trazado 658804" d="M1062.053,932.757h0A14.126,14.126,0,0,1,1048.59,918l1.309-40.06,28.221,1.294-1.309,40.06A14.126,14.126,0,0,1,1062.053,932.757Z" transform="translate(-1031.047 -841.258)" fill="#84524d"/>
          <path id="Trazado_658805" data-name="Trazado 658805" d="M1059.12,901.368c-22.638,1.338-23.479-36.461-23.479-36.461l40.115-1.357S1081.071,900.071,1059.12,901.368Z" transform="translate(-1023.058 -832.369)" fill="#363e44"/>
          <circle id="Elipse_6546" data-name="Elipse 6546" cx="14.395" cy="14.395" r="14.395" transform="translate(0 21.588) rotate(-45)" fill="#363e44"/>
          <path id="Trazado_658806" data-name="Trazado 658806" d="M1076.78,841.456c.64,12.579-7.52,5.963-18.225,6.508s-19.9,8.044-20.543-4.535,7.519-19.763,18.225-20.308S1076.14,828.877,1076.78,841.456Z" transform="translate(-1024.501 -807.375)" fill="#84524d"/>
          <path id="Trazado_658807" data-name="Trazado 658807" d="M1138.14,868.273a.418.418,0,0,1-.069-.006.382.382,0,0,1-.308-.445,26.509,26.509,0,0,0-.438-11.349.382.382,0,0,1,.74-.194,27.264,27.264,0,0,1,.45,11.68A.382.382,0,0,1,1138.14,868.273Z" transform="translate(-1085.864 -827.701)" fill="#363e44"/>
          <path id="Trazado_658808" data-name="Trazado 658808" d="M1037.366,873a.383.383,0,0,1-.367-.278,27.246,27.246,0,0,1-.691-11.669.382.382,0,1,1,.755.121,26.513,26.513,0,0,0,.672,11.338.383.383,0,0,1-.368.487Z" transform="translate(-1023.263 -830.63)" fill="#363e44"/>
          <path id="Trazado_658809" data-name="Trazado 658809" d="M1091.426,880.671a.382.382,0,0,1-.233-.685,1.664,1.664,0,0,0,.8-1.151,1.37,1.37,0,0,0-.376-.816,3.456,3.456,0,0,1-.672-1.374,3.26,3.26,0,0,1,.145-1.754.382.382,0,0,1,.722.252,2.5,2.5,0,0,0-.118,1.346,2.731,2.731,0,0,0,.543,1.083,2.052,2.052,0,0,1,.52,1.278,2.35,2.35,0,0,1-1.1,1.742A.378.378,0,0,1,1091.426,880.671Z" transform="translate(-1057.184 -839.217)" fill="#363e44"/>
          <path id="Trazado_658810" data-name="Trazado 658810" d="M1076.432,899.6a5.7,5.7,0,0,1-3.1-.894,5.645,5.645,0,0,1-1.787-1.873.382.382,0,0,1,.659-.388,4.876,4.876,0,0,0,1.544,1.618,4.978,4.978,0,0,0,3.064.756.382.382,0,0,1,.06.763C1076.748,899.59,1076.6,899.6,1076.432,899.6Z" transform="translate(-1045.207 -852.573)" fill="#fff"/>
          <path id="Trazado_658811" data-name="Trazado 658811" d="M1031.376,811.439s10.364,1.536,21.112-11.132c0,0,19.961,26.1,35.316-5.374,0,0-8.994,3.969-13.819-2.3-7.677-9.98-26.1-18.041-33.4.384Z" transform="translate(-1020.423 -781.982)" fill="#363e44"/>
          <g id="Grupo_963886" data-name="Grupo 963886" transform="translate(16.866 30.912)">
            <g id="Grupo_963884" data-name="Grupo 963884" transform="translate(19.512)">
              <path id="Trazado_658812" data-name="Trazado 658812" d="M1107.136,862.892h0l-.047,0c-.02.1-.079.226-.181.227a2.956,2.956,0,0,0-.235.549c-.135.287-.57.06-.436-.226.091-.193-.557.2-.844.327-.913.405-1.841.769-2.782,1.1-.438.156-.878.316-1.322.457a11.674,11.674,0,0,1-1.626.5,12.2,12.2,0,0,0-1.776,2.258,12.538,12.538,0,0,0,4.038.692c0-.031.011-.061.014-.092.037-.3,5.167-1.791,5.318-1.568a12.521,12.521,0,0,0,3.292-3.549A12.428,12.428,0,0,0,1107.136,862.892Z" transform="translate(-1097.889 -862.874)" fill="#fff"/>
              <path id="Trazado_658813" data-name="Trazado 658813" d="M1106.223,863.357a10,10,0,0,0-3.682,2.439,4.061,4.061,0,0,0,2.19,2.952,9.383,9.383,0,0,0,3.233-.51,8.925,8.925,0,0,0,2.135-1.127,4.078,4.078,0,0,0-.136-4.248A9.644,9.644,0,0,0,1106.223,863.357Z" transform="translate(-1100.763 -862.847)" fill="#363e44"/>
            </g>
            <g id="Grupo_963885" data-name="Grupo 963885" transform="translate(0 1.514)">
              <path id="Trazado_658814" data-name="Trazado 658814" d="M1050.176,867.161h0l.047-.007c.03.1.1.216.2.208a2.991,2.991,0,0,1,.289.523c.162.272.574,0,.411-.269-.11-.183.574.143.872.24.949.311,1.909.58,2.879.818.452.111.905.226,1.361.321a11.635,11.635,0,0,0,1.667.331,12.165,12.165,0,0,1,1.994,2.068,12.534,12.534,0,0,1-3.948,1.094c-.008-.03-.016-.059-.023-.089-.068-.3-5.321-1.263-5.449-1.025a12.523,12.523,0,0,1-3.632-3.2A12.444,12.444,0,0,1,1050.176,867.161Z" transform="translate(-1046.846 -867.023)" fill="#fff"/>
              <path id="Trazado_658815" data-name="Trazado 658815" d="M1058.707,867.055a10.01,10.01,0,0,1,3.909,2.056,4.061,4.061,0,0,1-1.883,3.158,9.386,9.386,0,0,1-3.268-.182,8.92,8.92,0,0,1-2.237-.906,4.077,4.077,0,0,1-.292-4.24A9.642,9.642,0,0,1,1058.707,867.055Z" transform="translate(-1051.559 -866.809)" fill="#363e44"/>
            </g>
          </g>
        </g>
      </g>
    </g>
  </g>
</svg>
