<svg xmlns="http://www.w3.org/2000/svg" width="55.197" height="55.197" viewBox="0 0 55.197 55.197">
  <g id="storyboard" transform="translate(0)">
    <path id="Trazado_126195" data-name="Trazado 126195" d="M25.6,85.332H75.278V120.29H25.6Zm0,0" transform="translate(-22.841 -76.133)" fill="#0a8651"/>
    <path id="Trazado_126196" data-name="Trazado 126196" d="M25.6,85.332H72.519V120.29H25.6Zm0,0" transform="translate(-22.841 -76.133)" fill="#96cc7f"/>
    <path id="Trazado_126197" data-name="Trazado 126197" d="M60.654,264.535H70.774a.92.92,0,0,1,.92.92v6.44a.92.92,0,0,1-.92.92H60.654a.92.92,0,0,1-.92-.92v-6.44A.92.92,0,0,1,60.654,264.535Zm0,0" transform="translate(-53.294 -236.016)" fill="#78b75b"/>
    <path id="Trazado_126198" data-name="Trazado 126198" d="M9.455,409.6H60.972a.92.92,0,0,1,.92.92v1.84a.92.92,0,0,1-.92.92H9.455a.92.92,0,0,1-.92-.92v-1.84a.92.92,0,0,1,.92-.92Zm0,0" transform="translate(-7.615 -365.444)" fill="#0a8651"/>
    <path id="Trazado_126199" data-name="Trazado 126199" d="M9.455,51.2H60.972a.92.92,0,0,1,.92.92v1.84a.92.92,0,0,1-.92.92H9.455a.92.92,0,0,1-.92-.92v-1.84a.92.92,0,0,1,.92-.92Zm0,0" transform="translate(-7.615 -45.68)" fill="#0a8651"/>
    <path id="Trazado_126200" data-name="Trazado 126200" d="M9.455,409.6H58.212a.92.92,0,0,1,.92.92v1.84a.92.92,0,0,1-.92.92H9.455a.92.92,0,0,1-.92-.92v-1.84a.92.92,0,0,1,.92-.92Zm0,0" transform="translate(-7.615 -365.444)" fill="#169b62"/>
    <path id="Trazado_126201" data-name="Trazado 126201" d="M9.455,51.2H58.212a.92.92,0,0,1,.92.92v1.84a.92.92,0,0,1-.92.92H9.455a.92.92,0,0,1-.92-.92v-1.84a.92.92,0,0,1,.92-.92Zm0,0" transform="translate(-7.615 -45.68)" fill="#169b62"/>
    <path id="Trazado_126202" data-name="Trazado 126202" d="M198.105,8.535h9.2a1.84,1.84,0,0,1,1.84,1.84v2.76h-12.88v-2.76a1.84,1.84,0,0,1,1.84-1.84Zm0,0" transform="translate(-175.106 -7.615)" fill="#169b62"/>
    <path id="Trazado_126203" data-name="Trazado 126203" d="M60.654,119.465H70.774a.92.92,0,0,1,.92.92v6.44a.92.92,0,0,1-.92.92H60.654a.92.92,0,0,1-.92-.92v-6.44A.92.92,0,0,1,60.654,119.465Zm0,0" transform="translate(-53.294 -106.586)" fill="#78b75b"/>
    <path id="Trazado_126204" data-name="Trazado 126204" d="M350.786,119.465h10.12a.92.92,0,0,1,.92.92v6.44a.92.92,0,0,1-.92.92h-10.12a.92.92,0,0,1-.92-.92v-6.44A.92.92,0,0,1,350.786,119.465Zm0,0" transform="translate(-312.149 -106.586)" fill="#78b75b"/>
    <path id="Trazado_126205" data-name="Trazado 126205" d="M75.625,162.77h-7.36l2.961-3.7a.92.92,0,0,1,1.437,0Zm0,0" transform="translate(-60.906 -141.612)" fill="#4caf50"/>
    <path id="Trazado_126206" data-name="Trazado 126206" d="M140.213,120.385v2.3a2.3,2.3,0,0,1-3.22-3.22h2.3A.92.92,0,0,1,140.213,120.385Zm0,0" transform="translate(-121.813 -106.586)" fill="#fec108"/>
    <path id="Trazado_126207" data-name="Trazado 126207" d="M388.6,121.765a2.3,2.3,0,1,1-2.3-2.3A2.3,2.3,0,0,1,388.6,121.765Zm0,0" transform="translate(-342.602 -106.586)" fill="#fec108"/>
    <path id="Trazado_126208" data-name="Trazado 126208" d="M49.75,357.03l10.4-10.4,3.9,3.9-10.4,10.4Zm0,0" transform="translate(-44.386 -309.257)" fill="#fec108"/>
    <path id="Trazado_126209" data-name="Trazado 126209" d="M67.84,375.12l10.4-10.4,1.95,1.95-10.4,10.4Zm0,0" transform="translate(-60.526 -325.397)" fill="#ffa90b"/>
    <path id="Trazado_126210" data-name="Trazado 126210" d="M35.3,447.037l-1.95,1.95a.92.92,0,0,1-1.3,0l-2.6-2.6a.92.92,0,0,1,0-1.3l1.95-1.95Zm0,0" transform="translate(-26.033 -395.363)" fill="#78b75b"/>
    <path id="Trazado_126211" data-name="Trazado 126211" d="M205.72,119.465H215.84a.92.92,0,0,1,.92.92v6.44a.92.92,0,0,1-.92.92H205.72a.92.92,0,0,1-.92-.92v-6.44A.92.92,0,0,1,205.72,119.465Zm0,0" transform="translate(-182.722 -106.586)" fill="#78b75b"/>
    <path id="Trazado_126212" data-name="Trazado 126212" d="M350.786,264.535h10.12a.92.92,0,0,1,.92.92v6.44a.92.92,0,0,1-.92.92h-10.12a.92.92,0,0,1-.92-.92v-6.44A.92.92,0,0,1,350.786,264.535Zm0,0" transform="translate(-312.149 -236.016)" fill="#78b75b"/>
    <path id="Trazado_126213" data-name="Trazado 126213" d="M365.758,307.84H358.4l2.961-3.7a.92.92,0,0,1,1.437,0Zm0,0" transform="translate(-319.761 -271.042)" fill="#4caf50"/>
    <path id="Trazado_126214" data-name="Trazado 126214" d="M430.346,265.454v2.3a2.3,2.3,0,0,1-3.22-3.219h2.3A.92.92,0,0,1,430.346,265.454Zm0,0" transform="translate(-380.668 -236.016)" fill="#fec108"/>
    <path id="Trazado_126215" data-name="Trazado 126215" d="M205.72,264.535H215.84a.92.92,0,0,1,.92.92v6.44a.92.92,0,0,1-.92.92H205.72a.92.92,0,0,1-.92-.92v-6.44A.92.92,0,0,1,205.72,264.535Zm0,0" transform="translate(-182.722 -236.016)" fill="#78b75b"/>
    <path id="Trazado_126216" data-name="Trazado 126216" d="M153.06,320.116l-2.9,5.556-3.9-3.9,5.556-2.9a.92.92,0,0,1,1.242,1.242Zm0,0" transform="translate(-130.493 -284.404)" fill="#fec108"/>
    <path id="Trazado_126217" data-name="Trazado 126217" d="M53.357,4.6h-18.4V2.76A2.76,2.76,0,0,0,32.2,0H23a2.76,2.76,0,0,0-2.76,2.76V4.6H1.84A1.84,1.84,0,0,0,0,6.44V8.28a1.84,1.84,0,0,0,1.84,1.84V44.158a.92.92,0,0,0,.92.92H3.772a.92.92,0,0,0,0-1.84H3.68V10.119H51.517V43.237H21.987a.92.92,0,0,0,0,1.84h31.37v1.84H17.783c-.012,0-.022.006-.034.006a.91.91,0,0,0-.2.042.8.8,0,0,0-.147.04.886.886,0,0,0-.151.1.965.965,0,0,0-.134.1.907.907,0,0,0-.092.137.89.89,0,0,0-.092.166c0,.012-.015.02-.018.032l-2.143,6.44a.918.918,0,1,0,1.742.582l1.935-5.811h8.28l-.048,5.512a.92.92,0,0,0,.912.927H27.6a.92.92,0,0,0,.92-.913l.047-5.527h8.187l1.932,5.811a.92.92,0,0,0,1.746-.582l-1.74-5.229H53.357a1.84,1.84,0,0,0,1.84-1.84v-1.84a1.84,1.84,0,0,0-1.84-1.84V10.119A1.84,1.84,0,0,0,55.2,8.28V6.44a1.84,1.84,0,0,0-1.84-1.84ZM22.079,2.76A.92.92,0,0,1,23,1.84h9.2a.92.92,0,0,1,.92.92V4.6H22.079ZM52.437,8.28H1.84V6.44H53.357V8.28Zm0,0" transform="translate(0 0)"/>
    <path id="Trazado_126218" data-name="Trazado 126218" d="M53.039,121.053H63.159a1.84,1.84,0,0,0,1.84-1.84v-6.44a1.84,1.84,0,0,0-1.84-1.84H53.039a1.84,1.84,0,0,0-1.84,1.84v6.44A1.84,1.84,0,0,0,53.039,121.053Zm1.914-1.84,1.765-2.208,1.766,2.208Zm8.205-4.683a1.37,1.37,0,0,1-1.757-1.757h1.757Zm-3.642-1.757a3.191,3.191,0,0,0,3.642,3.642v2.8H60.84l-3.4-4.255a.953.953,0,0,0-1.437,0l-2.96,3.7v-5.888Zm0,0" transform="translate(-45.679 -98.974)"/>
    <path id="Trazado_126219" data-name="Trazado 126219" d="M198.105,121.053h10.119a1.84,1.84,0,0,0,1.84-1.84v-6.44a1.831,1.831,0,0,0-.729-1.457c-.009-.005-.016-.015-.026-.021a1.821,1.821,0,0,0-1.085-.361H198.105a1.826,1.826,0,0,0-1.084.361c-.011.007-.019.017-.029.024a1.833,1.833,0,0,0-.726,1.455v6.44A1.84,1.84,0,0,0,198.105,121.053Zm10.119-2.675-3.443-2.385,3.443-2.386Zm-2.024.835h-6.072l3.036-2.1Zm-3.036-4.34-3.036-2.1H206.2Zm-1.616,1.12-3.443,2.385v-4.771Zm0,0" transform="translate(-175.107 -98.974)"/>
    <path id="Trazado_126220" data-name="Trazado 126220" d="M343.171,121.053h10.119a1.84,1.84,0,0,0,1.84-1.84v-6.44a1.84,1.84,0,0,0-1.84-1.84H343.171a1.84,1.84,0,0,0-1.84,1.84v6.44A1.84,1.84,0,0,0,343.171,121.053Zm6.44-6.9a1.38,1.38,0,1,1-1.38-1.38A1.38,1.38,0,0,1,349.611,114.154Zm-6.44-1.38h2.163a3.22,3.22,0,1,0,5.794,0h2.163v6.44H343.171Zm0,0" transform="translate(-304.534 -98.974)"/>
    <path id="Trazado_126221" data-name="Trazado 126221" d="M51.2,264.28a1.84,1.84,0,0,0,1.84,1.84h3.772a.92.92,0,0,0,0-1.84H53.039v-6.44H63.159v2.907a.92.92,0,1,0,1.84,0V257.84a1.84,1.84,0,0,0-1.84-1.84H53.039a1.84,1.84,0,0,0-1.84,1.84Zm0,0" transform="translate(-45.679 -228.402)"/>
    <path id="Trazado_126222" data-name="Trazado 126222" d="M196.266,259.284a.92.92,0,0,0,1.84,0v-.61l3.445,2.386-.262.184a.92.92,0,0,0,1.049,1.511l.828-.574,3.036,2.1h-5.667a.92.92,0,1,0,0,1.84h7.69a1.84,1.84,0,0,0,1.84-1.84v-6.44a1.853,1.853,0,0,0-.485-1.222l-.005-.005a2.087,2.087,0,0,0-.163-.178c-.027-.023-.057-.038-.085-.06l-.02-.014a1.822,1.822,0,0,0-1.082-.362H198.106a1.828,1.828,0,0,0-1.071.356c-.017.01-.032.022-.047.033-.032.024-.066.043-.1.07a1.868,1.868,0,0,0-.625,1.381Zm3.864-1.444H206.2l-3.036,2.1Zm8.1.835v4.77l-3.442-2.385Zm0,0" transform="translate(-175.107 -228.402)"/>
    <path id="Trazado_126223" data-name="Trazado 126223" d="M341.332,264.28a1.84,1.84,0,0,0,1.84,1.84h10.12a1.84,1.84,0,0,0,1.84-1.84v-6.44a1.84,1.84,0,0,0-1.84-1.84h-10.12a1.84,1.84,0,0,0-1.84,1.84Zm3.754,0,1.766-2.208,1.765,2.208Zm8.205-4.682a1.371,1.371,0,0,1-1.757-1.757h1.757Zm-3.642-1.757a3.191,3.191,0,0,0,3.642,3.642v2.8h-2.318l-3.4-4.255a.953.953,0,0,0-1.437,0l-2.96,3.7V257.84Zm0,0" transform="translate(-304.534 -228.402)"/>
    <path id="Trazado_126224" data-name="Trazado 126224" d="M52.119,223.707H64.079a.92.92,0,0,0,0-1.84H52.119a.92.92,0,1,0,0,1.84Zm0,0" transform="translate(-45.679 -197.949)"/>
    <path id="Trazado_126225" data-name="Trazado 126225" d="M52.119,368.773h1.012a.92.92,0,0,0,0-1.84H52.119a.92.92,0,1,0,0,1.84Zm0,0" transform="translate(-45.679 -327.376)"/>
    <path id="Trazado_126226" data-name="Trazado 126226" d="M214.6,366.934a.92.92,0,0,0,0,1.84h10.083a.92.92,0,0,0,0-1.84Zm0,0" transform="translate(-190.64 -327.376)"/>
    <path id="Trazado_126227" data-name="Trazado 126227" d="M342.252,368.773h11.959a.92.92,0,0,0,0-1.84H342.252a.92.92,0,1,0,0,1.84Zm0,0" transform="translate(-304.534 -327.376)"/>
    <path id="Trazado_126228" data-name="Trazado 126228" d="M197.186,223.707h11.959a.92.92,0,0,0,0-1.84H197.186a.92.92,0,1,0,0,1.84Zm0,0" transform="translate(-175.107 -197.949)"/>
    <path id="Trazado_126229" data-name="Trazado 126229" d="M342.252,223.707h11.959a.92.92,0,0,0,0-1.84H342.252a.92.92,0,1,0,0,1.84Zm0,0" transform="translate(-304.534 -197.949)"/>
    <path id="Trazado_126230" data-name="Trazado 126230" d="M23.093,323.862l-1.951,1.951a1.839,1.839,0,0,0,0,2.6l2.6,2.6a1.84,1.84,0,0,0,2.6,0l12.359-12.359v-.006a.924.924,0,0,0,.161-.219l2.9-5.558a1.84,1.84,0,0,0-2.484-2.484l-5.557,2.9a.7.7,0,0,0-.1.085.8.8,0,0,0-.12.08l-10.4,10.41Zm1.952,5.856-2.6-2.6,1.3-1.3,2.6,2.6Zm2.6-2.6-2.6-2.6,9.107-9.108,2.6,2.6Zm12.487-15.087-2.316,4.446-2.13-2.13Zm0,0" transform="translate(-18.382 -276.74)"/>
  </g>
</svg>
