<svg xmlns="http://www.w3.org/2000/svg" xmlns:xlink="http://www.w3.org/1999/xlink" width="435" height="351" viewBox="0 0 435 351">
  <defs>
    <clipPath id="clip-path">
      <path id="Trazado_117096" data-name="Trazado 117096" d="M930.009,276.775l-34.625,17.288-61.825,30.876-16.767,8.383-9.087,4.537-.169.085-71.883,35.9a23.671,23.671,0,0,1-26.545-3.712,23.419,23.419,0,0,1-5.193-6.892l-13.746-27.528-.5-.982-.267-.534-10.737-21.511-7.716-15.456-8.807-17.616-10.422-20.879L606.847,168.9a23.675,23.675,0,0,1,10.6-31.75L722.477,84.7l13.054-6.527L811.794,40.09a23.661,23.661,0,0,1,31.75,10.591L940.6,245.025A23.657,23.657,0,0,1,930.009,276.775Z" transform="translate(-604.35 -37.586)" fill="none"/>
    </clipPath>
  </defs>
  <g id="Grupo_963692" data-name="Grupo 963692" transform="translate(-180 -13856.073)">
    <rect id="Rectángulo_34560" data-name="Rectángulo 34560" width="435" height="351" transform="translate(180 13856.073)" fill="none"/>
    <g id="Grupo_92532" data-name="Grupo 92532" transform="translate(211.445 13862.159)">
      <path id="Trazado_117088" data-name="Trazado 117088" d="M930,276.766l-34.626,17.29-16.819,8.41-29.56,14.753-5.075,2.537-3.389,1.695-4.16,2.075-.68.335-1.867.933-.263.136-.562.281-16.2,8.1-9.089,4.54-.172.082-7.9,3.951h-.009l-11.609,5.8L786,348.691l-2.139,1.06-12.995,6.5-35.206,17.58a23.652,23.652,0,0,1-31.735-10.6l-3.244-6.479-1.74-3.507-.372-.725-.516-1.051v-.018l-7.875-15.741-.5-.988-.263-.535L679.1,313.5l-.417-.825-2.139-4.268L676,307.3l-.924-1.858c-.009,0-.009,0-.009-.009l-2.256-4.513-1.758-3.525-.082-.181-1.25-2.492a1.13,1.13,0,0,0-.091-.181l-.9-1.776-2.9-5.818-3.67-7.34-4.748-9.5-.018-.054-5.655-11.328-1.957-3.924-10.295-20.6L606.862,168.9a23.673,23.673,0,0,1,10.6-31.744l49.714-24.821L706,92.933c.009-.009.018-.009.045-.018L714.89,88.5h.009l2.673-1.341,4.912-2.447,4.323-2.157,5.111-2.565,8.917-4.468h.018l6.642-3.308h.018L811.791,40.11a23.648,23.648,0,0,1,31.744,10.584l38.487,77.055,14.318,28.672,5.981,11.98.081.163,11.074,22.166v.009l.5,1,5.51,11.038,1.649,3.28,19.456,38.967A23.655,23.655,0,0,1,930,276.766Z" transform="translate(-581.642 -37.587)" fill="#ffd41c"/>
      <g id="Grupo_92463" data-name="Grupo 92463" transform="translate(22.71 0)">
        <g id="Grupo_92462" data-name="Grupo 92462" clip-path="url(#clip-path)">
          <g id="Grupo_92461" data-name="Grupo 92461" transform="translate(34.687 91.276)">
            <g id="Grupo_92460" data-name="Grupo 92460">
              <g id="Grupo_92458" data-name="Grupo 92458">
                <path id="Trazado_117089" data-name="Trazado 117089" d="M899.491,266.754a128.335,128.335,0,0,1-58.681,107.841c-.266.182-.533.363-.811.521a128.44,128.44,0,0,1-137.225.412,3.236,3.236,0,0,1-.376-.23c-.169-.1-.326-.194-.484-.3-.593-.375-1.187-.763-1.769-1.15q-4.214-2.8-8.2-5.923c-.351-.266-.714-.557-1.066-.847a128.619,128.619,0,0,1-32.471-38.6c-.158-.267-.3-.546-.449-.824a127.77,127.77,0,0,1-8.514-19.488q-1.6-4.7-2.835-9.568c-.714-2.762-1.32-5.548-1.84-8.382a127.12,127.12,0,0,1-1.733-13.165c-.278-3.391-.411-6.831-.411-10.294a128.216,128.216,0,0,1,54.321-104.9q3.525-2.507,7.206-4.759a2.123,2.123,0,0,1,.352-.218q4.4-2.67,9.011-4.978c.254-.133.508-.266.775-.387,2.98-1.478,6.044-2.846,9.156-4.082h.012q3.743-1.507,7.607-2.761a125.658,125.658,0,0,1,24.32-5.4c.7-.1,1.4-.169,2.108-.242q4.342-.473,8.78-.618c1.587-.073,3.186-.1,4.785-.1.739,0,1.465.013,2.2.024h.485a129.77,129.77,0,0,1,13.274.957c2.447.3,4.881.678,7.28,1.126A128.46,128.46,0,0,1,899.491,266.754Z" transform="translate(-642.627 -138.309)" fill="#21155c"/>
              </g>
              <g id="Grupo_92459" data-name="Grupo 92459" transform="translate(32.003 33.574)">
                <path id="Trazado_117090" data-name="Trazado 117090" d="M707.268,218.484l5.971,1.837-5.971,1.837-1.837,5.971-1.837-5.971-5.971-1.837,5.971-1.837,1.837-5.971Z" transform="translate(-679.789 -178.843)" fill="#764cf0"/>
                <path id="Trazado_117091" data-name="Trazado 117091" d="M684.98,243.539l4.356,1.34-4.356,1.34-1.34,4.356-1.34-4.356-4.356-1.34,4.356-1.34,1.34-4.356Z" transform="translate(-677.943 -181.344)" fill="#764cf0"/>
                <path id="Trazado_117092" data-name="Trazado 117092" d="M901.919,270.155l4.356,1.34-4.356,1.34-1.34,4.356-1.34-4.356-4.357-1.34,4.357-1.34,1.34-4.356Z" transform="translate(-698.291 -183.841)" fill="#764cf0"/>
                <path id="Trazado_117093" data-name="Trazado 117093" d="M921.611,291.311l4.859,1.495-4.859,1.495-1.495,4.859-1.495-4.859-4.859-1.495,4.859-1.495,1.495-4.859Z" transform="translate(-700.062 -185.778)" fill="#764cf0"/>
                <path id="Trazado_117094" data-name="Trazado 117094" d="M810.517,180.217l4.859,1.495-4.859,1.495-1.495,4.858-1.495-4.858-4.858-1.495,4.858-1.495,1.495-4.859Z" transform="translate(-689.642 -175.358)" fill="#764cf0"/>
                <path id="Trazado_117095" data-name="Trazado 117095" d="M909.571,313.4l5.962,1.834-5.962,1.834-1.834,5.962-1.834-5.962-5.962-1.834L905.9,313.4l1.834-5.962Z" transform="translate(-698.766 -187.747)" fill="#764cf0"/>
              </g>
            </g>
          </g>
        </g>
      </g>
      <g id="Grupo_92464" data-name="Grupo 92464" transform="translate(144.047 91.873)">
        <path id="Trazado_117097" data-name="Trazado 117097" d="M743,187.787l9.543,5.92,1.811-2.923a2.671,2.671,0,0,1,2.512-1.239,15.694,15.694,0,0,0,1.678.053,2.667,2.667,0,0,1,2.423,1.393l1.625,3.029,9.9-5.309-1.624-3.029a2.665,2.665,0,0,1,.179-2.788,15.675,15.675,0,0,0,.884-1.428,2.671,2.671,0,0,1,2.422-1.407l3.436.11.349-11.225-3.449-.1a2.674,2.674,0,0,1-2.323-1.566q-.175-.372-.372-.739t-.409-.718a2.663,2.663,0,0,1-.021-2.788l1.824-2.944-9.543-5.919-1.818,2.928a2.668,2.668,0,0,1-2.514,1.237,15.822,15.822,0,0,0-1.672-.055,2.67,2.67,0,0,1-2.42-1.393l-1.625-3.03-9.9,5.309,1.625,3.03a2.668,2.668,0,0,1-.179,2.787,15.419,15.419,0,0,0-.879,1.424,2.67,2.67,0,0,1-2.421,1.409l-3.445-.106-.349,11.224,3.446.107a2.669,2.669,0,0,1,2.315,1.561q.177.374.375.744t.409.719a2.673,2.673,0,0,1,.02,2.8Zm7.088-9.5a9.2,9.2,0,1,1,12.452,3.765A9.193,9.193,0,0,1,750.084,178.283Z" transform="translate(-738.246 -98.035)" fill="#764cf0"/>
        <path id="Trazado_117098" data-name="Trazado 117098" d="M837.081,156.345l3.932,6.814,2.085-1.2a1.868,1.868,0,0,1,1.961.066,11.011,11.011,0,0,0,1.019.589,1.868,1.868,0,0,1,1.035,1.662v2.409h7.87v-2.409a1.868,1.868,0,0,1,1.035-1.662,11,11,0,0,0,1.019-.589,1.868,1.868,0,0,1,1.961-.066l2.085,1.2,3.932-6.814-2.094-1.206A1.871,1.871,0,0,1,862,153.4c.009-.192.014-.386.014-.58s-.005-.387-.014-.578a1.866,1.866,0,0,1,.91-1.729l2.1-1.213-3.932-6.814-2.091,1.205a1.871,1.871,0,0,1-1.962-.068,10.956,10.956,0,0,0-1.014-.588,1.869,1.869,0,0,1-1.033-1.661v-2.41h-7.87v2.41a1.869,1.869,0,0,1-1.033,1.661,10.922,10.922,0,0,0-1.014.588,1.871,1.871,0,0,1-1.962.068l-2.091-1.205-3.932,6.814,2.092,1.207a1.871,1.871,0,0,1,.913,1.731c-.01.192-.016.387-.016.583s.006.388.016.58a1.874,1.874,0,0,1-.916,1.736Zm7.522-3.521a6.444,6.444,0,1,1,6.441,6.448A6.438,6.438,0,0,1,844.6,152.824Z" transform="translate(-747.516 -138.968)" fill="#764cf0"/>
        <path id="Trazado_117099" data-name="Trazado 117099" d="M844.192,285.285l3.932,6.815,2.085-1.205a1.869,1.869,0,0,1,1.961.066,10.932,10.932,0,0,0,1.019.589,1.869,1.869,0,0,1,1.034,1.662v2.409h7.87v-2.409a1.869,1.869,0,0,1,1.034-1.662,10.916,10.916,0,0,0,1.019-.589,1.87,1.87,0,0,1,1.96-.066l2.086,1.205,3.932-6.815-2.1-1.206a1.872,1.872,0,0,1-.916-1.735c.01-.192.015-.385.015-.579s0-.387-.015-.579a1.865,1.865,0,0,1,.911-1.728l2.1-1.213-3.932-6.815-2.092,1.206a1.87,1.87,0,0,1-1.961-.069,10.94,10.94,0,0,0-1.015-.587,1.87,1.87,0,0,1-1.032-1.662v-2.409h-7.87v2.409a1.87,1.87,0,0,1-1.032,1.662,10.791,10.791,0,0,0-1.014.587,1.872,1.872,0,0,1-1.962.069l-2.092-1.206-3.932,6.815,2.092,1.206a1.869,1.869,0,0,1,.913,1.731c-.01.193-.014.387-.014.584s0,.387.014.579a1.875,1.875,0,0,1-.915,1.736Zm7.522-3.521a6.444,6.444,0,1,1,6.441,6.448A6.44,6.44,0,0,1,851.714,281.765Z" transform="translate(-748.183 -151.062)" fill="#764cf0"/>
      </g>
      <g id="Grupo_92468" data-name="Grupo 92468" transform="translate(60.029 224.552)">
        <g id="Grupo_92465" data-name="Grupo 92465" transform="translate(0 59.092)">
          <rect id="Rectángulo_34532" data-name="Rectángulo 34532" width="53.654" height="1.933" transform="translate(1.78)" fill="#455a64"/>
          <rect id="Rectángulo_34533" data-name="Rectángulo 34533" width="53.654" height="1.933" transform="translate(1.78 12.391)" fill="#455a64"/>
          <rect id="Rectángulo_34534" data-name="Rectángulo 34534" width="53.654" height="0.674" transform="translate(1.78 13.65)" fill="#37474f"/>
          <rect id="Rectángulo_34535" data-name="Rectángulo 34535" width="57.214" height="3.106" transform="translate(0 14.323)" fill="#455a64"/>
          <rect id="Rectángulo_34536" data-name="Rectángulo 34536" width="48.355" height="10.458" transform="translate(4.43 1.933)" fill="#455a64"/>
          <rect id="Rectángulo_34537" data-name="Rectángulo 34537" width="48.355" height="2.503" transform="translate(4.43 1.933)" fill="#37474f"/>
          <rect id="Rectángulo_34538" data-name="Rectángulo 34538" width="48.355" height="2.503" transform="translate(4.43 9.887)" fill="#37474f"/>
        </g>
        <g id="Grupo_92467" data-name="Grupo 92467" transform="translate(0.812)">
          <path id="Trazado_117100" data-name="Trazado 117100" d="M664.659,293.5s-3.282-4.2-3.155-4.639,8.44-4.228,13.556-3.077,19.609,8.355,22.466,19.865-5.456,28.007-5.67,31.844a16.779,16.779,0,0,0,1.194,7h-4.22a16.9,16.9,0,0,1-.852-10.748c1.406-6.437,5.072-18.629,3.453-25.279s-12.618-15.517-15.9-16.71S664.659,293.5,664.659,293.5Z" transform="translate(-647.842 -285.398)" fill="#263238"/>
          <path id="Trazado_117101" data-name="Trazado 117101" d="M689.718,344.94H655.279s0-8.923,3.41-14.551,11.59-11.425,13.239-14.1a8.721,8.721,0,0,0,1.262-5.341,11.047,11.047,0,0,1-6.321,4.185,13.473,13.473,0,0,1-7.316-.256,60.792,60.792,0,0,0-6.155,2.272,5.518,5.518,0,0,1-2.729,1.584c-1.023.057-4.241-3.423-4.242-6.492,0-2.565,10.949-12.094,10.949-12.094s1.478-3.523,1.876-4.32,10.515-5.627,13.186-5.456,14.4,6.667,18.3,15.119c3.751,8.128-.3,21.068-1.705,26.686C686.99,340.364,689.718,344.94,689.718,344.94Z" transform="translate(-646.428 -285.848)" fill="#455a64"/>
          <path id="Trazado_117102" data-name="Trazado 117102" d="M660.912,305.805l5.806-3.18a6.67,6.67,0,0,0-3.428.083C661.99,303.29,660.912,305.805,660.912,305.805Z" transform="translate(-647.786 -286.979)" fill="#263238"/>
          <g id="Grupo_92466" data-name="Grupo 92466" transform="translate(16.817)">
            <path id="Trazado_117103" data-name="Trazado 117103" d="M669.8,294.113s-4.75-7.744-4.817-8.612c-.043-.554,6.607.9,8.4,2.131a48.132,48.132,0,0,1,5.243,5.038Z" transform="translate(-664.986 -285.38)" fill="#455a64"/>
            <path id="Trazado_117104" data-name="Trazado 117104" d="M667.319,287.28s3.309.982,3.958,1.742a31.1,31.1,0,0,1,1.956,3.033" transform="translate(-665.205 -285.558)" fill="#263238"/>
          </g>
          <path id="Trazado_117105" data-name="Trazado 117105" d="M656.293,347.825l32.94-3.435a13.435,13.435,0,0,0,1.4,5.615H656.2Z" transform="translate(-647.344 -290.915)" fill="#37474f"/>
        </g>
      </g>
      <g id="Grupo_92513" data-name="Grupo 92513" transform="translate(102.472 69.194)">
        <g id="Grupo_92476" data-name="Grupo 92476" transform="translate(38.86 170.265)">
          <g id="Grupo_92475" data-name="Grupo 92475">
            <g id="Grupo_92471" data-name="Grupo 92471">
              <g id="Grupo_92470" data-name="Grupo 92470">
                <path id="Trazado_117106" data-name="Trazado 117106" d="M828.761,301.83s-.109.435-.326,1.26c-.027.091-.054.19-.082.29s-.054.208-.082.317c-.072.29-.154.6-.245.952-.072.281-.154.58-.236.906s-.172.662-.263,1.024a.521.521,0,0,0-.036.127c-.091.344-.19.707-.29,1.1s-.208.788-.308,1.214c-.154.544-.3,1.124-.462,1.731-.082.335-.172.68-.263,1.033-.109.4-.218.816-.326,1.242-.036.136-.072.263-.1.4-.181.689-.372,1.4-.562,2.148a2.716,2.716,0,0,0-.072.29c-.082.29-.154.589-.236.888-.154.6-.317,1.214-.48,1.849-.118.453-.245.924-.362,1.4-.29,1.115-.6,2.275-.906,3.48q-.557,2.148-1.16,4.458c-.979,3.77-2.048,7.857-3.172,12.189-.181.68-.362,1.377-.544,2.075-.136.553-.281,1.106-.426,1.667-.018.063-.036.136-.054.208-1.042,4.014-2.139,8.21-3.262,12.551-.335,1.287-.671,2.583-1.015,3.9s-.68,2.628-1.024,3.96c-.19.725-.381,1.459-.571,2.193l-11.608,5.8-2.012,1.006-2.139,1.06-12.995,6.5-35.206,17.58a23.559,23.559,0,0,1-12.687,2.4c4.631-15.6,9.4-31.328,13.747-45.519,1.414-4.631,2.791-9.107,4.1-13.357.145-.462.281-.915.426-1.368.2-.662.4-1.314.607-1.957.063-.218.127-.444.2-.652.462-1.513.915-2.981,1.359-4.422a.032.032,0,0,0,.009-.018c.607-1.966,1.2-3.879,1.767-5.709q.72-2.311,1.386-4.459c1.613-5.211,3.009-9.678,4.105-13.176a.142.142,0,0,1,.018-.073.513.513,0,0,0,.036-.109c.063-.227.136-.453.208-.671.788-2.546,1.414-4.513,1.821-5.827.381-1.223.589-1.867.589-1.867Z" transform="translate(-735.25 -301.83)" fill="#37474f"/>
                <g id="Grupo_92469" data-name="Grupo 92469" transform="translate(63.026 15.814)">
                  <path id="Trazado_117107" data-name="Trazado 117107" d="M821.945,322.18c-.281.979-.553,1.948-.825,2.927q-.639,2.229-1.26,4.458c-.879,3.09-1.758,6.189-2.664,9.27-.589,2.012-1.178,4.014-1.767,6.026q-3.942,13.444-7.92,26.887c-.236.788-.462,1.568-.7,2.356l-2.012,1.006q3.439-11.309,6.914-22.619c.8-2.583,1.586-5.156,2.383-7.73q1.319-4.255,2.646-8.5c.7-2.238,1.441-4.468,2.184-6.7q.734-2.229,1.441-4.458c.5-1.568.97-3.126,1.414-4.7C822.39,318.229,822.725,319.425,821.945,322.18Z" transform="translate(-804.8 -319.281)" fill="#263238"/>
                </g>
              </g>
              <path id="Trazado_117108" data-name="Trazado 117108" d="M832.647,301.83s-.109.435-.326,1.26c-.027.091-.054.19-.082.29s-.054.208-.082.317c-.072.29-.154.6-.245.952-.072.281-.154.58-.235.906s-.172.662-.263,1.024a.521.521,0,0,0-.036.127c-.091.344-.19.707-.29,1.1s-.208.788-.308,1.214c-.154.544-.3,1.124-.462,1.731-.082.335-.172.68-.263,1.033-.109.4-.218.816-.326,1.242-.036.136-.073.263-.1.4-.181.689-.371,1.4-.562,2.148a2.687,2.687,0,0,0-.073.29c-.082.29-.154.589-.236.888-.154.6-.317,1.214-.48,1.849-.118.453-.245.924-.363,1.4-.29,1.115-.6,2.275-.906,3.48q-.557,2.148-1.16,4.458c-.979,3.77-2.048,7.857-3.172,12.189-.181.68-.362,1.377-.544,2.075-.136.553-.281,1.106-.426,1.667H821.7c-.009.063-.027.136-.045.208-1.042,4.014-2.139,8.21-3.262,12.551-.335,1.287-.671,2.583-1.015,3.9s-.68,2.628-1.024,3.96c-.181.725-.372,1.459-.562,2.193h-.009l-11.608,5.8-2.012,1.006-2.139,1.06-12.995,6.5c-.734-5.618-1.468-11.219-2.2-16.729v-.009c-.054-.453-.118-.888-.172-1.341-.018-.136-.036-.254-.054-.39v-.009q-.38-2.923-.752-5.818c-.118-.852-.227-1.695-.335-2.546-.489-3.734-.979-7.4-1.441-11l-.3-2.284c-.082-.634-.172-1.26-.245-1.885v-.009c-.109-.807-.218-1.595-.317-2.392v-.009c-.39-2.936-.761-5.809-1.133-8.609a.2.2,0,0,0-.009-.073c-.19-1.513-.39-3-.58-4.458-.036-.317-.082-.625-.118-.933-.807-6.18-1.55-11.917-2.22-17.073a.305.305,0,0,1-.009-.091c-.082-.607-.163-1.205-.236-1.794s-.154-1.178-.226-1.749Z" transform="translate(-739.136 -301.83)" fill="#263238"/>
            </g>
            <g id="Grupo_92474" data-name="Grupo 92474" transform="translate(32.424)">
              <g id="Grupo_92472" data-name="Grupo 92472">
                <path id="Trazado_117109" data-name="Trazado 117109" d="M859.548,344.539l-3.389,1.695L852,348.309l-.68.335-1.867.933-.263.136-.562.281-16.2,8.1-9.089,4.54-.172.082-7.9,3.951h-.009l-11.609,5.8-2.012,1.006-2.139,1.06c-.045-1.45-.072-2.474-.091-3.009-.009-.281-.009-.426-.009-.426-.381-.236-.752-.462-1.133-.689-2.6-1.559-4.975-2.891-7.059-4-.236-.127-.471-.245-.7-.362-2.646-1.387-4.8-2.4-6.38-3.1-1.885-.834-2.927-1.205-2.927-1.205-.072-.2-.136-.4-.2-.6-.571-1.686-1.106-3.425-1.6-5.193-.979-3.389-1.849-6.905-2.619-10.449q-.557-2.515-1.033-5.048c-.825-4.25-1.513-8.464-2.075-12.46a.225.225,0,0,1-.009-.073c-.027-.118-.036-.236-.054-.353-.2-1.4-.381-2.773-.553-4.105-.571-4.468-.988-8.527-1.3-11.9-.426-4.622-.625-7.938-.7-9.189-.018-.362-.027-.553-.027-.553h86.017S858.125,319.655,859.548,344.539Z" transform="translate(-771.03 -301.83)" fill="#37474f"/>
                <path id="Trazado_117110" data-name="Trazado 117110" d="M860.111,347.043c.036.788.063,1.568.091,2.356l-.68.335c-.027-.906-.054-1.821-.082-2.737q-.476-16.652-.96-33.312c-.018-.335.507-.308.516.027Q859.54,330.378,860.111,347.043Z" transform="translate(-779.232 -302.92)" fill="#263238"/>
              </g>
              <g id="Grupo_92473" data-name="Grupo 92473" transform="translate(6.381 58.079)">
                <path id="Trazado_117111" data-name="Trazado 117111" d="M778.765,365.961a138.155,138.155,0,0,1,21.29,11.151.246.246,0,0,1-.223.439c-7.184-3.491-14.52-6.852-21.5-10.733A.481.481,0,0,1,778.765,365.961Z" transform="translate(-778.072 -365.92)" fill="#263238"/>
              </g>
              <path id="Trazado_117112" data-name="Trazado 117112" d="M778.348,337.676c.492,2.647,1.135,5.267,1.706,7.9.536,2.468.931,4.987,1.583,7.427a12.646,12.646,0,0,0,3.46,6.226c.969.9,2.035,1.7,3.068,2.521.556.444,1.158.872,1.736,1.321-.075-.349-.136-.705-.2-1.065q-.264-1.5-.515-3.013-.561-3.344-1.072-6.7c-.672-4.392-1.29-8.831-2.207-13.179a.141.141,0,0,1,.274-.069c1.095,4.309,2.3,8.572,3.255,12.918.468,2.131,2.136,12.653,2.21,13.4.076.769.14,1.541.167,2.313a9.2,9.2,0,0,1,0,2.362c-.045.192-.276.161-.358.031l-.012.008a9.283,9.283,0,0,1-.669-2.287c-.193-.75-.362-1.512-.5-2.275-.049-.275-.088-.558-.127-.84-1.036-.63-2-1.463-2.97-2.164-1.044-.756-2.109-1.493-3.1-2.324a11.854,11.854,0,0,1-3.779-5.9,43.044,43.044,0,0,1-1.24-7.561c-.334-2.99-.579-6-1-8.976C778.048,337.568,778.314,337.495,778.348,337.676Z" transform="translate(-771.69 -305.182)" fill="#263238"/>
            </g>
          </g>
        </g>
        <g id="Grupo_92512" data-name="Grupo 92512" transform="translate(0 0)">
          <g id="Grupo_92480" data-name="Grupo 92480" transform="translate(13.843 78.638)">
            <g id="Grupo_92477" data-name="Grupo 92477" transform="translate(1.44 0.672)">
              <path id="Trazado_117113" data-name="Trazado 117113" d="M794.53,209.524c-2.807,11.5-33.28,73.733-33.047,77.627.054.916,18.431,13.258,18.883,14.711,1.835,5.918-28.414,30.978-35.026,32.468-19.462,4.387-36.447,3.473-36.1-12.491.542-25.054,44.577-87.094,67.14-109.021C791.232,198.384,797.3,198.181,794.53,209.524Z" transform="translate(-709.233 -201.461)" fill="#ffe1c2"/>
            </g>
            <path id="Trazado_117114" data-name="Trazado 117114" d="M737.787,337.229l35.788-44.882s-10.684-3.86-10.92-6.355S788.3,230.254,793.9,214.6s1.255-18.9-15.517-5.471-79.036,100.426-69.81,119.795C714.931,342.278,737.787,337.229,737.787,337.229Z" transform="translate(-707.644 -200.719)" fill="#d1c3fa"/>
            <g id="Grupo_92479" data-name="Grupo 92479" transform="translate(13.38 85.555)">
              <g id="Grupo_92478" data-name="Grupo 92478">
                <path id="Trazado_117115" data-name="Trazado 117115" d="M764.023,295.134a24.8,24.8,0,0,0-4.6,1.709c-1.5.65-2.989,1.333-4.472,2.024-2.914,1.358-5.83,2.762-8.647,4.313s-5.567,3.205-8.284,4.9c-.635.4-1.275.8-1.913,1.2-.257.084-.513.172-.767.261-1.075.376-2.14.786-3.175,1.262a50.447,50.447,0,0,0-5.8,3.193.123.123,0,0,0,.132.208,44.348,44.348,0,0,1,6.039-2.831c.271-.105.547-.2.819-.3-1.085.731-2.152,1.485-3.169,2.294a83.641,83.641,0,0,0-7.747,6.868c-.112.113.067.277.18.168,4.433-4.3,10.024-7.4,15.367-10.413,5.534-3.125,10.922-6.507,16.468-9.606q2.384-1.332,4.829-2.544a51.139,51.139,0,0,0,4.869-2.422C764.32,295.318,764.193,295.1,764.023,295.134Z" transform="translate(-722.409 -295.13)" fill="#263238"/>
              </g>
            </g>
          </g>
          <g id="Grupo_92483" data-name="Grupo 92483" transform="translate(54.717 71.636)">
            <g id="Grupo_92482" data-name="Grupo 92482" transform="translate(0.004)">
              <g id="Grupo_92481" data-name="Grupo 92481">
                <path id="Trazado_117116" data-name="Trazado 117116" d="M862.909,331.793l-5.075,2.537-3.389,1.695c-1.3-.091-2.719-.181-4.25-.281-.218-.009-.444-.027-.671-.045-7.956-.517-18.668-1.242-30.059-2.048h-.009c-2.936-.208-5.918-.417-8.908-.634-.444-.027-.888-.063-1.332-.1-7.385-.535-14.807-1.078-21.731-1.6-.743-.054-1.477-.118-2.2-.172l-.725-.054c-1.722-.127-3.4-.263-5.029-.39l-.725-.054-.263-.027c-.4-.027-.8-.063-1.187-.091-.317-.027-.634-.054-.942-.072-.807-.064-1.6-.136-2.383-.2-2.139-.172-4.168-.335-6.062-.5-.19-.018-.381-.036-.562-.045-3.9-.335-7.2-.634-9.669-.9h-.009c-.426-.045-.825-.082-1.2-.118-.208-.027-.408-.054-.6-.072a1,1,0,0,0-.163-.018,12.949,12.949,0,0,1-2.981-.5,11.816,11.816,0,0,1,.507-3.362.169.169,0,0,0,.018-.064c.208-.942.471-2.057.788-3.326.263-1.069.562-2.256.888-3.552.208-.806.435-1.658.661-2.555v-.009c.335-1.26.7-2.583,1.078-3.987v-.009c1.35-4.993,2.991-10.865,4.839-17.254q.884-3.086,1.84-6.325c.1-.344.2-.689.308-1.033,3.244-11.019,6.96-23.126,10.748-34.825,2.755-8.491,5.555-16.765,8.246-24.25a.322.322,0,0,0,.036-.1,248.857,248.857,0,0,1,10.15-24.866c.109-.217.208-.426.317-.625.045-.082.091-.172.136-.254s.081-.154.118-.236c.081-.154.163-.308.236-.453a37.829,37.829,0,0,1,2.066-3.444q.177-.258.353-.489c.109-.154.218-.3.335-.435q.19-.245.381-.462c1.232-1.4,5.31-2.827,10.131-3.135a25.934,25.934,0,0,1,9.624,1.1,17.815,17.815,0,0,1,2.211.879,15.877,15.877,0,0,1,4.214,2.836c.054.045.1.1.154.154.1.091.2.181.3.29.245.236.48.48.716.734,6.271,6.6,11.826,17.843,16.457,30.158q.911,2.42,1.776,4.875v.009c.045.136.091.263.136.4a2.017,2.017,0,0,1,.073.217c0,.009.009,0,.009,0a327.3,327.3,0,0,1,12.551,48.618C858.4,303.239,861.857,323.012,862.909,331.793Z" transform="translate(-752.752 -192.992)" fill="#d1c3fa"/>
              </g>
            </g>
            <path id="Trazado_117117" data-name="Trazado 117117" d="M784.715,223.823c.053-.179-.238-.3-.31-.122-1.8,4.488-3.471,9.025-5.1,13.578.074-.652.145-1.306.195-1.961.133-1.725.114-3.458.271-5.183.016-.163-.249-.161-.257.006-.086,1.782-.422,3.534-.684,5.3-.236,1.588-.452,3.177-.72,4.76-.047.278-.089.559-.135.837-2.642,7.584-5.13,15.224-7.55,22.88-4.306,13.625-8.243,27.372-11.983,41.162-2.108,7.775-3.954,15.611-5.691,23.474a.129.129,0,0,0,.25.063c4.044-13.645,7.953-27.331,11.981-40.982,3.706-12.561,7.606-25.066,11.556-37.552a.143.143,0,0,0,.2-.1q.436-1.626.845-3.242C780.006,239.114,782.449,231.5,784.715,223.823Z" transform="translate(-752.748 -195.864)" fill="#263238"/>
          </g>
          <path id="Trazado_117118" data-name="Trazado 117118" d="M798.222,201.671a.041.041,0,0,1,.081.014c-.646,4.93-1.819,16.383,5.993,16.217,3.146-.067,6.132-1.823,8.645-3.573a43.793,43.793,0,0,0,7.048-6.231,64.214,64.214,0,0,0,6.723-8.157c.082-.124.268.024.18.148-2.049,2.9-3.8,5.938-6.129,8.643a38.075,38.075,0,0,1-7.616,6.908c-2.683,1.791-5.854,3.531-9.175,3.443a6.278,6.278,0,0,1-6.045-5.157A27.729,27.729,0,0,1,798.222,201.671Z" transform="translate(-702.216 -122.004)" fill="#263238"/>
          <g id="Grupo_92491" data-name="Grupo 92491" transform="translate(113.482)">
            <g id="Grupo_92485" data-name="Grupo 92485" transform="translate(3.427 61.572)">
              <g id="Grupo_92484" data-name="Grupo 92484">
                <path id="Trazado_117119" data-name="Trazado 117119" d="M836.628,220.978c26.542,19.741,57.4,30.5,70.136,25.508,9.913-3.888,42-33.271,47.251-57.016,1.159-5.242-39.092-9.83-40.67-6.4-4.643,10.113-22.8,27.657-24.639,27.4-2.42-.337-29.883-6.214-51.562-11.318C810.981,193,822.1,210.175,836.628,220.978Z" transform="translate(-821.377 -181.886)" fill="#ffe1c2"/>
              </g>
            </g>
            <g id="Grupo_92489" data-name="Grupo 92489" transform="translate(81.345)">
              <path id="Trazado_117120" data-name="Trazado 117120" d="M970.681,177.5c-2.1,8.511-13.211,24.236-17.35,27s-31.5-15.233-31.892-20.325,8.908-33.2,16.012-38.638S972.86,168.685,970.681,177.5Z" transform="translate(-908.679 -116.841)" fill="#ffe1c2"/>
              <g id="Grupo_92486" data-name="Grupo 92486" transform="translate(0 20.955)">
                <path id="Trazado_117121" data-name="Trazado 117121" d="M920.862,178.379s-1.432-11.314-5.947-20.289c-3.8-7.546-10.288-18.322-6.307-20.516,8.174-4.5,24.352,22.376,24.352,22.376s5.233,13.006-2.469,18.185A9.216,9.216,0,0,1,920.862,178.379Z" transform="translate(-907.36 -137.065)" fill="#ffe1c2"/>
              </g>
              <g id="Grupo_92488" data-name="Grupo 92488" transform="translate(17.793)">
                <path id="Trazado_117122" data-name="Trazado 117122" d="M928.727,153.2c3.367,3.2,5.817.27,5.817.27s-4.942,7.535-1.75,11.558c3.086,3.869,8.268-1.353,8.644-1.722-.257.4-4.617,7.444-.994,11.155,3.769,3.854,8.072-2.28,8.348-2.678-.125.455-1.672,6.5,1.722,8.693,5.834,3.767,10.215-11.579,15.241-14.1,0,0,5.247,8.028,5.448,8.229,0,0,4.468-14.515.687-21.1a4.85,4.85,0,0,0-5.623-2.3s1.957-4.52-.8-7.532c-1.421-1.542-5.153-.642-5.153-.642s1.416-3.686-1.206-6.212c-2.087-2.023-5.505-.8-5.505-.8s13.744-18.115,9.626-21.478c-7.093-5.792-31.164,32.948-35.184,33.356C926.047,148.09,927.26,151.8,928.727,153.2Z" transform="translate(-926.995 -113.942)" fill="#ffe1c2"/>
                <g id="Grupo_92487" data-name="Grupo 92487" transform="translate(7.233 22.055)">
                  <path id="Trazado_117123" data-name="Trazado 117123" d="M953.778,138.4a.065.065,0,0,0-.063-.114c-7.563,3.735-14.728,10.157-18.686,17.663-.13.246,0,1.534.165,1.268C939.26,150.554,946.484,143.583,953.778,138.4Z" transform="translate(-934.976 -138.279)" fill="#263238"/>
                  <path id="Trazado_117124" data-name="Trazado 117124" d="M961.828,145.889c.08-.055-.013-.188-.106-.141-7.771,3.891-15.643,11.346-19.186,20.535-.121.315.085.72.253.368C945.608,160.718,955.239,150.52,961.828,145.889Z" transform="translate(-935.682 -138.979)" fill="#263238"/>
                  <path id="Trazado_117125" data-name="Trazado 117125" d="M950.987,176.362c3.738-8.68,9.882-15.288,17.169-21.168.1-.077-.023-.2-.12-.16-4.348,1.9-8.6,6.137-11.634,9.71a24.922,24.922,0,0,0-5.719,11.487C950.649,176.4,950.908,176.546,950.987,176.362Z" transform="translate(-936.449 -139.85)" fill="#263238"/>
                </g>
                <path id="Trazado_117126" data-name="Trazado 117126" d="M934.8,157.583c-.155.3.858.108.714.41-1.563,3.277-4.074,9.278-1.7,11.154,1.909,1.5,5.249-.025,6.3-1.115l2.647-2.738-1.534,3.492a15.609,15.609,0,0,0-1.3,4.878,5.575,5.575,0,0,0,1.206,4.4,3.185,3.185,0,0,0,3.935.759,9.629,9.629,0,0,0,3.487-3.336l2.5-3.754-1.133,4.347a14.639,14.639,0,0,0-.478,3.706,6.026,6.026,0,0,0,.87,3.371,2.869,2.869,0,0,0,2.752,1.251,6.346,6.346,0,0,0,3.007-1.885,49.861,49.861,0,0,0,4.822-6.161c.768-1.074,1.539-2.153,2.361-3.2a9.423,9.423,0,0,1,2.9-2.694,10.139,10.139,0,0,0-2.607,2.911c-.733,1.091-1.415,2.218-2.1,3.348a42.473,42.473,0,0,1-4.6,6.552,7.412,7.412,0,0,1-3.534,2.373,4.067,4.067,0,0,1-4.131-1.688,7.377,7.377,0,0,1-1.193-4.153,16.032,16.032,0,0,1,.472-4.135l1.37.593a11.06,11.06,0,0,1-4.081,3.983,4.614,4.614,0,0,1-3.093.432,5.213,5.213,0,0,1-2.651-1.579,7.035,7.035,0,0,1-1.529-5.563,16.918,16.918,0,0,1,1.511-5.344l1.113.755c-1.385,1.338-4.932,3.451-8.185,1.5C929.079,167.269,933.83,159.028,934.8,157.583Z" transform="translate(-927.413 -118.035)" fill="#263238"/>
              </g>
            </g>
            <g id="Grupo_92490" data-name="Grupo 92490" transform="translate(0 67.709)">
              <path id="Trazado_117127" data-name="Trazado 117127" d="M907.234,188.659l39.719,24.587s-29,37.3-48.013,37.731-62.784-20.226-76.66-35.548c-12.017-13.27,1.444-20.207,13.9-16.553s51.436,11.349,52.534,10.8S907.234,188.659,907.234,188.659Z" transform="translate(-817.596 -188.659)" fill="#d1c3fa"/>
              <path id="Trazado_117128" data-name="Trazado 117128" d="M948.469,221.551a39.907,39.907,0,0,0-4.237-2.982c-1.527-1.049-3.051-2.1-4.585-3.145-2.942-2-6-3.835-9.036-5.684-6.175-3.761-12.339-7.638-18.79-10.912-.123-.063-.274.115-.151.207,5.724,4.25,11.843,8,17.873,11.793,3.006,1.894,6.012,3.808,9.1,5.572,1.542.882,3.1,1.73,4.656,2.591a44.882,44.882,0,0,0,5.045,2.735C948.448,221.768,948.57,221.642,948.469,221.551Z" transform="translate(-826.415 -189.612)" fill="#263238"/>
              <path id="Trazado_117129" data-name="Trazado 117129" d="M850.851,238.314c-.59-.623-7.918-4.244-14.848-4.765a.129.129,0,0,0-.062.25c1.959.556,3.828,1.352,5.763,1.985.391.128.789.238,1.182.362-.344-.021-.689-.044-1.034-.06q-1.657-.076-3.317-.165c-.112-.006-.122.161-.021.19a15.393,15.393,0,0,0,3.289.571,14.423,14.423,0,0,0,2.507-.1c.077.022.153.05.23.071.846.229,5.336,1.843,6.212,1.916C850.89,238.581,850.931,238.4,850.851,238.314Z" transform="translate(-819.307 -192.869)" fill="#263238"/>
            </g>
          </g>
          <g id="Grupo_92505" data-name="Grupo 92505" transform="translate(81.087 9.295)">
            <g id="Grupo_92503" data-name="Grupo 92503">
              <g id="Grupo_92493" data-name="Grupo 92493" transform="translate(13.619 42.643)">
                <g id="Grupo_92492" data-name="Grupo 92492">
                  <path id="Trazado_117130" data-name="Trazado 117130" d="M804.2,209.916c5.55.933,15.537-8.807,18.8-15.82.22-.482-.813-5.326-1.79-11.271-.579-3.61-1.138-7.644-1.384-11.361-.046-.763-2.552.81-2.552.81l-4.734,1.479-15.656,4.911s2.8,7.641,3.192,14.125a8.329,8.329,0,0,1-.06,1.536c0,.071-.018.157-.017.255C799.71,197.509,798.832,209.011,804.2,209.916Z" transform="translate(-796.876 -171.256)" fill="#ffe1c2"/>
                </g>
                <path id="Trazado_117131" data-name="Trazado 117131" d="M800.008,194.514c0,.071-.018.157-.017.255a14.668,14.668,0,0,0,2.405-.031c15.676-1.383,16.323-21.473,16.323-21.473l-6.187.678-15.656,4.911s2.8,7.641,3.192,14.125A8.329,8.329,0,0,1,800.008,194.514Z" transform="translate(-796.876 -171.444)" fill="#263238"/>
              </g>
              <g id="Grupo_92502" data-name="Grupo 92502">
                <path id="Trazado_117132" data-name="Trazado 117132" d="M792.93,132.317s-7.593,2.937-9.155,10.539-.013,15.652.637,16.059S792.93,132.317,792.93,132.317Z" transform="translate(-781.965 -124.96)" fill="#26d19e"/>
                <g id="Grupo_92494" data-name="Grupo 92494" transform="translate(0.992 4.547)">
                  <path id="Trazado_117133" data-name="Trazado 117133" d="M823.336,143.4c2.2,8.378-3.1,32.123-9.2,37.225-8.838,7.4-22.843,7.592-29.01-2.926-5.978-10.195,1.483-41.018,8.249-45.607C803.343,125.337,820.081,131.03,823.336,143.4Z" transform="translate(-782.942 -129.216)" fill="#ffe1c2"/>
                </g>
                <path id="Trazado_117134" data-name="Trazado 117134" d="M818.031,185.719c.005,0,.006-.008,0-.008" transform="translate(-785.241 -129.968)" fill="none" stroke="#dc6a57" stroke-linecap="round" stroke-linejoin="round" stroke-width="0"/>
                <g id="Grupo_92500" data-name="Grupo 92500" transform="translate(6.521 23.534)">
                  <g id="Grupo_92495" data-name="Grupo 92495" transform="translate(12.877 8.427)">
                    <path id="Trazado_117135" data-name="Trazado 117135" d="M803.714,161.006c.024-.058.11.1.094.168-.379,1.595-.545,3.486.8,4.315.042.025.02.105-.032.087C802.854,164.964,803.1,162.456,803.714,161.006Z" transform="translate(-803.253 -159.611)" fill="#263238"/>
                    <path id="Trazado_117136" data-name="Trazado 117136" d="M805.5,159.479c2.623.332,1.766,5.552-.663,5.245C802.45,164.421,803.306,159.2,805.5,159.479Z" transform="translate(-803.267 -159.468)" fill="#263238"/>
                  </g>
                  <g id="Grupo_92496" data-name="Grupo 92496" transform="translate(0.213 6.059)">
                    <path id="Trazado_117137" data-name="Trazado 117137" d="M793.154,159.035c0-.063-.139.056-.148.122-.214,1.626-.732,3.452-2.284,3.748-.048.01-.057.092,0,.093C792.548,163.04,793.212,160.609,793.154,159.035Z" transform="translate(-789.41 -157.058)" fill="#263238"/>
                    <path id="Trazado_117138" data-name="Trazado 117138" d="M791.855,156.907c-2.568-.623-3.628,4.559-1.248,5.137C792.949,162.613,794.008,157.43,791.855,156.907Z" transform="translate(-789.278 -156.855)" fill="#263238"/>
                  </g>
                  <path id="Trazado_117139" data-name="Trazado 117139" d="M808.042,156.794a20.664,20.664,0,0,1-1.906-1.044,3.51,3.51,0,0,1-1.74-1.435,1.12,1.12,0,0,1,.4-1.308,2.776,2.776,0,0,1,2.806.17,4.073,4.073,0,0,1,2.032,2.12A1.193,1.193,0,0,1,808.042,156.794Z" transform="translate(-790.476 -150.405)" fill="#26d19e"/>
                  <path id="Trazado_117140" data-name="Trazado 117140" d="M790.245,153.32a20.293,20.293,0,0,0,2.163-.2,3.5,3.5,0,0,0,2.168-.623,1.118,1.118,0,0,0,.158-1.357,2.774,2.774,0,0,0-2.641-.961,4.068,4.068,0,0,0-2.709,1.134A1.193,1.193,0,0,0,790.245,153.32Z" transform="translate(-789.043 -150.168)" fill="#26d19e"/>
                  <path id="Trazado_117141" data-name="Trazado 117141" d="M802.318,177.233c-.45.315-.922.773-1.516.727a4.335,4.335,0,0,1-1.672-.692.057.057,0,0,0-.083.072,2.206,2.206,0,0,0,1.908,1.214,1.745,1.745,0,0,0,1.507-1.222C802.5,177.242,802.383,177.188,802.318,177.233Z" transform="translate(-789.981 -152.706)" fill="#263238"/>
                  <g id="Grupo_92498" data-name="Grupo 92498" transform="translate(2.206 0.699)">
                    <g id="Grupo_92497" data-name="Grupo 92497">
                      <path id="Trazado_117142" data-name="Trazado 117142" d="M800.7,169.649a5.582,5.582,0,0,1-4.078,1.847,7.008,7.008,0,0,1-2-.235,1.985,1.985,0,0,1-.372-.105c-.115-.034-.219-.065-.345-.112a.41.41,0,0,1-.265-.416l0-.012a.785.785,0,0,1,.043-.162l0-.013.026-.141c.17-1.251.6-3.124.6-3.124-.492.153-2.983.816-2.839.171,1.2-5.332,2.544-11.262,4.869-16.314a.152.152,0,0,1,.289.09c-.955,5.171-2.814,10.139-3.856,15.318a9.765,9.765,0,0,1,2.729-.363c.169.081-.9,3.607-.93,4.175a.207.207,0,0,0,0,.062c2.048.61,3.729.237,5.99-.835C800.711,169.406,800.821,169.535,800.7,169.649Z" transform="translate(-791.477 -150.939)" fill="#263238"/>
                    </g>
                  </g>
                  <g id="Grupo_92499" data-name="Grupo 92499" transform="translate(6.196 19.362)">
                    <path id="Trazado_117143" data-name="Trazado 117143" d="M795.881,172.682a6.629,6.629,0,0,0,2.283,2.456,2.979,2.979,0,0,0,1.767.4c1.347-.128,1.574-1.308,1.5-2.361a7.1,7.1,0,0,0-.324-1.647A8.577,8.577,0,0,1,795.881,172.682Z" transform="translate(-795.881 -171.535)" fill="#263238"/>
                    <path id="Trazado_117144" data-name="Trazado 117144" d="M798.4,175.308a2.979,2.979,0,0,0,1.767.4c1.347-.128,1.574-1.308,1.5-2.361A3.079,3.079,0,0,0,798.4,175.308Z" transform="translate(-796.117 -171.705)" fill="#ff98b9"/>
                  </g>
                </g>
                <path id="Trazado_117145" data-name="Trazado 117145" d="M819.429,162.127c-4.88,0-4.332-21.58-4.332-21.58a31.268,31.268,0,0,1-9.078,2.636,43.164,43.164,0,0,1-9.569-.488c-.68-.2,7.813-3.514,7.813-3.514s-21.28,3.983-22.4.015c-.392-1.385,9.319-15.969,24.024-14.946,10.854.755,16.9,11.951,16.9,11.951s5.232,5.849,4.988,9.265C827.445,150.046,824.6,162.127,819.429,162.127Z" transform="translate(-781.847 -124.198)" fill="#26d19e"/>
                <g id="Grupo_92501" data-name="Grupo 92501" transform="translate(33.75 32.368)">
                  <path id="Trazado_117146" data-name="Trazado 117146" d="M820.854,165.576s5.859-7.407,9.251-5.273-1.333,13.094-5.54,14.382a4.192,4.192,0,0,1-5.475-2.582Z" transform="translate(-819.091 -159.917)" fill="#ffe1c2"/>
                  <path id="Trazado_117147" data-name="Trazado 117147" d="M828.907,163.772a.057.057,0,0,1,.015.111c-2.955,1-4.632,3.585-5.861,6.3.922-1.017,2.125-1.532,3.5-.427.073.058-.006.171-.087.15a2.579,2.579,0,0,0-2.887.731,12.506,12.506,0,0,0-1.493,2.211c-.15.25-.608.085-.492-.207.009-.022.018-.044.028-.065C821.769,168.889,824.935,163.909,828.907,163.772Z" transform="translate(-819.324 -160.278)" fill="#263238"/>
                </g>
              </g>
            </g>
            <g id="Grupo_92504" data-name="Grupo 92504" transform="translate(13.134 61.652)">
              <path id="Trazado_117148" data-name="Trazado 117148" d="M799.91,196.145l5.69,13.713,16.918-17.626,4.914,5.537s-16.427,27.882-16.546,26.632l-5.813-11.809-8.1,8.354L797.4,200.2Z" transform="translate(-796.4 -192.232)" fill="#ebebeb"/>
              <path id="Trazado_117149" data-name="Trazado 117149" d="M796.545,211.387c.185-3.423.276-6.875.62-10.285.013-.121.2-.178.232-.035.723,3.295-.055,16.381,0,19.516.012-.012.025-.024.035-.036.338-.362,7.513-7.356,7.586-7.247,1.252,1.871,5.518,10.47,5.812,11.253,2.6-4.429,12.563-20.535,15.649-24.729a.119.119,0,0,1,.207.116c-2.285,4.672-15.47,26.358-15.676,26.3a133.663,133.663,0,0,1-6.081-12.485c-1.21,1.52-8.442,9.4-8.473,8.894A107.593,107.593,0,0,1,796.545,211.387Z" transform="translate(-796.341 -192.939)" fill="#263238"/>
            </g>
          </g>
          <g id="Grupo_92508" data-name="Grupo 92508" transform="translate(0 130.446)">
            <g id="Grupo_92506" data-name="Grupo 92506" transform="translate(72.104 61.459)">
              <rect id="Rectángulo_34539" data-name="Rectángulo 34539" width="76.397" height="4.461" fill="#455a64"/>
              <rect id="Rectángulo_34540" data-name="Rectángulo 34540" width="46.433" height="4.461" fill="#263238"/>
            </g>
            <g id="Grupo_92507" data-name="Grupo 92507">
              <path id="Trazado_117150" data-name="Trazado 117150" d="M802.89,323.884l-96.694,0-13.828-65.994,96.694,0Z" transform="translate(-692.368 -257.889)" fill="#455a64"/>
              <path id="Trazado_117151" data-name="Trazado 117151" d="M758.621,293.692a5.214,5.214,0,0,1-5.264,5.915,6.715,6.715,0,0,1-6.507-5.915,5.215,5.215,0,0,1,5.265-5.915A6.713,6.713,0,0,1,758.621,293.692Z" transform="translate(-697.475 -260.693)" fill="#263238"/>
            </g>
          </g>
          <g id="Grupo_92511" data-name="Grupo 92511" transform="translate(23.049 169.868)">
            <g id="Grupo_92510" data-name="Grupo 92510">
              <path id="Trazado_117152" data-name="Trazado 117152" d="M729.037,331.891c5.97,3.23,13.189,10.95,18.159,11.813a5.787,5.787,0,0,0,6.273-2.886s2.226,5.121,6.866,5.162c2.387.021,4.517-3.774,4.517-3.774s1.964,4.026,6.091,3.808c3.29-.174,4.933-3.951,4.933-3.951s3.683,2.984,6.977,1.733c6.68-2.538,8.169-30.773-2-35.683-4.74-2.289-4.73,4.627-4.73,4.627s-2.418-9.941-8.231-10.4-5.256,8.53-5.256,8.53-2.427-9.614-8.5-9.479c-6.324.141-4.227,9.034-4.227,9.034s-3.926-6.5-8.552-5.334c-7.64,1.929,1.029,16.67-.77,22.8h-10.1Z" transform="translate(-718.856 -301.391)" fill="#ffe1c2"/>
              <path id="Trazado_117153" data-name="Trazado 117153" d="M736.58,340.154c-5.919-2.564-8.749,1.658-14.93.855-6.865-.893-4.635-8.953,7.423-10.382l10.457,0Z" transform="translate(-717.802 -304.134)" fill="#ffe1c2"/>
              <g id="Grupo_92509" data-name="Grupo 92509" transform="translate(30.448 8.184)">
                <path id="Trazado_117154" data-name="Trazado 117154" d="M781.041,342.617a.074.074,0,0,0,.144.036c2.753-9.168,2.967-20.084-.2-29.177-.1-.3-.633-.259-.582.091C781.875,323.564,782.385,332.554,781.041,342.617Z" transform="translate(-754.121 -310.69)" fill="#263238"/>
                <path id="Trazado_117155" data-name="Trazado 117155" d="M768.356,343.259c-.016.11.166.136.2.022,2.785-9.462,2.689-21.763-2.2-31.815-.168-.344-.663-.487-.5-.074C768.6,318.322,769.612,334.207,768.356,343.259Z" transform="translate(-752.754 -310.49)" fill="#263238"/>
                <path id="Trazado_117156" data-name="Trazado 117156" d="M751.417,310.652c4.312,9.819,5.041,20.033,4.284,30.631-.01.138.187.138.226.024,1.783-5.083,1.563-11.889.943-17.17a28.274,28.274,0,0,0-5.109-13.637C751.647,310.341,751.326,310.442,751.417,310.652Z" transform="translate(-751.401 -310.422)" fill="#263238"/>
              </g>
            </g>
          </g>
        </g>
      </g>
      <g id="Grupo_92518" data-name="Grupo 92518" transform="translate(106.091 0)">
        <g id="Grupo_92514" data-name="Grupo 92514" transform="translate(0 21.032)">
          <circle id="Elipse_5397" data-name="Elipse 5397" cx="35.206" cy="35.206" r="35.206" fill="#764cf0"/>
          <circle id="Elipse_5398" data-name="Elipse 5398" cx="26.873" cy="26.873" r="26.873" transform="translate(8.334 8.334)" fill="#fff"/>
          <circle id="Elipse_5399" data-name="Elipse 5399" cx="19.203" cy="19.203" r="19.203" transform="matrix(0.232, -0.973, 0.973, 0.232, 12.074, 49.434)" fill="#764cf0"/>
          <circle id="Elipse_5400" data-name="Elipse 5400" cx="10.616" cy="10.616" r="10.616" transform="matrix(0.224, -0.975, 0.975, 0.224, 22.485, 43.18)" fill="#fff"/>
          <path id="Trazado_117157" data-name="Trazado 117157" d="M739.515,99.148a4.8,4.8,0,1,1-4.8-4.8A4.8,4.8,0,0,1,739.515,99.148Z" transform="translate(-699.509 -63.942)" fill="#764cf0"/>
        </g>
        <g id="Grupo_92517" data-name="Grupo 92517" transform="translate(35.206)">
          <g id="Grupo_92516" data-name="Grupo 92516" transform="translate(0 7.065)">
            <rect id="Rectángulo_34541" data-name="Rectángulo 34541" width="64.339" height="1.544" transform="translate(2.587 45.495) rotate(-45)" fill="#455a64"/>
            <g id="Grupo_92515" data-name="Grupo 92515" transform="translate(0 43.226)">
              <path id="Trazado_117158" data-name="Trazado 117158" d="M741.159,97.436l-5.947,1.593,1.593-5.947Z" transform="translate(-735.212 -93.082)" fill="#263238"/>
            </g>
          </g>
          <path id="Trazado_117159" data-name="Trazado 117159" d="M795.7,42.235l-8.53,8.53-6.691,2.041,2.041-6.691,8.53-8.53-2.041,6.691Z" transform="translate(-739.458 -37.586)" fill="#263238"/>
        </g>
      </g>
      <g id="Grupo_92528" data-name="Grupo 92528" transform="translate(0 125.226)">
        <rect id="Rectángulo_34542" data-name="Rectángulo 34542" width="109.845" height="60.524" fill="#e8e1fc"/>
        <g id="Grupo_92527" data-name="Grupo 92527" transform="translate(7.48 7.077)">
          <rect id="Rectángulo_34543" data-name="Rectángulo 34543" width="86.879" height="5.232" transform="translate(9.109 0.561)" fill="#fff"/>
          <rect id="Rectángulo_34544" data-name="Rectángulo 34544" width="60.128" height="5.232" transform="translate(9.109 0.561)" fill="#764cf0"/>
          <rect id="Rectángulo_34545" data-name="Rectángulo 34545" width="86.879" height="5.232" transform="translate(9.109 10.565)" fill="#fff"/>
          <rect id="Rectángulo_34546" data-name="Rectángulo 34546" width="78.001" height="5.232" transform="translate(9.109 10.565)" fill="#ffd41c"/>
          <rect id="Rectángulo_34547" data-name="Rectángulo 34547" width="86.879" height="5.232" transform="translate(9.109 20.569)" fill="#fff"/>
          <rect id="Rectángulo_34548" data-name="Rectángulo 34548" width="55.374" height="5.232" transform="translate(9.109 20.569)" fill="#764cf0"/>
          <rect id="Rectángulo_34549" data-name="Rectángulo 34549" width="86.879" height="5.232" transform="translate(9.109 30.573)" fill="#fff"/>
          <rect id="Rectángulo_34550" data-name="Rectángulo 34550" width="63.898" height="5.232" transform="translate(9.109 30.573)" fill="#ffd41c"/>
          <rect id="Rectángulo_34551" data-name="Rectángulo 34551" width="86.879" height="5.232" transform="translate(9.109 40.577)" fill="#fff"/>
          <rect id="Rectángulo_34552" data-name="Rectángulo 34552" width="41.577" height="5.232" transform="translate(9.109 40.577)" fill="#764cf0"/>
          <g id="Grupo_92519" data-name="Grupo 92519" transform="translate(0 20.008)">
            <rect id="Rectángulo_34553" data-name="Rectángulo 34553" width="6.354" height="6.354" fill="#764cf0"/>
            <path id="Trazado_117160" data-name="Trazado 117160" d="M590.311,209.6h-.852v-.979h.835c0-.074.008-.132.01-.19.005-.256,0-.515.019-.77a1.075,1.075,0,0,1,.952-1.034,7.891,7.891,0,0,1,1.067-.009v.89c-.129,0-.257,0-.385,0a1.8,1.8,0,0,0-.343.023.32.32,0,0,0-.271.31c-.01.249,0,.5,0,.771h.971c-.041.32-.076.617-.122.913,0,.029-.078.065-.121.066-.235.006-.469,0-.723,0v2.51h-1.035Z" transform="translate(-587.724 -205.75)" fill="#fff"/>
          </g>
          <g id="Grupo_92521" data-name="Grupo 92521" transform="translate(0 30.012)">
            <rect id="Rectángulo_34554" data-name="Rectángulo 34554" width="6.354" height="6.354" fill="#ffd41c"/>
            <g id="Grupo_92520" data-name="Grupo 92520" transform="translate(0.703 1.544)">
              <path id="Trazado_117161" data-name="Trazado 117161" d="M590.894,220.364h-.925v-.548h1.562c0,.105,0,.215,0,.323a1.5,1.5,0,0,1-1.459,1.529,1.633,1.633,0,0,1-.884-3.07,1.66,1.66,0,0,1,1.869.218c-.127.13-.251.26-.381.383-.017.016-.072,0-.1-.007a3.24,3.24,0,0,0-.419-.161,1.008,1.008,0,0,0-1.189.81,1.027,1.027,0,0,0,.807,1.209A.933.933,0,0,0,590.894,220.364Z" transform="translate(-588.32 -218.405)" fill="#fff"/>
              <path id="Trazado_117162" data-name="Trazado 117162" d="M593.637,219.9c0,.124,0,.23,0,.336,0,.038,0,.077-.007.129h-.458v.464h-.464v-.456h-.464V219.9h.458v-.462h.468v.456Z" transform="translate(-588.688 -218.502)" fill="#fff"/>
            </g>
          </g>
          <g id="Grupo_92522" data-name="Grupo 92522" transform="translate(0 40.016)">
            <rect id="Rectángulo_34555" data-name="Rectángulo 34555" width="6.354" height="6.354" fill="#764cf0"/>
            <path id="Trazado_117163" data-name="Trazado 117163" d="M588.38,232.613a2.185,2.185,0,0,0,1.412-.436c-.584-.177-.817-.355-.9-.688l.392-.019a1.076,1.076,0,0,1-.768-.992l.4.107c-.423-.533-.508-.945-.255-1.33a2.909,2.909,0,0,0,2.071,1.036c0-.066-.007-.116-.009-.165a.955.955,0,0,1,.555-.959.966.966,0,0,1,1.1.133.2.2,0,0,0,.222.045c.158-.059.315-.116.488-.179a1,1,0,0,1-.384.493l.011.029.485-.125.019.02c-.125.126-.245.257-.377.375a.259.259,0,0,0-.106.216,2.834,2.834,0,0,1-2.579,2.841,2.871,2.871,0,0,1-1.682-.343C588.443,232.653,588.412,232.633,588.38,232.613Z" transform="translate(-587.623 -227.863)" fill="#fff"/>
          </g>
          <g id="Grupo_92524" data-name="Grupo 92524" transform="translate(0.042)">
            <rect id="Rectángulo_34556" data-name="Rectángulo 34556" width="6.354" height="6.354" fill="#764cf0"/>
            <g id="Grupo_92523" data-name="Grupo 92523" transform="translate(0.837 0.826)">
              <path id="Trazado_117164" data-name="Trazado 117164" d="M593.192,185.554a.981.981,0,0,0-1.03-1.054q-1.309-.012-2.618,0a.981.981,0,0,0-1.026,1.031c-.006.436,0,.872,0,1.307s0,.853,0,1.279a1,1,0,0,0,1.046,1.073q1.3.014,2.59,0a.989.989,0,0,0,1.038-1.051Q593.2,186.847,593.192,185.554Zm-.418,2.593a.568.568,0,0,1-.624.627q-1.294.008-2.589,0a.566.566,0,0,1-.625-.624q-.006-1.306,0-2.613a.572.572,0,0,1,.622-.631q1.3-.008,2.59,0a.574.574,0,0,1,.625.629c.005.435,0,.871,0,1.306S592.78,187.711,592.774,188.147Z" transform="translate(-588.514 -184.494)" fill="#fff"/>
              <path id="Trazado_117165" data-name="Trazado 117165" d="M590.974,185.735a1.222,1.222,0,1,0,1.213,1.24A1.221,1.221,0,0,0,590.974,185.735Zm-.015,2.035a.826.826,0,0,1-.8-.8.814.814,0,0,1,1.628,0A.825.825,0,0,1,590.958,187.77Z" transform="translate(-588.631 -184.61)" fill="#fff"/>
              <path id="Trazado_117166" data-name="Trazado 117166" d="M592.791,185.671a.28.28,0,0,1-.557-.052c.013-.171.124-.25.295-.26A.274.274,0,0,1,592.791,185.671Z" transform="translate(-588.863 -184.575)" fill="#fff"/>
            </g>
          </g>
          <g id="Grupo_92526" data-name="Grupo 92526" transform="translate(0 9.913)">
            <rect id="Rectángulo_34557" data-name="Rectángulo 34557" width="6.354" height="6.354" fill="#ffd41c"/>
            <g id="Grupo_92525" data-name="Grupo 92525" transform="translate(0.808 0.826)">
              <path id="Trazado_117167" data-name="Trazado 117167" d="M588.436,200.136c.1-.365.192-.705.292-1.041a.373.373,0,0,0-.028-.3,2.351,2.351,0,1,1,4.474-.972,2.371,2.371,0,0,1-2.226,2.265,2.531,2.531,0,0,1-1.165-.22.374.374,0,0,0-.223-.017C589.195,199.936,588.832,200.034,588.436,200.136Zm.57-.553c.232-.061.429-.118.628-.159a.337.337,0,0,1,.207.026,2.1,2.1,0,0,0,.948.247,1.957,1.957,0,0,0,1.955-2.282,1.835,1.835,0,0,0-1.47-1.535,1.957,1.957,0,0,0-2.141,2.887.361.361,0,0,1,.03.229C589.123,199.188,589.064,199.371,589.006,199.584Z" transform="translate(-588.436 -195.434)" fill="#fff"/>
              <path id="Trazado_117168" data-name="Trazado 117168" d="M589.907,196.95c.16-.215.374-.173.486.065.044.092.054.124.1.23a.285.285,0,0,1-.065.37c-.083.075-.076.141-.017.228a1.65,1.65,0,0,0,.712.6.157.157,0,0,0,.216-.048c.207-.246.209-.244.5-.107l.1.048a.273.273,0,0,1,.075.486.655.655,0,0,1-.658.16,2.4,2.4,0,0,1-1.426-1.085.9.9,0,0,1-.178-.531A.783.783,0,0,1,589.907,196.95Z" transform="translate(-588.559 -195.563)" fill="#fff"/>
            </g>
          </g>
        </g>
      </g>
      <g id="Grupo_92531" data-name="Grupo 92531" transform="translate(236.51 19.466)">
        <g id="Grupo_92529" data-name="Grupo 92529">
          <rect id="Rectángulo_34558" data-name="Rectángulo 34558" width="95.593" height="60.223" fill="#e8e1fc"/>
        </g>
        <g id="Grupo_92530" data-name="Grupo 92530" transform="translate(7.879 8.674)">
          <path id="Trazado_117169" data-name="Trazado 117169" d="M848.974,74.269c13.262-.082,26.524-.062,39.786-.1,13.262.034,26.524.013,39.786.1-13.262.082-26.524.062-39.786.1C875.5,74.33,862.236,74.352,848.974,74.269Z" transform="translate(-848.974 -69.157)" fill="#a6a6a6"/>
          <path id="Trazado_117170" data-name="Trazado 117170" d="M848.974,82.944c13.262-.082,26.524-.061,39.786-.1,13.262.034,26.524.013,39.786.1-13.262.083-26.524.063-39.786.1C875.5,83.006,862.236,83.027,848.974,82.944Z" transform="translate(-848.974 -69.971)" fill="#a6a6a6"/>
          <path id="Trazado_117171" data-name="Trazado 117171" d="M848.974,91.62c13.262-.082,26.524-.062,39.786-.1,13.262.034,26.524.013,39.786.1-13.262.083-26.524.063-39.786.1C875.5,91.682,862.236,91.7,848.974,91.62Z" transform="translate(-848.974 -70.785)" fill="#a6a6a6"/>
          <path id="Trazado_117172" data-name="Trazado 117172" d="M848.974,100.3c13.262-.082,26.524-.062,39.786-.1,13.262.034,26.524.014,39.786.1-13.262.083-26.524.062-39.786.1C875.5,100.358,862.236,100.379,848.974,100.3Z" transform="translate(-848.974 -71.598)" fill="#a6a6a6"/>
          <path id="Trazado_117173" data-name="Trazado 117173" d="M848.974,108.972c13.262-.082,26.524-.062,39.786-.1,13.262.034,26.524.014,39.786.1-13.262.082-26.524.062-39.786.1C875.5,109.034,862.236,109.055,848.974,108.972Z" transform="translate(-848.974 -72.412)" fill="#a6a6a6"/>
          <path id="Trazado_117174" data-name="Trazado 117174" d="M866.639,68.638c.117,7.346.087,14.692.136,22.038-.048,7.347-.019,14.692-.136,22.039-.118-7.347-.088-14.692-.136-22.039C866.552,83.33,866.522,75.984,866.639,68.638Z" transform="translate(-850.618 -68.638)" fill="#a6a6a6"/>
          <path id="Trazado_117175" data-name="Trazado 117175" d="M881.823,68.638c.117,7.346.088,14.692.136,22.038-.048,7.347-.018,14.692-.136,22.039-.117-7.347-.087-14.692-.135-22.039C881.736,83.33,881.707,75.984,881.823,68.638Z" transform="translate(-852.042 -68.638)" fill="#a6a6a6"/>
          <path id="Trazado_117176" data-name="Trazado 117176" d="M897.008,68.638c.117,7.346.087,14.692.136,22.038-.048,7.347-.018,14.692-.136,22.039-.117-7.347-.088-14.692-.136-22.039C896.921,83.33,896.891,75.984,897.008,68.638Z" transform="translate(-853.467 -68.638)" fill="#a6a6a6"/>
          <path id="Trazado_117177" data-name="Trazado 117177" d="M912.193,68.638c.117,7.346.087,14.692.136,22.038-.048,7.347-.019,14.692-.136,22.039-.118-7.347-.088-14.692-.136-22.039C912.106,83.33,912.076,75.984,912.193,68.638Z" transform="translate(-854.891 -68.638)" fill="#a6a6a6"/>
          <path id="Trazado_117178" data-name="Trazado 117178" d="M927.377,68.638c.117,7.346.088,14.692.136,22.038-.048,7.347-.018,14.692-.136,22.039-.117-7.347-.087-14.692-.135-22.039C927.29,83.33,927.26,75.984,927.377,68.638Z" transform="translate(-856.315 -68.638)" fill="#a6a6a6"/>
          <path id="Trazado_117179" data-name="Trazado 117179" d="M851.186,100.838c2.429,0,3.877-7.986,7.317-7.986s3.8,5.827,6.7,5.827,2.807-10.235,6.7-10.235,2.988,4.152,7.061,4.152,2.536-9.642,6.79-9.642,2.535,13.284,6.97,13.284c2.807,0,3.893-4.219,7.242-4.219,2.218,0,3.526,2.111,6.425,2.111,2.945,0,3.533-8.113,7.154-8.113s4.035,4.8,6.7,4.8,3.621-7.862,8.51-7.862v31.1H851.186Z" transform="translate(-849.181 -69.981)" fill="#ccfff0" opacity="0.5"/>
          <path id="Trazado_117180" data-name="Trazado 117180" d="M936.782,117.277" transform="translate(-857.21 -73.2)" fill="#a6a6a6"/>
          <path id="Trazado_117181" data-name="Trazado 117181" d="M851.186,101.182v-.768c.735,0,1.748-1.866,2.488-3.228,1.271-2.339,2.586-4.758,4.829-4.758,2.153,0,3.223,1.772,4.168,3.335.739,1.225,1.5,2.492,2.531,2.492.905,0,1.69-2.458,2.264-4.253.939-2.941,1.909-5.982,4.435-5.982a4.381,4.381,0,0,1,3.919,2.247c.758,1.022,1.412,1.9,3.142,1.9,1.566,0,2.179-2.252,2.771-4.43.7-2.562,1.419-5.212,4.019-5.212,2.579,0,3.238,3.337,3.936,6.87.565,2.857,1.267,6.414,3.034,6.414,1.056,0,1.919-.876,2.833-1.805,1.114-1.132,2.376-2.414,4.41-2.414a6.277,6.277,0,0,1,3.1,1.031,6.625,6.625,0,0,0,3.327,1.079c1,0,1.921-1.929,2.658-3.481,1.082-2.277,2.2-4.633,4.5-4.633,2.28,0,3.4,1.531,4.394,2.883.723.986,1.406,1.918,2.305,1.918.766,0,1.633-1.493,2.4-2.811,1.307-2.25,2.934-5.051,6.111-5.051V83.3c-2.447,0-3.858,2.43-5.1,4.575-1.067,1.837-1.91,3.288-3.406,3.288-1.562,0-2.392-1.133-3.272-2.333s-1.81-2.468-3.427-2.468c-1.513,0-2.549,2.182-3.465,4.109-1.021,2.149-1.9,4-3.69,4a7.813,7.813,0,0,1-4-1.242,5.126,5.126,0,0,0-2.43-.869c-1.464,0-2.507,1.059-3.515,2.084-1.032,1.049-2.1,2.135-3.727,2.135-2.715,0-3.393-3.437-4.113-7.077-.546-2.765-1.226-6.207-2.857-6.207-1.7,0-2.364,2.438-2.95,4.588-.708,2.6-1.376,5.054-3.841,5.054a4.556,4.556,0,0,1-4.107-2.317c-.73-.985-1.358-1.835-2.954-1.835-1.654,0-2.607,2.984-3.373,5.383-.865,2.71-1.55,4.852-3.326,4.852-1.746,0-2.614-1.437-3.533-2.96-.852-1.409-1.731-2.867-3.165-2.867-1.5,0-2.78,2.365-3.813,4.266C853.562,99.54,852.669,101.182,851.186,101.182Z" transform="translate(-849.181 -69.941)" fill="#26d19e"/>
          <path id="Trazado_117182" data-name="Trazado 117182" d="M851.186,117.277" transform="translate(-849.181 -73.2)" fill="#a6a6a6" stroke="#ffc727" stroke-miterlimit="10" stroke-width="0.848"/>
          <path id="Trazado_117183" data-name="Trazado 117183" d="M851.16,69.165c.088,7.267.164,14.534.171,21.8l.083,21.8-.254-.179,38.784.045,19.392.035,19.392.1-19.392.1-19.392.036-38.784.045H850.9v-.179l.082-21.8C850.995,83.7,851.072,76.432,851.16,69.165Z" transform="translate(-849.155 -68.687)" fill="#a6a6a6"/>
        </g>
      </g>
      <rect id="Rectángulo_34559" data-name="Rectángulo 34559" width="45.035" height="45.035" rx="8" transform="matrix(0.985, 0.174, -0.174, 0.985, 41.764, 53.605)" fill="#26d19e"/>
      <circle id="Elipse_5401" data-name="Elipse 5401" cx="22.727" cy="22.727" r="22.727" transform="translate(222.536 274.533)" fill="#764cf0"/>
    </g>
  </g>
</svg>
