<svg xmlns="http://www.w3.org/2000/svg" width="54.7" height="54.701" viewBox="0 0 54.7 54.701">
  <g id="storytelling" transform="translate(-0.005)">
    <g id="Grupo_98985" data-name="Grupo 98985" transform="translate(0.808 0.803)">
      <path id="Trazado_126231" data-name="Trazado 126231" d="M51.394,60.6H9.646a2.141,2.141,0,0,1-2.141-2.141V9.641A2.141,2.141,0,0,1,9.646,7.5H51.394a2.141,2.141,0,0,1,2.141,2.141V58.455A2.141,2.141,0,0,1,51.394,60.6Z" transform="translate(-7.505 -7.5)" fill="#96cc7f"/>
      <path id="Trazado_126232" data-name="Trazado 126232" d="M51.394,455.641H9.646A2.141,2.141,0,0,1,7.505,453.5v3.211a2.141,2.141,0,0,0,2.141,2.141H51.394a2.141,2.141,0,0,0,2.141-2.141V453.5A2.141,2.141,0,0,1,51.394,455.641Z" transform="translate(-7.505 -405.757)" fill="#169b62"/>
      <g id="Grupo_98983" data-name="Grupo 98983" transform="translate(3.211 4.068)">
        <path id="Trazado_126233" data-name="Trazado 126233" d="M0,0H13.916V18.2H0Z" transform="translate(18.198 0) rotate(90)" fill="#d5f0fc"/>
        <path id="Trazado_126234" data-name="Trazado 126234" d="M0,0H13.916V18.2H0Z" transform="translate(39.607) rotate(90)" fill="#d5f0fc"/>
        <path id="Trazado_126235" data-name="Trazado 126235" d="M0,0H13.916V18.2H0Z" transform="translate(18.198 24.621) rotate(90)" fill="#d5f0fc"/>
        <path id="Trazado_126236" data-name="Trazado 126236" d="M0,0H13.916V18.2H0Z" transform="translate(39.607 24.621) rotate(90)" fill="#d5f0fc"/>
      </g>
      <path id="Trazado_126237" data-name="Trazado 126237" d="M329.35,130.736l.177,5.046,4.458-2.37L346.3,112.09l-4.635-2.676Z" transform="translate(-294.897 -98.504)" fill="#fec108"/>
      <path id="Trazado_126238" data-name="Trazado 126238" d="M449.344,75.618a2.676,2.676,0,0,0-3.656.98l-1.338,2.318,4.635,2.676,1.338-2.318A2.676,2.676,0,0,0,449.344,75.618Z" transform="translate(-397.587 -68.006)" fill="#78b75b"/>
      <circle id="Elipse_5916" data-name="Elipse 5916" cx="1.82" cy="1.82" r="1.82" transform="translate(6.102 31.9)" fill="#fec108"/>
      <path id="Trazado_126239" data-name="Trazado 126239" d="M119,360.852H111.5v-1.606a3.747,3.747,0,0,1,7.493,0Z" transform="translate(-100.372 -318.248)" fill="#779676"/>
      <path id="Trazado_126240" data-name="Trazado 126240" d="M118.637,375.5h-6.771a3.731,3.731,0,0,0-.361,1.606v1.606H119v-1.606A3.732,3.732,0,0,0,118.637,375.5Z" transform="translate(-100.372 -336.107)" fill="#5e855e"/>
      <path id="Trazado_126241" data-name="Trazado 126241" d="M128.646,310.852a2.141,2.141,0,0,1-2.141-2.141v-1.07a2.141,2.141,0,0,1,4.282,0v1.07A2.141,2.141,0,0,1,128.646,310.852Z" transform="translate(-113.766 -273.6)" fill="#ffe5c2"/>
      <circle id="Elipse_5917" data-name="Elipse 5917" cx="1.82" cy="1.82" r="1.82" transform="translate(5.995 7.279)" fill="#fec108"/>
      <g id="Grupo_98984" data-name="Grupo 98984" transform="translate(27.511 7.279)">
        <circle id="Elipse_5918" data-name="Elipse 5918" cx="1.82" cy="1.82" r="1.82" fill="#eafcbf"/>
        <path id="Trazado_126242" data-name="Trazado 126242" d="M339.111,104.852a1.606,1.606,0,0,1-1.606-1.606v-2.141a1.606,1.606,0,0,1,3.211,0v2.141A1.606,1.606,0,0,1,339.111,104.852Z" transform="translate(-329.691 -96.931)" fill="#eafcbf"/>
      </g>
    </g>
    <g id="Grupo_98986" data-name="Grupo 98986" transform="translate(13.118 24.835)">
      <path id="Trazado_126243" data-name="Trazado 126243" d="M322.5,232h1.606v1.606H322.5Z" transform="translate(-301.095 -232)" fill="#fff"/>
      <path id="Trazado_126244" data-name="Trazado 126244" d="M122.5,232h1.606v1.606H122.5Z" transform="translate(-122.505 -232)" fill="#fff"/>
      <path id="Trazado_126245" data-name="Trazado 126245" d="M122.5,462h1.606v1.606H122.5Z" transform="translate(-122.505 -437.379)" fill="#fff"/>
      <path id="Trazado_126246" data-name="Trazado 126246" d="M152.5,232h1.606v1.606H152.5Z" transform="translate(-149.294 -232)" fill="#fff"/>
      <path id="Trazado_126247" data-name="Trazado 126247" d="M152.5,462h1.606v1.606H152.5Z" transform="translate(-149.294 -437.379)" fill="#fff"/>
      <path id="Trazado_126248" data-name="Trazado 126248" d="M322.5,462h1.606v1.606H322.5Z" transform="translate(-301.095 -437.379)" fill="#fff"/>
      <path id="Trazado_126249" data-name="Trazado 126249" d="M352.5,462h1.606v1.606H352.5Z" transform="translate(-327.884 -437.379)" fill="#fff"/>
    </g>
    <g id="Grupo_98987" data-name="Grupo 98987" transform="translate(0.005)">
      <path id="Trazado_126250" data-name="Trazado 126250" d="M49.809,38h-19.8V53.522h19.8ZM48.2,51.916H31.611V39.606H48.2Z" transform="translate(-26.794 -33.932)"/>
      <path id="Trazado_126251" data-name="Trazado 126251" d="M58.628,73.245A2.623,2.623,0,1,0,56,70.623,2.626,2.626,0,0,0,58.628,73.245Zm0-3.64a1.017,1.017,0,1,1-1.017,1.017A1.018,1.018,0,0,1,58.628,69.606Z" transform="translate(-50.01 -60.721)"/>
      <path id="Trazado_126252" data-name="Trazado 126252" d="M249.809,46.4V38H230V53.522h15.9V51.916h-1.98V50.6a2.412,2.412,0,0,0,1.606-2.27V46.189a2.409,2.409,0,1,0-4.817,0V48.33a2.412,2.412,0,0,0,1.606,2.27v1.316h-10.7V39.606H248.2v6.8Zm-7.493-.214a.8.8,0,1,1,1.606,0V48.33a.8.8,0,0,1-1.606,0Z" transform="translate(-205.384 -33.932)"/>
      <path id="Trazado_126253" data-name="Trazado 126253" d="M37.505,202H55.7v1.606h-18.2Z" transform="translate(-33.491 -180.376)"/>
      <path id="Trazado_126254" data-name="Trazado 126254" d="M237.505,202h12.953v1.606H237.505Z" transform="translate(-212.081 -180.376)"/>
      <path id="Trazado_126255" data-name="Trazado 126255" d="M37.505,232H45v1.606H37.505Z" transform="translate(-33.491 -207.165)"/>
      <path id="Trazado_126256" data-name="Trazado 126256" d="M237.505,232H245v1.606h-7.493Z" transform="translate(-212.081 -207.165)"/>
      <path id="Trazado_126257" data-name="Trazado 126257" d="M49.809,268h-19.8v15.522h19.8ZM45.42,281.916H39.532v-.8a2.944,2.944,0,1,1,5.888,0Zm-4.282-6.69v-1.07a1.338,1.338,0,1,1,2.676,0v1.07a1.338,1.338,0,0,1-2.676,0Zm7.065,6.69H47.026v-.8a4.552,4.552,0,0,0-2.323-3.965,2.93,2.93,0,0,0,.717-1.922v-1.07a2.944,2.944,0,1,0-5.888,0v1.07a2.93,2.93,0,0,0,.717,1.922,4.552,4.552,0,0,0-2.323,3.965v.8H31.611v-12.31H48.2Z" transform="translate(-26.794 -239.311)"/>
      <path id="Trazado_126258" data-name="Trazado 126258" d="M239.372,269.606V268H230v15.522h19.8v-8.938H248.2v7.333H231.611v-12.31Z" transform="translate(-205.384 -239.311)"/>
      <path id="Trazado_126259" data-name="Trazado 126259" d="M37.505,432H55.7v1.606h-18.2Z" transform="translate(-33.491 -385.756)"/>
      <path id="Trazado_126260" data-name="Trazado 126260" d="M237.505,432h18.2v1.606h-18.2Z" transform="translate(-212.081 -385.756)"/>
      <path id="Trazado_126261" data-name="Trazado 126261" d="M37.505,462H45v1.606H37.505Z" transform="translate(-33.491 -412.544)"/>
      <path id="Trazado_126262" data-name="Trazado 126262" d="M237.505,462H245v1.606h-7.493Z" transform="translate(-212.081 -412.544)"/>
      <path id="Trazado_126263" data-name="Trazado 126263" d="M46.035,51.757A1.34,1.34,0,0,1,44.7,53.1H2.949a1.34,1.34,0,0,1-1.338-1.338V2.944A1.34,1.34,0,0,1,2.949,1.606H44.7a1.34,1.34,0,0,1,1.338,1.338v4.5h1.606v-4.5A2.947,2.947,0,0,0,44.7,0H2.949A2.947,2.947,0,0,0,.005,2.944V51.757A2.947,2.947,0,0,0,2.949,54.7H44.7a2.947,2.947,0,0,0,2.944-2.944V29.492H46.035Z" transform="translate(-0.005)"/>
      <path id="Trazado_126264" data-name="Trazado 126264" d="M340.3,68.235a3.483,3.483,0,0,0-4.752,1.273L321.779,93.348l.23,6.56,5.8-3.081,13.764-23.839A3.483,3.483,0,0,0,340.3,68.235Zm-13.651,27.39-3.121,1.659-.124-3.532,11.794-20.428,3.245,1.873Zm13.534-23.44-.937,1.622L336,71.934l.937-1.622a1.873,1.873,0,0,1,3.245,1.873Z" transform="translate(-287.334 -60.515)"/>
      <path id="Trazado_126265" data-name="Trazado 126265" d="M257,70.623A2.623,2.623,0,1,0,259.628,68,2.626,2.626,0,0,0,257,70.623Zm3.64,0a1.017,1.017,0,1,1-1.017-1.017A1.018,1.018,0,0,1,260.645,70.623Z" transform="translate(-229.494 -60.721)"/>
      <path id="Trazado_126266" data-name="Trazado 126266" d="M59.628,303.245A2.623,2.623,0,1,0,57,300.623,2.626,2.626,0,0,0,59.628,303.245Zm0-3.64a1.017,1.017,0,1,1-1.017,1.017A1.018,1.018,0,0,1,59.628,299.606Z" transform="translate(-50.903 -266.1)"/>
    </g>
  </g>
</svg>
