<svg xmlns="http://www.w3.org/2000/svg" width="85" height="69" viewBox="0 0 85 69">
  <g id="Grupo_963167" data-name="Grupo 963167" transform="translate(-179.5 -13189)">
    <rect id="Rectángulo_337757" data-name="Rectángulo 337757" width="85" height="69" transform="translate(179.5 13189)" fill="#9ad9c6"/>
    <g id="seo_1_" data-name="seo (1)" transform="translate(195.5 13173)">
      <path id="Trazado_658064" data-name="Trazado 658064" d="M73.29,147.743V120.05a3.032,3.032,0,0,0-3.032-3.032H30.032A3.032,3.032,0,0,0,27,120.05v27.693" transform="translate(-24.271 -80.92)" fill="#93c87c"/>
      <path id="Trazado_658065" data-name="Trazado 658065" d="M10,421.006v.834a4.624,4.624,0,0,0,4.624,4.624H55.1a4.624,4.624,0,0,0,4.624-4.624v-.834Z" transform="translate(-8.989 -354.184)" fill="#81b769"/>
      <path id="Trazado_658066" data-name="Trazado 658066" d="M64,181.892V155.006h38.811v26.886Z" transform="translate(-57.532 -115.068)" fill="#e0fad5"/>
      <path id="Trazado_658067" data-name="Trazado 658067" d="M157.818,56.405H128V37h29.818l6.778,6.8a4.125,4.125,0,0,1,0,5.829Z" transform="translate(-115.063 -8.989)" fill="#f9db81"/>
      <path id="Trazado_658068" data-name="Trazado 658068" d="M50.737,65.811H50.03V41.567l.215-.215a5.143,5.143,0,0,0,0-7.257L43.47,27.3a1.011,1.011,0,0,0-.716-.3h-21.5a1.011,1.011,0,1,0,0,2.021H42.335l6.482,6.5a3.119,3.119,0,0,1,0,4.4l-6.479,6.483H13.948V28.011a1.011,1.011,0,0,0-2.021,0v7.076H5.761A4.047,4.047,0,0,0,1.718,39.13V65.811H1.011A1.011,1.011,0,0,0,0,66.822v.834A5.641,5.641,0,0,0,5.635,73.29H46.113a5.641,5.641,0,0,0,5.635-5.635v-.834A1.011,1.011,0,0,0,50.737,65.811ZM3.74,39.13a2.024,2.024,0,0,1,2.021-2.021h6.165V47.416a1.011,1.011,0,0,0,1.011,1.011H42.755a1.011,1.011,0,0,0,.715-.3l4.539-4.541V65.811H46.29V50.968a1.011,1.011,0,1,0-2.021,0V65.811H7.479V40.948H9.551a1.011,1.011,0,0,0,0-2.021H6.468a1.011,1.011,0,0,0-1.011,1.011V65.811H3.74ZM46.113,71.269H5.635a3.618,3.618,0,0,1-3.609-3.436h47.7A3.618,3.618,0,0,1,46.113,71.269Z" transform="translate(0 0)"/>
      <path id="Trazado_658069" data-name="Trazado 658069" d="M212.065,438h-8.843a1.011,1.011,0,1,0,0,2.021h8.843a1.011,1.011,0,1,0,0-2.021Z" transform="translate(-181.774 -369.46)"/>
      <path id="Trazado_658070" data-name="Trazado 658070" d="M412.592,106.032a3.032,3.032,0,1,0-3.032,3.032A3.036,3.036,0,0,0,412.592,106.032Zm-4.043,0a1.011,1.011,0,1,1,1.011,1.011A1.012,1.012,0,0,1,408.549,106.032Z" transform="translate(-365.44 -68.319)"/>
      <path id="Trazado_658074" data-name="Trazado 658074" d="M111.988,288.02h27.227a1.011,1.011,0,1,0,0-2.021H111.988a1.011,1.011,0,1,0,0,2.021Z" transform="translate(-99.761 -232.822)"/>
      <path id="Trazado_658075" data-name="Trazado 658075" d="M121.631,336h-9.562a1.011,1.011,0,1,0,0,2.021h9.562a1.011,1.011,0,1,0,0-2.021Z" transform="translate(-99.833 -277.768)"/>
      <path id="Trazado_658076" data-name="Trazado 658076" d="M247.011,336a1.011,1.011,0,1,0,.715.3A1.018,1.018,0,0,0,247.011,336Z" transform="translate(-221.137 -277.769)"/>
      <path id="Trazado_658077" data-name="Trazado 658077" d="M295.058,336h-9.714a1.011,1.011,0,0,0,0,2.021h9.714a1.011,1.011,0,0,0,0-2.021Z" transform="translate(-255.595 -277.769)"/>
      <path id="Trazado_658078" data-name="Trazado 658078" d="M159.711,29.021a1.011,1.011,0,1,0-.715-.3A1.018,1.018,0,0,0,159.711,29.021Z" transform="translate(-142.66 0)"/>
      <g id="sem" transform="translate(16.904 33.667)">
        <path id="Trazado_658084" data-name="Trazado 658084" d="M59.631,217.385H57.9a.806.806,0,0,1,0-1.612h1.727a.921.921,0,0,0,0-1.842h-.864a2.533,2.533,0,0,1,0-5.066h1.727a.806.806,0,1,1,0,1.612H58.767a.921.921,0,0,0,0,1.842h.864a2.533,2.533,0,0,1,0,5.066Z" transform="translate(-56.234 -208.865)"/>
        <path id="Trazado_658085" data-name="Trazado 658085" d="M197.06,215.773h-2.648v-1.842H196.2a.806.806,0,0,0,0-1.612h-1.784v-1.842h2.648a.806.806,0,1,0,0-1.612h-3.454a.806.806,0,0,0-.806.806v6.908a.806.806,0,0,0,.806.806h3.454a.806.806,0,1,0,0-1.612Z" transform="translate(-185.46 -208.865)"/>
        <g id="Grupo_962858" data-name="Grupo 962858" transform="translate(10.736)">
          <path id="Trazado_658086" data-name="Trazado 658086" d="M319.719,217.383a.806.806,0,0,1-.806-.806V212.85l-1.291,2.384a.806.806,0,0,1-1.418,0l-1.291-2.384v3.727a.806.806,0,0,1-1.612,0v-6.908a.806.806,0,0,1,1.515-.384l2.1,3.872,2.1-3.872a.806.806,0,0,1,1.515.384v6.908a.806.806,0,0,1-.806.806Z" transform="translate(-310.22 -208.863)"/>
          <g id="Grupo_962857" data-name="Grupo 962857" transform="translate(0 0)">
            <path id="Trazado_658087" data-name="Trazado 658087" d="M256.806,273.94a.806.806,0,0,0-.806-.806v1.612A.806.806,0,0,0,256.806,273.94Z" transform="translate(-256 -269.68)"/>
            <path id="Trazado_658088" data-name="Trazado 658088" d="M257.67,338.206a.806.806,0,0,0-.806-.806H256v1.612h.863A.806.806,0,0,0,257.67,338.206Z" transform="translate(-256 -330.492)"/>
            <path id="Trazado_658089" data-name="Trazado 658089" d="M256.863,208.866H256v1.612h.863a.806.806,0,1,0,0-1.612Z" transform="translate(-256 -208.866)"/>
          </g>
        </g>
      </g>
    </g>
  </g>
</svg>
