<svg xmlns="http://www.w3.org/2000/svg" xmlns:xlink="http://www.w3.org/1999/xlink" width="113.331" height="113.331" viewBox="0 0 113.331 113.331">
  <defs>
    <filter id="Trazado_658879" x="0" y="0" width="113.331" height="113.331" filterUnits="userSpaceOnUse">
      <feOffset dy="3" input="SourceAlpha"/>
      <feGaussianBlur stdDeviation="3" result="blur"/>
      <feFlood flood-opacity="0.161"/>
      <feComposite operator="in" in2="blur"/>
      <feComposite in="SourceGraphic"/>
    </filter>
  </defs>
  <g id="Grupo_963994" data-name="Grupo 963994" transform="translate(-901.334 -7336.334)">
    <g transform="matrix(1, 0, 0, 1, 901.33, 7336.33)" filter="url(#Trazado_658879)">
      <path id="Trazado_658879-2" data-name="Trazado 658879" d="M47.666,0A47.666,47.666,0,1,1,0,47.666,47.666,47.666,0,0,1,47.666,0Z" transform="translate(9 6)" fill="#a8edd8"/>
    </g>
    <g id="seo_1_" data-name="seo (1)" transform="translate(916.001 7326)">
      <path id="Trazado_658064" data-name="Trazado 658064" d="M101.245,166.3V121.881a4.863,4.863,0,0,0-4.863-4.863H31.863A4.863,4.863,0,0,0,27,121.881V166.3" transform="translate(-22.623 -75.426)" fill="#618aaa"/>
      <path id="Trazado_658065" data-name="Trazado 658065" d="M10,421.006v1.337a7.416,7.416,0,0,0,7.416,7.416H82.34a7.416,7.416,0,0,0,7.416-7.416v-1.337Z" transform="translate(-8.379 -330.135)" fill="#38627c"/>
      <path id="Trazado_658066" data-name="Trazado 658066" d="M64,198.128V155.006h62.249v43.122Z" transform="translate(-53.625 -107.255)" fill="#a7c7d3"/>
      <path id="Trazado_658067" data-name="Trazado 658067" d="M175.825,68.124H128V37h47.825L186.7,47.9a6.616,6.616,0,0,1-.005,9.348Z" transform="translate(-107.25 -8.379)" fill="#fdb659"/>
      <path id="Trazado_658068" data-name="Trazado 658068" d="M81.377,89.249H80.242V50.363l.345-.345a8.25,8.25,0,0,0,.006-11.639l-10.872-10.9A1.622,1.622,0,0,0,68.574,27H34.093a1.621,1.621,0,1,0,0,3.242H67.9L78.3,40.668a5,5,0,0,1,0,7.058L67.9,58.124H22.371v-29.5a1.621,1.621,0,0,0-3.242,0V39.97H9.24a6.492,6.492,0,0,0-6.484,6.484V89.249H1.621A1.621,1.621,0,0,0,0,90.87v1.337a9.048,9.048,0,0,0,9.037,9.037H73.961A9.048,9.048,0,0,0,83,92.207V90.87A1.621,1.621,0,0,0,81.377,89.249ZM6,46.455A3.246,3.246,0,0,1,9.24,43.213h9.888V59.745a1.621,1.621,0,0,0,1.621,1.621H68.574a1.621,1.621,0,0,0,1.147-.475L77,53.607V89.249H74.245V65.442a1.621,1.621,0,1,0-3.242,0V89.249H12V49.371h3.323a1.621,1.621,0,0,0,0-3.242H10.375A1.621,1.621,0,0,0,8.754,47.75v41.5H6ZM73.961,98H9.037a5.8,5.8,0,0,1-5.788-5.512h76.5A5.8,5.8,0,0,1,73.961,98Z" transform="translate(0 0)"/>
      <path id="Trazado_658069" data-name="Trazado 658069" d="M218.015,438H203.832a1.621,1.621,0,1,0,0,3.242h14.183a1.621,1.621,0,1,0,0-3.242Z" transform="translate(-169.431 -344.374)"/>
      <path id="Trazado_658070" data-name="Trazado 658070" d="M416.254,107.863a4.863,4.863,0,1,0-4.863,4.863A4.869,4.869,0,0,0,416.254,107.863Zm-6.484,0a1.621,1.621,0,1,1,1.621,1.621A1.623,1.623,0,0,1,409.77,107.863Z" transform="translate(-340.627 -63.68)"/>
      <path id="Trazado_658074" data-name="Trazado 658074" d="M112.6,289.241h43.67a1.621,1.621,0,1,0,0-3.242H112.6a1.621,1.621,0,1,0,0,3.242Z" transform="translate(-92.987 -217.014)"/>
      <path id="Trazado_658075" data-name="Trazado 658075" d="M128.016,336H112.679a1.621,1.621,0,0,0,0,3.242h15.337a1.621,1.621,0,1,0,0-3.242Z" transform="translate(-93.055 -258.908)"/>
      <path id="Trazado_658076" data-name="Trazado 658076" d="M247.621,336a1.622,1.622,0,1,0,1.146.475A1.633,1.633,0,0,0,247.621,336Z" transform="translate(-206.122 -258.909)"/>
      <path id="Trazado_658077" data-name="Trazado 658077" d="M301.535,336H285.954a1.621,1.621,0,0,0,0,3.242h15.581a1.621,1.621,0,0,0,0-3.242Z" transform="translate(-238.241 -258.909)"/>
      <path id="Trazado_658078" data-name="Trazado 658078" d="M160.321,30.242a1.622,1.622,0,1,0-1.146-.475A1.633,1.633,0,0,0,160.321,30.242Z" transform="translate(-132.974 0)"/>
      <path id="Trazado_658904" data-name="Trazado 658904" d="M300.632,96.789a6.895,6.895,0,1,0-6.895-6.895A6.9,6.9,0,0,0,300.632,96.789Zm0-11.031a4.137,4.137,0,1,1-4.137,4.137A4.141,4.141,0,0,1,300.632,85.758Z" transform="translate(-246.335 -45.473)"/>
      <path id="Trazado_658905" data-name="Trazado 658905" d="M245.309,83h-5.572a1.379,1.379,0,0,0-1.379,1.379V95.41a1.379,1.379,0,0,0,1.379,1.379h5.572a1.379,1.379,0,1,0,0-2.758h-4.193V91.273h2.73a1.379,1.379,0,0,0,0-2.758h-2.73V85.758h4.193a1.379,1.379,0,1,0,0-2.758Z" transform="translate(-198.592 -45.473)"/>
      <path id="Trazado_658906" data-name="Trazado 658906" d="M168.912,85.758a1.541,1.541,0,0,1,1.66,1.379,1.379,1.379,0,0,0,2.758,0,4.427,4.427,0,1,0-4.418,4.137,1.4,1.4,0,1,1-1.66,1.379,1.379,1.379,0,0,0-2.758,0,4.427,4.427,0,1,0,4.418-4.137,1.4,1.4,0,1,1,0-2.758Z" transform="translate(-134.914 -45.473)"/>
    </g>
  </g>
</svg>
