<svg xmlns="http://www.w3.org/2000/svg" xmlns:xlink="http://www.w3.org/1999/xlink" width="113.331" height="113.331" viewBox="0 0 113.331 113.331">
  <defs>
    <filter id="Trazado_658878" x="0" y="0" width="113.331" height="113.331" filterUnits="userSpaceOnUse">
      <feOffset dy="3" input="SourceAlpha"/>
      <feGaussianBlur stdDeviation="3" result="blur"/>
      <feFlood flood-opacity="0.161"/>
      <feComposite operator="in" in2="blur"/>
      <feComposite in="SourceGraphic"/>
    </filter>
  </defs>
  <g id="Grupo_963993" data-name="Grupo 963993" transform="translate(-586 -7336)">
    <g transform="matrix(1, 0, 0, 1, 586, 7336)" filter="url(#Trazado_658878)">
      <path id="Trazado_658878-2" data-name="Trazado 658878" d="M47.666,0A47.666,47.666,0,1,1,0,47.666,47.666,47.666,0,0,1,47.666,0Z" transform="translate(9 6)" fill="#a8edd8"/>
    </g>
    <g id="lupa" transform="translate(592.938 7357.649)">
      <g id="Grupo_963980" data-name="Grupo 963980" transform="translate(14.384 -4.649)">
        <g id="Grupo_963966" data-name="Grupo 963966" transform="translate(4.183 57.181)">
          <g id="Grupo_963965" data-name="Grupo 963965">
            <path id="Trazado_658892" data-name="Trazado 658892" d="M115.56,336.231l-5.183,5.184,5.789,5.79,5.184-5.184" transform="translate(-110.377 -336.231)" fill="#ffcb7c"/>
          </g>
        </g>
        <g id="Grupo_963967" data-name="Grupo 963967" transform="translate(2.447 2.457)">
          <ellipse id="Elipse_6547" data-name="Elipse 6547" cx="33.709" cy="33.714" rx="33.709" ry="33.714" fill="#6c96b3"/>
        </g>
        <g id="Grupo_963979" data-name="Grupo 963979" transform="translate(0 0)">
          <g id="Grupo_963973" data-name="Grupo 963973">
            <g id="Grupo_963972" data-name="Grupo 963972">
              <g id="Grupo_963969" data-name="Grupo 963969">
                <g id="Grupo_963968" data-name="Grupo 963968">
                  <ellipse id="Elipse_6548" data-name="Elipse 6548" cx="25.636" cy="25.611" rx="25.636" ry="25.611" transform="matrix(0.658, -0.753, 0.753, 0.658, 0, 38.608)" fill="#e5ecec"/>
                </g>
              </g>
              <g id="Grupo_963971" data-name="Grupo 963971" transform="translate(60.098 35.103)">
                <g id="Grupo_963970" data-name="Grupo 963970">
                  <path id="Trazado_658893" data-name="Trazado 658893" d="M445.386,207.963a1.678,1.678,0,1,1,1.649-1.377A1.694,1.694,0,0,1,445.386,207.963Z" transform="translate(-443.711 -204.612)"/>
                </g>
              </g>
            </g>
          </g>
          <g id="Grupo_963978" data-name="Grupo 963978" transform="translate(23.772 17.209)">
            <g id="Grupo_963976" data-name="Grupo 963976" transform="translate(0.552)">
              <g id="Grupo_963974" data-name="Grupo 963974" transform="translate(1.679 1.669)">
                <ellipse id="Elipse_6549" data-name="Elipse 6549" cx="10.158" cy="10.157" rx="10.158" ry="10.157" transform="translate(0 20.316) rotate(-89.885)" fill="#ffcbbe"/>
              </g>
              <g id="Grupo_963975" data-name="Grupo 963975">
                <path id="Trazado_658894" data-name="Trazado 658894" d="M242.285,121.612a11.836,11.836,0,1,1,11.834-11.836A11.848,11.848,0,0,1,242.285,121.612Zm0-20.316a8.481,8.481,0,1,0,8.479,8.481A8.49,8.49,0,0,0,242.285,101.3Z" transform="translate(-230.451 -97.941)"/>
              </g>
            </g>
            <g id="Grupo_963977" data-name="Grupo 963977" transform="translate(0 27.421)">
              <path id="Trazado_658895" data-name="Trazado 658895" d="M251.932,264.8v10.584a25.673,25.673,0,0,1-24.773.025V264.8a3.387,3.387,0,0,1,3.386-3.387h18A3.387,3.387,0,0,1,251.932,264.8Z" transform="translate(-227.159 -261.411)" fill="#5fc9ed"/>
            </g>
          </g>
        </g>
      </g>
      <g id="Grupo_963985" data-name="Grupo 963985" transform="translate(0.062 -3.869)">
        <g id="Grupo_963981" data-name="Grupo 963981" transform="translate(1.673 64.476)">
          <path id="Trazado_658896" data-name="Trazado 658896" d="M20,384.371l-7.945,7.946a6.9,6.9,0,0,0,9.762,9.763l7.945-7.946Z" transform="translate(-10.037 -384.371)" fill="#b3dafe"/>
        </g>
        <g id="Grupo_963984" data-name="Grupo 963984" transform="translate(0)">
          <g id="Grupo_963982" data-name="Grupo 963982" transform="translate(11.634 59.59)">
            <path id="Trazado_658897" data-name="Trazado 658897" d="M0,0H6.9V13.807H0Z" transform="translate(0 4.877) rotate(-45)" fill="#9bc6ff"/>
          </g>
          <g id="Grupo_963983" data-name="Grupo 963983">
            <path id="Trazado_658898" data-name="Trazado 658898" d="M190.36,82.393a1.677,1.677,0,0,0-2.136,1.031,23.771,23.771,0,0,1-5.684,9.037,24.185,24.185,0,0,1-2.859,2.446V87.378a5.07,5.07,0,0,0-5.064-5.064h-18a5.07,5.07,0,0,0-5.064,5.064v7.558a23.955,23.955,0,0,1-2.859-36.326,23.811,23.811,0,0,1,16.936-7.023h.012A23.934,23.934,0,0,1,188.257,67.7a1.677,1.677,0,1,0,3.172-1.092,27.289,27.289,0,0,0-25.787-18.372h-.013A27.316,27.316,0,0,0,152.42,99.456h0a27.332,27.332,0,0,0,13.171,3.381h.027a27.364,27.364,0,0,0,13.2-3.407h0a27.431,27.431,0,0,0,12.576-14.9A1.677,1.677,0,0,0,190.36,82.393Zm-35.452,14.58v-9.6a1.711,1.711,0,0,1,1.709-1.709h18a1.711,1.711,0,0,1,1.709,1.709V96.95a24.146,24.146,0,0,1-21.418.023Z" transform="translate(-115.136 -40.141)"/>
            <path id="Trazado_658899" data-name="Trazado 658899" d="M50.54,0A35.375,35.375,0,0,0,21.784,55.994l-3.218,3.218-.8-.8a1.678,1.678,0,0,0-2.373,0L10.516,63.29l0,0L2.571,71.236A8.581,8.581,0,1,0,14.705,83.372l7.945-7.946h0l4.878-4.879a1.678,1.678,0,0,0,0-2.372l-.8-.8,3.219-3.219A35.384,35.384,0,1,0,50.54,0ZM12.333,81a5.226,5.226,0,0,1-7.39-7.392l6.759-6.76,3.691,3.692,3.7,3.7Zm9.131-9.133-3.691-3.692-3.7-3.7L16.58,61.97l7.39,7.391ZM24.355,65l-1.708-1.708-1.709-1.709,2.944-2.944A35.706,35.706,0,0,0,27.3,62.058ZM50.54,67.427A32.036,32.036,0,1,1,82.572,35.391,32.07,32.07,0,0,1,50.54,67.427Z" transform="translate(-0.062)"/>
          </g>
        </g>
      </g>
    </g>
  </g>
</svg>
