<svg xmlns="http://www.w3.org/2000/svg" xmlns:xlink="http://www.w3.org/1999/xlink" width="215.946" height="211.757" viewBox="0 0 215.946 211.757">
  <defs>
    <clipPath id="clip-path">
      <path id="Trazado_116610" data-name="Trazado 116610" d="M-142.474,9.135l-20.428,10.2-9.928,4.96-26.391,13.177-.157.079-.329.165L-209.27,42.5l-5.361,2.677-.1.05-42.41,21.18a13.966,13.966,0,0,1-15.661-2.19,13.824,13.824,0,0,1-3.064-4.066l-1.911-3.822-1.031-2.069-.215-.429-.308-.623V53.2l-4.645-9.291-.293-.58-.158-.315-6.091-12.2-.243-.487-1.26-2.52-.322-.651-.544-1.1c-.007,0-.007,0-.007-.007l-1.331-2.663-1.038-2.076-.05-.107-.737-1.474a.724.724,0,0,0-.05-.107l-.53-1.045-1.711-3.436-2.169-4.33-2.8-5.6-.014-.029-3.336-6.685-1.152-2.312-6.077-12.154-19.247-38.537a13.968,13.968,0,0,1,6.256-18.732l29.332-14.645,22.9-11.445c.007-.007.014-.007.029-.014l5.218-2.605h.007l1.575-.787,2.9-1.446,2.548-1.274,3.021-1.51,5.261-2.634h.007l3.922-1.954h.007l37.929-18.947a13.959,13.959,0,0,1,18.732,6.249L-136.226-9.6A13.957,13.957,0,0,1-142.474,9.135Z" transform="translate(334.608 131.982)" fill="none"/>
    </clipPath>
  </defs>
  <g id="Grupo_963991" data-name="Grupo 963991" transform="translate(-205.706 -6365.148)">
    <g id="Grupo_960345" data-name="Grupo 960345" transform="translate(209.918 6365.148)">
      <g id="Grupo_158845" data-name="Grupo 158845" transform="translate(3.699 0)">
        <g id="Grupo_158521" data-name="Grupo 158521" transform="translate(0)">
          <g id="Grupo_157916" data-name="Grupo 157916" transform="translate(0)">
            <path id="Trazado_145968" data-name="Trazado 145968" d="M38.986,0A38.986,38.986,0,1,1,0,38.986,38.986,38.986,0,0,1,38.986,0Z" transform="translate(130.063 0)" fill="#31313c" opacity="0.444" style="mix-blend-mode: multiply;isolation: isolate"/>
            <g id="Grupo_78276" data-name="Grupo 78276" transform="translate(96.007 36.674)">
              <g id="Grupo_53306" data-name="Grupo 53306">
                <path id="Trazado_99200" data-name="Trazado 99200" d="M416.336,51.238a1.062,1.062,0,1,1-1.062-1.014A1.039,1.039,0,0,1,416.336,51.238Z" transform="translate(-414.214 -50.224)" fill="#fff"/>
                <path id="Trazado_99201" data-name="Trazado 99201" d="M424.782,51.238a1.062,1.062,0,1,1-1.061-1.014A1.038,1.038,0,0,1,424.782,51.238Z" transform="translate(-413.11 -50.224)" fill="#fff"/>
                <path id="Trazado_99202" data-name="Trazado 99202" d="M433.228,51.238a1.062,1.062,0,1,1-1.061-1.014A1.038,1.038,0,0,1,433.228,51.238Z" transform="translate(-412.006 -50.224)" fill="#fff"/>
                <path id="Trazado_99203" data-name="Trazado 99203" d="M441.676,51.238a1.062,1.062,0,1,1-1.062-1.014A1.039,1.039,0,0,1,441.676,51.238Z" transform="translate(-410.902 -50.224)" fill="#fff"/>
                <path id="Trazado_99204" data-name="Trazado 99204" d="M450.122,51.238a1.062,1.062,0,1,1-1.061-1.014A1.039,1.039,0,0,1,450.122,51.238Z" transform="translate(-409.798 -50.224)" fill="#fff"/>
                <path id="Trazado_99205" data-name="Trazado 99205" d="M458.567,51.238a1.062,1.062,0,1,1-1.061-1.014A1.038,1.038,0,0,1,458.567,51.238Z" transform="translate(-408.694 -50.224)" fill="#fff"/>
                <path id="Trazado_99206" data-name="Trazado 99206" d="M467.014,51.238a1.062,1.062,0,1,1-1.062-1.014A1.039,1.039,0,0,1,467.014,51.238Z" transform="translate(-407.59 -50.224)" fill="#fff"/>
                <path id="Trazado_99207" data-name="Trazado 99207" d="M475.461,51.238a1.062,1.062,0,1,1-1.061-1.014A1.039,1.039,0,0,1,475.461,51.238Z" transform="translate(-406.486 -50.224)" fill="#fff"/>
                <path id="Trazado_99208" data-name="Trazado 99208" d="M483.906,51.238a1.062,1.062,0,1,1-1.061-1.014A1.039,1.039,0,0,1,483.906,51.238Z" transform="translate(-405.382 -50.224)" fill="#fff"/>
                <path id="Trazado_99209" data-name="Trazado 99209" d="M492.353,51.238a1.062,1.062,0,1,1-1.062-1.014A1.039,1.039,0,0,1,492.353,51.238Z" transform="translate(-404.278 -50.224)" fill="#fff"/>
                <path id="Trazado_99210" data-name="Trazado 99210" d="M500.8,51.238a1.062,1.062,0,1,1-1.062-1.014A1.039,1.039,0,0,1,500.8,51.238Z" transform="translate(-403.174 -50.224)" fill="#fff"/>
              </g>
              <g id="Grupo_53307" data-name="Grupo 53307" transform="translate(0 8.119)">
                <path id="Trazado_99211" data-name="Trazado 99211" d="M416.336,58.746a1.062,1.062,0,1,1-1.062-1.014A1.039,1.039,0,0,1,416.336,58.746Z" transform="translate(-414.214 -57.732)" fill="#fff"/>
                <path id="Trazado_99212" data-name="Trazado 99212" d="M424.782,58.746a1.062,1.062,0,1,1-1.061-1.014A1.038,1.038,0,0,1,424.782,58.746Z" transform="translate(-413.11 -57.732)" fill="#fff"/>
                <path id="Trazado_99213" data-name="Trazado 99213" d="M433.228,58.746a1.062,1.062,0,1,1-1.061-1.014A1.038,1.038,0,0,1,433.228,58.746Z" transform="translate(-412.006 -57.732)" fill="#fff"/>
                <path id="Trazado_99214" data-name="Trazado 99214" d="M441.676,58.746a1.062,1.062,0,1,1-1.062-1.014A1.039,1.039,0,0,1,441.676,58.746Z" transform="translate(-410.902 -57.732)" fill="#fff"/>
                <path id="Trazado_99215" data-name="Trazado 99215" d="M450.122,58.746a1.062,1.062,0,1,1-1.061-1.014A1.039,1.039,0,0,1,450.122,58.746Z" transform="translate(-409.798 -57.732)" fill="#fff"/>
                <path id="Trazado_99216" data-name="Trazado 99216" d="M458.567,58.746a1.062,1.062,0,1,1-1.061-1.014A1.038,1.038,0,0,1,458.567,58.746Z" transform="translate(-408.694 -57.732)" fill="#fff"/>
                <path id="Trazado_99217" data-name="Trazado 99217" d="M467.014,58.746a1.062,1.062,0,1,1-1.062-1.014A1.039,1.039,0,0,1,467.014,58.746Z" transform="translate(-407.59 -57.732)" fill="#fff"/>
                <path id="Trazado_99218" data-name="Trazado 99218" d="M475.461,58.746a1.062,1.062,0,1,1-1.061-1.014A1.039,1.039,0,0,1,475.461,58.746Z" transform="translate(-406.486 -57.732)" fill="#fff"/>
                <path id="Trazado_99219" data-name="Trazado 99219" d="M483.906,58.746a1.062,1.062,0,1,1-1.061-1.014A1.039,1.039,0,0,1,483.906,58.746Z" transform="translate(-405.382 -57.732)" fill="#fff"/>
                <path id="Trazado_99220" data-name="Trazado 99220" d="M492.353,58.746a1.062,1.062,0,1,1-1.062-1.014A1.039,1.039,0,0,1,492.353,58.746Z" transform="translate(-404.278 -57.732)" fill="#fff"/>
                <path id="Trazado_99221" data-name="Trazado 99221" d="M500.8,58.746a1.062,1.062,0,1,1-1.062-1.014A1.039,1.039,0,0,1,500.8,58.746Z" transform="translate(-403.174 -57.732)" fill="#fff"/>
              </g>
              <g id="Grupo_53308" data-name="Grupo 53308" transform="translate(0 16.237)">
                <ellipse id="Elipse_3955" data-name="Elipse 3955" cx="1.061" cy="1.015" rx="1.061" ry="1.015" fill="#fff"/>
                <path id="Trazado_99222" data-name="Trazado 99222" d="M424.782,66.254a1.062,1.062,0,1,1-1.061-1.014A1.039,1.039,0,0,1,424.782,66.254Z" transform="translate(-413.11 -65.24)" fill="#fff"/>
                <ellipse id="Elipse_3956" data-name="Elipse 3956" cx="1.061" cy="1.015" rx="1.061" ry="1.015" transform="translate(19.101)" fill="#fff"/>
                <path id="Trazado_99223" data-name="Trazado 99223" d="M441.676,66.254a1.062,1.062,0,1,1-1.062-1.014A1.04,1.04,0,0,1,441.676,66.254Z" transform="translate(-410.902 -65.24)" fill="#fff"/>
                <path id="Trazado_99224" data-name="Trazado 99224" d="M450.122,66.254a1.062,1.062,0,1,1-1.061-1.014A1.039,1.039,0,0,1,450.122,66.254Z" transform="translate(-409.798 -65.24)" fill="#fff"/>
                <ellipse id="Elipse_3957" data-name="Elipse 3957" cx="1.061" cy="1.015" rx="1.061" ry="1.015" transform="translate(47.752)" fill="#fff"/>
                <path id="Trazado_99225" data-name="Trazado 99225" d="M467.014,66.254a1.062,1.062,0,1,1-1.062-1.014A1.04,1.04,0,0,1,467.014,66.254Z" transform="translate(-407.59 -65.24)" fill="#fff"/>
                <ellipse id="Elipse_3958" data-name="Elipse 3958" cx="1.061" cy="1.015" rx="1.061" ry="1.015" transform="translate(66.853)" fill="#fff"/>
                <ellipse id="Elipse_3959" data-name="Elipse 3959" cx="1.061" cy="1.015" rx="1.061" ry="1.015" transform="translate(76.403)" fill="#fff"/>
                <path id="Trazado_99226" data-name="Trazado 99226" d="M492.353,66.254a1.062,1.062,0,1,1-1.062-1.014A1.04,1.04,0,0,1,492.353,66.254Z" transform="translate(-404.278 -65.24)" fill="#fff"/>
                <path id="Trazado_99227" data-name="Trazado 99227" d="M500.8,66.254a1.062,1.062,0,1,1-1.062-1.014A1.039,1.039,0,0,1,500.8,66.254Z" transform="translate(-403.174 -65.24)" fill="#fff"/>
              </g>
              <g id="Grupo_53309" data-name="Grupo 53309" transform="translate(0 24.355)">
                <ellipse id="Elipse_3960" data-name="Elipse 3960" cx="1.061" cy="1.015" rx="1.061" ry="1.015" transform="translate(0 0)" fill="#fff"/>
                <path id="Trazado_99228" data-name="Trazado 99228" d="M424.782,73.762a1.062,1.062,0,1,1-1.061-1.015A1.038,1.038,0,0,1,424.782,73.762Z" transform="translate(-413.11 -72.747)" fill="#fff"/>
                <ellipse id="Elipse_3961" data-name="Elipse 3961" cx="1.061" cy="1.015" rx="1.061" ry="1.015" transform="translate(19.101 0)" fill="#fff"/>
                <path id="Trazado_99229" data-name="Trazado 99229" d="M441.676,73.762a1.062,1.062,0,1,1-1.062-1.015A1.039,1.039,0,0,1,441.676,73.762Z" transform="translate(-410.902 -72.747)" fill="#fff"/>
                <path id="Trazado_99230" data-name="Trazado 99230" d="M450.122,73.762a1.062,1.062,0,1,1-1.061-1.015A1.039,1.039,0,0,1,450.122,73.762Z" transform="translate(-409.798 -72.747)" fill="#fff"/>
                <ellipse id="Elipse_3962" data-name="Elipse 3962" cx="1.061" cy="1.015" rx="1.061" ry="1.015" transform="translate(47.752 0)" fill="#fff"/>
                <path id="Trazado_99231" data-name="Trazado 99231" d="M467.014,73.762a1.062,1.062,0,1,1-1.062-1.015A1.039,1.039,0,0,1,467.014,73.762Z" transform="translate(-407.59 -72.747)" fill="#fff"/>
                <ellipse id="Elipse_3963" data-name="Elipse 3963" cx="1.061" cy="1.015" rx="1.061" ry="1.015" transform="translate(66.853 0)" fill="#fff"/>
                <ellipse id="Elipse_3964" data-name="Elipse 3964" cx="1.061" cy="1.015" rx="1.061" ry="1.015" transform="translate(76.403 0)" fill="#fff"/>
                <path id="Trazado_99232" data-name="Trazado 99232" d="M492.353,73.762a1.062,1.062,0,1,1-1.062-1.015A1.039,1.039,0,0,1,492.353,73.762Z" transform="translate(-404.278 -72.747)" fill="#fff"/>
                <path id="Trazado_99233" data-name="Trazado 99233" d="M500.8,73.762a1.062,1.062,0,1,1-1.062-1.015A1.039,1.039,0,0,1,500.8,73.762Z" transform="translate(-403.174 -72.747)" fill="#fff"/>
              </g>
              <g id="Grupo_53310" data-name="Grupo 53310" transform="translate(0 32.473)">
                <path id="Trazado_99234" data-name="Trazado 99234" d="M416.336,81.27a1.062,1.062,0,1,1-1.062-1.015A1.039,1.039,0,0,1,416.336,81.27Z" transform="translate(-414.214 -80.255)" fill="#fff"/>
                <path id="Trazado_99235" data-name="Trazado 99235" d="M424.782,81.27a1.062,1.062,0,1,1-1.061-1.015A1.038,1.038,0,0,1,424.782,81.27Z" transform="translate(-413.11 -80.255)" fill="#fff"/>
                <path id="Trazado_99236" data-name="Trazado 99236" d="M433.228,81.27a1.062,1.062,0,1,1-1.061-1.015A1.038,1.038,0,0,1,433.228,81.27Z" transform="translate(-412.006 -80.255)" fill="#fff"/>
                <path id="Trazado_99237" data-name="Trazado 99237" d="M441.676,81.27a1.062,1.062,0,1,1-1.062-1.015A1.039,1.039,0,0,1,441.676,81.27Z" transform="translate(-410.902 -80.255)" fill="#fff"/>
                <path id="Trazado_99238" data-name="Trazado 99238" d="M450.122,81.27a1.062,1.062,0,1,1-1.061-1.015A1.039,1.039,0,0,1,450.122,81.27Z" transform="translate(-409.798 -80.255)" fill="#fff"/>
                <path id="Trazado_99239" data-name="Trazado 99239" d="M458.567,81.27a1.062,1.062,0,1,1-1.061-1.015A1.038,1.038,0,0,1,458.567,81.27Z" transform="translate(-408.694 -80.255)" fill="#fff"/>
                <path id="Trazado_99240" data-name="Trazado 99240" d="M467.014,81.27a1.062,1.062,0,1,1-1.062-1.015A1.039,1.039,0,0,1,467.014,81.27Z" transform="translate(-407.59 -80.255)" fill="#fff"/>
                <path id="Trazado_99241" data-name="Trazado 99241" d="M475.461,81.27a1.062,1.062,0,1,1-1.061-1.015A1.038,1.038,0,0,1,475.461,81.27Z" transform="translate(-406.486 -80.255)" fill="#fff"/>
                <path id="Trazado_99242" data-name="Trazado 99242" d="M483.906,81.27a1.062,1.062,0,1,1-1.061-1.015A1.038,1.038,0,0,1,483.906,81.27Z" transform="translate(-405.382 -80.255)" fill="#fff"/>
                <path id="Trazado_99243" data-name="Trazado 99243" d="M492.353,81.27a1.062,1.062,0,1,1-1.062-1.015A1.039,1.039,0,0,1,492.353,81.27Z" transform="translate(-404.278 -80.255)" fill="#fff"/>
                <path id="Trazado_99244" data-name="Trazado 99244" d="M500.8,81.27a1.062,1.062,0,1,1-1.062-1.015A1.039,1.039,0,0,1,500.8,81.27Z" transform="translate(-403.174 -80.255)" fill="#fff"/>
              </g>
              <g id="Grupo_53311" data-name="Grupo 53311" transform="translate(0 40.592)">
                <ellipse id="Elipse_3965" data-name="Elipse 3965" cx="1.061" cy="1.015" rx="1.061" ry="1.015" transform="translate(0 0)" fill="#fff"/>
                <path id="Trazado_99245" data-name="Trazado 99245" d="M424.782,88.778a1.062,1.062,0,1,1-1.061-1.015A1.038,1.038,0,0,1,424.782,88.778Z" transform="translate(-413.11 -87.763)" fill="#fff"/>
                <ellipse id="Elipse_3966" data-name="Elipse 3966" cx="1.061" cy="1.015" rx="1.061" ry="1.015" transform="translate(19.101 0)" fill="#fff"/>
                <path id="Trazado_99246" data-name="Trazado 99246" d="M441.676,88.778a1.062,1.062,0,1,1-1.062-1.015A1.039,1.039,0,0,1,441.676,88.778Z" transform="translate(-410.902 -87.763)" fill="#fff"/>
                <path id="Trazado_99247" data-name="Trazado 99247" d="M450.122,88.778a1.062,1.062,0,1,1-1.061-1.015A1.039,1.039,0,0,1,450.122,88.778Z" transform="translate(-409.798 -87.763)" fill="#fff"/>
                <ellipse id="Elipse_3967" data-name="Elipse 3967" cx="1.061" cy="1.015" rx="1.061" ry="1.015" transform="translate(47.752 0)" fill="#fff"/>
                <path id="Trazado_99248" data-name="Trazado 99248" d="M467.014,88.778a1.062,1.062,0,1,1-1.062-1.015A1.039,1.039,0,0,1,467.014,88.778Z" transform="translate(-407.59 -87.763)" fill="#fff"/>
                <ellipse id="Elipse_3968" data-name="Elipse 3968" cx="1.061" cy="1.015" rx="1.061" ry="1.015" transform="translate(66.853 0)" fill="#fff"/>
                <ellipse id="Elipse_3969" data-name="Elipse 3969" cx="1.061" cy="1.015" rx="1.061" ry="1.015" transform="translate(76.403 0)" fill="#fff"/>
                <path id="Trazado_99249" data-name="Trazado 99249" d="M492.353,88.778a1.062,1.062,0,1,1-1.062-1.015A1.039,1.039,0,0,1,492.353,88.778Z" transform="translate(-404.278 -87.763)" fill="#fff"/>
                <path id="Trazado_99250" data-name="Trazado 99250" d="M500.8,88.778a1.062,1.062,0,1,1-1.062-1.015A1.039,1.039,0,0,1,500.8,88.778Z" transform="translate(-403.174 -87.763)" fill="#fff"/>
              </g>
              <g id="Grupo_53312" data-name="Grupo 53312" transform="translate(0 48.71)">
                <ellipse id="Elipse_3970" data-name="Elipse 3970" cx="1.061" cy="1.015" rx="1.061" ry="1.015" fill="#fff"/>
                <path id="Trazado_99251" data-name="Trazado 99251" d="M424.782,96.285a1.062,1.062,0,1,1-1.061-1.014A1.038,1.038,0,0,1,424.782,96.285Z" transform="translate(-413.11 -95.271)" fill="#fff"/>
                <ellipse id="Elipse_3971" data-name="Elipse 3971" cx="1.061" cy="1.015" rx="1.061" ry="1.015" transform="translate(19.101)" fill="#fff"/>
                <path id="Trazado_99252" data-name="Trazado 99252" d="M441.676,96.285a1.062,1.062,0,1,1-1.062-1.014A1.039,1.039,0,0,1,441.676,96.285Z" transform="translate(-410.902 -95.271)" fill="#fff"/>
                <path id="Trazado_99253" data-name="Trazado 99253" d="M450.122,96.285a1.062,1.062,0,1,1-1.061-1.014A1.039,1.039,0,0,1,450.122,96.285Z" transform="translate(-409.798 -95.271)" fill="#fff"/>
                <ellipse id="Elipse_3972" data-name="Elipse 3972" cx="1.061" cy="1.015" rx="1.061" ry="1.015" transform="translate(47.752)" fill="#fff"/>
                <path id="Trazado_99254" data-name="Trazado 99254" d="M467.014,96.285a1.062,1.062,0,1,1-1.062-1.014A1.039,1.039,0,0,1,467.014,96.285Z" transform="translate(-407.59 -95.271)" fill="#fff"/>
                <ellipse id="Elipse_3973" data-name="Elipse 3973" cx="1.061" cy="1.015" rx="1.061" ry="1.015" transform="translate(66.853)" fill="#fff"/>
                <ellipse id="Elipse_3974" data-name="Elipse 3974" cx="1.061" cy="1.015" rx="1.061" ry="1.015" transform="translate(76.403)" fill="#fff"/>
                <path id="Trazado_99255" data-name="Trazado 99255" d="M492.353,96.285a1.062,1.062,0,1,1-1.062-1.014A1.039,1.039,0,0,1,492.353,96.285Z" transform="translate(-404.278 -95.271)" fill="#fff"/>
                <path id="Trazado_99256" data-name="Trazado 99256" d="M500.8,96.285a1.062,1.062,0,1,1-1.062-1.014A1.039,1.039,0,0,1,500.8,96.285Z" transform="translate(-403.174 -95.271)" fill="#fff"/>
              </g>
              <g id="Grupo_53313" data-name="Grupo 53313" transform="translate(0 56.829)">
                <path id="Trazado_99257" data-name="Trazado 99257" d="M416.336,103.793a1.062,1.062,0,1,1-1.062-1.014A1.039,1.039,0,0,1,416.336,103.793Z" transform="translate(-414.214 -102.779)" fill="#fff"/>
                <path id="Trazado_99258" data-name="Trazado 99258" d="M424.782,103.793a1.062,1.062,0,1,1-1.061-1.014A1.038,1.038,0,0,1,424.782,103.793Z" transform="translate(-413.11 -102.779)" fill="#fff"/>
                <path id="Trazado_99259" data-name="Trazado 99259" d="M433.228,103.793a1.062,1.062,0,1,1-1.061-1.014A1.038,1.038,0,0,1,433.228,103.793Z" transform="translate(-412.006 -102.779)" fill="#fff"/>
                <path id="Trazado_99260" data-name="Trazado 99260" d="M441.676,103.793a1.062,1.062,0,1,1-1.062-1.014A1.039,1.039,0,0,1,441.676,103.793Z" transform="translate(-410.902 -102.779)" fill="#fff"/>
                <path id="Trazado_99261" data-name="Trazado 99261" d="M450.122,103.793a1.062,1.062,0,1,1-1.061-1.014A1.039,1.039,0,0,1,450.122,103.793Z" transform="translate(-409.798 -102.779)" fill="#fff"/>
                <path id="Trazado_99262" data-name="Trazado 99262" d="M458.567,103.793a1.062,1.062,0,1,1-1.061-1.014A1.038,1.038,0,0,1,458.567,103.793Z" transform="translate(-408.694 -102.779)" fill="#fff"/>
                <path id="Trazado_99263" data-name="Trazado 99263" d="M467.014,103.793a1.062,1.062,0,1,1-1.062-1.014A1.039,1.039,0,0,1,467.014,103.793Z" transform="translate(-407.59 -102.779)" fill="#fff"/>
                <path id="Trazado_99264" data-name="Trazado 99264" d="M475.461,103.793a1.062,1.062,0,1,1-1.061-1.014A1.039,1.039,0,0,1,475.461,103.793Z" transform="translate(-406.486 -102.779)" fill="#fff"/>
                <path id="Trazado_99265" data-name="Trazado 99265" d="M483.906,103.793a1.062,1.062,0,1,1-1.061-1.014A1.039,1.039,0,0,1,483.906,103.793Z" transform="translate(-405.382 -102.779)" fill="#fff"/>
                <path id="Trazado_99266" data-name="Trazado 99266" d="M492.353,103.793a1.062,1.062,0,1,1-1.062-1.014A1.039,1.039,0,0,1,492.353,103.793Z" transform="translate(-404.278 -102.779)" fill="#fff"/>
                <path id="Trazado_99267" data-name="Trazado 99267" d="M500.8,103.793a1.062,1.062,0,1,1-1.062-1.014A1.039,1.039,0,0,1,500.8,103.793Z" transform="translate(-403.174 -102.779)" fill="#fff"/>
              </g>
              <g id="Grupo_53314" data-name="Grupo 53314" transform="translate(0 64.948)">
                <ellipse id="Elipse_3975" data-name="Elipse 3975" cx="1.061" cy="1.015" rx="1.061" ry="1.015" fill="#fff"/>
                <path id="Trazado_99268" data-name="Trazado 99268" d="M424.782,111.3a1.062,1.062,0,1,1-1.061-1.014A1.039,1.039,0,0,1,424.782,111.3Z" transform="translate(-413.11 -110.287)" fill="#fff"/>
                <ellipse id="Elipse_3976" data-name="Elipse 3976" cx="1.061" cy="1.015" rx="1.061" ry="1.015" transform="translate(19.101)" fill="#fff"/>
                <path id="Trazado_99269" data-name="Trazado 99269" d="M441.676,111.3a1.062,1.062,0,1,1-1.062-1.014A1.04,1.04,0,0,1,441.676,111.3Z" transform="translate(-410.902 -110.287)" fill="#fff"/>
                <path id="Trazado_99270" data-name="Trazado 99270" d="M450.122,111.3a1.062,1.062,0,1,1-1.061-1.014A1.039,1.039,0,0,1,450.122,111.3Z" transform="translate(-409.798 -110.287)" fill="#fff"/>
                <ellipse id="Elipse_3977" data-name="Elipse 3977" cx="1.061" cy="1.015" rx="1.061" ry="1.015" transform="translate(47.752)" fill="#fff"/>
                <path id="Trazado_99271" data-name="Trazado 99271" d="M467.014,111.3a1.062,1.062,0,1,1-1.062-1.014A1.04,1.04,0,0,1,467.014,111.3Z" transform="translate(-407.59 -110.287)" fill="#fff"/>
                <ellipse id="Elipse_3978" data-name="Elipse 3978" cx="1.061" cy="1.015" rx="1.061" ry="1.015" transform="translate(66.853)" fill="#fff"/>
                <ellipse id="Elipse_3979" data-name="Elipse 3979" cx="1.061" cy="1.015" rx="1.061" ry="1.015" transform="translate(76.403)" fill="#fff"/>
                <path id="Trazado_99272" data-name="Trazado 99272" d="M492.353,111.3a1.062,1.062,0,1,1-1.062-1.014A1.04,1.04,0,0,1,492.353,111.3Z" transform="translate(-404.278 -110.287)" fill="#fff"/>
                <path id="Trazado_99273" data-name="Trazado 99273" d="M500.8,111.3a1.062,1.062,0,1,1-1.062-1.014A1.04,1.04,0,0,1,500.8,111.3Z" transform="translate(-403.174 -110.287)" fill="#fff"/>
              </g>
              <g id="Grupo_53315" data-name="Grupo 53315" transform="translate(0 73.065)">
                <path id="Trazado_99274" data-name="Trazado 99274" d="M416.336,118.809a1.062,1.062,0,1,1-1.062-1.015A1.039,1.039,0,0,1,416.336,118.809Z" transform="translate(-414.214 -117.794)" fill="#fff"/>
                <path id="Trazado_99275" data-name="Trazado 99275" d="M424.782,118.809a1.062,1.062,0,1,1-1.061-1.015A1.039,1.039,0,0,1,424.782,118.809Z" transform="translate(-413.11 -117.794)" fill="#fff"/>
                <path id="Trazado_99276" data-name="Trazado 99276" d="M433.228,118.809a1.062,1.062,0,1,1-1.061-1.015A1.039,1.039,0,0,1,433.228,118.809Z" transform="translate(-412.006 -117.794)" fill="#fff"/>
                <path id="Trazado_99277" data-name="Trazado 99277" d="M441.676,118.809a1.062,1.062,0,1,1-1.062-1.015A1.04,1.04,0,0,1,441.676,118.809Z" transform="translate(-410.902 -117.794)" fill="#fff"/>
                <path id="Trazado_99278" data-name="Trazado 99278" d="M450.122,118.809a1.062,1.062,0,1,1-1.061-1.015A1.039,1.039,0,0,1,450.122,118.809Z" transform="translate(-409.798 -117.794)" fill="#fff"/>
                <path id="Trazado_99279" data-name="Trazado 99279" d="M458.567,118.809a1.062,1.062,0,1,1-1.061-1.015A1.039,1.039,0,0,1,458.567,118.809Z" transform="translate(-408.694 -117.794)" fill="#fff"/>
                <path id="Trazado_99280" data-name="Trazado 99280" d="M467.014,118.809a1.062,1.062,0,1,1-1.062-1.015A1.04,1.04,0,0,1,467.014,118.809Z" transform="translate(-407.59 -117.794)" fill="#fff"/>
                <path id="Trazado_99281" data-name="Trazado 99281" d="M475.461,118.809a1.062,1.062,0,1,1-1.061-1.015A1.039,1.039,0,0,1,475.461,118.809Z" transform="translate(-406.486 -117.794)" fill="#fff"/>
                <path id="Trazado_99282" data-name="Trazado 99282" d="M483.906,118.809a1.062,1.062,0,1,1-1.061-1.015A1.039,1.039,0,0,1,483.906,118.809Z" transform="translate(-405.382 -117.794)" fill="#fff"/>
                <path id="Trazado_99283" data-name="Trazado 99283" d="M492.353,118.809a1.062,1.062,0,1,1-1.062-1.015A1.04,1.04,0,0,1,492.353,118.809Z" transform="translate(-404.278 -117.794)" fill="#fff"/>
                <path id="Trazado_99284" data-name="Trazado 99284" d="M500.8,118.809a1.062,1.062,0,1,1-1.062-1.015A1.039,1.039,0,0,1,500.8,118.809Z" transform="translate(-403.174 -117.794)" fill="#fff"/>
              </g>
              <g id="Grupo_53316" data-name="Grupo 53316" transform="translate(0 81.184)">
                <ellipse id="Elipse_3980" data-name="Elipse 3980" cx="1.061" cy="1.015" rx="1.061" ry="1.015" transform="translate(0 0)" fill="#fff"/>
                <path id="Trazado_99285" data-name="Trazado 99285" d="M424.782,126.317a1.062,1.062,0,1,1-1.061-1.015A1.038,1.038,0,0,1,424.782,126.317Z" transform="translate(-413.11 -125.302)" fill="#fff"/>
                <ellipse id="Elipse_3981" data-name="Elipse 3981" cx="1.061" cy="1.015" rx="1.061" ry="1.015" transform="translate(19.101 0)" fill="#fff"/>
                <path id="Trazado_99286" data-name="Trazado 99286" d="M441.676,126.317a1.062,1.062,0,1,1-1.062-1.015A1.039,1.039,0,0,1,441.676,126.317Z" transform="translate(-410.902 -125.302)" fill="#fff"/>
                <path id="Trazado_99287" data-name="Trazado 99287" d="M450.122,126.317a1.062,1.062,0,1,1-1.061-1.015A1.039,1.039,0,0,1,450.122,126.317Z" transform="translate(-409.798 -125.302)" fill="#fff"/>
                <ellipse id="Elipse_3982" data-name="Elipse 3982" cx="1.061" cy="1.015" rx="1.061" ry="1.015" transform="translate(47.752 0)" fill="#fff"/>
                <path id="Trazado_99288" data-name="Trazado 99288" d="M467.014,126.317a1.062,1.062,0,1,1-1.062-1.015A1.039,1.039,0,0,1,467.014,126.317Z" transform="translate(-407.59 -125.302)" fill="#fff"/>
                <ellipse id="Elipse_3983" data-name="Elipse 3983" cx="1.061" cy="1.015" rx="1.061" ry="1.015" transform="translate(66.853 0)" fill="#fff"/>
                <ellipse id="Elipse_3984" data-name="Elipse 3984" cx="1.061" cy="1.015" rx="1.061" ry="1.015" transform="translate(76.403 0)" fill="#fff"/>
                <path id="Trazado_99289" data-name="Trazado 99289" d="M492.353,126.317a1.062,1.062,0,1,1-1.062-1.015A1.039,1.039,0,0,1,492.353,126.317Z" transform="translate(-404.278 -125.302)" fill="#fff"/>
                <path id="Trazado_99290" data-name="Trazado 99290" d="M500.8,126.317a1.062,1.062,0,1,1-1.062-1.015A1.039,1.039,0,0,1,500.8,126.317Z" transform="translate(-403.174 -125.302)" fill="#fff"/>
              </g>
              <g id="Grupo_53317" data-name="Grupo 53317" transform="translate(0 89.303)">
                <ellipse id="Elipse_3985" data-name="Elipse 3985" cx="1.061" cy="1.015" rx="1.061" ry="1.015" transform="translate(0 0)" fill="#fff"/>
                <path id="Trazado_99291" data-name="Trazado 99291" d="M424.782,133.825a1.062,1.062,0,1,1-1.061-1.015A1.038,1.038,0,0,1,424.782,133.825Z" transform="translate(-413.11 -132.81)" fill="#fff"/>
                <ellipse id="Elipse_3986" data-name="Elipse 3986" cx="1.061" cy="1.015" rx="1.061" ry="1.015" transform="translate(19.101 0)" fill="#fff"/>
                <path id="Trazado_99292" data-name="Trazado 99292" d="M441.676,133.825a1.062,1.062,0,1,1-1.062-1.015A1.039,1.039,0,0,1,441.676,133.825Z" transform="translate(-410.902 -132.81)" fill="#fff"/>
                <path id="Trazado_99293" data-name="Trazado 99293" d="M450.122,133.825a1.062,1.062,0,1,1-1.061-1.015A1.039,1.039,0,0,1,450.122,133.825Z" transform="translate(-409.798 -132.81)" fill="#fff"/>
                <ellipse id="Elipse_3987" data-name="Elipse 3987" cx="1.061" cy="1.015" rx="1.061" ry="1.015" transform="translate(47.752 0)" fill="#fff"/>
                <path id="Trazado_99294" data-name="Trazado 99294" d="M467.014,133.825a1.062,1.062,0,1,1-1.062-1.015A1.039,1.039,0,0,1,467.014,133.825Z" transform="translate(-407.59 -132.81)" fill="#fff"/>
                <ellipse id="Elipse_3988" data-name="Elipse 3988" cx="1.061" cy="1.015" rx="1.061" ry="1.015" transform="translate(66.853 0)" fill="#fff"/>
                <ellipse id="Elipse_3989" data-name="Elipse 3989" cx="1.061" cy="1.015" rx="1.061" ry="1.015" transform="translate(76.403 0)" fill="#fff"/>
                <path id="Trazado_99295" data-name="Trazado 99295" d="M492.353,133.825a1.062,1.062,0,1,1-1.062-1.015A1.039,1.039,0,0,1,492.353,133.825Z" transform="translate(-404.278 -132.81)" fill="#fff"/>
                <path id="Trazado_99296" data-name="Trazado 99296" d="M500.8,133.825a1.062,1.062,0,1,1-1.062-1.015A1.039,1.039,0,0,1,500.8,133.825Z" transform="translate(-403.174 -132.81)" fill="#fff"/>
              </g>
            </g>
          </g>
        </g>
      </g>
    </g>
    <path id="Trazado_656417" data-name="Trazado 656417" d="M-185.684-22.6-201.518-14.7l-7.7,3.845L-229.669-.637l-.122.061-.255.128-7.412,3.706-4.155,2.075-.078.039-32.872,16.417a10.825,10.825,0,0,1-12.139-1.7,10.715,10.715,0,0,1-2.375-3.151l-1.481-2.963-.8-1.6-.166-.333-.239-.483v-.006l-3.6-7.2-.227-.449-.122-.244L-300.433-5.8l-.189-.377-.976-1.953-.25-.5-.422-.849c-.006,0-.006,0-.006-.006l-1.032-2.064-.8-1.609-.039-.083-.571-1.143a.562.562,0,0,0-.039-.083l-.411-.81-1.326-2.663-1.681-3.357-2.169-4.344-.011-.022-2.585-5.182-.893-1.792-4.71-9.42-14.919-29.87a10.827,10.827,0,0,1,4.849-14.519L-305.881-97.8l17.754-8.871c.006-.006.011-.006.022-.011l4.044-2.019h.006l1.221-.61,2.247-1.121,1.975-.988,2.341-1.171,4.078-2.042h.006l3.04-1.515h.006l29.4-14.686a10.82,10.82,0,0,1,14.519,4.843l44.384,88.873A10.818,10.818,0,0,1-185.684-22.6Z" transform="translate(553.205 6498.4)" fill="#21155c"/>
    <g id="Grupo_960344" data-name="Grupo 960344" transform="translate(205.706 6372.646)">
      <g id="Grupo_92305" data-name="Grupo 92305" transform="translate(0 0)">
        <path id="Trazado_116609" data-name="Trazado 116609" d="M-142.474,9.135l-20.428,10.2-9.928,4.96-26.391,13.177-.157.079-.329.165L-209.27,42.5l-5.361,2.677-.1.05-42.41,21.18a13.966,13.966,0,0,1-15.661-2.19,13.824,13.824,0,0,1-3.064-4.066l-1.911-3.822-1.031-2.069-.215-.429-.308-.623V53.2l-4.645-9.291-.293-.58-.158-.315-6.091-12.2-.243-.487-1.26-2.52-.322-.651-.544-1.1c-.007,0-.007,0-.007-.007l-1.331-2.663-1.038-2.076-.05-.107-.737-1.474a.724.724,0,0,0-.05-.107l-.53-1.045-1.711-3.436-2.169-4.33-2.8-5.6-.014-.029-3.336-6.685-1.152-2.312-6.077-12.154-19.247-38.537a13.968,13.968,0,0,1,6.256-18.732l29.332-14.645,22.9-11.445c.007-.007.014-.007.029-.014l5.218-2.605h.007l1.575-.787,2.9-1.446,2.548-1.274,3.021-1.51,5.261-2.634h.007l3.922-1.954h.007l37.929-18.947a13.959,13.959,0,0,1,18.732,6.249L-136.226-9.6A13.957,13.957,0,0,1-142.474,9.135Z" transform="translate(334.608 136.003)" fill="#ffd41c"/>
        <g id="Grupo_92247" data-name="Grupo 92247" transform="translate(0 4.021)">
          <g id="Grupo_92246" data-name="Grupo 92246" clip-path="url(#clip-path)">
            <g id="Grupo_92245" data-name="Grupo 92245" transform="translate(-18.476 12.897)">
              <g id="Grupo_92244" data-name="Grupo 92244" transform="translate(0 0)">
                <circle id="Elipse_5354" data-name="Elipse 5354" cx="77.173" cy="77.173" r="77.173" transform="translate(0 109.14) rotate(-45)" fill="#21155c"/>
              </g>
            </g>
          </g>
        </g>
        <g id="Grupo_92257" data-name="Grupo 92257" transform="translate(32.118 23.393)">
          <path id="Trazado_116611" data-name="Trazado 116611" d="M-231.636-104.9q1.33-.035,2.643.005a31.274,31.274,0,0,1,5.035.6c9.145,1.794,18.267,8.244,18.65,18.272a44.378,44.378,0,0,1-.656,8.412c-.777,5.052-2.373,9.956-3.035,15.025a6.642,6.642,0,0,0,.215,3.469c.922,2.157,3.571,2.854,5.859,3.371,4.009.908,8.2,2.229,10.867,5.353a14.661,14.661,0,0,1,3.129,8.7,22.652,22.652,0,0,1-2.863,12.4,11.236,11.236,0,0,1-5.343,5.212c-2.772,1.083-5.878.412-8.8-.152-21.566-4.161-43.837-1.65-65.51,1.918a32,32,0,0,1-8.209-14.149c-1.326-4.959-1.05-9.752,2.162-13.955a25.175,25.175,0,0,1,8.97-6.907c3.081-1.536,3.971-3.152,3.714-6.612-.563-7.582-.667-15.771,2.335-22.9C-257.347-99-244.184-104.566-231.636-104.9Z" transform="translate(287.081 104.917)" fill="#26d19e"/>
          <g id="Grupo_92248" data-name="Grupo 92248" transform="translate(38.909 40.445)">
            <path id="Trazado_116612" data-name="Trazado 116612" d="M-210.284-37.586V-25.32l-22.41-.114-2.682-22.978Z" transform="translate(235.376 48.411)" fill="#ffe1c2"/>
            <path id="Trazado_116613" data-name="Trazado 116613" d="M-209.285-32.7v6.35a18.919,18.919,0,0,1-7.863-.19c-7.25-1.794-13.35-6.4-14.713-14.11A48.621,48.621,0,0,0-209.285-32.7Z" transform="translate(234.377 46.205)" fill="#0b0a10"/>
          </g>
          <g id="Grupo_92256" data-name="Grupo 92256" transform="translate(28.559 0.464)">
            <path id="Trazado_116614" data-name="Trazado 116614" d="M-205.8-50.957c-10.353,6.317-26.166,3.32-30.063-9.855A121.644,121.644,0,0,1-239.1-74.3c-.331-1.9-.515-3.39-.629-4.447a21.164,21.164,0,0,1-.48-4.421,20.764,20.764,0,0,1,20.82-20.706,20.783,20.783,0,0,1,12.572,4.2,20.838,20.838,0,0,1,6.773,8.831c1.607,4.007,1.461,8.2,1.5,12.431.031,3.162.042,6.309-.213,9.468-.45,5.548-1.286,12.619-5.474,16.745A8.709,8.709,0,0,1-205.8-50.957Z" transform="translate(247.099 104.157)" fill="#ffe1c2"/>
            <g id="Grupo_92252" data-name="Grupo 92252" transform="translate(23.669 24.993)">
              <path id="Trazado_116615" data-name="Trazado 116615" d="M-210.931-59.967a1.731,1.731,0,0,1-1.595,1.841,1.731,1.731,0,0,1-1.595-1.841,1.73,1.73,0,0,1,1.595-1.84A1.73,1.73,0,0,1-210.931-59.967Z" transform="translate(216.015 67.207)" fill="#0b0a10"/>
              <path id="Trazado_116616" data-name="Trazado 116616" d="M-188.336-59.967a1.732,1.732,0,0,1-1.595,1.841,1.732,1.732,0,0,1-1.6-1.841,1.731,1.731,0,0,1,1.6-1.84A1.731,1.731,0,0,1-188.336-59.967Z" transform="translate(209.593 67.207)" fill="#0b0a10"/>
              <g id="Grupo_92251" data-name="Grupo 92251" transform="translate(9.774 3.288)">
                <g id="Grupo_92249" data-name="Grupo 92249" transform="translate(2.217)">
                  <path id="Trazado_116617" data-name="Trazado 116617" d="M-196.617-50.665a.192.192,0,0,1-.049-.006,11.054,11.054,0,0,1-3.243-1.3.219.219,0,0,1-.075-.3.219.219,0,0,1,.3-.075,10.648,10.648,0,0,0,2.842,1.187c-.112-4.431-.253-8.927-.417-13.369a.218.218,0,0,1,.21-.226.217.217,0,0,1,.226.21c.167,4.539.31,9.135.424,13.658a.218.218,0,0,1-.08.175A.218.218,0,0,1-196.617-50.665Z" transform="translate(200.015 64.758)" fill="#0b0a10"/>
                </g>
                <g id="Grupo_92250" data-name="Grupo 92250" transform="translate(0 14.951)">
                  <path id="Trazado_116618" data-name="Trazado 116618" d="M-201.291-41.562a1.459,1.459,0,0,1-.191-.012c-1.085-.141-1.421-1.316-1.622-2.018a.219.219,0,0,1,.15-.27.218.218,0,0,1,.27.15c.232.81.52,1.608,1.258,1.7.56.072,1.043-.3,1.521-1.16a.217.217,0,0,1,.3-.085.219.219,0,0,1,.086.3C-199.72-42.6-200.295-41.562-201.291-41.562Z" transform="translate(203.113 43.87)" fill="#0b0a10"/>
                </g>
              </g>
              <path id="Trazado_116619" data-name="Trazado 116619" d="M-216.766-67.128a2.529,2.529,0,0,1,1.521-1.986,2.528,2.528,0,0,1,2.494.194.23.23,0,0,1,.047.321.23.23,0,0,1-.175.092h-.011a4.607,4.607,0,0,0-3.474,1.55l-.007.008a.23.23,0,0,1-.325.006A.232.232,0,0,1-216.766-67.128Z" transform="translate(216.767 69.351)" fill="#0b0a10"/>
              <path id="Trazado_116620" data-name="Trazado 116620" d="M-191.09-68.647a2.527,2.527,0,0,1,2.444-.53,2.527,2.527,0,0,1,1.776,1.762.23.23,0,0,1-.172.275.231.231,0,0,1-.193-.043l-.009-.007a4.608,4.608,0,0,0-3.651-1.066h-.011a.229.229,0,0,1-.251-.205A.23.23,0,0,1-191.09-68.647Z" transform="translate(209.488 69.333)" fill="#0b0a10"/>
            </g>
            <g id="Grupo_92255" data-name="Grupo 92255" transform="translate(0 28.558)">
              <g id="Grupo_92253" data-name="Grupo 92253">
                <path id="Trazado_116621" data-name="Trazado 116621" d="M-245.57-64.3a5.061,5.061,0,0,0-3.633,2.8,6.943,6.943,0,0,0-.414,4.655,8.743,8.743,0,0,0,7.709,6.5,4.5,4.5,0,0,0,2.63-.508,3.938,3.938,0,0,0,1.716-3.066,8.833,8.833,0,0,0-.606-3.57C-239.292-60.761-241.308-64.967-245.57-64.3Z" transform="translate(249.835 64.371)" fill="#ffe1c2"/>
              </g>
              <g id="Grupo_92254" data-name="Grupo 92254" transform="translate(3.728 4.743)">
                <path id="Trazado_116622" data-name="Trazado 116622" d="M-240.463-53.7a.215.215,0,0,1-.181-.1,15.09,15.09,0,0,0-1.629-2.144,4.809,4.809,0,0,0-2.19-1.376.218.218,0,0,1-.155-.267.218.218,0,0,1,.267-.155,5.241,5.241,0,0,1,2.392,1.494,15.484,15.484,0,0,1,1.678,2.207.219.219,0,0,1-.06.3A.219.219,0,0,1-240.463-53.7Z" transform="translate(244.626 57.745)" fill="#0b0a10"/>
              </g>
            </g>
            <path id="Trazado_116623" data-name="Trazado 116623" d="M-206.821-100.2a13.45,13.45,0,0,1-4.913,10.643,12.469,12.469,0,0,1-13.28.953c-.306,5.207-1.844,10.633-5.714,14.127a13.1,13.1,0,0,1-6.954,3.172c-.594-1.014-2.595-3.913-3.1-4.97-.331-1.9.393-1.452.279-2.51a23.22,23.22,0,0,1-.558-4.629c0-11.437,9.917-20.857,21.415-20.857A21.435,21.435,0,0,1-206.821-100.2Z" transform="translate(247.341 104.269)" fill="#26d19e"/>
          </g>
          <path id="Trazado_116624" data-name="Trazado 116624" d="M-249.264-23.941a43.076,43.076,0,0,0,12.789,1.71c7.808,0,11-1.562,11-1.562l.892,8.031s23.943,8.328,32.419,24.835,5.8,67.664,5.8,67.664l-92.053,6.99s-11.9-9.072-11.3-33.163S-278.208,3.7-271.422-2.972a57.023,57.023,0,0,1,20.671-12.492Z" transform="translate(289.735 81.902)" fill="#363e44"/>
        </g>
        <g id="Grupo_92288" data-name="Grupo 92288" transform="translate(24.853 114.633)">
          <path id="Trazado_116625" data-name="Trazado 116625" d="M-282.6,92.153l-2.067-69.6h101.3V91.808l-99.079.215" transform="translate(295.559 -22.554)" fill="#0b0a10"/>
          <path id="Trazado_116626" data-name="Trazado 116626" d="M-186.285,90.281h-90.337l-2.024-62.191h93.373Z" transform="translate(293.849 -24.127)" fill="#95bdea"/>
          <g id="Grupo_92282" data-name="Grupo 92282" transform="translate(35.718 6.227)">
            <g id="Grupo_92272" data-name="Grupo 92272" transform="translate(7.65)">
              <g id="Grupo_92265" data-name="Grupo 92265" transform="translate(0.677 7.502)">
                <g id="Grupo_92258" data-name="Grupo 92258">
                  <ellipse id="Elipse_5355" data-name="Elipse 5355" cx="19.275" cy="19.39" rx="19.275" ry="19.39" fill="#ffe268"/>
                  <rect id="Rectángulo_34443" data-name="Rectángulo 34443" width="10.971" height="11.802" transform="translate(14.018 32.955)" fill="#ffe268"/>
                </g>
                <g id="Grupo_92259" data-name="Grupo 92259" transform="translate(10.842 17.014)" style="isolation: isolate">
                  <path id="Trazado_116627" data-name="Trazado 116627" d="M-212.82,92.313a23.16,23.16,0,0,1,4.955-16.7,12.829,12.829,0,0,0,1.928-3.2,6.154,6.154,0,0,0,.636-3.75,2.056,2.056,0,0,0-1.367-1.468,2.647,2.647,0,0,0-1.868.377,7.329,7.329,0,0,0-2.363,2,16.077,16.077,0,0,1-.253,4.4.823.823,0,0,1-.956.674.826.826,0,0,1-.738-.9,8.225,8.225,0,0,1,1.638-4.263c-.01-.118-.021-.237-.035-.354-.212-1.915-.9-2.985-2.1-3.27a2.544,2.544,0,0,0-1.754.25,4.916,4.916,0,0,0-2.276,3.3,11.162,11.162,0,0,1,1.532,4.005,4.5,4.5,0,0,1,.07.845.832.832,0,0,1-.658.812.854.854,0,0,1-.965-.444,7.34,7.34,0,0,1-.322-5.1c.006-.025.013-.049.019-.074-.014-.022-.029-.044-.043-.067-.675-1.03-1.774-2.141-3.183-1.588a2.731,2.731,0,0,0-1.283,1.162c-1.445,2.4-.379,5.448.71,7.834.842,1.842,1.768,3.673,2.754,5.443l.11.2c1.452,2.6,3.1,5.554,2.36,8.506l-.291-.072c.707-2.837-.906-5.733-2.33-8.287l-.111-.2c-.989-1.777-1.919-3.615-2.764-5.464-1.12-2.453-2.212-5.592-.694-8.113a2.991,2.991,0,0,1,1.43-1.288c1.205-.475,2.423.078,3.443,1.555a5.036,5.036,0,0,1,2.353-3.24,2.835,2.835,0,0,1,1.962-.276c1.337.318,2.1,1.472,2.326,3.529l0,.051a7.568,7.568,0,0,1,2.265-1.841,2.916,2.916,0,0,1,2.081-.4,2.356,2.356,0,0,1,1.58,1.677,6.378,6.378,0,0,1-.647,3.943,13.119,13.119,0,0,1-1.973,3.273,22.853,22.853,0,0,0-4.89,16.481Zm-4.652-22.489a6.932,6.932,0,0,0,.349,4.675.554.554,0,0,0,.631.291.535.535,0,0,0,.427-.528,4.153,4.153,0,0,0-.067-.789A10.87,10.87,0,0,0-217.472,69.824Zm6.3.127a7.9,7.9,0,0,0-1.374,3.824.529.529,0,0,0,.482.582.517.517,0,0,0,.615-.416A15.8,15.8,0,0,0-211.172,69.952Z" transform="translate(223.203 -65.503)" fill="#ffd41c"/>
                </g>
                <g id="Grupo_92263" data-name="Grupo 92263" transform="translate(13.511 41.437)">
                  <path id="Trazado_116628" data-name="Trazado 116628" d="M-207.491,99.625v3.254a3.708,3.708,0,0,1-.018.372,1.8,1.8,0,0,1-.042.306,4.175,4.175,0,0,1-4.118,3.524H-215.3a4.175,4.175,0,0,1-4.118-3.524,1.8,1.8,0,0,1-.042-.306c-.011-.12-.018-.246-.018-.372V99.625Z" transform="translate(219.474 -99.625)" fill="#8d6af2"/>
                  <g id="Grupo_92260" data-name="Grupo 92260" transform="translate(0 0.967)">
                    <rect id="Rectángulo_34444" data-name="Rectángulo 34444" width="11.984" height="0.312" fill="#0b0a10"/>
                  </g>
                  <g id="Grupo_92261" data-name="Grupo 92261" transform="translate(0 2.197)">
                    <rect id="Rectángulo_34445" data-name="Rectángulo 34445" width="11.984" height="0.306" fill="#0b0a10"/>
                  </g>
                  <g id="Grupo_92262" data-name="Grupo 92262" transform="translate(0.018 3.626)">
                    <path id="Trazado_116629" data-name="Trazado 116629" d="M-207.5,104.691a1.8,1.8,0,0,1-.042.306h-11.864a1.806,1.806,0,0,1-.042-.306Z" transform="translate(219.449 -104.691)" fill="#0b0a10"/>
                  </g>
                </g>
                <g id="Grupo_92264" data-name="Grupo 92264" transform="translate(30.42 6.521)">
                  <path id="Trazado_116630" data-name="Trazado 116630" d="M-195.85,52.681a4.37,4.37,0,0,0,.553,1.988,3.614,3.614,0,0,0,1.324,1.588,1.612,1.612,0,0,0,1.933-.165,2.018,2.018,0,0,0,.407-1.522,5.053,5.053,0,0,0-1.057-2.774C-193.865,50.3-195.821,50.55-195.85,52.681Z" transform="translate(195.85 -50.844)" fill="#fff"/>
                  <path id="Trazado_116631" data-name="Trazado 116631" d="M-191.481,62.105a12.06,12.06,0,0,0,.5,4.659c.225.722.638,1.523,1.381,1.645a1.461,1.461,0,0,0,1.362-.661,3.312,3.312,0,0,0,.5-1.5,9.247,9.247,0,0,0-.321-3.877c-.248-.813-.83-2.072-1.778-2.254C-190.944,59.9-191.405,61.265-191.481,62.105Z" transform="translate(194.622 -53.472)" fill="#fff"/>
                </g>
              </g>
              <g id="Grupo_92271" data-name="Grupo 92271">
                <g id="Grupo_92266" data-name="Grupo 92266" transform="translate(0 45.141)">
                  <path id="Trazado_116632" data-name="Trazado 116632" d="M-238.846,97.976a.448.448,0,0,1-.389-.225.448.448,0,0,1,.165-.613l4.8-2.759a.449.449,0,0,1,.613.165.449.449,0,0,1-.165.613l-4.8,2.759A.445.445,0,0,1-238.846,97.976Z" transform="translate(239.296 -94.319)" fill="#ffdb42"/>
                </g>
                <g id="Grupo_92267" data-name="Grupo 92267" transform="translate(40.338 16.517)">
                  <path id="Trazado_116633" data-name="Trazado 116633" d="M-182.49,57.986a.448.448,0,0,1-.389-.225.449.449,0,0,1,.165-.613l4.8-2.759a.449.449,0,0,1,.613.166.449.449,0,0,1-.166.613l-4.8,2.759A.442.442,0,0,1-182.49,57.986Z" transform="translate(182.94 -54.329)" fill="#ffdb42"/>
                </g>
                <g id="Grupo_92268" data-name="Grupo 92268" transform="translate(33.677 6.307)">
                  <path id="Trazado_116634" data-name="Trazado 116634" d="M-191.8,45.175a.447.447,0,0,1-.291-.108.449.449,0,0,1-.049-.633l3.609-4.213a.45.45,0,0,1,.633-.049.45.45,0,0,1,.049.633l-3.609,4.212A.45.45,0,0,1-191.8,45.175Z" transform="translate(192.245 -40.064)" fill="#ffdb42"/>
                </g>
                <g id="Grupo_92269" data-name="Grupo 92269" transform="translate(20.601)">
                  <path id="Trazado_116635" data-name="Trazado 116635" d="M-210.065,37.711h0a.45.45,0,0,1-.445-.453l.052-5.561a.449.449,0,0,1,.449-.444h0a.45.45,0,0,1,.445.453l-.051,5.561A.45.45,0,0,1-210.065,37.711Z" transform="translate(210.515 -31.253)" fill="#ffdb42"/>
                </g>
                <g id="Grupo_92270" data-name="Grupo 92270" transform="translate(4.478 4.537)">
                  <path id="Trazado_116636" data-name="Trazado 116636" d="M-229.09,42.793a.449.449,0,0,1-.349-.165l-3.5-4.3a.449.449,0,0,1,.064-.631.448.448,0,0,1,.631.064l3.5,4.3a.449.449,0,0,1-.065.631A.445.445,0,0,1-229.09,42.793Z" transform="translate(233.04 -37.592)" fill="#ffdb42"/>
                </g>
              </g>
            </g>
            <g id="Grupo_92275" data-name="Grupo 92275" transform="translate(0.997 28.236)">
              <g id="Grupo_92273" data-name="Grupo 92273" transform="translate(0 7.412)">
                <path id="Trazado_116637" data-name="Trazado 116637" d="M-248.142,82.257a.448.448,0,0,1-.448-.424.449.449,0,0,1,.424-.473l5.519-.3a.447.447,0,0,1,.472.424.448.448,0,0,1-.423.472l-5.519.3Z" transform="translate(248.591 -81.057)" fill="#ffdb42"/>
              </g>
              <g id="Grupo_92274" data-name="Grupo 92274" transform="translate(48.811)">
                <path id="Trazado_116638" data-name="Trazado 116638" d="M-179.949,71.9a.449.449,0,0,1-.448-.424.449.449,0,0,1,.424-.473l5.519-.3a.451.451,0,0,1,.473.424.449.449,0,0,1-.424.473l-5.519.3Z" transform="translate(180.398 -70.702)" fill="#ffdb42"/>
              </g>
            </g>
            <g id="Grupo_92278" data-name="Grupo 92278" transform="translate(0 23.492)">
              <g id="Grupo_92276" data-name="Grupo 92276">
                <path id="Trazado_116639" data-name="Trazado 116639" d="M-244.44,67.128a.44.44,0,0,1-.174-.036l-5.1-2.156a.448.448,0,0,1-.238-.588.447.447,0,0,1,.588-.238l5.1,2.156a.448.448,0,0,1,.238.588A.449.449,0,0,1-244.44,67.128Z" transform="translate(249.984 -64.074)" fill="#ffdb42"/>
              </g>
              <g id="Grupo_92277" data-name="Grupo 92277" transform="translate(47.116 14.816)">
                <path id="Trazado_116640" data-name="Trazado 116640" d="M-178.615,87.827a.446.446,0,0,1-.175-.036l-5.095-2.156a.448.448,0,0,1-.238-.588.448.448,0,0,1,.588-.239l5.1,2.156a.449.449,0,0,1,.238.588A.45.45,0,0,1-178.615,87.827Z" transform="translate(184.159 -84.773)" fill="#ffdb42"/>
              </g>
            </g>
            <g id="Grupo_92281" data-name="Grupo 92281" transform="translate(3.967 12.24)">
              <g id="Grupo_92279" data-name="Grupo 92279">
                <path id="Trazado_116641" data-name="Trazado 116641" d="M-240.108,53.206a.447.447,0,0,1-.32-.134l-3.885-3.955a.449.449,0,0,1,.006-.635.449.449,0,0,1,.634.006l3.886,3.955a.449.449,0,0,1-.006.635A.447.447,0,0,1-240.108,53.206Z" transform="translate(244.442 -48.354)" fill="#ffdb42"/>
              </g>
              <g id="Grupo_92280" data-name="Grupo 92280" transform="translate(37.878 31.843)">
                <path id="Trazado_116642" data-name="Trazado 116642" d="M-187.189,97.695a.448.448,0,0,1-.32-.135l-3.885-3.955a.448.448,0,0,1,.006-.634.448.448,0,0,1,.634,0l3.886,3.955a.449.449,0,0,1-.006.635A.448.448,0,0,1-187.189,97.695Z" transform="translate(191.523 -92.842)" fill="#ffdb42"/>
              </g>
            </g>
          </g>
          <g id="Grupo_92287" data-name="Grupo 92287" transform="translate(0 69.254)">
            <g id="Grupo_92283" data-name="Grupo 92283">
              <path id="Trazado_116643" data-name="Trazado 116643" d="M-299.886,139.68H-174.3l-13.394-20.371h-99.4Z" transform="translate(299.886 -119.309)" fill="#b7b8fb"/>
              <path id="Trazado_116644" data-name="Trazado 116644" d="M-299.886,139.68H-174.3l-13.394-20.371h-99.4Z" transform="translate(299.886 -119.309)" fill="#0b0a10" opacity="0.68"/>
            </g>
            <g id="Grupo_92284" data-name="Grupo 92284" transform="translate(12.493 2.543)">
              <path id="Trazado_116645" data-name="Trazado 116645" d="M-183.593,125.355h-98.714a.126.126,0,0,1-.115-.073.128.128,0,0,1,.018-.135l1.9-2.24a.127.127,0,0,1,.1-.045h94.837a.128.128,0,0,1,.1.043l1.981,2.24a.126.126,0,0,1,.021.135A.126.126,0,0,1-183.593,125.355Zm-98.441-.253h98.16l-1.757-1.987h-94.721Z" transform="translate(282.432 -122.862)" fill="#fff"/>
            </g>
            <g id="Grupo_92285" data-name="Grupo 92285" transform="translate(9.426 7.537)">
              <path id="Trazado_116646" data-name="Trazado 116646" d="M-181.279,132.509h-105.3a.135.135,0,0,1-.119-.071.136.136,0,0,1,.005-.139l1.557-2.4a.135.135,0,0,1,.114-.062H-183.4a.135.135,0,0,1,.1.046l2.123,2.4a.135.135,0,0,1,.021.145A.135.135,0,0,1-181.279,132.509Zm-105.053-.271H-181.58l-1.882-2.129H-284.951Z" transform="translate(286.717 -129.838)" fill="#fff"/>
            </g>
            <g id="Grupo_92286" data-name="Grupo 92286" transform="translate(30.643 13.415)">
              <path id="Trazado_116647" data-name="Trazado 116647" d="M-197.532,140.981h-59.435a.108.108,0,0,1-.087-.044.108.108,0,0,1-.016-.1l.879-2.713a.108.108,0,0,1,.1-.075h57.358a.11.11,0,0,1,.1.064l1.2,2.713a.11.11,0,0,1-.009.1A.108.108,0,0,1-197.532,140.981Zm-59.286-.216h59.12l-1.1-2.5h-57.209Z" transform="translate(257.075 -138.051)" fill="#fff"/>
            </g>
          </g>
        </g>
        <path id="Trazado_116648" data-name="Trazado 116648" d="M-115.528-18.941H-163.88a11.278,11.278,0,0,1,3.667-4.172,11.28,11.28,0,0,1,7.354-1.876,15.363,15.363,0,0,1,6.47-9.514,11.339,11.339,0,0,1,11.221-.875c4.078,2.118,6.164,6.849,6.723,11.411a8.331,8.331,0,0,1,8.692-.464A8.659,8.659,0,0,1-115.528-18.941Z" transform="translate(286.082 108.859)" fill="#f6f6f6"/>
        <g id="Grupo_92303" data-name="Grupo 92303" transform="translate(12.507 73.35)">
          <g id="Grupo_92291" data-name="Grupo 92291" transform="translate(99.935 27.615)">
            <path id="Trazado_116649" data-name="Trazado 116649" d="M-135.142,3.457h-38.665a3.709,3.709,0,0,0-3.709,3.709v8.049a3.709,3.709,0,0,0,3.709,3.708h10.787l-.924,8.049,5.938-8.049h22.864a3.709,3.709,0,0,0,3.709-3.708V7.166A3.709,3.709,0,0,0-135.142,3.457Z" transform="translate(177.516 -3.457)" fill="#fff"/>
            <g id="Grupo_92289" data-name="Grupo 92289" transform="translate(6.502 2.96)">
              <path id="Trazado_116650" data-name="Trazado 116650" d="M-163.015,9.691s-3.15-3.813-5.084-1.16,5.2,8.842,5.2,8.842S-163.1,9.774-163.015,9.691Z" transform="translate(168.432 -7.592)" fill="#f34919"/>
              <path id="Trazado_116651" data-name="Trazado 116651" d="M-161.02,9.691s3.15-3.813,5.084-1.16-4.88,8.842-4.88,8.842S-160.937,9.774-161.02,9.691Z" transform="translate(166.325 -7.592)" fill="#f34919"/>
            </g>
            <g id="Grupo_92290" data-name="Grupo 92290" transform="translate(24.111 3.484)">
              <path id="Trazado_116652" data-name="Trazado 116652" d="M-140.883,14.631l.745.034a.492.492,0,0,1,.49.489v.679a.494.494,0,0,1-.49.49h-3.2a.494.494,0,0,1-.49-.49v-.679a.486.486,0,0,1,.49-.489h.712l.033-4.172h-.634a.545.545,0,0,1-.545-.545V9.914c0-.378.022-.645.022-.645l1.735-.879a.519.519,0,0,1,.256-.067h.334a.5.5,0,0,1,.378.167.5.5,0,0,1,.167.378Z" transform="translate(143.831 -8.324)" fill="#0b0a10"/>
              <path id="Trazado_116653" data-name="Trazado 116653" d="M-135.807,16.384a.425.425,0,0,1-.423-.434V8.986a.428.428,0,0,1,.423-.445h.779a.428.428,0,0,1,.422.445v2.692h.011l2.192-2.9a.553.553,0,0,1,.467-.234h.89a.4.4,0,0,1,.412.412.506.506,0,0,1-.089.267l-2.458,3.2,2.469,3.3a.449.449,0,0,1,.089.256.4.4,0,0,1-.412.412l-.912-.011a.535.535,0,0,1-.456-.233l-2.147-2.859h-.056V15.95a.425.425,0,0,1-.422.434Z" transform="translate(141.671 -8.386)" fill="#0b0a10"/>
            </g>
          </g>
          <g id="Grupo_92294" data-name="Grupo 92294">
            <ellipse id="Elipse_5356" data-name="Elipse 5356" cx="13.316" cy="13.316" rx="13.316" ry="13.316" fill="#f6f6f6"/>
            <g id="Grupo_92293" data-name="Grupo 92293" transform="translate(4.366 4.399)">
              <path id="Trazado_116654" data-name="Trazado 116654" d="M-304.255-23.671s-.772-5.2.412-5.306,3.812,5.151,3.812,5.151l2.575.309-.464,10.508s-11.951.412-12.311-.824a5,5,0,0,1-.1-2.318,4.455,4.455,0,0,1-.67-2.369,7.734,7.734,0,0,1,.618-1.648,6.905,6.905,0,0,1-.412-2.576c.155-.978,1.855-1.082,2.781-1.03S-304.255-23.671-304.255-23.671Z" transform="translate(311.035 28.978)" fill="#21155c"/>
              <g id="Grupo_92292" data-name="Grupo 92292" transform="translate(10.909 5.181)">
                <path id="Trazado_116655" data-name="Trazado 116655" d="M-288.538-10.823h0l-7.18-.1a.076.076,0,0,1-.074-.077.076.076,0,0,1,.076-.074h0l7.1.1.2-10.155-7.242-.46a.075.075,0,0,1-.071-.08.075.075,0,0,1,.076-.07h0l7.314.463a.076.076,0,0,1,.071.077l-.206,10.3A.075.075,0,0,1-288.538-10.823Z" transform="translate(295.794 21.74)" fill="#21155c"/>
              </g>
            </g>
          </g>
          <g id="Grupo_92302" data-name="Grupo 92302" transform="translate(2.283 55.547)">
            <circle id="Elipse_5357" data-name="Elipse 5357" cx="15.151" cy="15.151" r="15.151" transform="translate(0 21.426) rotate(-45)" fill="#26d19e"/>
            <g id="Grupo_92295" data-name="Grupo 92295" transform="translate(10.305 10.305)">
              <path id="Trazado_116656" data-name="Trazado 116656" d="M-288.427,79.12A11.134,11.134,0,0,1-299.548,68a11.134,11.134,0,0,1,11.121-11.122A11.133,11.133,0,0,1-277.306,68,11.133,11.133,0,0,1-288.427,79.12Zm0-21.779A10.67,10.67,0,0,0-299.085,68a10.67,10.67,0,0,0,10.658,10.658A10.67,10.67,0,0,0-277.769,68,10.67,10.67,0,0,0-288.427,57.341Z" transform="translate(299.548 -56.877)" fill="#faf0e3"/>
            </g>
            <g id="Grupo_92296" data-name="Grupo 92296" transform="translate(21.195 10.537)">
              <rect id="Rectángulo_34446" data-name="Rectángulo 34446" width="0.463" height="21.779" fill="#faf0e3"/>
            </g>
            <g id="Grupo_92297" data-name="Grupo 92297" transform="translate(10.537 21.194)">
              <rect id="Rectángulo_34447" data-name="Rectángulo 34447" width="21.779" height="0.463" fill="#faf0e3"/>
            </g>
            <g id="Grupo_92298" data-name="Grupo 92298" transform="translate(15.732 10.278)">
              <path id="Trazado_116657" data-name="Trazado 116657" d="M-288.533,78.759a13.388,13.388,0,0,1-3.173-7.247,22.218,22.218,0,0,1-.062-6.363,14.176,14.176,0,0,1,1.394-4.729,8.373,8.373,0,0,1,3.4-3.58l.218.409a7.912,7.912,0,0,0-3.21,3.386,13.735,13.735,0,0,0-1.346,4.576,21.759,21.759,0,0,0,.061,6.23,12.941,12.941,0,0,0,3.053,7Z" transform="translate(291.966 -56.84)" fill="#faf0e3"/>
            </g>
            <g id="Grupo_92299" data-name="Grupo 92299" transform="translate(22.854 10.553)">
              <path id="Trazado_116658" data-name="Trazado 116658" d="M-280.866,78.992l-.354-.3c1.978-2.332,2.429-5.574,2.608-8.439.185-2.975.193-6.806-1.41-10.052a7.572,7.572,0,0,0-1.995-2.615l.289-.362A8.031,8.031,0,0,1-279.605,60c1.652,3.345,1.646,7.254,1.457,10.286C-278.333,73.222-278.8,76.556-280.866,78.992Z" transform="translate(282.016 -57.224)" fill="#faf0e3"/>
            </g>
            <g id="Grupo_92300" data-name="Grupo 92300" transform="translate(10.3 15.894)">
              <path id="Trazado_116659" data-name="Trazado 116659" d="M-299.141,69.716l-.414-.209a3.771,3.771,0,0,1,1.143-1.231,17.831,17.831,0,0,1,15.2-3.013,10.739,10.739,0,0,1,5.635,3.308l-.356.3a10.294,10.294,0,0,0-5.4-3.157,17.363,17.363,0,0,0-14.8,2.933A3.387,3.387,0,0,0-299.141,69.716Z" transform="translate(299.555 -64.686)" fill="#faf0e3"/>
            </g>
            <g id="Grupo_92301" data-name="Grupo 92301" transform="translate(10.439 22.802)">
              <path id="Trazado_116660" data-name="Trazado 116660" d="M-289.235,78.66a25.887,25.887,0,0,1-2.716-.143,15.172,15.172,0,0,1-4.43-1.044,5.548,5.548,0,0,1-2.98-2.543l.352-.159a5.179,5.179,0,0,0,2.781,2.348,14.833,14.833,0,0,0,4.318,1.015,23.857,23.857,0,0,0,9.024-.721,9.745,9.745,0,0,0,5.21-3.074l.313.227c-1.249,1.728-3.635,2.7-5.416,3.218A23.369,23.369,0,0,1-289.235,78.66Z" transform="translate(299.361 -74.337)" fill="#faf0e3"/>
            </g>
          </g>
        </g>
        <g id="Grupo_92304" data-name="Grupo 92304" transform="translate(0.033 0)">
          <path id="Trazado_116661" data-name="Trazado 116661" d="M-120.99,42.461l4.828,1.485-4.828,1.485-1.485,4.828-1.485-4.828-4.828-1.485,4.828-1.485,1.485-4.828Z" transform="translate(276.075 87.794)" fill="#764cf0"/>
          <path id="Trazado_656414" data-name="Trazado 656414" d="M-120.99,42.461l4.828,1.485-4.828,1.485-1.485,4.828-1.485-4.828-4.828-1.485,4.828-1.485,1.485-4.828Z" transform="translate(128.788 -17.411)" fill="#764cf0"/>
          <path id="Trazado_656415" data-name="Trazado 656415" d="M4.869,3.014l3.014.927-3.014.927L3.942,7.884,3.014,4.869,0,3.942l3.014-.927L3.942,0Z" transform="matrix(0.966, 0.259, -0.259, 0.966, 31.209, 0)" fill="#764cf0"/>
          <path id="Trazado_656418" data-name="Trazado 656418" d="M4.869,3.014l3.014.927-3.014.927L3.942,7.884,3.014,4.869,0,3.942l3.014-.927L3.942,0Z" transform="matrix(0.966, 0.259, -0.259, 0.966, 177.705, 7.761)" fill="#fff"/>
          <path id="Trazado_656416" data-name="Trazado 656416" d="M4.869,3.014l3.014.927-3.014.927L3.942,7.884,3.014,4.869,0,3.942l3.014-.927L3.942,0Z" transform="matrix(0.966, 0.259, -0.259, 0.966, 23.89, 42.997)" fill="#764cf0"/>
          <path id="Trazado_116662" data-name="Trazado 116662" d="M-264.858-43.529l4.828,1.485-4.828,1.485-1.485,4.828-1.485-4.828-4.828-1.485,4.828-1.485,1.485-4.828Z" transform="translate(316.966 112.234)" fill="#764cf0"/>
          <path id="Trazado_116663" data-name="Trazado 116663" d="M-124.743,72.916l3.319,1.021-3.319,1.021-1.021,3.319-1.021-3.319-3.319-1.021,3.319-1.021,1.021-3.319Z" transform="translate(276.449 78.709)" fill="#764cf0"/>
          <path id="Trazado_116664" data-name="Trazado 116664" d="M-161.124-50.447l3.319,1.021-3.319,1.021-1.021,3.319-1.021-3.319-3.319-1.021,3.319-1.021,1.021-3.319Z" transform="translate(286.789 113.772)" fill="#764cf0"/>
          <path id="Trazado_116665" data-name="Trazado 116665" d="M-300.361,32.236l3.319,1.021-3.319,1.021-1.021,3.319-1.021-3.319-3.319-1.021,3.319-1.021,1.021-3.319Z" transform="translate(326.364 90.271)" fill="#764cf0"/>
        </g>
        <rect id="Rectángulo_34448" data-name="Rectángulo 34448" width="24.048" height="24.048" rx="4" transform="matrix(0.985, 0.174, -0.174, 0.985, 158.304, 146.886)" fill="#26d19e"/>
        <rect id="Rectángulo_337366" data-name="Rectángulo 337366" width="24.048" height="24.048" rx="4" transform="matrix(0.985, 0.174, -0.174, 0.985, 16.683, 14.746)" fill="#f6f6f6"/>
        <ellipse id="Elipse_5358" data-name="Elipse 5358" cx="12.136" cy="12.136" rx="12.136" ry="12.136" transform="translate(143.786 23.393)" fill="#764cf0"/>
      </g>
    </g>
  </g>
</svg>
