<svg xmlns="http://www.w3.org/2000/svg" xmlns:xlink="http://www.w3.org/1999/xlink" width="113.331" height="113.331" viewBox="0 0 113.331 113.331">
  <defs>
    <filter id="Trazado_658880" x="0" y="0" width="113.331" height="113.331" filterUnits="userSpaceOnUse">
      <feOffset dy="3" input="SourceAlpha"/>
      <feGaussianBlur stdDeviation="3" result="blur"/>
      <feFlood flood-opacity="0.161"/>
      <feComposite operator="in" in2="blur"/>
      <feComposite in="SourceGraphic"/>
    </filter>
  </defs>
  <g id="Grupo_963995" data-name="Grupo 963995" transform="translate(-1216 -7336.334)">
    <g transform="matrix(1, 0, 0, 1, 1216, 7336.33)" filter="url(#Trazado_658880)">
      <path id="Trazado_658880-2" data-name="Trazado 658880" d="M47.666,0A47.666,47.666,0,1,1,0,47.666,47.666,47.666,0,0,1,47.666,0Z" transform="translate(9 6)" fill="#a8edd8"/>
    </g>
    <g id="sitio-web_1_" data-name="sitio-web (1)" transform="translate(1232.897 7349.025)">
      <g id="Grupo_963986" data-name="Grupo 963986" transform="translate(1.17 1.169)">
        <path id="Trazado_658922" data-name="Trazado 658922" d="M45.992,84.426A38.433,38.433,0,1,0,7.559,45.992,38.505,38.505,0,0,0,45.992,84.426Zm0,0" transform="translate(-7.559 -7.559)" fill="#a7c9d5" fill-rule="evenodd"/>
        <path id="Trazado_658923" data-name="Trazado 658923" d="M18.746,30.216a38.584,38.584,0,0,1,16.09-17.658A38.2,38.2,0,0,1,45.993,8.351c.952-.2,1.917-.359,2.892-.483.337-.044.673-.08,1.014-.115q-1.926-.192-3.906-.195a38.433,38.433,0,0,0,0,76.867q1.98,0,3.906-.195c-.341-.036-.677-.071-1.014-.115-.975-.124-1.94-.288-2.892-.483a38.1,38.1,0,0,1-11.156-4.207,38.478,38.478,0,0,1-16.09-49.209Zm0,0" transform="translate(-7.559 -7.558)" fill="#8db2bf" fill-rule="evenodd"/>
        <path id="Trazado_658924" data-name="Trazado 658924" d="M81.784,197.227h51.6a1.288,1.288,0,0,1,1.285,1.284v15.616a1.288,1.288,0,0,1-1.285,1.284h-51.6a1.287,1.287,0,0,1-1.28-1.284V198.511A1.287,1.287,0,0,1,81.784,197.227Zm0,0" transform="translate(-69.219 -167.885)" fill="#ffd45e" fill-rule="evenodd"/>
        <path id="Trazado_658925" data-name="Trazado 658925" d="M88.658,202.13v-3.623a1.287,1.287,0,0,1,1.28-1.285H81.784a1.288,1.288,0,0,0-1.28,1.285v15.616a1.287,1.287,0,0,0,1.28,1.284h8.154a1.287,1.287,0,0,1-1.28-1.284Zm0,0" transform="translate(-69.22 -167.882)" fill="#ffac38" fill-rule="evenodd"/>
      </g>
      <path id="Trazado_658926" data-name="Trazado 658926" d="M67.607,11.6A39.6,39.6,0,0,0,11.6,67.607,39.6,39.6,0,0,0,67.607,11.6ZM65.33,29.341H62.578A58.074,58.074,0,0,0,61,22.272,40.334,40.334,0,0,1,66.192,24.8c6.4,3.725,10.122,8.53,10.617,13.638H67.784V31.795a2.456,2.456,0,0,0-2.453-2.453Zm-5.121,0H40.772V18.413a59.084,59.084,0,0,1,17.465,2.844,54.617,54.617,0,0,1,1.972,8.085ZM38.434,16.075a62.462,62.462,0,0,0-16.463,2.42,37.053,37.053,0,0,1,4.5-8.275c3.5-4.734,7.61-7.418,11.965-7.825Zm0,2.338V29.341H19a54.707,54.707,0,0,1,1.972-8.084,59.077,59.077,0,0,1,17.466-2.844ZM16.627,29.341H13.734a2.454,2.454,0,0,0-2.449,2.453v6.639H2.4c.494-5.108,4.219-9.913,10.617-13.638a40.332,40.332,0,0,1,5.179-2.519,58.453,58.453,0,0,0-1.566,7.065ZM11.285,40.772v6.639a2.454,2.454,0,0,0,2.449,2.453h2.893a58.625,58.625,0,0,0,1.567,7.067,40.35,40.35,0,0,1-5.18-2.52C6.616,50.687,2.891,45.881,2.4,40.772ZM19,49.864H38.434V60.793A59.1,59.1,0,0,1,20.968,57.95,54.648,54.648,0,0,1,19,49.864ZM38.434,63.131v13.68c-4.354-.407-8.47-3.091-11.965-7.825a37.042,37.042,0,0,1-4.5-8.274,62.482,62.482,0,0,0,16.463,2.419Zm2.339,0a62.457,62.457,0,0,0,16.463-2.42,37.058,37.058,0,0,1-4.5,8.275c-3.5,4.734-7.611,7.418-11.965,7.825Zm0-2.338V49.864h7.994a1.169,1.169,0,0,0,0-2.338H13.734a.119.119,0,0,1-.111-.115V31.795a.119.119,0,0,1,.111-.115h51.6a.12.12,0,0,1,.115.115V47.411a.12.12,0,0,1-.115.115H54.368a1.169,1.169,0,0,0,0,2.338H60.21a54.648,54.648,0,0,1-1.972,8.085,59.1,59.1,0,0,1-17.465,2.843ZM62.579,49.864H65.33a2.456,2.456,0,0,0,2.453-2.453V40.772h9.026c-.494,5.109-4.219,9.915-10.617,13.639a40.35,40.35,0,0,1-5.18,2.52,58.624,58.624,0,0,0,1.567-7.067ZM75.5,29.58a28.385,28.385,0,0,0-8.128-6.8,43.926,43.926,0,0,0-7.287-3.353A44.858,44.858,0,0,0,57.2,12.908a1.169,1.169,0,1,0-2.052,1.12A41.194,41.194,0,0,1,57.237,18.5a62.445,62.445,0,0,0-16.465-2.421V2.395c4.09.386,7.995,2.8,11.356,7.03A1.169,1.169,0,0,0,53.96,7.971a25.46,25.46,0,0,0-4.189-4.223A37.413,37.413,0,0,1,75.5,29.58ZM29.45,3.744c-4.3,3.356-7.917,8.8-10.345,15.686a43.883,43.883,0,0,0-7.267,3.346,28.385,28.385,0,0,0-8.128,6.8A37.415,37.415,0,0,1,29.45,3.744ZM3.71,49.629a28.39,28.39,0,0,0,8.128,6.8A43.93,43.93,0,0,0,19.1,59.777c2.427,6.88,6.044,12.329,10.345,15.684A37.415,37.415,0,0,1,3.71,49.629ZM49.756,75.461c4.3-3.356,7.917-8.8,10.344-15.684a43.912,43.912,0,0,0,7.268-3.345,28.389,28.389,0,0,0,8.128-6.8,37.415,37.415,0,0,1-25.74,25.833Zm0,0" transform="translate(0)"/>
      <path id="Trazado_658927" data-name="Trazado 658927" d="M133.891,228.443a1.152,1.152,0,0,0-1.178.908l-1.28,4.15-1.253-3.946c-.252-.749-.677-1.125-1.285-1.125-.562,0-.965.376-1.2,1.125l-1.267,3.946-1.284-4.15a1.173,1.173,0,0,0-1.192-.908,1.125,1.125,0,0,0-.85.355,1.181,1.181,0,0,0-.337.854,1.353,1.353,0,0,0,.093.5L125,235.9c.314.815.8,1.218,1.457,1.218.616,0,1.05-.367,1.3-1.107l1.174-3.477,1.174,3.477c.261.74.695,1.107,1.3,1.107.664,0,1.151-.4,1.453-1.218L135,230.153a1.539,1.539,0,0,0,.1-.5,1.18,1.18,0,0,0-1.2-1.209Zm0,0" transform="translate(-103.77 -193.092)"/>
      <path id="Trazado_658928" data-name="Trazado 658928" d="M306.036,236.114q1,0,1.453-1.222l2.148-5.744a1.6,1.6,0,0,0,.093-.5,1.179,1.179,0,0,0-1.2-1.2,1.139,1.139,0,0,0-1.174.908l-1.285,4.15-1.253-3.947c-.248-.753-.677-1.125-1.284-1.125-.563,0-.966.372-1.2,1.125l-1.267,3.947-1.285-4.15a1.168,1.168,0,0,0-1.191-.908,1.125,1.125,0,0,0-.851.354,1.179,1.179,0,0,0-.337.85,1.349,1.349,0,0,0,.093.5l2.144,5.744c.314.815.8,1.222,1.457,1.222.616,0,1.05-.372,1.3-1.111l1.174-3.472L304.734,235Q305.125,236.112,306.036,236.114Zm0,0" transform="translate(-251.388 -192.246)"/>
      <path id="Trazado_658929" data-name="Trazado 658929" d="M220.692,228.443a1.147,1.147,0,0,0-1.174.908l-1.285,4.15-1.253-3.946c-.248-.749-.677-1.125-1.28-1.125-.567,0-.965.376-1.209,1.125l-1.267,3.946-1.284-4.15a1.167,1.167,0,0,0-1.187-.908,1.135,1.135,0,0,0-.855.355,1.184,1.184,0,0,0-.337.854,1.365,1.365,0,0,0,.093.5L211.8,235.9c.315.815.8,1.218,1.458,1.218.616,0,1.05-.367,1.3-1.107l1.174-3.477,1.174,3.477c.261.74.691,1.107,1.3,1.107.669,0,1.152-.4,1.457-1.218l2.144-5.744a1.641,1.641,0,0,0,.092-.5,1.173,1.173,0,0,0-.345-.864A1.162,1.162,0,0,0,220.692,228.443Zm0,0" transform="translate(-177.143 -193.092)"/>
    </g>
  </g>
</svg>
