<svg xmlns="http://www.w3.org/2000/svg" xmlns:xlink="http://www.w3.org/1999/xlink" width="400" height="291" viewBox="0 0 400 291">
  <defs>
    <clipPath id="clip-path">
      <rect id="Rect치ngulo_337745" data-name="Rect치ngulo 337745" width="400" height="291" rx="15" transform="translate(0 12454)" fill="#e8e1fc"/>
    </clipPath>
  </defs>
  <g id="Grupo_963273" data-name="Grupo 963273" transform="translate(392 401)">
    <rect id="Rect치ngulo_35108" data-name="Rect치ngulo 35108" width="400" height="291" rx="15" transform="translate(-392 -401)" fill="#e8e1fc"/>
    <g id="Enmascarar_grupo_395" data-name="Enmascarar grupo 395" transform="translate(-392 -12855)" clip-path="url(#clip-path)">
      <path id="Trazado_125854" data-name="Trazado 125854" d="M155.62,34.292c-6.087,5.2-13.9,9.5-18.976,15.153-8.884,9.892-8.055,22.146-9.374,33.633a38.915,38.915,0,0,1-4.012,14.152,26.864,26.864,0,0,1-6.775,8.2c-6.082,4.95-14.772,7.913-24.028,9.849-3.746.786-7.585,1.4-11.38,1.918a293.28,293.28,0,0,1-82.162-.579L-.834-1.17l169.187-.356C171.7,10.879,167.315,24.309,155.62,34.292Z" transform="matrix(0.087, -0.996, 0.996, 0.087, -29.029, 12816.539)" fill="#fff" opacity="0.15"/>
      <path id="Trazado_657597" data-name="Trazado 657597" d="M156.709,35.818c-6.087,5.2-13.9,9.5-18.976,15.153-8.884,9.892-8.055,22.146-9.374,33.633a38.914,38.914,0,0,1-4.012,14.152,26.864,26.864,0,0,1-6.775,8.2c-6.082,4.95-14.772,7.913-24.028,9.849-3.746.786-7.585,1.4-11.38,1.918A293.28,293.28,0,0,1,0,118.143L.254.356,169.442,0C172.784,12.4,168.4,25.835,156.709,35.818Z" transform="matrix(-0.087, 0.996, -0.996, -0.087, 438.599, 12399.182)" fill="#fff" opacity="0.15"/>
      <g id="Grupo_98827" data-name="Grupo 98827" transform="matrix(0.087, -0.996, 0.996, 0.087, -28.749, 12832.304)" opacity="0.1">
        <path id="Trazado_125852" data-name="Trazado 125852" d="M-.59,84.027c3.072-1.419,6.159-2.794,9.228-4.157C24,73.043,39.872,65.981,51.712,53.768a62.889,62.889,0,0,0,16.9-34.246A58.66,58.66,0,0,0,68.229-.47l2.284,0a60.807,60.807,0,0,1,.323,20.3,65.1,65.1,0,0,1-17.5,35.44C41.2,67.792,25.113,74.945,9.561,81.86,6.182,83.363,2.78,84.874-.6,86.454Z" transform="translate(55.732 43.183)" fill="#8d6af2"/>
        <path id="Trazado_125856" data-name="Trazado 125856" d="M0,84.552c3.015-1.392,6.045-2.74,9.057-4.077,15.075-6.692,30.66-13.613,42.181-25.807a62.207,62.207,0,0,0,16.2-34.425A60.943,60.943,0,0,0,66.769,0l2.257.028a63.157,63.157,0,0,1,.614,20.556A64.4,64.4,0,0,1,52.867,56.21C41.051,68.714,25.264,75.725,10,82.5,6.681,83.977,3.342,85.457.03,87.009Z" transform="matrix(0.326, -0.946, 0.946, 0.326, 60.527, 388.587)" fill="#8d6af2"/>
        <path id="Trazado_125865" data-name="Trazado 125865" d="M13.307-.09a13.144,13.144,0,0,1,13.34,13.021,13.28,13.28,0,0,1-13.4,13.077A13.144,13.144,0,0,1-.09,12.987,13.28,13.28,0,0,1,13.307-.09Z" transform="translate(4.055 76.375)" fill="#8d6af2"/>
        <path id="Trazado_125866" data-name="Trazado 125866" d="M14.24,0a13.713,13.713,0,0,1,14,13.754A14.29,14.29,0,0,1,14,27.747,13.713,13.713,0,0,1,0,13.993,14.29,14.29,0,0,1,14.24,0Z" transform="translate(111 45.314) rotate(-162.968)" fill="#8d6af2"/>
        <path id="Trazado_125867" data-name="Trazado 125867" d="M5.66.361,39.148,0a5.079,5.079,0,0,1,5.187,5.126l-.36,33.1a5.352,5.352,0,0,1-5.3,5.239l-33.488.36A5.079,5.079,0,0,1,0,38.7L.361,5.6A5.352,5.352,0,0,1,5.66.361Z" transform="translate(39.852 56.894) rotate(-154.095)" fill="#8d6af2"/>
        <path id="Trazado_125868" data-name="Trazado 125868" d="M2.975.06,8.518,0a2.794,2.794,0,0,1,2.853,2.82l-.06,5.48A2.943,2.943,0,0,1,8.4,11.181l-5.544.06A2.794,2.794,0,0,1,0,8.421l.06-5.48A2.943,2.943,0,0,1,2.975.06Z" transform="translate(145.375 91.294) rotate(-154.095)" fill="#8d6af2"/>
        <path id="Trazado_125869" data-name="Trazado 125869" d="M3.3,0,15.676.071a3.332,3.332,0,0,1,3.34,3.269l.071,12.11a3.24,3.24,0,0,1-3.3,3.23L3.411,18.609A3.332,3.332,0,0,1,.071,15.34L0,3.231A3.24,3.24,0,0,1,3.3,0Z" transform="matrix(-0.945, 0.327, -0.327, -0.945, 98.327, 148.633)" fill="#8d6af2"/>
        <path id="Trazado_125870" data-name="Trazado 125870" d="M1.921,0l9.355.054a1.939,1.939,0,0,1,1.943,1.9l.054,9.155a1.885,1.885,0,0,1-1.921,1.88L2,12.937a1.939,1.939,0,0,1-1.943-1.9L0,1.88A1.885,1.885,0,0,1,1.921,0Z" transform="matrix(-0.945, 0.327, -0.327, -0.945, 154.631, 356.216)" fill="#8d6af2"/>
        <path id="Trazado_125871" data-name="Trazado 125871" d="M3.3,0,15.676.071a3.332,3.332,0,0,1,3.34,3.269l.071,12.11a3.24,3.24,0,0,1-3.3,3.23L3.411,18.609A3.332,3.332,0,0,1,.071,15.34L0,3.231A3.24,3.24,0,0,1,3.3,0Z" transform="matrix(-0.945, 0.327, -0.327, -0.945, 71.062, 63.73)" fill="#8d6af2"/>
        <path id="Trazado_125872" data-name="Trazado 125872" d="M3.3,0l7.989.046a3.332,3.332,0,0,1,3.34,3.269l.046,7.818a3.24,3.24,0,0,1-3.3,3.23l-7.989-.046a3.332,3.332,0,0,1-3.34-3.269L0,3.231A3.24,3.24,0,0,1,3.3,0Z" transform="matrix(-0.945, 0.327, -0.327, -0.945, 195.273, 35.812)" fill="#8d6af2"/>
        <path id="Trazado_125873" data-name="Trazado 125873" d="M3.515,0A3.418,3.418,0,0,1,7,3.4,3.5,3.5,0,0,1,3.481,6.841,3.418,3.418,0,0,1,0,3.438,3.5,3.5,0,0,1,3.515,0Z" transform="translate(45.147 91.238) rotate(-172.964)" fill="#8d6af2" stroke="#fff" stroke-width="1" style="mix-blend-mode: overlay;isolation: isolate"/>
        <path id="Trazado_125853" data-name="Trazado 125853" d="M-.023,3.4A3.478,3.478,0,0,1,3.485-.023a3.442,3.442,0,0,1,3.494,3.41A3.478,3.478,0,0,1,3.47,6.811,3.442,3.442,0,0,1-.023,3.4Z" transform="translate(67.398 31)" fill="#8d6af2" stroke="#d1c3fa" stroke-miterlimit="10" stroke-width="1" style="mix-blend-mode: multiply;isolation: isolate"/>
        <path id="Trazado_125874" data-name="Trazado 125874" d="M5.731-.039a5.66,5.66,0,0,1,5.745,5.607A5.719,5.719,0,0,1,5.706,11.2,5.66,5.66,0,0,1-.039,5.593,5.719,5.719,0,0,1,5.731-.039Z" transform="translate(126.29 20.634)" fill="#8d6af2" stroke="#d1c3fa" stroke-width="1" style="mix-blend-mode: multiply;isolation: isolate"/>
        <path id="Trazado_125875" data-name="Trazado 125875" d="M9.628,0a9.3,9.3,0,0,1,9.488,9.3,9.637,9.637,0,0,1-9.628,9.442A9.3,9.3,0,0,1,0,9.442,9.637,9.637,0,0,1,9.628,0Z" transform="translate(25.181 70.003) rotate(-166.552)" fill="#8d6af2" stroke="#e8e1fc" stroke-width="1" style="mix-blend-mode: multiply;isolation: isolate"/>
      </g>
      <g id="Grupo_962056" data-name="Grupo 962056" transform="matrix(-0.087, 0.996, -0.996, -0.087, 438.598, 12384.506)" opacity="0.1">
        <path id="Trazado_125852-2" data-name="Trazado 125852" d="M.005,84.5c3.072-1.419,6.159-2.794,9.228-4.157,15.357-6.827,31.234-13.889,43.074-26.1A62.889,62.889,0,0,0,69.211,20,58.66,58.66,0,0,0,68.825,0l2.284,0a60.807,60.807,0,0,1,.323,20.3,65.1,65.1,0,0,1-17.5,35.44C41.791,68.267,25.708,75.42,10.156,82.335,6.777,83.838,3.375,85.349,0,86.929Z" transform="translate(55.165 44.608)" fill="#8d6af2"/>
        <path id="Trazado_125865-2" data-name="Trazado 125865" d="M13.4,0a13.144,13.144,0,0,1,13.34,13.021A13.28,13.28,0,0,1,13.34,26.1,13.144,13.144,0,0,1,0,13.077,13.28,13.28,0,0,1,13.4,0Z" transform="translate(3.994 78.186)" fill="#8d6af2"/>
        <path id="Trazado_125866-2" data-name="Trazado 125866" d="M14.24,0a13.713,13.713,0,0,1,14,13.754A14.29,14.29,0,0,1,14,27.747,13.713,13.713,0,0,1,0,13.993,14.29,14.29,0,0,1,14.24,0Z" transform="translate(111.028 47.214) rotate(-162.968)" fill="#8d6af2"/>
        <path id="Trazado_125867-2" data-name="Trazado 125867" d="M5.66.361,39.148,0a5.079,5.079,0,0,1,5.187,5.126l-.36,33.1a5.352,5.352,0,0,1-5.3,5.239l-33.488.36A5.079,5.079,0,0,1,0,38.7L.361,5.6A5.352,5.352,0,0,1,5.66.361Z" transform="translate(39.881 58.794) rotate(-154.095)" fill="#8d6af2"/>
        <path id="Trazado_125868-2" data-name="Trazado 125868" d="M2.975.06,8.518,0a2.794,2.794,0,0,1,2.853,2.82l-.06,5.48A2.943,2.943,0,0,1,8.4,11.181l-5.544.06A2.794,2.794,0,0,1,0,8.421l.06-5.48A2.943,2.943,0,0,1,2.975.06Z" transform="translate(145.403 93.194) rotate(-154.095)" fill="#8d6af2"/>
        <path id="Trazado_125869-2" data-name="Trazado 125869" d="M3.3,0,15.676.071a3.332,3.332,0,0,1,3.34,3.269l.071,12.11a3.24,3.24,0,0,1-3.3,3.23L3.411,18.609A3.332,3.332,0,0,1,.071,15.34L0,3.231A3.24,3.24,0,0,1,3.3,0Z" transform="matrix(-0.945, 0.327, -0.327, -0.945, 98.355, 150.533)" fill="#8d6af2"/>
        <path id="Trazado_125871-2" data-name="Trazado 125871" d="M3.3,0,15.676.071a3.332,3.332,0,0,1,3.34,3.269l.071,12.11a3.24,3.24,0,0,1-3.3,3.23L3.411,18.609A3.332,3.332,0,0,1,.071,15.34L0,3.231A3.24,3.24,0,0,1,3.3,0Z" transform="matrix(-0.945, 0.327, -0.327, -0.945, 71.09, 65.631)" fill="#8d6af2"/>
        <path id="Trazado_125872-2" data-name="Trazado 125872" d="M3.3,0l7.989.046a3.332,3.332,0,0,1,3.34,3.269l.046,7.818a3.24,3.24,0,0,1-3.3,3.23l-7.989-.046a3.332,3.332,0,0,1-3.34-3.269L0,3.231A3.24,3.24,0,0,1,3.3,0Z" transform="matrix(-0.945, 0.327, -0.327, -0.945, 195.301, 37.712)" fill="#8d6af2"/>
        <path id="Trazado_657598" data-name="Trazado 657598" d="M3.3,0l7.989.046a3.332,3.332,0,0,1,3.34,3.269l.046,7.818a3.24,3.24,0,0,1-3.3,3.23l-7.989-.046a3.332,3.332,0,0,1-3.34-3.269L0,3.231A3.24,3.24,0,0,1,3.3,0Z" transform="matrix(-0.945, 0.327, -0.327, -0.945, 143.372, 405.638)" fill="#8d6af2"/>
        <path id="Trazado_125873-2" data-name="Trazado 125873" d="M3.515,0A3.418,3.418,0,0,1,7,3.4,3.5,3.5,0,0,1,3.481,6.841,3.418,3.418,0,0,1,0,3.438,3.5,3.5,0,0,1,3.515,0Z" transform="translate(45.175 93.139) rotate(-172.964)" fill="#8d6af2" stroke="#fff" stroke-width="1" style="mix-blend-mode: overlay;isolation: isolate"/>
        <path id="Trazado_125853-2" data-name="Trazado 125853" d="M0,3.425A3.478,3.478,0,0,1,3.508,0,3.442,3.442,0,0,1,7,3.41,3.478,3.478,0,0,1,3.493,6.835,3.442,3.442,0,0,1,0,3.425Z" transform="translate(67.403 32.877)" fill="#8d6af2" stroke="#d1c3fa" stroke-miterlimit="10" stroke-width="1" style="mix-blend-mode: multiply;isolation: isolate"/>
        <path id="Trazado_125874-2" data-name="Trazado 125874" d="M5.769,0a5.66,5.66,0,0,1,5.745,5.607,5.719,5.719,0,0,1-5.769,5.632A5.66,5.66,0,0,1,0,5.632,5.719,5.719,0,0,1,5.769,0Z" transform="translate(126.28 22.496)" fill="#8d6af2" stroke="#d1c3fa" stroke-width="1" style="mix-blend-mode: multiply;isolation: isolate"/>
        <path id="Trazado_125875-2" data-name="Trazado 125875" d="M9.628,0a9.3,9.3,0,0,1,9.488,9.3,9.637,9.637,0,0,1-9.628,9.442A9.3,9.3,0,0,1,0,9.442,9.637,9.637,0,0,1,9.628,0Z" transform="translate(25.209 71.903) rotate(-166.552)" fill="#8d6af2" stroke="#e8e1fc" stroke-width="1" style="mix-blend-mode: multiply;isolation: isolate"/>
      </g>
    </g>
  </g>
</svg>
