<svg xmlns="http://www.w3.org/2000/svg" xmlns:xlink="http://www.w3.org/1999/xlink" width="113.331" height="113.331" viewBox="0 0 113.331 113.331">
  <defs>
    <filter id="Trazado_123383" x="0" y="0" width="113.331" height="113.331" filterUnits="userSpaceOnUse">
      <feOffset dy="3" input="SourceAlpha"/>
      <feGaussianBlur stdDeviation="3" result="blur"/>
      <feFlood flood-opacity="0.161"/>
      <feComposite operator="in" in2="blur"/>
      <feComposite in="SourceGraphic"/>
    </filter>
  </defs>
  <g id="Grupo_963992" data-name="Grupo 963992" transform="translate(-271 -7336)">
    <g transform="matrix(1, 0, 0, 1, 271, 7336)" filter="url(#Trazado_123383)">
      <path id="Trazado_123383-2" data-name="Trazado 123383" d="M47.666,0A47.666,47.666,0,1,1,0,47.666,47.666,47.666,0,0,1,47.666,0Z" transform="translate(9 6)" fill="#a8edd8"/>
    </g>
    <g id="objetivo_2_" data-name="objetivo (2)" transform="translate(292 7350)">
      <path id="Trazado_658881" data-name="Trazado 658881" d="M48.138,460.14H33.023v-5.332A2.809,2.809,0,0,1,35.832,452h9.5a2.809,2.809,0,0,1,2.809,2.809Zm0,0" transform="translate(-27.902 -381.908)" fill="#a7c7d3"/>
      <path id="Trazado_658882" data-name="Trazado 658882" d="M145.612,422.148H130.5v-12.3a2.809,2.809,0,0,1,2.809-2.809h9.5a2.809,2.809,0,0,1,2.809,2.809Zm0,0" transform="translate(-110.26 -343.916)" fill="#89b4c9"/>
      <path id="Trazado_658883" data-name="Trazado 658883" d="M243.088,381.335H227.972v-19.8a2.809,2.809,0,0,1,2.809-2.809h9.5a2.809,2.809,0,0,1,2.809,2.809Zm0,0" transform="translate(-192.621 -303.102)" fill="#6c96b3"/>
      <path id="Trazado_658884" data-name="Trazado 658884" d="M340.564,319.427H325.449V288.27a2.809,2.809,0,0,1,2.809-2.809h9.5a2.809,2.809,0,0,1,2.809,2.809Zm0,0" transform="translate(-274.982 -241.194)" fill="#618aaa"/>
      <path id="Trazado_658885" data-name="Trazado 658885" d="M351.906,28.413h15.2a.511.511,0,0,0,.337-.895L363.5,24.041a.511.511,0,0,1,0-.767l3.949-3.478a.511.511,0,0,0-.337-.894h-15.2Zm0,0" transform="translate(-297.336 -15.971)" fill="#fdb659"/>
      <path id="Trazado_658886" data-name="Trazado 658886" d="M239.141,108.93l-16.47,8.944c-1.47.8-1.871,2.2-2.384,4.008l-3.275,11.581,8.026-3.289,3.115-9.417,8.288-5.036A6.065,6.065,0,0,0,239.141,108.93Zm0,0" transform="translate(-183.36 -92.038)" fill="#83d9ff"/>
      <path id="Trazado_658887" data-name="Trazado 658887" d="M239.141,108.93l-1.9,1.032a6.063,6.063,0,0,1-2.8,4.02l-7.552,4.588a2.344,2.344,0,0,0-1.007,1.266L224.8,123.1a12.223,12.223,0,0,1-6.97,7.471l-.819,2.9,8.026-3.289,3.115-9.416,8.288-5.036a6.067,6.067,0,0,0,2.7-6.792Zm0,0" transform="translate(-183.36 -92.038)" fill="#5fc9ed"/>
      <path id="Trazado_658888" data-name="Trazado 658888" d="M225.038,245.926l4.744,5.6c.786,1.041,1.47,1.772,1.328,2.917L230,263.414h-2.894l-.757-7.708a1.288,1.288,0,0,0-.772-1.056l-8.565-5.435Zm0,0" transform="translate(-183.36 -207.79)" fill="#38627c"/>
      <path id="Trazado_658889" data-name="Trazado 658889" d="M183.6,249.215l-.463,8.5a3.733,3.733,0,0,1-.207,1.705l-5.462,11.491h3.071L188.755,260a4.44,4.44,0,0,0,.7-2.016l2.178-12.059Zm0,0" transform="translate(-149.952 -207.79)" fill="#4f7693"/>
      <path id="Trazado_658890" data-name="Trazado 658890" d="M233.41,113.3l1.347,2.629a2.514,2.514,0,0,1-1.092,3.384l-1.041.533a2.513,2.513,0,0,1-3.383-1.092l-1.347-2.629a2.514,2.514,0,0,1,1.092-3.384l1.041-.533A2.513,2.513,0,0,1,233.41,113.3Zm0,0" transform="translate(-192.32 -94.575)" fill="#fdb659"/>
      <path id="Trazado_658891" data-name="Trazado 658891" d="M70.881,10.673,67.488,7.686,70.881,4.7a1.675,1.675,0,0,0-1.107-2.932H55.734v-.6a1.164,1.164,0,1,0-2.327,0V16.857L43.85,22.047a3.682,3.682,0,0,0-.378-1.222L42.125,18.2a3.681,3.681,0,0,0-4.949-1.6l-1.041.533a3.677,3.677,0,0,0-1.6,4.95l1.347,2.63a3.655,3.655,0,0,0,1.325,1.44,10.194,10.194,0,0,0-1.4,3.376l-.251.888a1.163,1.163,0,0,0,.8,1.436,1.146,1.146,0,0,0,.317.044,1.164,1.164,0,0,0,1.119-.847l.251-.886c.51-1.8.823-2.762,1.82-3.3l1.788-.971.22-.113c.073-.038.142-.08.211-.122l12.74-6.918a4.925,4.925,0,0,1-2.349,3.954l-8.285,5.034-.028.017-2.579,1.566A1.164,1.164,0,0,0,42.7,31.347l-1.957,5.914-1.43.586-3.889,1.594,1.121-3.962a1.164,1.164,0,1,0-2.24-.634l-1.771,6.262a1.117,1.117,0,0,0-.042.253l-.463,8.512a3.9,3.9,0,0,1-.1,1.255L26.785,61.955h-3.74a3.977,3.977,0,0,0-3.973,3.972v3.359a3.941,3.941,0,0,0-1.645-.358H7.93A3.977,3.977,0,0,0,3.957,72.9v4.168H1.164a1.164,1.164,0,0,0,0,2.327H69.773a1.164,1.164,0,0,0,0-2.327H66.746V47.075A3.977,3.977,0,0,0,62.774,43.1h-7.04V22.8A7.257,7.257,0,0,0,56.9,16.583a1.164,1.164,0,0,0-1.169-.854V13.6H69.773a1.675,1.675,0,0,0,1.107-2.932ZM36.526,19.991A1.341,1.341,0,0,1,37.2,19.2l1.041-.533a1.35,1.35,0,0,1,1.817.586l1.347,2.63a1.352,1.352,0,0,1-.448,1.735l-.379.205-.8.41a1.351,1.351,0,0,1-1.817-.586l-1.347-2.629a1.341,1.341,0,0,1-.083-1.03ZM34.188,62.313a3.95,3.95,0,0,0-1.278-.34l1.278-1.7Zm5.525-9.376a4.385,4.385,0,0,0,.839-2.085c.031-.15.606-3.287.606-3.287s.543.339.6.363a.124.124,0,0,1,.071.1l.633,6.435h-3.9Zm6.881-6.423-.983,7.945H44.8L44.146,47.8a2.452,2.452,0,0,0-1.371-1.967l-1.17-.742.78-4.321s3.284,3.9,3.361,4c.68.884.912,1.238.849,1.742ZM34.025,52.146a6.308,6.308,0,0,0,.326-2.16l.423-7.763,5.382-2.206-.978,5.419c0,.015-.006.03-.008.044l-.809,4.481a4.433,4.433,0,0,1-.487,1.55L30.01,61.955h-.648ZM6.285,72.9A1.647,1.647,0,0,1,7.93,71.256h9.5A1.647,1.647,0,0,1,19.073,72.9v4.168H6.285Zm15.115,0V65.928a1.647,1.647,0,0,1,1.646-1.645h9.5a1.647,1.647,0,0,1,1.645,1.645V77.069H21.4V72.9ZM64.419,47.075V77.069H51.631V70.092a1.164,1.164,0,0,0-2.328,0v6.977H36.515V58.437a1.647,1.647,0,0,1,1.645-1.645h9.5A1.647,1.647,0,0,1,49.3,58.437V64.27a1.164,1.164,0,0,0,2.327,0V47.075a1.647,1.647,0,0,1,1.646-1.645h9.5a1.648,1.648,0,0,1,1.646,1.645ZM53.276,43.1A3.977,3.977,0,0,0,49.3,47.075v7.747a3.939,3.939,0,0,0-1.349-.346L48.9,46.8a4.494,4.494,0,0,0-1.314-3.447c-.078-.1-4.6-5.472-4.6-5.472l2.775-8.39,7.643-4.644V43.1Zm2.458-31.826V4.095H68.044L65.393,6.429a1.674,1.674,0,0,0,0,2.514l2.651,2.335H55.734Zm0,0"/>
    </g>
  </g>
</svg>
