<svg xmlns="http://www.w3.org/2000/svg" xmlns:xlink="http://www.w3.org/1999/xlink" width="71" height="73" viewBox="0 0 71 73">
  <defs>
    <filter id="Rect치ngulo_336176" x="0" y="0" width="71" height="73" filterUnits="userSpaceOnUse">
      <feOffset dy="3" input="SourceAlpha"/>
      <feGaussianBlur stdDeviation="3" result="blur"/>
      <feFlood flood-opacity="0.161"/>
      <feComposite operator="in" in2="blur"/>
      <feComposite in="SourceGraphic"/>
    </filter>
  </defs>
  <g id="Grupo_962128" data-name="Grupo 962128" transform="translate(-223 -1165)">
    <g transform="matrix(1, 0, 0, 1, 223, 1165)" filter="url(#Rect치ngulo_336176)">
      <rect id="Rect치ngulo_336176-2" data-name="Rect치ngulo 336176" width="53" height="55" rx="6" transform="translate(9 6)" fill="#5832c7"/>
    </g>
    <path id="Trazado_658938" data-name="Trazado 658938" d="M15.107,29H1.217V25.992l6.4-6.727Q9.98,16.572,9.98,14.986a2.977,2.977,0,0,0-.561-1.955,2,2,0,0,0-1.627-.67,2.026,2.026,0,0,0-1.709.9,3.68,3.68,0,0,0-.656,2.235H.807a6.537,6.537,0,0,1,.916-3.384A6.424,6.424,0,0,1,4.266,9.682,7.554,7.554,0,0,1,7.9,8.807a7.431,7.431,0,0,1,4.97,1.49,5.32,5.32,0,0,1,1.743,4.279,6.214,6.214,0,0,1-.437,2.29,10.043,10.043,0,0,1-1.36,2.338,34.267,34.267,0,0,1-2.974,3.274l-2.57,2.967h7.834Z" transform="translate(249 1180)" fill="#fff"/>
  </g>
</svg>
