<svg xmlns="http://www.w3.org/2000/svg" width="85" height="85" viewBox="0 0 85 85">
  <g id="Grupo_963998" data-name="Grupo 963998" transform="translate(-705 -2152.587)">
    <rect id="Rectángulo_337946" data-name="Rectángulo 337946" width="85" height="85" transform="translate(705 2152.587)" fill="#764cf0"/>
    <g id="calendario_1_" data-name="calendario (1)" transform="translate(695.373 2165.587)">
      <g id="Grupo_98893" data-name="Grupo 98893" transform="translate(26.505 4.796)">
        <path id="Trazado_125986" data-name="Trazado 125986" d="M81.789,368.848H36.638a3.511,3.511,0,0,1-3.512-3.512v-4.885L85.3,350.971v14.366A3.512,3.512,0,0,1,81.789,368.848Z" transform="translate(-33.126 -314.686)" fill="#35e298"/>
        <path id="Trazado_125987" data-name="Trazado 125987" d="M72.236,91.629H36.643a3.517,3.517,0,0,1-3.517-3.517V44.5a3.517,3.517,0,0,1,3.517-3.517h45.14A3.517,3.517,0,0,1,85.3,44.5V78.564c0,.933-2.126,1.827-2.786,2.487l-7.791,7.791C74.064,89.5,73.169,91.629,72.236,91.629Z" transform="translate(-33.126 -40.977)" fill="#f9f3f1"/>
        <path id="Trazado_125988" data-name="Trazado 125988" d="M331.145,336.746h2.786a2.882,2.882,0,0,0,2.882-2.882V328a2.882,2.882,0,0,1,2.882-2.882h5.86a2.882,2.882,0,0,0,2.882-2.882v1.425a3.518,3.518,0,0,1-1.03,2.487l-9.563,9.563a3.517,3.517,0,0,1-2.487,1.03h-4.211Z" transform="translate(-296.262 -286.095)" fill="#efe2dd"/>
        <path id="Trazado_125989" data-name="Trazado 125989" d="M85.3,44.485v9.034H33.13V44.485a3.512,3.512,0,0,1,3.511-3.512H81.792A3.512,3.512,0,0,1,85.3,44.485Z" transform="translate(-33.13 -40.974)" fill="#1ab975"/>
        <g id="Grupo_98888" data-name="Grupo 98888" transform="translate(5.547)">
          <g id="Grupo_98886" data-name="Grupo 98886">
            <path id="Trazado_125990" data-name="Trazado 125990" d="M84.913,47.1H83.19a2.672,2.672,0,0,1-2.67-2.669v-3.46h1.756v3.46a.914.914,0,0,0,.914.913C83.674,45.346,85.4,47.1,84.913,47.1Z" transform="translate(-80.52 -40.973)" fill="#127d4f"/>
          </g>
          <g id="Grupo_98887" data-name="Grupo 98887" transform="translate(31.891)">
            <path id="Trazado_125991" data-name="Trazado 125991" d="M357.373,47.1h-1.724a2.672,2.672,0,0,1-2.669-2.669v-3.46h1.756v3.46a.914.914,0,0,0,.913.913A3.071,3.071,0,0,1,357.373,47.1Z" transform="translate(-352.98 -40.973)" fill="#127d4f"/>
          </g>
        </g>
        <g id="Grupo_98892" data-name="Grupo 98892" transform="translate(5.267 17.811)">
          <g id="Grupo_98889" data-name="Grupo 98889">
            <path id="Trazado_125992" data-name="Trazado 125992" d="M83.142,198.994h-4.18a.836.836,0,0,1-.836-.836v-4.18a.836.836,0,0,1,.836-.836h4.18a.836.836,0,0,1,.836.836v4.18A.836.836,0,0,1,83.142,198.994Z" transform="translate(-78.126 -193.142)" fill="#1ab975"/>
            <path id="Trazado_125993" data-name="Trazado 125993" d="M185.058,198.994h-4.18a.836.836,0,0,1-.836-.836v-4.18a.836.836,0,0,1,.836-.836h4.18a.836.836,0,0,1,.836.836v4.18A.836.836,0,0,1,185.058,198.994Z" transform="translate(-168.113 -193.142)" fill="#1ab975"/>
            <path id="Trazado_125994" data-name="Trazado 125994" d="M286.974,198.994h-4.18a.836.836,0,0,1-.836-.836v-4.18a.836.836,0,0,1,.836-.836h4.18a.836.836,0,0,1,.836.836v4.18A.836.836,0,0,1,286.974,198.994Z" transform="translate(-258.099 -193.142)" fill="#1ab975"/>
            <path id="Trazado_125995" data-name="Trazado 125995" d="M388.89,198.994h-4.18a.836.836,0,0,1-.836-.836v-4.18a.836.836,0,0,1,.836-.836h4.18a.836.836,0,0,1,.836.836v4.18A.836.836,0,0,1,388.89,198.994Z" transform="translate(-348.086 -193.142)" fill="#1ab975"/>
          </g>
          <g id="Grupo_98890" data-name="Grupo 98890" transform="translate(0 10.859)">
            <path id="Trazado_125996" data-name="Trazado 125996" d="M83.142,291.768h-4.18a.836.836,0,0,1-.836-.836v-4.18a.836.836,0,0,1,.836-.836h4.18a.836.836,0,0,1,.836.836v4.18A.836.836,0,0,1,83.142,291.768Z" transform="translate(-78.126 -285.915)" fill="#1ab975"/>
            <path id="Trazado_125997" data-name="Trazado 125997" d="M185.058,291.768h-4.18a.836.836,0,0,1-.836-.836v-4.18a.836.836,0,0,1,.836-.836h4.18a.836.836,0,0,1,.836.836v4.18A.836.836,0,0,1,185.058,291.768Z" transform="translate(-168.113 -285.915)" fill="#1ab975"/>
            <path id="Trazado_125998" data-name="Trazado 125998" d="M286.974,291.768h-4.18a.836.836,0,0,1-.836-.836v-4.18a.836.836,0,0,1,.836-.836h4.18a.836.836,0,0,1,.836.836v4.18A.836.836,0,0,1,286.974,291.768Z" transform="translate(-258.099 -285.915)" fill="#1ab975"/>
          </g>
          <path id="Trazado_125999" data-name="Trazado 125999" d="M388.89,293.994h-4.18a.836.836,0,0,1-.836-.836v-4.18a.836.836,0,0,1,.836-.836h4.18a.836.836,0,0,1,.836.836v4.18A.836.836,0,0,1,388.89,293.994Z" transform="translate(-348.086 -277.022)" fill="#1ab975"/>
          <g id="Grupo_98891" data-name="Grupo 98891" transform="translate(0 21.718)">
            <path id="Trazado_126000" data-name="Trazado 126000" d="M83.142,384.54h-4.18a.836.836,0,0,1-.836-.836v-4.18a.836.836,0,0,1,.836-.836h4.18a.836.836,0,0,1,.836.836v4.18A.836.836,0,0,1,83.142,384.54Z" transform="translate(-78.126 -378.688)" fill="#1ab975"/>
            <path id="Trazado_126001" data-name="Trazado 126001" d="M185.058,384.54h-4.18a.836.836,0,0,1-.836-.836v-4.18a.836.836,0,0,1,.836-.836h4.18a.836.836,0,0,1,.836.836v4.18A.836.836,0,0,1,185.058,384.54Z" transform="translate(-168.113 -378.688)" fill="#1ab975"/>
            <path id="Trazado_126002" data-name="Trazado 126002" d="M286.974,384.54h-4.18a.836.836,0,0,1-.836-.836v-4.18a.836.836,0,0,1,.836-.836h4.18a.836.836,0,0,1,.836.836v4.18A.836.836,0,0,1,286.974,384.54Z" transform="translate(-258.099 -378.688)" fill="#1ab975"/>
          </g>
        </g>
      </g>
      <path id="Trazado_126003" data-name="Trazado 126003" d="M68.4,29.433h4.18a1.716,1.716,0,0,0,1.714-1.714v-4.18a1.716,1.716,0,0,0-1.714-1.714H68.4a1.716,1.716,0,0,0-1.714,1.714v4.18A1.716,1.716,0,0,0,68.4,29.433Zm.042-5.853h4.1v4.1h-4.1ZM68.4,40.552h4.18a1.716,1.716,0,0,0,1.714-1.714v-4.18a1.716,1.716,0,0,0-1.714-1.714H68.4a1.716,1.716,0,0,0-1.714,1.714v4.18A1.716,1.716,0,0,0,68.4,40.552Zm.042-5.852h4.1v4.1h-4.1ZM56.467,29.433h4.18a1.716,1.716,0,0,0,1.714-1.714v-4.18a1.716,1.716,0,0,0-1.714-1.714h-4.18a1.716,1.716,0,0,0-1.714,1.714v4.18A1.716,1.716,0,0,0,56.467,29.433Zm.042-5.852h4.1v4.1h-4.1ZM36.788,43.543h-4.18a1.716,1.716,0,0,0-1.714,1.714v4.18a1.716,1.716,0,0,0,1.714,1.714h4.18A1.716,1.716,0,0,0,38.5,49.437v-4.18A1.716,1.716,0,0,0,36.788,43.543ZM36.747,49.4h-4.1V45.3h4.1Zm.042-27.571h-4.18a1.716,1.716,0,0,0-1.714,1.714v4.18a1.716,1.716,0,0,0,1.714,1.714h4.18A1.716,1.716,0,0,0,38.5,27.719v-4.18A1.716,1.716,0,0,0,36.788,21.824Zm-.042,5.852h-4.1v-4.1h4.1Zm19.72,12.615h4.18a1.716,1.716,0,0,0,1.714-1.714V34.4a1.716,1.716,0,0,0-1.714-1.714h-4.18A1.716,1.716,0,0,0,54.753,34.4v4.18A1.716,1.716,0,0,0,56.467,40.292Zm.042-5.852h4.1v4.1h-4.1ZM75.162,4.012H71.409V2.67A2.673,2.673,0,0,0,68.739,0h-.4a2.673,2.673,0,0,0-2.669,2.67V4.012H39.518V2.67A2.673,2.673,0,0,0,36.848,0h-.4a2.673,2.673,0,0,0-2.67,2.67V4.012H30.022a4.4,4.4,0,0,0-4.4,4.4V55.54a4.394,4.394,0,0,0,4.389,4.389H75.168a4.394,4.394,0,0,0,4.389-4.389V8.407a4.4,4.4,0,0,0-4.4-4.4ZM67.422,2.67a.915.915,0,0,1,.914-.914h.4a.915.915,0,0,1,.914.914V4.012H67.422Zm-31.891,0a.915.915,0,0,1,.914-.914h.4a.915.915,0,0,1,.914.914V4.012H35.531V2.67ZM77.8,55.54a2.637,2.637,0,0,1-2.634,2.634H30.016a2.637,2.637,0,0,1-2.634-2.634v-.006a4.372,4.372,0,0,0,2.64.883H65.615a4.366,4.366,0,0,0,3.108-1.287L77.8,46.052Zm-9.974-2a3.755,3.755,0,0,0,.106-.885V46.8a2.006,2.006,0,0,1,2-2H75.8a3.754,3.754,0,0,0,.885-.106ZM77.8,16.557H40.4a.878.878,0,0,0,0,1.756H77.8V41.034a2.006,2.006,0,0,1-2,2h-5.86a3.764,3.764,0,0,0-3.76,3.76v5.86a2.006,2.006,0,0,1-2,2H30.022a2.642,2.642,0,0,1-2.639-2.64V18.313h9.5a.878.878,0,0,0,0-1.756h-9.5V8.407a2.642,2.642,0,0,1,2.639-2.639h3.753V8.349a2.673,2.673,0,0,0,2.67,2.67.878.878,0,1,0,0-1.756.915.915,0,0,1-.914-.914V5.768H65.667V8.349a2.673,2.673,0,0,0,2.67,2.67.878.878,0,1,0,0-1.756.915.915,0,0,1-.914-.914V5.768h7.74A2.642,2.642,0,0,1,77.8,8.407ZM36.788,32.684h-4.18A1.716,1.716,0,0,0,30.894,34.4v4.18a1.716,1.716,0,0,0,1.714,1.714h4.18A1.716,1.716,0,0,0,38.5,38.578V34.4A1.716,1.716,0,0,0,36.788,32.684Zm-.042,5.852h-4.1v-4.1h4.1Zm7.791-9.1h4.18a1.716,1.716,0,0,0,1.714-1.714v-4.18a1.716,1.716,0,0,0-1.714-1.714h-4.18a1.716,1.716,0,0,0-1.714,1.714v4.18A1.716,1.716,0,0,0,44.537,29.433Zm.042-5.852h4.1v4.1h-4.1ZM56.507,49.4a.878.878,0,0,0-1.755.042,1.716,1.716,0,0,0,1.714,1.714h4.18a1.716,1.716,0,0,0,1.714-1.714v-4.18a1.716,1.716,0,0,0-1.714-1.714h-4.18a1.716,1.716,0,0,0-1.714,1.714v1.206a.878.878,0,0,0,1.756,0V45.3h4.1v4.1Zm-11.97-9.1h4.18a1.716,1.716,0,0,0,1.714-1.714V34.4a1.716,1.716,0,0,0-1.714-1.714h-4.18A1.716,1.716,0,0,0,42.823,34.4v4.18A1.716,1.716,0,0,0,44.537,40.292Zm.042-5.852h4.1v4.1h-4.1Zm-.042,16.712h4.18a1.716,1.716,0,0,0,1.714-1.714v-4.18a1.716,1.716,0,0,0-1.714-1.714h-4.18a1.716,1.716,0,0,0-1.714,1.714v4.18A1.716,1.716,0,0,0,44.537,51.151Zm.042-5.852h4.1v4.1h-4.1Z" transform="translate(0 0)"/>
    </g>
  </g>
</svg>
