<svg xmlns="http://www.w3.org/2000/svg" width="85" height="85" viewBox="0 0 85 85">
  <g id="Grupo_963999" data-name="Grupo 963999" transform="translate(-705 -2299.587)">
    <rect id="Rectángulo_337948" data-name="Rectángulo 337948" width="85" height="85" transform="translate(705 2299.587)" fill="#764cf0"/>
    <g id="hashtag" transform="translate(715 2309.587)">
      <path id="Trazado_126004" data-name="Trazado 126004" d="M42.285,62.752H22.066A6.065,6.065,0,0,1,16,56.686V8.161A6.065,6.065,0,0,1,22.066,2.1H42.285A6.065,6.065,0,0,1,48.35,8.161V56.686A6.066,6.066,0,0,1,42.285,62.752Z" transform="translate(0.164 0.012)" fill="#169b62"/>
      <path id="Trazado_126005" data-name="Trazado 126005" d="M16,8.1H48.35v42.46H16Z" transform="translate(0.164 0.078)" fill="#35e298"/>
      <path id="Trazado_126006" data-name="Trazado 126006" d="M25.252,34.336H5.033A3.033,3.033,0,0,1,2,31.3V15.128A3.033,3.033,0,0,1,5.033,12.1H25.252a3.033,3.033,0,0,1,3.033,3.033V22.2l5.055,5.055H28.285V31.3A3.033,3.033,0,0,1,25.252,34.336Z" transform="translate(0.011 0.121)" fill="#78b75b"/>
      <path id="Trazado_126007" data-name="Trazado 126007" d="M27.092,12.732a3.007,3.007,0,0,0-1.84-.637H5.033A3.033,3.033,0,0,0,2,15.128V31.3a3.006,3.006,0,0,0,.183,1c.108,0,.214.007.322.007C15.182,32.314,25.627,23.76,27.092,12.732Z" transform="translate(0.011 0.121)" fill="#96cc7f"/>
      <path id="Trazado_126008" data-name="Trazado 126008" d="M39.088,24.095H59.307a3.033,3.033,0,0,1,3.033,3.033V43.3a3.033,3.033,0,0,1-3.033,3.033H39.088A3.033,3.033,0,0,1,36.055,43.3V39.259L31,34.2h5.055V27.128A3.033,3.033,0,0,1,39.088,24.1Z" transform="translate(0.328 0.253)" fill="#78b75b"/>
      <path id="Trazado_126009" data-name="Trazado 126009" d="M59.188,24.095h-20.1a3.033,3.033,0,0,0-3.033,3.033V34.2H31l5.055,5.055V43.3a3.006,3.006,0,0,0,.745,1.97C49.017,42.422,58.1,34.124,59.188,24.1Z" transform="translate(0.328 0.253)" fill="#96cc7f"/>
      <circle id="Elipse_5898" data-name="Elipse 5898" cx="2.022" cy="2.022" r="2.022" transform="translate(30.317 54.676)" fill="#fff"/>
      <g id="Grupo_98894" data-name="Grupo 98894" transform="translate(1 1)">
        <path id="Trazado_126010" data-name="Trazado 126010" d="M32.033,53a3.033,3.033,0,1,0,3.033,3.033A3.037,3.037,0,0,0,32.033,53Zm0,4.044a1.011,1.011,0,1,1,1.011-1.011A1.011,1.011,0,0,1,32.033,57.044Z" transform="translate(-0.693 -0.431)"/>
        <path id="Trazado_126011" data-name="Trazado 126011" d="M59.635,23.241H49.525V8.077A7.085,7.085,0,0,0,42.449,1H22.23a7.085,7.085,0,0,0-7.077,7.077v3.033H5.044A4.048,4.048,0,0,0,1,15.153V31.328a4.048,4.048,0,0,0,4.044,4.044H15.153V56.6a7.086,7.086,0,0,0,7.077,7.077H42.449A7.086,7.086,0,0,0,49.525,56.6V47.5H59.635a4.048,4.048,0,0,0,4.044-4.044V27.285A4.048,4.048,0,0,0,59.635,23.241ZM22.23,3.022H42.449A5.064,5.064,0,0,1,47.4,7.066H17.277A5.064,5.064,0,0,1,22.23,3.022ZM3.022,31.328V15.153a2.024,2.024,0,0,1,2.022-2.022H25.263a2.024,2.024,0,0,1,2.022,2.022V22.23a1.008,1.008,0,0,0,.3.715l3.329,3.329H28.3a1.011,1.011,0,0,0-1.011,1.011v4.044a2.024,2.024,0,0,1-2.022,2.022H5.044a2.024,2.024,0,0,1-2.022-2.022ZM42.449,61.657H22.23A5.06,5.06,0,0,1,17.175,56.6V51.547H47.5V56.6A5.06,5.06,0,0,1,42.449,61.657ZM47.5,49.525H17.175V35.372h8.088a4.048,4.048,0,0,0,4.044-4.044V28.3H33.35a1.011,1.011,0,0,0,.715-1.726l-4.759-4.759V15.153a4.048,4.048,0,0,0-4.044-4.044H17.175V9.088H47.5V23.241H39.416a4.048,4.048,0,0,0-4.044,4.044V33.35H31.328a1.011,1.011,0,0,0-.715,1.726l4.759,4.759V43.46A4.048,4.048,0,0,0,39.416,47.5H47.5ZM61.657,43.46a2.024,2.024,0,0,1-2.022,2.022H39.416a2.024,2.024,0,0,1-2.022-2.022V39.416a1.007,1.007,0,0,0-.3-.715l-3.329-3.329h2.614a1.01,1.01,0,0,0,1.011-1.011V27.285a2.024,2.024,0,0,1,2.022-2.022H59.635a2.024,2.024,0,0,1,2.022,2.022Z" transform="translate(-1 -1)"/>
        <path id="Trazado_126012" data-name="Trazado 126012" d="M20.109,16.214l-1.976-.424-.7,3.245H14.45l.6-2.822-1.976-.424-.7,3.245H8v2.022h3.949L11.082,25.1H8v2.022h2.649l-.6,2.822,1.976.424.7-3.245H15.7l-.6,2.822,1.976.424.7-3.245h4.382V25.1H18.2l.866-4.044h3.082V19.035H19.5ZM16.137,25.1H13.15l.866-4.044H17Z" transform="translate(-0.923 -0.838)"/>
        <path id="Trazado_126013" data-name="Trazado 126013" d="M54.109,28.214l-1.976-.424-.7,3.245H48.45l.6-2.822-1.976-.424-.7,3.245H42v2.022h3.949L45.082,37.1H42v2.022h2.649l-.6,2.821,1.976.425.7-3.245H49.7l-.6,2.821,1.976.425.7-3.245h4.382V37.1H52.2l.866-4.044h3.082V31.035H53.5ZM50.137,37.1H47.15l.866-4.044H51Z" transform="translate(-0.551 -0.707)"/>
      </g>
    </g>
  </g>
</svg>
