<svg xmlns="http://www.w3.org/2000/svg" width="70.969" height="69.319" viewBox="0 0 70.969 69.319">
  <g id="campana-digital_1_" data-name="campana-digital (1)" transform="translate(0.497 -4.5)">
    <path id="Trazado_125330" data-name="Trazado 125330" d="M33.941,0A33.77,33.77,0,0,1,67.881,33.6,33.77,33.77,0,0,1,33.941,67.2,33.77,33.77,0,0,1,0,33.6,33.77,33.77,0,0,1,33.941,0Z" transform="translate(-0.497 6.624)" fill="#8b26ef"/>
    <path id="Trazado_125294" data-name="Trazado 125294" d="M7.863,159.831H3.1A33.666,33.666,0,0,0,0,173.994q0,.9.047,1.79H7.863Z" transform="translate(-0.156 -133.904)" fill="#445ea0"/>
    <path id="Trazado_125295" data-name="Trazado 125295" d="M396.846,338.75h-2.965v11.156h2.965a1.384,1.384,0,0,0,1.379-1.379v-8.4A1.384,1.384,0,0,0,396.846,338.75Z" transform="translate(-339.703 -288.142)" fill="#293d7c"/>
    <path id="Trazado_125296" data-name="Trazado 125296" d="M281.707,292.436v12.193l11.413,6.809V285.626Z" transform="translate(-243.003 -242.346)" fill="#eef6ff"/>
    <path id="Trazado_125297" data-name="Trazado 125297" d="M367.778,295.673a.692.692,0,0,1-.69.69h-2.958a.692.692,0,0,1-.69-.69V265.5a.692.692,0,0,1,.69-.69h2.958a.692.692,0,0,1,.69.69Z" transform="translate(-313.462 -224.399)" fill="#fe3745"/>
    <path id="Trazado_125298" data-name="Trazado 125298" d="M365.809,295.673V265.5a.692.692,0,0,1,.69-.69H364.13a.692.692,0,0,0-.69.69v30.177a.692.692,0,0,0,.69.69H366.5A.692.692,0,0,1,365.809,295.673Z" transform="translate(-313.462 -224.399)" fill="#b7092b"/>
    <path id="Trazado_125299" data-name="Trazado 125299" d="M166.624,342.151h-3.2a.692.692,0,0,0-.69.69v8.838a.692.692,0,0,0,.69.69h3.2Z" transform="translate(-140.444 -291.074)" fill="#eef6ff"/>
    <path id="Trazado_125300" data-name="Trazado 125300" d="M164.739,351.68v-8.838a.692.692,0,0,1,.69-.69h-2a.692.692,0,0,0-.69.69v8.838a.692.692,0,0,0,.69.69h2A.692.692,0,0,1,164.739,351.68Z" transform="translate(-140.444 -291.075)" fill="#d9eafc"/>
    <path id="Trazado_125301" data-name="Trazado 125301" d="M202.718,342.522a.692.692,0,0,1-.69.69h-11.42a.692.692,0,0,1-.69-.69V330.2a.692.692,0,0,1,.69-.69h11.42a.692.692,0,0,1,.69.69Z" transform="translate(-163.876 -280.173)" fill="#fe3745"/>
    <path id="Trazado_125302" data-name="Trazado 125302" d="M192.655,342.522V330.2a.692.692,0,0,1,.69-.69h-2.737a.692.692,0,0,0-.69.69v12.326a.692.692,0,0,0,.69.69h2.737A.692.692,0,0,1,192.655,342.522Z" transform="translate(-163.876 -280.173)" fill="#b7092b"/>
    <path id="Trazado_125303" data-name="Trazado 125303" d="M358.277,80.831a.692.692,0,0,0-.69-.69H338.765a.692.692,0,0,0-.69.69v13.1a.692.692,0,0,0,.69.69h5.682a1.556,1.556,0,0,1,1.1.552l2.214,2.961a.488.488,0,0,0,.826,0l2.214-2.961a1.556,1.556,0,0,1,1.1-.552h5.682a.692.692,0,0,0,.69-.69v-13.1Z" transform="translate(-291.595 -65.207)" fill="#52bbef"/>
    <path id="Trazado_125304" data-name="Trazado 125304" d="M340.812,93.929v-13.1a.692.692,0,0,1,.69-.69h-2.737a.692.692,0,0,0-.69.69v13.1a.692.692,0,0,0,.69.69H341.5A.692.692,0,0,1,340.812,93.929Z" transform="translate(-291.595 -65.207)" fill="#1e99d6"/>
    <g id="Grupo_98469" data-name="Grupo 98469" transform="translate(49.636 17.983)">
      <path id="Trazado_125305" data-name="Trazado 125305" d="M373.813,104.309h-11.82a1.035,1.035,0,1,1,0-2.069h11.82a1.035,1.035,0,0,1,0,2.069Z" transform="translate(-360.959 -102.24)" fill="#fff"/>
      <path id="Trazado_125306" data-name="Trazado 125306" d="M373.813,127.561h-11.82a1.035,1.035,0,1,1,0-2.069h11.82a1.035,1.035,0,0,1,0,2.069Z" transform="translate(-360.959 -122.285)" fill="#fff"/>
      <path id="Trazado_125307" data-name="Trazado 125307" d="M367.927,150.812h-5.933a1.035,1.035,0,0,1,0-2.069h5.933a1.035,1.035,0,1,1,0,2.069Z" transform="translate(-360.959 -142.328)" fill="#fff"/>
    </g>
    <circle id="Elipse_5870" data-name="Elipse 5870" cx="7.671" cy="7.671" r="7.671" transform="translate(29.144 4.501)" fill="#fe3745"/>
    <path id="Trazado_125308" data-name="Trazado 125308" d="M215.138,12.171a7.671,7.671,0,0,1,6.3-7.546,7.67,7.67,0,1,0,0,15.093A7.671,7.671,0,0,1,215.138,12.171Z" transform="translate(-183.258)" fill="#b7092b"/>
    <path id="Trazado_125309" data-name="Trazado 125309" d="M238.967,42.106a.463.463,0,0,1-.33-.138l-3.623-3.654a2.351,2.351,0,0,1,0-3.3,2.3,2.3,0,0,1,3.276,0l.691.7.692-.7a2.3,2.3,0,0,1,3.275,0,2.35,2.35,0,0,1,0,3.3L239.3,41.969A.461.461,0,0,1,238.967,42.106Z" transform="translate(-202.167 -25.713)" fill="#fff"/>
    <path id="Trazado_125310" data-name="Trazado 125310" d="M52.744,327.4a.391.391,0,0,1-.279-.116L49.407,324.2a1.985,1.985,0,0,1,0-2.788,1.944,1.944,0,0,1,2.765,0l.583.588.584-.588a1.944,1.944,0,0,1,2.765,0,1.983,1.983,0,0,1,0,2.788l-3.082,3.085A.388.388,0,0,1,52.744,327.4Z" transform="translate(-42.255 -272.694)" fill="#fe3745"/>
    <path id="Trazado_125311" data-name="Trazado 125311" d="M50.95,323.551a1.981,1.981,0,0,1-.064-2.717c-.032,0-.063,0-.1,0a1.933,1.933,0,0,0-1.382.577,1.985,1.985,0,0,0,0,2.788l3.059,3.084a.391.391,0,0,0,.556,0l.816-.817Z" transform="translate(-42.256 -272.693)" fill="#b7092b"/>
    <path id="Trazado_125312" data-name="Trazado 125312" d="M126.423,85.932v-1.9a1.933,1.933,0,0,1,1.931-1.931h.446a.138.138,0,1,0,0-.276,1.933,1.933,0,0,1-1.931-1.931v-1.9a1.933,1.933,0,0,1,1.931-1.931.138.138,0,1,0,0-.276,1.933,1.933,0,0,1-1.931-1.931v-1.9a1.933,1.933,0,0,1,1.931-1.931.138.138,0,1,0,0-.276h-.852a1.933,1.933,0,0,1-1.931-1.931V65.9A1.933,1.933,0,0,1,127.6,64V56.589a2.075,2.075,0,0,0-2.069-2.069h-3.218a2.445,2.445,0,0,0-2.349,2.05l-1.3,9.512a2.2,2.2,0,0,1-1.806,2.049V86.065h9.568C126.427,86.021,126.423,85.977,126.423,85.932Z" transform="translate(-100.898 -43.12)" fill="#ffe2b8"/>
    <path id="Trazado_125313" data-name="Trazado 125313" d="M125.532,54.52h-3.218a2.445,2.445,0,0,0-2.349,2.05l-1.3,9.512a2.2,2.2,0,0,1-1.806,2.049V70.87h2.728c.845,0,1.662-.923,1.815-2.05l1.3-9.512a2.445,2.445,0,0,1,2.349-2.05h2.55v-.668A2.075,2.075,0,0,0,125.532,54.52Z" transform="translate(-100.899 -43.12)" fill="#ffc987"/>
    <path id="Trazado_125314" data-name="Trazado 125314" d="M187.241,259.475a2.075,2.075,0,0,1-2.069-2.069v-1.9a2.075,2.075,0,0,1,2.069-2.069h11.222a2.075,2.075,0,0,1,2.069,2.069v1.9a2.075,2.075,0,0,1-2.069,2.069Z" transform="translate(-159.785 -214.594)" fill="#ffe2b8"/>
    <path id="Trazado_125315" data-name="Trazado 125315" d="M56.69,158.4a.692.692,0,0,1-.69-.69V136.52a.692.692,0,0,1,.69-.69h7.154a.692.692,0,0,1,.69.69v21.195a.692.692,0,0,1-.69.69H56.69Z" transform="translate(-48.431 -113.214)" fill="#293d7c"/>
    <path id="Trazado_125316" data-name="Trazado 125316" d="M58.737,157.715V136.52a.692.692,0,0,1,.69-.69H56.69a.692.692,0,0,0-.69.69v21.195a.692.692,0,0,0,.69.69h2.737A.692.692,0,0,1,58.737,157.715Z" transform="translate(-48.431 -113.214)" fill="#1a2b63"/>
    <circle id="Elipse_5871" data-name="Elipse 5871" cx="1.847" cy="1.847" r="1.847" transform="translate(9.989 24.148)" fill="#aec1ed"/>
    <g id="Grupo_98470" data-name="Grupo 98470" transform="translate(24.981 20.711)">
      <path id="Trazado_125317" data-name="Trazado 125317" d="M184.3,128.064a2.075,2.075,0,0,1-2.069-2.069v-1.9a2.075,2.075,0,0,1,2.069-2.069h11.628A2.075,2.075,0,0,1,198,124.09v1.9a2.075,2.075,0,0,1-2.069,2.069Z" transform="translate(-182.23 -122.021)" fill="#ffe2b8"/>
      <path id="Trazado_125318" data-name="Trazado 125318" d="M190.477,171.869a2.075,2.075,0,0,1-2.069-2.069v-1.9a2.075,2.075,0,0,1,2.069-2.069h11.279a2.075,2.075,0,0,1,2.069,2.069v1.9a2.075,2.075,0,0,1-2.069,2.069Z" transform="translate(-187.556 -159.783)" fill="#ffe2b8"/>
      <path id="Trazado_125319" data-name="Trazado 125319" d="M190.477,215.673a2.075,2.075,0,0,1-2.069-2.069v-1.9a2.075,2.075,0,0,1,2.069-2.069h11.279a2.075,2.075,0,0,1,2.069,2.069v1.9a2.075,2.075,0,0,1-2.069,2.069Z" transform="translate(-187.556 -197.546)" fill="#ffe2b8"/>
    </g>
    <g id="Grupo_98471" data-name="Grupo 98471" transform="translate(24.981 20.712)">
      <path id="Trazado_125320" data-name="Trazado 125320" d="M189.371,257.346a2.075,2.075,0,0,1-2.069-2.069v-1.843h-.061a2.075,2.075,0,0,0-2.069,2.069v1.9a2.075,2.075,0,0,0,2.069,2.069h11.222a2.075,2.075,0,0,0,2.069-2.069v-.061H189.371Z" transform="translate(-184.766 -235.306)" fill="#ffc987"/>
      <path id="Trazado_125321" data-name="Trazado 125321" d="M186.429,125.935a2.075,2.075,0,0,1-2.069-2.069v-1.843H184.3a2.075,2.075,0,0,0-2.069,2.069V126a2.075,2.075,0,0,0,2.069,2.069h11.628A2.075,2.075,0,0,0,198,126v-.061H186.429Z" transform="translate(-182.23 -122.022)" fill="#ffc987"/>
      <path id="Trazado_125322" data-name="Trazado 125322" d="M192.608,169.739a2.075,2.075,0,0,1-2.069-2.069v-1.843h-.061a2.075,2.075,0,0,0-2.069,2.069v1.9a2.075,2.075,0,0,0,2.069,2.069h11.279a2.075,2.075,0,0,0,2.069-2.069v-.061Z" transform="translate(-187.557 -159.783)" fill="#ffc987"/>
      <path id="Trazado_125323" data-name="Trazado 125323" d="M192.608,213.543a2.075,2.075,0,0,1-2.069-2.069v-1.843h-.061a2.075,2.075,0,0,0-2.069,2.069v1.9a2.075,2.075,0,0,0,2.069,2.069h11.279a2.075,2.075,0,0,0,2.069-2.069v-.061H192.608Z" transform="translate(-187.557 -197.546)" fill="#ffc987"/>
    </g>
    <path id="Trazado_125324" data-name="Trazado 125324" d="M43.153,389.646H30.813a.276.276,0,0,0-.274.275v7.918a.276.276,0,0,0,.274.275h12.34a.276.276,0,0,0,.274-.275v-7.918A.275.275,0,0,0,43.153,389.646Z" transform="translate(-26.483 -332.017)" fill="#ffaf10"/>
    <path id="Trazado_125325" data-name="Trazado 125325" d="M33.277,398.205v-6.031l-2.671-2.064a.276.276,0,0,1,.041-.04.274.274,0,0,0-.107.217V398.2a.276.276,0,0,0,.274.275h2.737A.275.275,0,0,1,33.277,398.205Z" transform="translate(-26.483 -332.383)" fill="#ef9614"/>
    <path id="Trazado_125326" data-name="Trazado 125326" d="M43.566,389.646H31.226a.272.272,0,0,0-.208.1l6.161,4.762a.375.375,0,0,0,.435,0l6.161-4.762A.271.271,0,0,0,43.566,389.646Z" transform="translate(-26.895 -332.017)" fill="#ffd00d"/>
    <path id="Trazado_125327" data-name="Trazado 125327" d="M431.181,232.153h-12.34a.276.276,0,0,0-.274.275v7.918a.276.276,0,0,0,.274.275h12.34a.276.276,0,0,0,.274-.275v-7.918A.276.276,0,0,0,431.181,232.153Z" transform="translate(-360.984 -196.249)" fill="#ffaf10"/>
    <path id="Trazado_125328" data-name="Trazado 125328" d="M421.3,240.713v-6.031l-2.671-2.064a.275.275,0,0,1,.041-.04.274.274,0,0,0-.107.217v7.918a.276.276,0,0,0,.274.275h2.737A.276.276,0,0,1,421.3,240.713Z" transform="translate(-360.984 -196.616)" fill="#ef9614"/>
    <path id="Trazado_125329" data-name="Trazado 125329" d="M431.594,232.153h-12.34a.272.272,0,0,0-.208.1l6.161,4.762a.375.375,0,0,0,.435,0l6.161-4.762A.272.272,0,0,0,431.594,232.153Z" transform="translate(-361.397 -196.249)" fill="#ffd00d"/>
  </g>
</svg>
