<svg xmlns="http://www.w3.org/2000/svg" width="85" height="69" viewBox="0 0 85 69">
  <g id="Grupo_963207" data-name="Grupo 963207" transform="translate(-180 -906)">
    <rect id="Rectángulo_34162" data-name="Rectángulo 34162" width="85" height="69" transform="translate(180 906)" fill="#d2c6f3"/>
    <g id="video" transform="translate(196 914)">
      <g id="Grupo_98569" data-name="Grupo 98569" transform="translate(1.833 1.833)">
        <g id="Grupo_98550" data-name="Grupo 98550" transform="translate(0 6.663)">
          <path id="Trazado_125427" data-name="Trazado 125427" d="M2,10H46.975V34.986H2Z" transform="translate(-2 -10)" fill="#f7f3f1"/>
        </g>
        <g id="Grupo_98551" data-name="Grupo 98551" transform="translate(0 31.649)">
          <path id="Trazado_125428" data-name="Trazado 125428" d="M31.983,47.412V43.681a5.087,5.087,0,0,0-.525-2.24L30.734,40H2v8.329a1.671,1.671,0,0,0,1.666,1.666H32.708A4.932,4.932,0,0,1,31.983,47.412Z" transform="translate(-2 -40)" fill="#ccd1d9"/>
        </g>
        <g id="Grupo_98552" data-name="Grupo 98552" transform="translate(0 0)">
          <path id="Trazado_125429" data-name="Trazado 125429" d="M45.309,2H3.666A1.671,1.671,0,0,0,2,3.666v5H28.652A1.671,1.671,0,0,1,30.317,7H46.975V3.666A1.671,1.671,0,0,0,45.309,2Z" transform="translate(-2 -2)" fill="#c4b4ac"/>
        </g>
        <g id="Grupo_98553" data-name="Grupo 98553" transform="translate(31.649 44.975)">
          <path id="Trazado_125430" data-name="Trazado 125430" d="M53.326,61H40a8.29,8.29,0,0,1,1.383-4.581L41.666,56H51.66l.283.416A8.29,8.29,0,0,1,53.326,61Z" transform="translate(-40 -56)" fill="#62a6fd"/>
        </g>
        <g id="Grupo_98554" data-name="Grupo 98554" transform="translate(6.79 34.784)">
          <circle id="Elipse_5879" data-name="Elipse 5879" cx="2" cy="2" r="2" transform="translate(-0.454 -0.149)" fill="#ff6cb5"/>
        </g>
        <g id="Grupo_98555" data-name="Grupo 98555" transform="translate(4.173 25.444)">
          <path id="Trazado_125431" data-name="Trazado 125431" d="M21.169,36.256l1.482-3.7V32.55c.35.067.733.15,1.116.225a6.075,6.075,0,0,1,4.889,5.972v.008H7.01v-.017A6.083,6.083,0,0,1,11.9,32.775l1.124-.225v.008l1.482,3.7,3.331-1.666Z" transform="translate(-7.01 -32.55)" fill="#ff826e"/>
        </g>
        <g id="Grupo_98556" data-name="Grupo 98556" transform="translate(15 24.978)">
          <path id="Trazado_125432" data-name="Trazado 125432" d="M24.824,32.465l-1.482,3.7L20.01,34.5l2.5-2.5V31.99s1.008.2,2.315.466Z" transform="translate(-20.01 -31.99)" fill="#fc6e51"/>
        </g>
        <g id="Grupo_98557" data-name="Grupo 98557" transform="translate(10.186 24.978)">
          <path id="Trazado_125433" data-name="Trazado 125433" d="M19.044,34.5l-3.331,1.666-1.482-3.7v-.008l2.315-.466V32Z" transform="translate(-14.23 -31.99)" fill="#fc6e51"/>
        </g>
        <g id="Grupo_98558" data-name="Grupo 98558" transform="translate(7.504 9.994)">
          <path id="Trazado_125434" data-name="Trazado 125434" d="M12.676,20.663a1.66,1.66,0,0,0-1.3.625l-.208-.841a4.911,4.911,0,0,1-.158-1.258A5.19,5.19,0,0,1,16.2,14h4.614A5.19,5.19,0,0,1,26,19.189a4.911,4.911,0,0,1-.158,1.258l-.208.841a1.66,1.66,0,0,0-1.3-.625H21.7a9.89,9.89,0,0,1-4.464-1.058l-.941-.466a1.348,1.348,0,0,0-1.949,1.208v.316Z" transform="translate(-11.01 -14)" fill="#656d78"/>
        </g>
        <g id="Grupo_98559" data-name="Grupo 98559" transform="translate(26.652 4.997)">
          <path id="Trazado_125435" data-name="Trazado 125435" d="M55.654,8H35.666A1.671,1.671,0,0,0,34,9.666V22.992a1.671,1.671,0,0,0,1.666,1.666H55.654a1.671,1.671,0,0,0,1.666-1.666V9.666A1.671,1.671,0,0,0,55.654,8Z" transform="translate(-34 -8)" fill="#4ed5ea"/>
        </g>
        <g id="Grupo_98560" data-name="Grupo 98560" transform="translate(33.314 8.329)">
          <path id="Trazado_125436" data-name="Trazado 125436" d="M51.253,15.79a1.354,1.354,0,0,1,0,2.415l-7.3,3.648A1.348,1.348,0,0,1,42,20.645v-7.3a1.348,1.348,0,0,1,1.949-1.208Z" transform="translate(-42 -12)" fill="#ff6cb5"/>
        </g>
        <g id="Grupo_98561" data-name="Grupo 98561" transform="translate(28.317 18.323)">
          <path id="Trazado_125437" data-name="Trazado 125437" d="M50.992,33.994l1.666.416.408.1a1.659,1.659,0,0,1,1.258,1.616v8.612a4.977,4.977,0,0,1-1.091,3.115l-2.24,2.8H41l-2.24-2.8a4.651,4.651,0,0,1-.366-.533,4.932,4.932,0,0,1-.725-2.582V41.007a5.087,5.087,0,0,0-.525-2.24l-.725-1.441-.275-.55a1.348,1.348,0,0,1,1.208-1.949A3.64,3.64,0,0,1,41,38.475V25.666A1.671,1.671,0,0,1,42.663,24a1.678,1.678,0,0,1,1.666,1.666v6.663l3.331.833Z" transform="translate(-36 -24)" fill="#f0d0b4"/>
        </g>
        <g id="Grupo_98562" data-name="Grupo 98562" transform="translate(19.164 16.657)">
          <path id="Trazado_125438" data-name="Trazado 125438" d="M27.85,24.84a1.628,1.628,0,0,1-1.174.491H25.01V22h1.666a1.66,1.66,0,0,1,1.3.625,1.683,1.683,0,0,1,.366,1.041A1.663,1.663,0,0,1,27.85,24.84Z" transform="translate(-25.01 -22)" fill="#f0d0b4"/>
        </g>
        <g id="Grupo_98563" data-name="Grupo 98563" transform="translate(12.501 23.095)">
          <path id="Trazado_125439" data-name="Trazado 125439" d="M22.007,31.612v.008l-2.5,2.5-2.5-2.5v-.008l.475-1.882a3.289,3.289,0,0,0,1.191.217h1.666a3.289,3.289,0,0,0,1.191-.217Z" transform="translate(-17.01 -29.73)" fill="#f0d0b4"/>
        </g>
        <g id="Grupo_98564" data-name="Grupo 98564" transform="translate(10.836 14.992)">
          <path id="Trazado_125440" data-name="Trazado 125440" d="M23.339,21.666V25A3.337,3.337,0,0,1,21.2,28.1a3.289,3.289,0,0,1-1.191.217H18.341A3.289,3.289,0,0,1,17.15,28.1,3.337,3.337,0,0,1,15.01,25V21.349a1.348,1.348,0,0,1,1.949-1.208l.941.466a9.89,9.89,0,0,0,4.464,1.058Z" transform="translate(-15.01 -20)" fill="#f0d0b4"/>
        </g>
        <g id="Grupo_98565" data-name="Grupo 98565" transform="translate(7.504 16.657)">
          <path id="Trazado_125441" data-name="Trazado 125441" d="M14.341,25.323v.008H12.676A1.628,1.628,0,0,1,11.5,24.84a1.663,1.663,0,0,1-.491-1.174,1.683,1.683,0,0,1,.366-1.041,1.66,1.66,0,0,1,1.3-.625h1.666Z" transform="translate(-11.01 -22)" fill="#f0d0b4"/>
        </g>
        <g id="Grupo_98566" data-name="Grupo 98566" transform="translate(16.657 3.331)">
          <path id="Trazado_125442" data-name="Trazado 125442" d="M22,6h3.331V9.331H22Z" transform="translate(-22 -6)" fill="#e6e9ed"/>
        </g>
        <g id="Grupo_98567" data-name="Grupo 98567" transform="translate(9.994 3.331)">
          <path id="Trazado_125443" data-name="Trazado 125443" d="M14,6h3.331V9.331H14Z" transform="translate(-14 -6)" fill="#e6e9ed"/>
        </g>
        <g id="Grupo_98568" data-name="Grupo 98568" transform="translate(3.331 3.331)">
          <path id="Trazado_125444" data-name="Trazado 125444" d="M6,6H9.331V9.331H6Z" transform="translate(-6 -6)" fill="#e6e9ed"/>
        </g>
      </g>
      <g id="Grupo_98570" data-name="Grupo 98570" transform="translate(1 1)">
        <path id="Trazado_125445" data-name="Trazado 125445" d="M50.139,6h-2.5V3.5a2.5,2.5,0,0,0-2.5-2.5H3.5A2.5,2.5,0,0,0,1,3.5V41.81a2.5,2.5,0,0,0,2.5,2.5H32.111c.052.072.093.153.15.224l1.858,2.323a9.051,9.051,0,0,0-1.47,4.949v.833H47.64V51.8a9.051,9.051,0,0,0-1.47-4.949l1.858-2.323a5.854,5.854,0,0,0,1.278-3.642V32.284a2.488,2.488,0,0,0-1.666-2.346V24.32h2.5a2.5,2.5,0,0,0,2.5-2.5V8.5A2.5,2.5,0,0,0,50.139,6ZM3.5,2.666H45.142a.834.834,0,0,1,.833.833V6H30.15A2.5,2.5,0,0,0,27.8,7.663h-5.15V4.331h-5V7.663H15.992V4.331h-5V7.663H9.329V4.331h-5V7.663H2.666V3.5A.834.834,0,0,1,3.5,2.666ZM35.98,18.808v-7.3a.515.515,0,0,1,.745-.461l7.3,3.65a.514.514,0,0,1,0,.921l-7.3,3.65a.529.529,0,0,1-.745-.461ZM34.314,31.175A4.436,4.436,0,0,0,31.5,30.15a2.1,2.1,0,0,0-2.143,2.5H28.43a6.933,6.933,0,0,0-5.5-5.967L20.012,26.1l-.186-.741a4.163,4.163,0,0,0,1.918-2.7h.919a2.5,2.5,0,0,0,2.5-2.5,2.466,2.466,0,0,0-.306-1.174l.126-.5a6.021,6.021,0,0,0-5.843-7.485h-4.61a6.023,6.023,0,0,0-5.843,7.484l.126.5A2.475,2.475,0,0,0,8.5,20.156a2.5,2.5,0,0,0,2.5,2.5h.919a4.161,4.161,0,0,0,1.918,2.7l-.186.741-2.922.584a6.933,6.933,0,0,0-5.505,5.967H2.666V9.329H27.652V21.822a2.5,2.5,0,0,0,2.5,2.5h4.164ZM11.836,20.989H11a.833.833,0,1,1,0-1.666h.833Zm.068-3.331H11a2.446,2.446,0,0,0-.756.13,4.316,4.316,0,0,1,4.281-5.126h4.61a4.316,4.316,0,0,1,4.282,5.126,2.446,2.446,0,0,0-.756-.13H20.025a9.2,9.2,0,0,1-4.1-.967l-.937-.469a2.2,2.2,0,0,0-.975-.23A2.179,2.179,0,0,0,11.9,17.657Zm9.926,1.666h.833a.833.833,0,0,1,0,1.666H21.83ZM13.5,18.172a.515.515,0,0,1,.745-.461l.937.469a10.892,10.892,0,0,0,4.842,1.143h.139v2.49a2.5,2.5,0,0,1-2.5,2.5H16a2.5,2.5,0,0,1-2.5-2.5Zm6.11,9.545.89.178-.775,1.938-1.488-.744ZM16,25.978h1.666a4.09,4.09,0,0,0,.584-.059l.161.643-1.577,1.577-1.577-1.577.161-.643a4.09,4.09,0,0,0,.584.059Zm-1.946,1.738,1.373,1.373-1.488.744-.775-1.939Zm-2.552.511,1.562,3.907,3.769-1.885L20.6,32.133l1.562-3.905.436.087a5.26,5.26,0,0,1,4.148,4.333H6.911a5.26,5.26,0,0,1,4.148-4.334ZM7.663,7.663H6V6H7.663Zm6.663,0H12.66V6h1.666Zm6.663,0H19.323V6h1.666ZM3.5,42.643a.834.834,0,0,1-.833-.833v-7.5H30.052l.491.984a4.187,4.187,0,0,1,.44,1.861v3.73a5.8,5.8,0,0,0,.284,1.752H3.5Zm30.863,8.329a7.4,7.4,0,0,1,1.2-3.282l.032-.049h9.1l.032.049a7.4,7.4,0,0,1,1.2,3.282ZM47.64,40.891a4.176,4.176,0,0,1-.913,2.6l-1.986,2.483H35.548l-1.986-2.483a4.178,4.178,0,0,1-.913-2.6V37.16a5.852,5.852,0,0,0-.615-2.607l-1-1.992a.515.515,0,0,1,.461-.745,2.82,2.82,0,0,1,2.817,2.817v3.846H35.98V21.822a.833.833,0,1,1,1.666,0V38.479h1.666V29.551l1.666.416v8.511h1.666V30.384l1.666.416v7.678h1.666V31.216l1.034.259a.833.833,0,0,1,.631.809ZM45.975,29.5l-3.331-.833-1.666-.416-1.666-.416V24.32h6.663Zm5-7.678a.834.834,0,0,1-.833.833H39.312v-.833a2.482,2.482,0,0,0-.645-1.661l6.1-3.052a2.181,2.181,0,0,0,0-3.9l-7.3-3.65a2.181,2.181,0,0,0-3.156,1.951v7.3a2.164,2.164,0,0,0,.565,1.451,2.474,2.474,0,0,0-.565,1.562v.833H30.15a.834.834,0,0,1-.833-.833V8.5a.834.834,0,0,1,.833-.833H50.139a.834.834,0,0,1,.833.833Z" transform="translate(-1 -1)"/>
        <path id="Trazado_125446" data-name="Trazado 125446" d="M10.83,43a2.5,2.5,0,0,0-2.345,1.666H5v1.666H8.485a2.484,2.484,0,0,0,4.691,0h16.81V44.666H13.175A2.5,2.5,0,0,0,10.83,43Zm0,3.331a.833.833,0,1,1,.833-.833A.834.834,0,0,1,10.83,46.331Z" transform="translate(-1.669 -8.02)"/>
      </g>
    </g>
  </g>
</svg>
