<svg xmlns="http://www.w3.org/2000/svg" xmlns:xlink="http://www.w3.org/1999/xlink" width="400" height="215.483" viewBox="0 0 400 215.483">
  <defs>
    <clipPath id="clip-path">
      <rect id="Rectángulo_337073" data-name="Rectángulo 337073" width="400" height="215.483" rx="19.504" transform="translate(1020 3625.791)" fill="#efeafd" opacity="0.61"/>
    </clipPath>
  </defs>
  <g id="Enmascarar_grupo_373" data-name="Enmascarar grupo 373" transform="translate(-1020 -3625.791)" clip-path="url(#clip-path)">
    <path id="Trazado_125706" data-name="Trazado 125706" d="M19.5,0H380.5A19.5,19.5,0,0,1,400,19.5V195.979a19.5,19.5,0,0,1-19.5,19.5H19.5A19.5,19.5,0,0,1,0,195.979V19.5A19.5,19.5,0,0,1,19.5,0Z" transform="translate(1020 3625.791)" fill="#a8edd8"/>
    <g id="Grupo_92080" data-name="Grupo 92080" transform="translate(1185.791 3626.964)">
      <g id="Grupo_92076" data-name="Grupo 92076">
        <path id="Trazado_116459" data-name="Trazado 116459" d="M846.969,159.008H757.452a4.253,4.253,0,0,1-4.246-4.248V111.016a4.252,4.252,0,0,1,4.246-4.246h89.517a4.253,4.253,0,0,1,4.248,4.246V154.76A4.253,4.253,0,0,1,846.969,159.008Zm-89.517-50.98a2.992,2.992,0,0,0-2.988,2.988V154.76a2.993,2.993,0,0,0,2.988,2.991h89.517a2.993,2.993,0,0,0,2.991-2.991V111.016a2.993,2.993,0,0,0-2.991-2.988Z" transform="translate(-753.206 -106.77)" fill="#5e1dbb"/>
      </g>
      <g id="Grupo_92077" data-name="Grupo 92077" transform="translate(0 8.659)">
        <path id="Trazado_116460" data-name="Trazado 116460" d="M850.588,115.429H753.834a.629.629,0,0,1,0-1.258h96.754a.629.629,0,1,1,0,1.258Z" transform="translate(-753.206 -114.171)" fill="#5e1dbb"/>
      </g>
      <g id="Grupo_92078" data-name="Grupo 92078" transform="translate(86.947 2.808)">
        <path id="Trazado_116461" data-name="Trazado 116461" d="M828.146,113.472a.629.629,0,0,1-.319-1.17l5.147-3.042a.628.628,0,0,1,.639,1.081l-5.147,3.042A.614.614,0,0,1,828.146,113.472Z" transform="translate(-827.518 -109.17)" fill="#5e1dbb"/>
      </g>
      <g id="Grupo_92079" data-name="Grupo 92079" transform="translate(86.947 2.808)">
        <path id="Trazado_116462" data-name="Trazado 116462" d="M833.293,113.472a.611.611,0,0,1-.319-.089l-5.147-3.042a.627.627,0,0,1-.221-.86.62.62,0,0,1,.86-.221l5.147,3.042a.629.629,0,0,1-.319,1.17Z" transform="translate(-827.518 -109.17)" fill="#5e1dbb"/>
      </g>
    </g>
    <g id="Grupo_92093" data-name="Grupo 92093" transform="translate(1033.172 3639.862)">
      <g id="Grupo_92081" data-name="Grupo 92081" transform="translate(0 0)">
        <path id="Trazado_116463" data-name="Trazado 116463" d="M791.4,138.149v90.061a4.981,4.981,0,0,1-4.988,4.971H627.735a4.977,4.977,0,0,1-4.97-4.971V138.149a4.977,4.977,0,0,1,4.97-4.971H786.41A4.981,4.981,0,0,1,791.4,138.149Z" transform="translate(-622.765 -133.178)" fill="#21155c"/>
      </g>
      <g id="Grupo_92082" data-name="Grupo 92082" transform="translate(0 0)">
        <path id="Trazado_116464" data-name="Trazado 116464" d="M791.4,138.149v5.27H622.765v-5.27a4.977,4.977,0,0,1,4.97-4.971H786.41A4.981,4.981,0,0,1,791.4,138.149Z" transform="translate(-622.765 -133.178)" fill="#fff"/>
      </g>
      <g id="Grupo_92083" data-name="Grupo 92083" transform="translate(156.624 2.486)">
        <circle id="Elipse_5335" data-name="Elipse 5335" cx="2.635" cy="2.635" r="2.635" fill="#ffb700"/>
      </g>
      <g id="Grupo_92084" data-name="Grupo 92084" transform="translate(148.183 2.486)">
        <circle id="Elipse_5336" data-name="Elipse 5336" cx="2.635" cy="2.635" r="2.635" fill="#9364ed"/>
      </g>
      <g id="Grupo_92085" data-name="Grupo 92085" transform="translate(139.741 2.486)">
        <circle id="Elipse_5337" data-name="Elipse 5337" cx="2.635" cy="2.635" r="2.635" fill="#5e1dbb"/>
      </g>
      <g id="Grupo_92086" data-name="Grupo 92086" transform="translate(17.444 26.349)">
        <rect id="Rectángulo_34428" data-name="Rectángulo 34428" width="133.746" height="7.807" fill="#26d19e"/>
      </g>
      <g id="Grupo_92087" data-name="Grupo 92087" transform="translate(20.946 49.479)">
        <path id="Trazado_116465" data-name="Trazado 116465" d="M695.841,176.515H641.191a.524.524,0,1,1,0-1.048h54.649a.524.524,0,1,1,0,1.048Z" transform="translate(-640.667 -175.467)" fill="#9364ed"/>
      </g>
      <g id="Grupo_92088" data-name="Grupo 92088" transform="translate(20.946 58.225)">
        <path id="Trazado_116466" data-name="Trazado 116466" d="M695.841,183.99H641.191a.524.524,0,1,1,0-1.048h54.649a.524.524,0,1,1,0,1.048Z" transform="translate(-640.667 -182.942)" fill="#9364ed"/>
      </g>
      <g id="Grupo_92089" data-name="Grupo 92089" transform="translate(20.946 66.972)">
        <path id="Trazado_116467" data-name="Trazado 116467" d="M695.841,191.466H641.191a.524.524,0,1,1,0-1.048h54.649a.524.524,0,1,1,0,1.048Z" transform="translate(-640.667 -190.418)" fill="#9364ed"/>
      </g>
      <g id="Grupo_92090" data-name="Grupo 92090" transform="translate(91.99 49.479)">
        <path id="Trazado_116468" data-name="Trazado 116468" d="M756.563,176.515H701.911a.524.524,0,0,1,0-1.048h54.652a.524.524,0,0,1,0,1.048Z" transform="translate(-701.387 -175.467)" fill="#9364ed"/>
      </g>
      <g id="Grupo_92091" data-name="Grupo 92091" transform="translate(91.99 58.225)">
        <path id="Trazado_116469" data-name="Trazado 116469" d="M756.563,183.99H701.911a.524.524,0,1,1,0-1.048h54.652a.524.524,0,1,1,0,1.048Z" transform="translate(-701.387 -182.942)" fill="#9364ed"/>
      </g>
      <g id="Grupo_92092" data-name="Grupo 92092" transform="translate(91.99 66.972)">
        <path id="Trazado_116470" data-name="Trazado 116470" d="M756.563,191.466H701.911a.524.524,0,1,1,0-1.048h54.652a.524.524,0,1,1,0,1.048Z" transform="translate(-701.387 -190.418)" fill="#9364ed"/>
      </g>
    </g>
    <g id="Grupo_92141" data-name="Grupo 92141" transform="translate(1066.879 3659.79)">
      <path id="Trazado_114700" data-name="Trazado 114700" d="M570.213,196.161A136.436,136.436,0,0,1,508.245,310.49c-2.164,1.427-4.377,2.772-6.623,4.066l-.247.148a135.61,135.61,0,0,1-39.361,14.968,136.457,136.457,0,0,1-100.755-17.9l-.541-.344a137.437,137.437,0,0,1-34.131-30.8,136.279,136.279,0,0,1,2.1-171.494v-.017c.2-.245.393-.49.623-.737l.015-.017q4.157-4.967,8.8-9.524a4.123,4.123,0,0,1,.475-.443c2.164-2.131,4.377-4.164,6.689-6.132h.017a136.051,136.051,0,0,1,34.9-21.638c.589-.262,1.18-.509,1.786-.754h.017a136.782,136.782,0,0,1,74.575-8.247c2.263.361,4.508.8,6.721,1.3.327.065.655.148.984.213,1.721.393,3.425.819,5.114,1.3a136.376,136.376,0,0,1,100.8,131.738Z" transform="translate(-227.069 12.163)" fill="#21155c"/>
      <g id="Grupo_91190" data-name="Grupo 91190" transform="translate(62.743 22.055)">
        <g id="Grupo_91188" data-name="Grupo 91188" transform="translate(39.437 22.572)">
          <path id="Trazado_114737" data-name="Trazado 114737" d="M321.908,123.5l9.389,2.889-9.389,2.889-2.888,9.389-2.889-9.389-9.389-2.889,9.389-2.889,2.889-9.389Z" transform="translate(-306.742 -51.446)" fill="#764cf0"/>
          <path id="Trazado_114738" data-name="Trazado 114738" d="M345.392,119.9l6.929,2.131-6.929,2.132-2.132,6.929-2.131-6.929-6.929-2.132,6.929-2.131,2.131-6.929Z" transform="translate(-287.453 -52.245)" fill="#764cf0"/>
          <path id="Trazado_114739" data-name="Trazado 114739" d="M345.392,84.232l6.929,2.132L345.392,88.5l-2.132,6.929L341.129,88.5,334.2,86.364l6.929-2.132,2.131-6.929Z" transform="translate(-287.453 -77.304)" fill="#764cf0"/>
          <path id="Trazado_114740" data-name="Trazado 114740" d="M439.281,132.092l6.929,2.132-6.929,2.131-2.132,6.929-2.131-6.929-6.929-2.131,6.929-2.132,2.131-6.929Z" transform="translate(-221.499 -43.684)" fill="#764cf0"/>
          <path id="Trazado_125705" data-name="Trazado 125705" d="M439.281,132.092l6.929,2.132-6.929,2.131-2.132,6.929-2.131-6.929-6.929-2.131,6.929-2.132,2.131-6.929Z" transform="translate(-209.499 -192.684)" fill="#764cf0"/>
          <path id="Trazado_116515" data-name="Trazado 116515" d="M439.281,132.092l6.929,2.132-6.929,2.131-2.132,6.929-2.131-6.929-6.929-2.131,6.929-2.132,2.131-6.929Z" transform="translate(-264.869 -68.34)" fill="#764cf0"/>
          <path id="Trazado_114741" data-name="Trazado 114741" d="M454.688,143.566l6.929,2.131-6.929,2.132-2.131,6.929-2.132-6.929L443.5,145.7l6.929-2.131,2.132-6.929Z" transform="translate(-210.676 -35.624)" fill="#764cf0"/>
        </g>
        <g id="Grupo_91189" data-name="Grupo 91189" transform="translate(0)">
          <ellipse id="Elipse_5094" data-name="Elipse 5094" cx="3.767" cy="3.767" rx="3.767" ry="3.767" transform="translate(91.19 63.342)" fill="#764cf0"/>
          <ellipse id="Elipse_5095" data-name="Elipse 5095" cx="3.767" cy="3.767" rx="3.767" ry="3.767" transform="translate(0 126.755)" fill="#764cf0"/>
          <ellipse id="Elipse_5096" data-name="Elipse 5096" cx="3.767" cy="3.767" rx="3.767" ry="3.767" transform="translate(80.308)" fill="#764cf0"/>
          <ellipse id="Elipse_5339" data-name="Elipse 5339" cx="3.767" cy="3.767" rx="3.767" ry="3.767" transform="translate(62.959 179.266)" fill="#764cf0"/>
          <ellipse id="Elipse_5097" data-name="Elipse 5097" cx="3.767" cy="3.767" rx="3.767" ry="3.767" transform="translate(31.546 122.987)" fill="#764cf0"/>
          <ellipse id="Elipse_5098" data-name="Elipse 5098" cx="3.767" cy="3.767" rx="3.767" ry="3.767" transform="translate(274.102 98.292)" fill="#764cf0"/>
          <ellipse id="Elipse_5891" data-name="Elipse 5891" cx="3.767" cy="3.767" rx="3.767" ry="3.767" transform="translate(237.102 -7.534)" fill="#764cf0"/>
        </g>
      </g>
      <g id="Grupo_92094" data-name="Grupo 92094" transform="translate(201.193 387.347)">
        <path id="Trazado_116471" data-name="Trazado 116471" d="M820,454.753v36.019H865.78v-47.3Z" transform="translate(-819.997 -443.474)" fill="#fd8753"/>
      </g>
      <g id="Grupo_92095" data-name="Grupo 92095" transform="translate(72.409 385.16)">
        <path id="Trazado_116472" data-name="Trazado 116472" d="M740.516,441.962l-9.6,34.716,44.168,12.213,12.6-45.587Z" transform="translate(-730.916 -441.962)" fill="#fd8753"/>
      </g>
      <g id="Grupo_92096" data-name="Grupo 92096" transform="translate(206.691)">
        <path id="Trazado_116473" data-name="Trazado 116473" d="M830.822,188.321s11.743-19.755,30.506-10.139,16.708,29.512,30.951,34.075,25.9,16.847,17.624,32.687c-6.923,13.251-25.677,9.038-25.677,9.038s-11.658,19.857-32.269,13.068-30.01-17.5-27.854-34.582S830.822,188.321,830.822,188.321Z" transform="translate(-823.8 -175.543)" fill="#26d19e"/>
      </g>
      <g id="Grupo_92097" data-name="Grupo 92097" transform="translate(177.449 7.871)">
        <path id="Trazado_116474" data-name="Trazado 116474" d="M806.324,214.6s-11.14-16.271,11.411-29.093,38.985,4.759,39.173,14.21-5.19,13.827-5.19,13.827,2.1,20.473-17.568,19.066S806.324,214.6,806.324,214.6Z" transform="translate(-803.573 -180.988)" fill="#26d19e"/>
      </g>
      <g id="Grupo_92099" data-name="Grupo 92099" transform="translate(188.037 56.204)">
        <g id="Grupo_92098" data-name="Grupo 92098">
          <path id="Trazado_116475" data-name="Trazado 116475" d="M832.768,214.42l.415,16.54s-2.863,4.83-12.52,5.858c-7.192.768-9.766-.8-9.766-.8l.794-8.4.786-8.194,17.376-4.282Z" transform="translate(-810.897 -214.42)" fill="#ffe1c2"/>
        </g>
      </g>
      <g id="Grupo_92101" data-name="Grupo 92101" transform="translate(188.831 55.418)">
        <g id="Grupo_92100" data-name="Grupo 92100">
          <path id="Trazado_116476" data-name="Trazado 116476" d="M832.474,213.876a5.4,5.4,0,0,1-.441,1.608c-3.493,8.355-16.432,11.9-20.587,12.377l.786-8.194Z" transform="translate(-811.446 -213.876)"/>
        </g>
      </g>
      <g id="Grupo_92103" data-name="Grupo 92103" transform="translate(179.567 17.217)">
        <g id="Grupo_92102" data-name="Grupo 92102">
          <path id="Trazado_116477" data-name="Trazado 116477" d="M810.455,193.834s-8.161,20.955-4.45,32.391,14.177,9.187,20.392,6.7a20.89,20.89,0,0,0,8.985-6.478,8.9,8.9,0,0,0,9.689-3.88c3.717-5.637,1.035-11.829-2.385-13.134s-7.324,1.287-7.324,1.287l2.893-6.111S823.831,174.731,810.455,193.834Z" transform="translate(-805.038 -187.453)" fill="#ffe1c2"/>
        </g>
      </g>
      <g id="Grupo_92104" data-name="Grupo 92104" transform="translate(182.625 38.767)">
        <path id="Trazado_116478" data-name="Trazado 116478" d="M808.205,214.225a.781.781,0,0,1-.768-.651c-1.159-7.026,1.592-10.756,1.71-10.911a.778.778,0,0,1,1.242.937c-.025.035-2.464,3.4-1.417,9.719a.779.779,0,0,1-.641.895A.95.95,0,0,1,808.205,214.225Z" transform="translate(-807.153 -202.359)"/>
      </g>
      <g id="Grupo_92105" data-name="Grupo 92105" transform="translate(209.569 43.129)">
        <path id="Trazado_116479" data-name="Trazado 116479" d="M826.566,211.214a.776.776,0,0,1-.364-1.462l8.057-4.288a.777.777,0,0,1,.729,1.372l-8.057,4.286A.777.777,0,0,1,826.566,211.214Z" transform="translate(-825.791 -205.376)"/>
      </g>
      <g id="Grupo_92106" data-name="Grupo 92106" transform="translate(213.193 45.485)">
        <path id="Trazado_116480" data-name="Trazado 116480" d="M832.956,211.945a.775.775,0,0,1-.51-.191l-3.88-3.387a.776.776,0,1,1,1.019-1.171l3.882,3.386a.778.778,0,0,1-.51,1.363Z" transform="translate(-828.298 -207.006)"/>
      </g>
      <g id="Grupo_92107" data-name="Grupo 92107" transform="translate(181.686 13.024)">
        <path id="Trazado_116481" data-name="Trazado 116481" d="M806.563,205.5a17.685,17.685,0,0,1,4.281-9.475c4.149-4.648,7.658-3.879,7.658-3.879s-6.123,13.406,4.182,18.13c7.331,3.36,12.024,1.728,12.024,1.728L845.2,201.593l-20.872-16.949S805.3,181.973,806.563,205.5Z" transform="translate(-806.503 -184.552)" fill="#26d19e"/>
      </g>
      <g id="Grupo_92108" data-name="Grupo 92108" transform="translate(188.072 50.017)">
        <path id="Trazado_116482" data-name="Trazado 116482" d="M811.7,215a.778.778,0,0,1-.254-1.512,7.15,7.15,0,0,0,3.38-2.964.765.765,0,0,1,1.061-.273.774.774,0,0,1,.273,1.063,8.586,8.586,0,0,1-4.208,3.643A.726.726,0,0,1,811.7,215Z" transform="translate(-810.921 -210.141)"/>
      </g>
      <g id="Grupo_92109" data-name="Grupo 92109" transform="translate(189.849 34.788)">
        <path id="Trazado_116483" data-name="Trazado 116483" d="M813.272,206.707a.775.775,0,0,1-.758-.95l.763-3.368-1.006-1.59a.776.776,0,1,1,1.31-.831l1.181,1.863a.774.774,0,0,1,.1.588l-.834,3.684A.78.78,0,0,1,813.272,206.707Z" transform="translate(-812.15 -199.607)"/>
      </g>
      <g id="Grupo_92110" data-name="Grupo 92110" transform="translate(179.553 34.704)">
        <path id="Trazado_116484" data-name="Trazado 116484" d="M806.151,206.645a.775.775,0,0,1-.759-.95l.765-3.366-1.008-1.59a.776.776,0,0,1,1.311-.831l1.18,1.863a.775.775,0,0,1,.1.588l-.834,3.681A.782.782,0,0,1,806.151,206.645Z" transform="translate(-805.029 -199.548)"/>
      </g>
      <g id="Grupo_92111" data-name="Grupo 92111" transform="translate(181.641 30.201)">
        <path id="Trazado_116485" data-name="Trazado 116485" d="M807.25,198.474a.776.776,0,0,1-.162-1.535l2.289-.484a.755.755,0,0,1,.919.6.774.774,0,0,1-.6.919l-2.287.486A.787.787,0,0,1,807.25,198.474Z" transform="translate(-806.473 -196.434)"/>
      </g>
      <g id="Grupo_92118" data-name="Grupo 92118" transform="translate(22.65 7.246)">
        <g id="Grupo_92112" data-name="Grupo 92112" transform="translate(0 2.662)">
          <path id="Trazado_116486" data-name="Trazado 116486" d="M775.434,238.233l-37.223,22.833L696.5,205.229,733.72,182.4Z" transform="translate(-696.497 -182.396)" fill="#9364ed"/>
        </g>
        <g id="Grupo_92113" data-name="Grupo 92113" transform="translate(4.813)">
          <path id="Trazado_116487" data-name="Trazado 116487" d="M778.764,236.392,741.54,259.225l-41.714-55.836,37.223-22.833Z" transform="translate(-699.826 -180.555)" fill="#fff"/>
        </g>
        <g id="Grupo_92114" data-name="Grupo 92114" transform="translate(14.49 9.063)">
          <path id="Trazado_116488" data-name="Trazado 116488" d="M707.3,205.136a.771.771,0,0,1-.662-.37.779.779,0,0,1,.254-1.068l27.321-16.759a.777.777,0,0,1,.814,1.323L707.7,205.021A.761.761,0,0,1,707.3,205.136Z" transform="translate(-706.52 -186.824)" fill="#5e1dbb"/>
        </g>
        <g id="Grupo_92115" data-name="Grupo 92115" transform="translate(18.917 14.827)">
          <path id="Trazado_116489" data-name="Trazado 116489" d="M710.358,209.128a.771.771,0,0,1-.662-.37.779.779,0,0,1,.254-1.068l27.321-16.761a.777.777,0,1,1,.814,1.323l-27.321,16.761A.762.762,0,0,1,710.358,209.128Z" transform="translate(-709.582 -190.811)" fill="#5e1dbb"/>
        </g>
        <g id="Grupo_92116" data-name="Grupo 92116" transform="translate(23.244 20.657)">
          <path id="Trazado_116490" data-name="Trazado 116490" d="M713.351,213.157a.777.777,0,0,1-.408-1.438l27.322-16.759a.776.776,0,0,1,.812,1.323l-27.321,16.758A.775.775,0,0,1,713.351,213.157Z" transform="translate(-712.575 -194.844)" fill="#5e1dbb"/>
        </g>
        <g id="Grupo_92117" data-name="Grupo 92117" transform="translate(27.577 26.48)">
          <path id="Trazado_116491" data-name="Trazado 116491" d="M716.348,217.183a.776.776,0,0,1-.406-1.438l27.321-16.757a.776.776,0,0,1,.813,1.323l-27.321,16.758A.773.773,0,0,1,716.348,217.183Z" transform="translate(-715.572 -198.872)" fill="#5e1dbb"/>
        </g>
      </g>
      <g id="Grupo_92119" data-name="Grupo 92119" transform="translate(122.656 36.746)">
        <path id="Trazado_116492" data-name="Trazado 116492" d="M789.151,200.961,829.5,254.715l-38.75,22.643L765.672,210.93Z" transform="translate(-765.672 -200.961)" fill="#ffe1c2"/>
      </g>
      <g id="Grupo_92120" data-name="Grupo 92120" transform="translate(188.61 29.956)">
        <path id="Trazado_116493" data-name="Trazado 116493" d="M816.865,199.488a.878.878,0,0,1-.256-.042l-4.794-1.673a.777.777,0,0,1,.51-1.469l4.794,1.673a.777.777,0,0,1-.255,1.511Z" transform="translate(-811.293 -196.264)"/>
      </g>
      <g id="Grupo_92121" data-name="Grupo 92121" transform="translate(39.579 56.881)">
        <path id="Trazado_116494" data-name="Trazado 116494" d="M756.331,248.062s-.867-15.327-5.5-21.4-12.725-10.789-14.46-7.275,3.76,8.6,2.893,10.685-6.652,1.037-15.329-2.054-14.458-13.13-14.458-13.13a15.859,15.859,0,0,0-1.157,7.593,16.821,16.821,0,0,0,1.735,5.537s-1.843-4.165-1.853,3.458c-.006,3.827,3.3,6.5,3.3,6.5s-2.6,3.142,2.891,10.082,20.822,13.3,20.822,13.3S752.282,303.009,780.334,314s50.03-3.76,50.03-3.76l-8.676-45.693S791.612,275.247,756.331,248.062Z" transform="translate(-708.207 -214.888)" fill="#ffe1c2"/>
      </g>
      <g id="Grupo_92122" data-name="Grupo 92122" transform="translate(40.003 67.817)">
        <path id="Trazado_116495" data-name="Trazado 116495" d="M723.629,233.356a.985.985,0,0,1-.158-.014c-6.881-1.441-14.437-9.242-14.755-9.576a.777.777,0,1,1,1.122-1.074c.074.077,7.544,7.787,13.95,9.127a.777.777,0,0,1-.159,1.538Z" transform="translate(-708.5 -222.453)"/>
      </g>
      <g id="Grupo_92123" data-name="Grupo 92123" transform="translate(42.1 79.194)">
        <path id="Trazado_116496" data-name="Trazado 116496" d="M721.681,237.4c-8.038-1.346-11.427-5.648-11.57-5.83a.777.777,0,0,1,1.229-.95c.033.039,3.2,4.01,10.471,5.239a.776.776,0,0,1-.13,1.541Z" transform="translate(-709.951 -230.322)"/>
      </g>
      <g id="Grupo_92124" data-name="Grupo 92124" transform="translate(61.818 148.516)">
        <path id="Trazado_116497" data-name="Trazado 116497" d="M839.16,304.257s-37.286,50.251-67.914,106.049S723.59,535.9,723.59,535.9l78.433,4.85,57.033-137.88-16.77,136.044,75.85-2.656s16.413-126.3,7.662-185.869-19.014-72.118-19.014-72.118Z" transform="translate(-723.59 -278.273)" fill="#ffe268"/>
      </g>
      <g id="Grupo_92125" data-name="Grupo 92125" transform="translate(217.118 10.953)">
        <path id="Trazado_116498" data-name="Trazado 116498" d="M836.424,215.262a.758.758,0,0,1-.481-.171.772.772,0,0,1-.124-1.089c12.273-15.447-3.83-28.938-4.522-29.505a.776.776,0,0,1,.983-1.2c.182.147,17.984,15.019,4.752,31.671A.766.766,0,0,1,836.424,215.262Z" transform="translate(-831.012 -183.119)" fill="#764cf0"/>
      </g>
      <g id="Grupo_92126" data-name="Grupo 92126" transform="translate(134.408 71.361)">
        <path id="Trazado_116499" data-name="Trazado 116499" d="M773.8,260.66s29.854-33.4,65.9-35.57,48.189,15.183,49.924,23.425,4.772,67.238,2.6,71.141-16.959,10.846-41.014,12.58-36.635-1.3-38.37-2.6-3.9-19.52-3.9-19.52l-20.389,5.206Z" transform="translate(-773.801 -224.904)" fill="#764cf0"/>
      </g>
      <g id="Grupo_92127" data-name="Grupo 92127" transform="translate(205.52 56.208)">
        <path id="Trazado_116500" data-name="Trazado 116500" d="M827.38,214.423s-10.147,22.836.412,31.892,26.274,3.2,26.274,3.2,5.3,3.395,15.434-.035,15.086-12.822,15.086-12.822Z" transform="translate(-822.99 -214.423)" fill="#26d19e"/>
      </g>
      <g id="Grupo_92128" data-name="Grupo 92128" transform="translate(94.289 4.989)">
        <path id="Trazado_116501" data-name="Trazado 116501" d="M797.9,210.751s-10.136-15.9-15.23-19.4-33.492-14.662-36.3-11.936,13.8,14.117,13.8,14.117-2.855.619-3.552,2.915a5.278,5.278,0,0,0,.557,4.171s-3.54-.117-4.535,2.281.642,5.038.642,5.038,6.526,11.913,10.233,12.167,3.222-6.335,3.222-6.335,1.35,6.011,4.586,9.32,9.868,3.656,16.73.04S797.9,210.751,797.9,210.751Z" transform="translate(-746.05 -178.994)" fill="#ffe1c2"/>
      </g>
      <g id="Grupo_92129" data-name="Grupo 92129" transform="translate(117.124 23.567)">
        <path id="Trazado_116502" data-name="Trazado 116502" d="M782.936,215.443c-7.784-.814-10.38-8.913-11.021-11.509-2.6.518-8.187,1.362-9.673-.552a2.188,2.188,0,0,1-.043-2.485c2.291-4.567,11.925-8.809,12.335-8.988a.777.777,0,0,1,.619,1.425c-.094.04-9.524,4.191-11.563,8.259-.14.273-.27.64-.123.833.736.943,5.177.646,8.876-.168a.791.791,0,0,1,.6.113.773.773,0,0,1,.334.509c.019.1,1.918,10.189,9.743,11.012a.778.778,0,0,1-.081,1.551Z" transform="translate(-761.846 -191.844)"/>
      </g>
      <g id="Grupo_92130" data-name="Grupo 92130" transform="translate(107.629 18.755)">
        <path id="Trazado_116503" data-name="Trazado 116503" d="M766.7,202.2a.758.758,0,0,1-.243-.04c-5.037-1.65-10.841-12.043-11.087-12.485a.777.777,0,1,1,1.359-.753c.058.1,5.75,10.3,10.214,11.764a.777.777,0,0,1-.243,1.515Z" transform="translate(-755.278 -188.516)"/>
      </g>
      <g id="Grupo_92131" data-name="Grupo 92131" transform="translate(104.634 25.841)">
        <path id="Trazado_116504" data-name="Trazado 116504" d="M765.765,208.709c-4.833,0-11.694-12.692-12.468-14.152a.777.777,0,0,1,1.372-.729c2.745,5.186,8.152,13.326,11.074,13.326a2.9,2.9,0,0,0,2.319-.976,4.14,4.14,0,0,0,.483-2.959.777.777,0,0,1,1.516-.337,5.664,5.664,0,0,1-.759,4.23,4.314,4.314,0,0,1-3.4,1.593Z" transform="translate(-753.206 -193.418)"/>
      </g>
      <g id="Grupo_92132" data-name="Grupo 92132" transform="translate(168.563 139.684)">
        <path id="Trazado_116505" data-name="Trazado 116505" d="M798.409,289.826a.808.808,0,0,1-.774-.729c-.227-3.554-.768-15.268,1.77-16.734a1.589,1.589,0,0,1,1.748.133c3.814,2.543-1.021,14.489-2.027,16.855A.78.78,0,0,1,798.409,289.826Zm1.882-16.037c-.938.37-1.421,5.417-1.269,11.512C800.736,280.38,801.915,274.873,800.291,273.789Z" transform="translate(-797.426 -272.164)" fill="#fff"/>
      </g>
      <g id="Grupo_92133" data-name="Grupo 92133" transform="translate(180.313 171.925)">
        <path id="Trazado_116506" data-name="Trazado 116506" d="M827.135,311.167a140.837,140.837,0,0,1-20.928-1.5.778.778,0,0,1,.249-1.535c.483.075,48.632,7.652,70.284-13.442a.776.776,0,1,1,1.086,1.11C864.836,308.456,843.234,311.167,827.135,311.167Z" transform="translate(-805.554 -294.465)" fill="#fff"/>
      </g>
      <g id="Grupo_92134" data-name="Grupo 92134" transform="translate(196.161 242.729)">
        <path id="Trazado_116507" data-name="Trazado 116507" d="M817.292,374.6a.776.776,0,0,1-.671-1.168c.108-.188,11.272-18.965,40.14-29.939a.766.766,0,0,1,1,.448.775.775,0,0,1-.449,1c-28.318,10.769-39.242,29.087-39.352,29.271A.775.775,0,0,1,817.292,374.6Z" transform="translate(-816.516 -343.441)" fill="#fff"/>
      </g>
      <g id="Grupo_92135" data-name="Grupo 92135" transform="translate(240.486 198.091)">
        <path id="Trazado_116508" data-name="Trazado 116508" d="M869.781,346.168c-6.166,0-11.21-1.832-15.018-5.458-7.7-7.334-7.594-19.274-7.586-19.779a.777.777,0,0,1,.489-.71l19.138-7.6a.777.777,0,0,1,.575,1.444l-18.639,7.406c.07,2.33.756,12.089,7.1,18.123,3.924,3.727,9.3,5.378,16.024,4.953a.709.709,0,0,1,.826.721.772.772,0,0,1-.721.826C871.224,346.145,870.493,346.168,869.781,346.168Z" transform="translate(-847.176 -312.564)" fill="#fff"/>
      </g>
      <g id="Grupo_92136" data-name="Grupo 92136" transform="translate(170.739 202.456)">
        <path id="Trazado_116509" data-name="Trazado 116509" d="M811.779,351.943a16.512,16.512,0,0,1-2.62-.214,10.88,10.88,0,0,1-8.177-5.45c-5.622-9.946,2.066-29.387,2.394-30.209a.792.792,0,0,1,.953-.455l28.959,8.972a.783.783,0,0,1,.532.9C833.762,325.765,828.176,351.943,811.779,351.943Zm-7.213-34.626c-1.3,3.5-6.933,19.883-2.231,28.2a9.386,9.386,0,0,0,7.072,4.678c15.43,2.507,21.693-20.071,22.731-24.334Z" transform="translate(-798.932 -315.584)" fill="#fff"/>
      </g>
      <g id="Grupo_92137" data-name="Grupo 92137" transform="translate(0 408.79)">
        <path id="Trazado_116510" data-name="Trazado 116510" d="M798.611,514.765s11.117-52.116,2.716-52.279-21.966,5.259-21.966,5.259-17.286-12.826-26.367-8.574-15.679,15.663-15.679,15.663L686.9,497.58s-6.9,7.976-5.984,12.637c.714,3.635,70.724,12.429,101.46,16.118,7.927.951,15.1-4.164,16.237-11.57Z" transform="translate(-680.83 -458.306)" fill="#fff"/>
      </g>
      <g id="Grupo_92138" data-name="Grupo 92138" transform="translate(34.945 424.539)">
        <path id="Trazado_116511" data-name="Trazado 116511" d="M721.451,485.967a.788.788,0,0,1-.237-.036l-15.673-4.988a.777.777,0,1,1,.474-1.48l13.957,4.441-3.185-6.647a.78.78,0,0,1,.1-.831.8.8,0,0,1,.8-.259l18.026,4.667-9.731-10.322a.777.777,0,1,1,1.129-1.068l11.579,12.283a.775.775,0,0,1,.1.93.791.791,0,0,1-.862.357l-19.015-4.921,3.241,6.763a.784.784,0,0,1-.116.847A.774.774,0,0,1,721.451,485.967Z" transform="translate(-705.002 -469.2)" fill="#5e1dbb"/>
      </g>
      <g id="Grupo_92139" data-name="Grupo 92139" transform="translate(170.977 408.625)">
        <path id="Trazado_116512" data-name="Trazado 116512" d="M824.449,468.557s-29.916,48.862-24.755,54.895,41.607,6.868,58.244,4.207,23.011-4.664,24.27-8.723-6.636-54.268-6.636-54.268-7.328-8.249-17.372-6.125-25.778,9.9-25.778,9.9S828.516,461.729,824.449,468.557Z" transform="translate(-799.096 -458.192)" fill="#fff"/>
      </g>
      <g id="Grupo_92140" data-name="Grupo 92140" transform="translate(196.713 418.095)">
        <path id="Trazado_116513" data-name="Trazado 116513" d="M817.674,470.328a.776.776,0,0,1-.395-1.444l6.815-4.029a.775.775,0,0,1,.788,1.334l-6.815,4.031A.748.748,0,0,1,817.674,470.328Z" transform="translate(-816.898 -464.743)" fill="#5e1dbb"/>
      </g>
    </g>
    <g id="Grupo_92152" data-name="Grupo 92152" transform="translate(1297.323 3806.992)">
      <path id="Trazado_114415" data-name="Trazado 114415" d="M471.046,156.721v57.908H394.919V156.721a6.208,6.208,0,0,1,6.213-6.212h63.7A6.208,6.208,0,0,1,471.046,156.721Z" transform="translate(-394.919 -150.509)" fill="#faf0e3"/>
      <path id="Trazado_114416" data-name="Trazado 114416" d="M471.046,156.721v5.565H394.919v-5.565a6.208,6.208,0,0,1,6.213-6.212h63.7A6.208,6.208,0,0,1,471.046,156.721Z" transform="translate(-394.919 -150.509)" fill="#26d19e"/>
      <g id="Grupo_90916" data-name="Grupo 90916" transform="translate(54.012 4.376)">
        <circle id="Elipse_4910" data-name="Elipse 4910" cx="1.888" cy="1.888" r="1.888" fill="#f34919"/>
        <circle id="Elipse_4911" data-name="Elipse 4911" cx="1.888" cy="1.888" r="1.888" transform="translate(6.042)" fill="#ffd387"/>
        <circle id="Elipse_4912" data-name="Elipse 4912" cx="1.888" cy="1.888" r="1.888" transform="translate(12.3)" fill="#b7b8fb"/>
      </g>
      <g id="Grupo_90917" data-name="Grupo 90917" transform="translate(9.137 20.615)">
        <rect id="Rectángulo_33984" data-name="Rectángulo 33984" width="15.929" height="33.837" fill="#764cf0"/>
        <rect id="Rectángulo_33985" data-name="Rectángulo 33985" width="15.929" height="28.852" transform="translate(19.702 4.985)" fill="#ffd41c"/>
        <rect id="Rectángulo_33986" data-name="Rectángulo 33986" width="15.929" height="23.414" transform="translate(39.962 10.423)" fill="#26d19e"/>
      </g>
      <g id="Grupo_90918" data-name="Grupo 90918" transform="translate(5.663 43.954)">
        <path id="Trazado_114417" data-name="Trazado 114417" d="M401.063,211.665h60.876l5.287-12.236" transform="translate(-401.063 -198.297)" fill="none" stroke="#0b0a10" stroke-linecap="round" stroke-linejoin="round" stroke-width="0.963"/>
        <path id="Trazado_114418" data-name="Trazado 114418" d="M469.411,201.939l3.512-3.739-.227,4.645" transform="translate(-406.42 -198.2)" fill="none" stroke="#0b0a10" stroke-linecap="round" stroke-linejoin="round" stroke-width="0.963"/>
      </g>
    </g>
    <rect id="Rectángulo_34435" data-name="Rectángulo 34435" width="33.598" height="33.598" rx="8" transform="matrix(0.985, 0.174, -0.174, 0.985, 1378.804, 3699.729)" fill="#26d19e"/>
    <circle id="Elipse_5340" data-name="Elipse 5340" cx="20.488" cy="20.488" r="20.488" transform="translate(1302.253 3644.454)" fill="#764cf0"/>
    <g id="Grupo_92531" data-name="Grupo 92531" transform="translate(1051.529 3777.295)">
      <g id="Grupo_92529" data-name="Grupo 92529">
        <rect id="Rectángulo_34558" data-name="Rectángulo 34558" width="87.949" height="55.407" fill="#f7f7f7"/>
      </g>
      <g id="Grupo_92530" data-name="Grupo 92530" transform="translate(7.249 7.98)">
        <path id="Trazado_117169" data-name="Trazado 117169" d="M848.974,74.261c12.2-.076,24.4-.057,36.6-.088,12.2.031,24.4.012,36.6.088-12.2.076-24.4.057-36.6.088C873.377,74.317,861.176,74.337,848.974,74.261Z" transform="translate(-848.974 -69.558)" fill="#a6a6a6"/>
        <path id="Trazado_117170" data-name="Trazado 117170" d="M848.974,82.937c12.2-.076,24.4-.056,36.6-.088,12.2.031,24.4.012,36.6.088-12.2.077-24.4.058-36.6.088C873.377,82.993,861.176,83.012,848.974,82.937Z" transform="translate(-848.974 -71.001)" fill="#a6a6a6"/>
        <path id="Trazado_117171" data-name="Trazado 117171" d="M848.974,91.613c12.2-.076,24.4-.057,36.6-.088,12.2.031,24.4.012,36.6.088-12.2.077-24.4.058-36.6.088C873.377,91.669,861.176,91.688,848.974,91.613Z" transform="translate(-848.974 -72.443)" fill="#a6a6a6"/>
        <path id="Trazado_117172" data-name="Trazado 117172" d="M848.974,100.288c12.2-.076,24.4-.057,36.6-.088,12.2.032,24.4.012,36.6.088-12.2.077-24.4.057-36.6.088C873.377,100.345,861.176,100.364,848.974,100.288Z" transform="translate(-848.974 -73.885)" fill="#a6a6a6"/>
        <path id="Trazado_117173" data-name="Trazado 117173" d="M848.974,108.964c12.2-.076,24.4-.057,36.6-.088,12.2.032,24.4.013,36.6.088-12.2.076-24.4.057-36.6.088C873.377,109.021,861.176,109.04,848.974,108.964Z" transform="translate(-848.974 -75.328)" fill="#a6a6a6"/>
        <path id="Trazado_117174" data-name="Trazado 117174" d="M866.628,68.638c.107,6.758.08,13.517.125,20.276-.044,6.759-.017,13.517-.125,20.277-.108-6.759-.081-13.517-.125-20.277C866.548,82.155,866.521,75.4,866.628,68.638Z" transform="translate(-851.888 -68.638)" fill="#a6a6a6"/>
        <path id="Trazado_117175" data-name="Trazado 117175" d="M881.812,68.638c.108,6.758.081,13.517.125,20.276-.044,6.759-.017,13.517-.125,20.277-.107-6.759-.08-13.517-.124-20.277C881.732,82.155,881.706,75.4,881.812,68.638Z" transform="translate(-854.413 -68.638)" fill="#a6a6a6"/>
        <path id="Trazado_117176" data-name="Trazado 117176" d="M897,68.638c.108,6.758.08,13.517.125,20.276-.044,6.759-.017,13.517-.125,20.277-.108-6.759-.081-13.517-.125-20.277C896.917,82.155,896.889,75.4,897,68.638Z" transform="translate(-856.938 -68.638)" fill="#a6a6a6"/>
        <path id="Trazado_117177" data-name="Trazado 117177" d="M912.182,68.638c.108,6.758.08,13.517.125,20.276-.044,6.759-.018,13.517-.125,20.277-.108-6.759-.081-13.517-.125-20.277C912.1,82.155,912.075,75.4,912.182,68.638Z" transform="translate(-859.462 -68.638)" fill="#a6a6a6"/>
        <path id="Trazado_117178" data-name="Trazado 117178" d="M927.366,68.638c.107,6.758.081,13.517.125,20.276-.044,6.759-.017,13.517-.125,20.277-.108-6.759-.08-13.517-.124-20.277C927.286,82.155,927.259,75.4,927.366,68.638Z" transform="translate(-861.987 -68.638)" fill="#a6a6a6"/>
        <path id="Trazado_117179" data-name="Trazado 117179" d="M851.186,99.408c2.235,0,3.567-7.348,6.732-7.348s3.5,5.361,6.164,5.361S866.664,88,870.244,88s2.749,3.82,6.5,3.82,2.333-8.871,6.247-8.871,2.332,12.222,6.413,12.222c2.582,0,3.582-3.882,6.663-3.882,2.041,0,3.244,1.942,5.911,1.942,2.71,0,3.251-7.464,6.582-7.464s3.713,4.416,6.163,4.416,3.332-7.234,7.83-7.234V111.57H851.186Z" transform="translate(-849.342 -71.018)" fill="#ccfff0" opacity="0.5"/>
        <path id="Trazado_117180" data-name="Trazado 117180" d="M936.782,117.277" transform="translate(-863.573 -76.725)" fill="#a6a6a6"/>
        <path id="Trazado_117181" data-name="Trazado 117181" d="M851.186,99.691v-.707c.676,0,1.608-1.717,2.289-2.97,1.169-2.152,2.379-4.378,4.443-4.378,1.981,0,2.966,1.63,3.834,3.068.68,1.127,1.384,2.293,2.329,2.293.833,0,1.555-2.261,2.083-3.913.864-2.705,1.757-5.5,4.08-5.5a4.031,4.031,0,0,1,3.606,2.068,3.232,3.232,0,0,0,2.891,1.753c1.441,0,2-2.072,2.55-4.076.642-2.357,1.306-4.795,3.7-4.795,2.373,0,2.979,3.07,3.622,6.321.519,2.629,1.166,5.9,2.791,5.9.971,0,1.766-.806,2.606-1.661,1.025-1.041,2.186-2.221,4.057-2.221a5.775,5.775,0,0,1,2.85.949,6.1,6.1,0,0,0,3.061.993c.925,0,1.767-1.775,2.445-3.2,1-2.1,2.024-4.262,4.137-4.262,2.1,0,3.131,1.409,4.043,2.652.665.907,1.293,1.764,2.121,1.764.7,0,1.5-1.374,2.206-2.586,1.2-2.07,2.7-4.647,5.623-4.647v.707c-2.251,0-3.549,2.236-4.695,4.209-.982,1.69-1.758,3.025-3.134,3.025-1.437,0-2.2-1.042-3.011-2.146s-1.665-2.27-3.153-2.27c-1.392,0-2.345,2.008-3.187,3.78-.94,1.977-1.751,3.684-3.395,3.684a7.188,7.188,0,0,1-3.676-1.142,4.716,4.716,0,0,0-2.235-.8c-1.347,0-2.306.975-3.234,1.918-.95.965-1.933,1.964-3.429,1.964-2.5,0-3.121-3.162-3.784-6.511-.5-2.544-1.128-5.711-2.629-5.711-1.564,0-2.175,2.243-2.714,4.221-.651,2.391-1.266,4.65-3.534,4.65a4.192,4.192,0,0,1-3.778-2.132,3.085,3.085,0,0,0-2.718-1.688c-1.522,0-2.4,2.745-3.1,4.952-.8,2.494-1.426,4.464-3.06,4.464-1.607,0-2.405-1.322-3.251-2.723-.784-1.3-1.592-2.638-2.912-2.638-1.376,0-2.558,2.176-3.508,3.924C853.372,98.18,852.551,99.691,851.186,99.691Z" transform="translate(-849.342 -70.948)" fill="#26d19e"/>
        <path id="Trazado_117182" data-name="Trazado 117182" d="M851.186,117.277" transform="translate(-849.342 -76.725)" fill="#a6a6a6" stroke="#ffc727" stroke-miterlimit="10" stroke-width="0.848"/>
        <path id="Trazado_117183" data-name="Trazado 117183" d="M851.139,69.165c.081,6.686.151,13.372.157,20.056l.076,20.056-.233-.165,35.682.042,17.841.033,17.841.091-17.841.09-17.841.033-35.682.042H850.9v-.165l.076-20.056C850.987,82.537,851.058,75.851,851.139,69.165Z" transform="translate(-849.295 -68.726)" fill="#a6a6a6"/>
      </g>
    </g>
    <g id="Grupo_92150" data-name="Grupo 92150" transform="translate(1038.241 3751.315)">
      <path id="Unión_9" data-name="Unión 9" d="M1.955,51.959A1.955,1.955,0,0,1,0,50V15.53a1.955,1.955,0,0,1,1.955-1.955H44.189L63.194,0,58.54,13.575H70.6a1.954,1.954,0,0,1,1.954,1.955V50A1.954,1.954,0,0,1,70.6,51.959Z" transform="translate(0 0)" fill="#faf0e3" stroke="rgba(0,0,0,0)" stroke-miterlimit="10" stroke-width="1"/>
      <g id="Grupo_92146" data-name="Grupo 92146" transform="translate(13.166 21.064)">
        <rect id="Rectángulo_34431" data-name="Rectángulo 34431" width="7.958" height="23.405" fill="#764cf0"/>
      </g>
      <g id="Grupo_92147" data-name="Grupo 92147" transform="translate(25.921 25.277)">
        <rect id="Rectángulo_34432" data-name="Rectángulo 34432" width="7.958" height="19.192" fill="#ffd41c"/>
      </g>
      <g id="Grupo_92148" data-name="Grupo 92148" transform="translate(51.433 25.277)">
        <rect id="Rectángulo_34433" data-name="Rectángulo 34433" width="7.958" height="19.192" fill="#26d19e"/>
      </g>
      <g id="Grupo_92149" data-name="Grupo 92149" transform="translate(38.677 32.767)">
        <rect id="Rectángulo_34434" data-name="Rectángulo 34434" width="7.958" height="11.703" fill="#21155c"/>
      </g>
    </g>
  </g>
</svg>
