<svg xmlns="http://www.w3.org/2000/svg" width="61.9" height="61.9" viewBox="0 0 61.9 61.9">
  <g id="layer1" transform="translate(-0.529 -280.596)">
    <path id="path15777-4" d="M60.63,284.035H.794v45.393a2.059,2.059,0,0,0,2.063,2.063h55.71a2.059,2.059,0,0,0,2.063-2.063Z" transform="translate(0.767 9.97)" fill="#dbe9ee"/>
    <path id="rect2181-6" d="M2.857,280.86a2.059,2.059,0,0,0-2.063,2.063V293.24H60.63V282.923a2.059,2.059,0,0,0-2.063-2.063Z" transform="translate(0.767 0.765)" fill="#33658a"/>
    <g id="Grupo_98799" data-name="Grupo 98799" transform="translate(5.688 285.754)">
      <path id="path2185-5" d="M5.979,283.982a2.063,2.063,0,1,1-2.063-2.063A2.063,2.063,0,0,1,5.979,283.982Z" transform="translate(-1.852 -281.919)" fill="#5b91b8"/>
      <path id="circle2187-5" d="M8.1,283.982a2.063,2.063,0,1,1-2.063-2.063A2.063,2.063,0,0,1,8.1,283.982Z" transform="translate(4.285 -281.919)" fill="#5b91b8"/>
      <path id="circle2189-2" d="M10.212,283.982a2.063,2.063,0,1,1-2.063-2.063,2.063,2.063,0,0,1,2.063,2.063Z" transform="translate(10.421 -281.919)" fill="#5b91b8"/>
    </g>
    <path id="rect2197-2" d="M9.79,281.919H30.423v4.127H9.79Z" transform="translate(26.848 3.836)" fill="#dbe9ee"/>
    <path id="rect2118" d="M2.381,285.623H49.838v26.823H2.381Z" transform="translate(5.37 14.574)" fill="#4ed5ea"/>
    <path id="path2126" d="M7.408,298.056l8.253-5.158-8.253-5.158Z" transform="translate(19.944 20.71)" fill="#dbe9ee"/>
    <path id="path13073-4" d="M3.622,280.6a3.106,3.106,0,0,0-3.093,3.091V339.4a3.115,3.115,0,0,0,3.093,3.1H59.338a3.113,3.113,0,0,0,3.091-3.1V283.687a3.1,3.1,0,0,0-3.091-3.091Zm0,2.063H59.338a1,1,0,0,1,1.028,1.028v9.283H2.595v-9.283a1,1,0,0,1,1.028-1.028Zm4.127,2.063a3.092,3.092,0,1,0,3.1,3.093A3.106,3.106,0,0,0,7.749,284.723Zm8.255,0a3.092,3.092,0,1,0,3.093,3.093A3.106,3.106,0,0,0,16,284.723Zm8.255,0a3.092,3.092,0,1,0,3.093,3.093A3.113,3.113,0,0,0,24.26,284.723Zm12.328,0a1.038,1.038,0,0,0-.979,1.028v4.129a1.032,1.032,0,0,0,1.028,1.028H57.275a1.032,1.032,0,0,0,1.028-1.028V285.75a1.032,1.032,0,0,0-1.028-1.028ZM7.749,286.788a1.032,1.032,0,1,1-1.028,1.028A1.016,1.016,0,0,1,7.749,286.788Zm8.255,0a1.032,1.032,0,0,1,0,2.063,1.032,1.032,0,1,1,0-2.063Zm8.255,0a1.032,1.032,0,0,1,0,2.063,1.032,1.032,0,1,1,0-2.063Zm13.412,0H56.237v2.063H37.671ZM2.594,295.035H60.366V339.4a1.009,1.009,0,0,1-1.028,1.038H3.622A1.009,1.009,0,0,1,2.594,339.4Zm5.158,4.131a1.032,1.032,0,0,0-1.036,1.028v26.831a1.032,1.032,0,0,0,1.036,1.028H55.206a1.032,1.032,0,0,0,1.036-1.028V300.194a1.032,1.032,0,0,0-1.036-1.028Zm1.028,2.065h45.4V325.99H8.78Zm18.53,6.19a1.033,1.033,0,0,0-.991,1.028V318.77a1.032,1.032,0,0,0,1.578.874l8.255-5.162a1.032,1.032,0,0,0,0-1.745L27.9,307.575a1.032,1.032,0,0,0-.586-.153Zm1.072,2.887,5.285,3.3-5.285,3.3ZM18.049,330.1a1.033,1.033,0,0,0-1.014,1.042v1.038H7.7a1.032,1.032,0,1,0,0,2.063h9.337v1.028a1.032,1.032,0,1,0,2.063,0v-4.129A1.031,1.031,0,0,0,18.049,330.1Zm4.143,4.143H55.206a1.032,1.032,0,1,0,0-2.063H22.143a1.032,1.032,0,0,0,.049,2.063Z" transform="translate(0 0)"/>
  </g>
</svg>
