<svg xmlns="http://www.w3.org/2000/svg" width="58.515" height="61.9" viewBox="0 0 58.515 61.9">
  <g id="XMLID_2140_" transform="translate(-14)">
    <g id="XMLID_1663_" transform="translate(15.209 1.209)">
      <g id="XMLID_1690_">
        <g id="XMLID_1691_">
          <path id="XMLID_2339_" d="M68.491,63.679V10H24V63.679a5.8,5.8,0,0,0,5.8,5.8H74.294A5.8,5.8,0,0,1,68.491,63.679Z" transform="translate(-24 -10)" fill="#fff"/>
          <path id="XMLID_2522_" d="M397.8,379.951a5.8,5.8,0,0,0,5.8-5.8V363.166H392v10.982A5.8,5.8,0,0,0,397.8,379.951Z" transform="translate(-347.509 -320.469)" fill="#eff3f3"/>
          <circle id="XMLID_2515_" cx="9.672" cy="9.672" r="9.672" transform="translate(10.881 7.879)" fill="#ffcb7c"/>
        </g>
      </g>
      <g id="XMLID_2291_" transform="translate(22.773 17.111)">
        <path id="XMLID_2298_" d="M212.361,360.605l4.026-9.155,5.129,5.129Z" transform="translate(-212.361 -327.28)" fill="#98a1b3"/>
        <path id="XMLID_2297_" d="M0,0H7.254V34.173H0Z" transform="translate(28.187 0) rotate(45)" fill="#ffcb7c"/>
      </g>
    </g>
    <g id="XMLID_879_" transform="translate(14)">
      <path id="XMLID_4_" d="M71.306,42.7h-10.4v-7.14L72.155,24.31a1.209,1.209,0,0,0,0-1.71l-5.129-5.129a1.209,1.209,0,0,0-1.71,0l-4.408,4.408V1.209A1.209,1.209,0,0,0,59.7,0H15.209A1.209,1.209,0,0,0,14,1.209V22.991a1.209,1.209,0,1,0,2.418,0V2.418H58.491V24.3L47.827,34.96H31.534a1.209,1.209,0,1,0,0,2.418H45.409l-4.257,4.257A1.211,1.211,0,0,0,40.9,42l-3.709,8.433H23.538a1.209,1.209,0,1,0,0,2.418H50.59a1.209,1.209,0,0,0,0-2.418H43.734l3.888-1.71a1.205,1.205,0,0,0,.369-.251l10.5-10.5V54.888a6.981,6.981,0,0,0,1.721,4.594h-39.2a4.6,4.6,0,0,1-4.594-4.594V33.872a1.209,1.209,0,0,0-2.418,0V54.888A7.02,7.02,0,0,0,21.012,61.9H65.5a7.02,7.02,0,0,0,7.012-7.012V43.906A1.209,1.209,0,0,0,71.306,42.7Zm-30.967,6.59L42.4,44.595l2.629,2.629Zm6.8-3.378-1.71-1.71-1.71-1.71L66.171,20.035l3.42,3.419ZM70.1,54.888a4.594,4.594,0,1,1-9.188,0V45.115H70.1Z" transform="translate(-14)"/>
      <path id="XMLID_1095_" d="M153.562,120.292a4.634,4.634,0,0,0,3.668-1.661,1.209,1.209,0,0,0-1.853-1.554,2.221,2.221,0,0,1-1.816.8,3.143,3.143,0,1,1,1.757-5.751,1.209,1.209,0,0,0,1.354-2,5.561,5.561,0,1,0-3.11,10.172Z" transform="translate(-131.801 -95.971)"/>
      <path id="XMLID_1105_" d="M114.881,86.93A10.881,10.881,0,1,0,104,76.049,10.893,10.893,0,0,0,114.881,86.93Zm0-19.344a8.463,8.463,0,1,1-8.463,8.463A8.472,8.472,0,0,1,114.881,67.586Z" transform="translate(-93.119 -57.289)"/>
      <path id="XMLID_1107_" d="M84.1,355.585h8.437a1.209,1.209,0,0,0,0-2.418H84.1a1.209,1.209,0,0,0,0,2.418Z" transform="translate(-74.566 -310.47)"/>
      <path id="XMLID_1108_" d="M84.1,289.17a1.209,1.209,0,0,0,0,2.418h1.225a1.209,1.209,0,0,0,0-2.418Z" transform="translate(-74.566 -254.21)"/>
      <path id="XMLID_1109_" d="M15.209,227.588a1.209,1.209,0,1,0-.855-.354A1.218,1.218,0,0,0,15.209,227.588Z" transform="translate(-14 -197.947)"/>
    </g>
  </g>
</svg>
