<svg xmlns="http://www.w3.org/2000/svg" xmlns:xlink="http://www.w3.org/1999/xlink" width="1240" height="420.727" viewBox="0 0 1240 420.727">
  <defs>
    <clipPath id="clip-path">
      <path id="Trazado_125855" data-name="Trazado 125855" d="M0,0H1240V420.727H0Z" transform="translate(180 5683.701)" fill="#f9f6ff"/>
    </clipPath>
  </defs>
  <g id="Enmascarar_grupo_438" data-name="Enmascarar grupo 438" transform="translate(-180 -5683.701)" clip-path="url(#clip-path)">
    <g id="Grupo_962859" data-name="Grupo 962859" transform="translate(0 -48)">
      <g id="Icon_feather-check-circle" data-name="Icon feather-check-circle" transform="translate(237.081 5901.081)">
        <path id="Trazado_122863" data-name="Trazado 122863" d="M16.839,9.278v.637a6.92,6.92,0,1,1-4.1-6.324" transform="translate(-3 -2.991)" fill="none" stroke="#764cf0" stroke-linecap="round" stroke-linejoin="round" stroke-width="2"/>
        <path id="Trazado_122864" data-name="Trazado 122864" d="M22.5,6l-6.92,6.926L13.5,10.851" transform="translate(-8.656 -4.612)" fill="none" stroke="#764cf0" stroke-linecap="round" stroke-linejoin="round" stroke-width="2"/>
      </g>
      <g id="Icon_feather-check-circle-2" data-name="Icon feather-check-circle" transform="translate(237.081 5925.541)">
        <path id="Trazado_122863-2" data-name="Trazado 122863" d="M16.839,9.278v.637a6.92,6.92,0,1,1-4.1-6.324" transform="translate(-3 -2.991)" fill="none" stroke="#764cf0" stroke-linecap="round" stroke-linejoin="round" stroke-width="2"/>
        <path id="Trazado_122864-2" data-name="Trazado 122864" d="M22.5,6l-6.92,6.926L13.5,10.851" transform="translate(-8.656 -4.612)" fill="none" stroke="#764cf0" stroke-linecap="round" stroke-linejoin="round" stroke-width="2"/>
      </g>
      <g id="Icon_feather-check-circle-3" data-name="Icon feather-check-circle" transform="translate(237.081 5953.543)">
        <path id="Trazado_122863-3" data-name="Trazado 122863" d="M16.839,9.278v.637a6.92,6.92,0,1,1-4.1-6.324" transform="translate(-3 -2.991)" fill="none" stroke="#764cf0" stroke-linecap="round" stroke-linejoin="round" stroke-width="2"/>
        <path id="Trazado_122864-3" data-name="Trazado 122864" d="M22.5,6l-6.92,6.926L13.5,10.851" transform="translate(-8.656 -4.612)" fill="none" stroke="#764cf0" stroke-linecap="round" stroke-linejoin="round" stroke-width="2"/>
      </g>
      <g id="Icon_feather-check-circle-4" data-name="Icon feather-check-circle" transform="translate(237.081 5978.011)">
        <path id="Trazado_122863-4" data-name="Trazado 122863" d="M16.839,9.278v.637a6.92,6.92,0,1,1-4.1-6.324" transform="translate(-3 -2.991)" fill="none" stroke="#764cf0" stroke-linecap="round" stroke-linejoin="round" stroke-width="2"/>
        <path id="Trazado_122864-4" data-name="Trazado 122864" d="M22.5,6l-6.92,6.926L13.5,10.851" transform="translate(-8.656 -4.612)" fill="none" stroke="#764cf0" stroke-linecap="round" stroke-linejoin="round" stroke-width="2"/>
      </g>
      <g id="Icon_feather-check-circle-5" data-name="Icon feather-check-circle" transform="translate(237.081 6006.014)">
        <path id="Trazado_122863-5" data-name="Trazado 122863" d="M16.839,9.278v.637a6.92,6.92,0,1,1-4.1-6.324" transform="translate(-3 -2.991)" fill="none" stroke="#764cf0" stroke-linecap="round" stroke-linejoin="round" stroke-width="2"/>
        <path id="Trazado_122864-5" data-name="Trazado 122864" d="M22.5,6l-6.92,6.926L13.5,10.851" transform="translate(-8.656 -4.612)" fill="none" stroke="#764cf0" stroke-linecap="round" stroke-linejoin="round" stroke-width="2"/>
      </g>
      <g id="Icon_feather-check-circle-6" data-name="Icon feather-check-circle" transform="translate(237.081 6030.481)">
        <path id="Trazado_122863-6" data-name="Trazado 122863" d="M16.839,9.278v.637a6.92,6.92,0,1,1-4.1-6.324" transform="translate(-3 -2.991)" fill="none" stroke="#764cf0" stroke-linecap="round" stroke-linejoin="round" stroke-width="2"/>
        <path id="Trazado_122864-6" data-name="Trazado 122864" d="M22.5,6l-6.92,6.926L13.5,10.851" transform="translate(-8.656 -4.612)" fill="none" stroke="#764cf0" stroke-linecap="round" stroke-linejoin="round" stroke-width="2"/>
      </g>
      <g id="Icon_feather-check-circle-7" data-name="Icon feather-check-circle" transform="translate(237.081 6056.281)">
        <path id="Trazado_122863-7" data-name="Trazado 122863" d="M16.839,9.278v.637a6.92,6.92,0,1,1-4.1-6.324" transform="translate(-3 -2.991)" fill="none" stroke="#764cf0" stroke-linecap="round" stroke-linejoin="round" stroke-width="2"/>
        <path id="Trazado_122864-7" data-name="Trazado 122864" d="M22.5,6l-6.92,6.926L13.5,10.851" transform="translate(-8.656 -4.612)" fill="none" stroke="#764cf0" stroke-linecap="round" stroke-linejoin="round" stroke-width="2"/>
      </g>
      <g id="Icon_feather-check-circle-8" data-name="Icon feather-check-circle" transform="translate(237.081 6083.081)">
        <path id="Trazado_122863-8" data-name="Trazado 122863" d="M16.839,9.278v.637a6.92,6.92,0,1,1-4.1-6.324" transform="translate(-3 -2.991)" fill="none" stroke="#764cf0" stroke-linecap="round" stroke-linejoin="round" stroke-width="2"/>
        <path id="Trazado_122864-8" data-name="Trazado 122864" d="M22.5,6l-6.92,6.926L13.5,10.851" transform="translate(-8.656 -4.612)" fill="none" stroke="#764cf0" stroke-linecap="round" stroke-linejoin="round" stroke-width="2"/>
      </g>
      <text id="Metaverso_NFT_s_realidad_virtual_y_realidad_aumentada._Redes_sociales_Marketing_enfocado_en_personas_Personalización_de_contenido_Search_Engine_Optimization_SEO_Video_Marketing_Marketing_de_influencers_Mobile_Marketing_" data-name="Metaverso, NFT’s, realidad virtual y realidad aumentada.
Redes sociales
Marketing enfocado en personas 
Personalización de contenido 
Search Engine Optimization (SEO)
Video Marketing
Marketing de influencers 
Mobile Marketing 

" transform="translate(262 5896)" fill="#12263f" font-size="16" font-family="Roboto-Regular, Roboto"><tspan x="0" y="17">Metaverso, NFT’s, realidad virtual y realidad aumentada.</tspan><tspan x="0" y="43">Redes sociales</tspan><tspan x="0" y="69">Marketing enfocado en personas </tspan><tspan x="0" y="95">Personalización de contenido </tspan><tspan x="0" y="121">Search Engine Optimization (SEO)</tspan><tspan x="0" y="147">Video Marketing</tspan><tspan x="0" y="173">Marketing de influencers </tspan><tspan x="0" y="199">Mobile Marketing </tspan></text>
    </g>
    <rect id="Rectángulo_34610" data-name="Rectángulo 34610" width="1240" height="420.727" transform="translate(180 5683.701)" fill="#f9f6ff"/>
    <path id="Trazado_125847" data-name="Trazado 125847" d="M141.979,203.582c25.39,21.682,57.988,39.608,79.168,63.209,37.036,41.3,33.463,92.554,38.873,140.586,2.229,19.953,6.627,40.424,16.639,59.153A111.64,111.64,0,0,0,304.9,500.761c25.371,20.648,61.663,32.965,100.329,40.982,15.647,3.253,31.688,5.8,47.542,7.921A1224.82,1224.82,0,0,0,796.14,546.52V53.89H89.089C75.008,105.8,93.2,161.933,141.979,203.582Z" transform="translate(651.314 5629.811)" fill="#fff" opacity="0.3"/>
    <path id="Trazado_125854" data-name="Trazado 125854" d="M640.5,156.052c-24.763,22.14-56.575,40.422-77.221,64.535-36.1,42.191-32.505,94.661-37.692,143.811-2.137,20.418-6.391,41.361-16.135,60.509a112.657,112.657,0,0,1-27.523,34.979c-24.746,21.082-60.18,33.616-97.942,41.744-15.281,3.3-30.949,5.871-46.434,8.012a1143.119,1143.119,0,0,1-335.5-3.907L1.044,1.53,691.868,2.95C705.732,56.109,688.077,113.522,640.5,156.052Z" transform="matrix(0.087, -0.996, 0.996, 0.087, -27.002, 6406.417)" fill="#fff" opacity="0.3"/>
    <g id="Grupo_98826" data-name="Grupo 98826" transform="translate(155.656 5588.516)" opacity="0.15">
      <path id="Trazado_125852" data-name="Trazado 125852" d="M158.154,193.193c-6.807-3.192-13.648-6.283-20.448-9.349-34.033-15.347-69.218-31.221-95.26-59.106A143.357,143.357,0,0,1,5.734,46.1,140.625,140.625,0,0,1,7.158-.1l-5.09.052A145.741,145.741,0,0,0,.779,46.864c4.024,30.545,17.519,59.451,38,81.383,26.71,28.594,62.351,44.675,96.815,60.219,7.488,3.379,15.026,6.775,22.5,10.331Z" transform="translate(1295.751 382.414) rotate(60)" fill="#764cf0" opacity="0.56"/>
      <ellipse id="Elipse_5892" data-name="Elipse 5892" cx="41.46" cy="40.501" rx="41.46" ry="40.501" transform="translate(1228.459 248.182)" fill="#764cf0"/>
      <path id="Trazado_125857" data-name="Trazado 125857" d="M21.04.277A21.025,21.025,0,0,1,42.067,20.9,20.37,20.37,0,0,1,21.311,41.26,21.025,21.025,0,0,1,.283,20.633,20.37,20.37,0,0,1,21.04.277Z" transform="translate(656.773 288.704) rotate(-17.032)" fill="#a488f5"/>
      <path id="Trazado_125858" data-name="Trazado 125858" d="M44.156.582C68.372.74,88.13,20.121,88.287,43.872S68.941,86.749,44.725,86.592.751,67.053.594,43.3,19.94.425,44.156.582Z" transform="translate(756.251 501.52) rotate(-17.032)" fill="#a488f5"/>
      <path id="Trazado_125859" data-name="Trazado 125859" d="M17.484,1.307l104.047.95a16.539,16.539,0,0,1,16.44,16.206l.95,102.553a15.821,15.821,0,0,1-16.142,15.908l-104.047-.95a16.539,16.539,0,0,1-16.44-16.206L1.342,17.216A15.821,15.821,0,0,1,17.484,1.307Z" transform="translate(1146.317 57.846) rotate(-25.905)" fill="#a488f5"/>
      <path id="Trazado_125860" data-name="Trazado 125860" d="M9.22.334,26.444.491A9.1,9.1,0,0,1,35.486,9.4l.157,16.976a8.7,8.7,0,0,1-8.878,8.75L9.541,34.974A9.1,9.1,0,0,1,.5,26.06L.342,9.084A8.7,8.7,0,0,1,9.22.334Z" transform="translate(797.166 263.134) rotate(-25.905)" fill="#a488f5"/>
      <path id="Trazado_125861" data-name="Trazado 125861" d="M10.209-.148,48.541-.423A10.017,10.017,0,0,1,58.753,9.6l-.275,37.634a10.373,10.373,0,0,1-10.36,10.172l-38.332.275A10.017,10.017,0,0,1-.426,47.658l.275-37.633A10.374,10.374,0,0,1,10.209-.148Z" transform="matrix(0.945, 0.327, -0.327, 0.945, 1062.749, 154.226)" fill="#a488f5"/>
      <path id="Trazado_125862" data-name="Trazado 125862" d="M10.209-.148,34.957-.326A10.017,10.017,0,0,1,45.169,9.7L44.991,34a10.374,10.374,0,0,1-10.36,10.172l-24.748.177A10.017,10.017,0,0,1-.328,34.321l.177-24.3A10.374,10.374,0,0,1,10.209-.148Z" transform="matrix(0.945, 0.327, -0.327, 0.945, 15.255, 114.85)" fill="#a488f5"/>
      <path id="Trazado_125863" data-name="Trazado 125863" d="M10.887.062A10.808,10.808,0,0,1,21.772,10.7a10.661,10.661,0,0,1-10.824,10.58A10.808,10.808,0,0,1,.064,10.642,10.661,10.661,0,0,1,10.887.062Z" transform="translate(1120.996 272.674) rotate(-7.036)" fill="none" stroke="#fff" stroke-width="1" style="mix-blend-mode: overlay;isolation: isolate"/>
      <path id="Trazado_125853" data-name="Trazado 125853" d="M589.994-187.2A10.735,10.735,0,0,0,579.137-197.8,10.735,10.735,0,0,0,568.278-187.2a10.734,10.734,0,0,0,10.859,10.606A10.734,10.734,0,0,0,589.994-187.2Z" transform="translate(465.095 304.747)" fill="none" stroke="#d1c3fa" stroke-miterlimit="10" stroke-width="1" style="mix-blend-mode: multiply;isolation: isolate"/>
      <ellipse id="Elipse_5895" data-name="Elipse 5895" cx="17.855" cy="17.442" rx="17.855" ry="17.442" transform="translate(836.834 75.12)" fill="none" stroke="#d1c3fa" stroke-miterlimit="10" stroke-width="1" style="mix-blend-mode: multiply;isolation: isolate"/>
      <path id="Trazado_125864" data-name="Trazado 125864" d="M29.841.317C46.229.4,59.583,13.483,59.669,29.532s-13.129,28.99-29.517,28.9S.41,45.271.324,29.221,13.454.231,29.841.317Z" transform="translate(1171.852 170.939) rotate(-13.448)" fill="none" stroke="#e8e1fc" stroke-width="1" style="mix-blend-mode: multiply;isolation: isolate"/>
    </g>
    <g id="Grupo_98827" data-name="Grupo 98827" transform="matrix(0.087, -0.996, 0.996, 0.087, -117.719, 6363.281)" opacity="0.15">
      <path id="Trazado_125852-2" data-name="Trazado 125852" d="M1.108,268.442c9.291-4.467,18.628-8.795,27.909-13.088,46.447-21.489,94.468-43.717,130.187-82.361,27.14-29.365,45.176-67.93,50.781-108.572A195.32,195.32,0,0,0,208.554.9l6.922.014a202.461,202.461,0,0,1,1.24,64.5c-5.806,42.056-24.474,81.964-52.563,112.359-36.635,39.628-85.278,62.144-132.313,83.91-10.22,4.732-20.507,9.487-30.715,14.462Z" transform="translate(167.738 142.423)" fill="#8d6af2"/>
      <path id="Trazado_125856" data-name="Trazado 125856" d="M-6.29,262.407c9.461-4.545,18.965-8.953,28.413-13.326,47.282-21.889,96.166-44.53,132.828-83.231A203.8,203.8,0,0,0,207.8,57.807a188.491,188.491,0,0,0-.583-62.775l7-.082A195.432,195.432,0,0,1,214.6,58.7a210.971,210.971,0,0,1-54.7,111.811c-37.6,39.686-87.119,62.62-135,84.792-10.4,4.82-20.876,9.663-31.271,14.723Z" transform="translate(156.859 831.524) rotate(-50)" fill="#8d6af2"/>
      <path id="Trazado_125865" data-name="Trazado 125865" d="M40.594.173C62.966.219,81.139,18.815,81.185,41.709S63.133,83.124,40.76,83.078.215,64.436.169,41.542,18.222.127,40.594.173Z" transform="translate(13.112 248.43)" fill="#8d6af2"/>
      <path id="Trazado_125866" data-name="Trazado 125866" d="M43.433.738C67.215.934,86.652,20.7,86.847,44.882S67.921,88.515,44.139,88.32.921,68.361.726,44.176,19.651.543,43.433.738Z" transform="translate(337.051 151.423) rotate(-162.968)" fill="#8d6af2"/>
      <path id="Trazado_125867" data-name="Trazado 125867" d="M17.391,1.5,120.121,2.568A16.583,16.583,0,0,1,136.372,19l1.065,103.871a15.778,15.778,0,0,1-15.918,16.1L18.79,137.9A16.583,16.583,0,0,1,2.539,121.47L1.474,17.6A15.778,15.778,0,0,1,17.391,1.5Z" transform="translate(121.607 187.289) rotate(-154.095)" fill="#8d6af2"/>
      <path id="Trazado_125868" data-name="Trazado 125868" d="M9.131.383,26.137.559A9.121,9.121,0,0,1,35.075,9.6l.176,17.194A8.678,8.678,0,0,1,26.5,35.644L9.491,35.467A9.121,9.121,0,0,1,.553,26.431L.376,9.236A8.678,8.678,0,0,1,9.131.383Z" transform="translate(441.808 297.934) rotate(-154.095)" fill="#8d6af2"/>
      <path id="Trazado_125869" data-name="Trazado 125869" d="M10.03-.116l37.591-.21A10.059,10.059,0,0,1,57.652,9.915l-.21,38.374A10.331,10.331,0,0,1,47.3,58.643l-37.591.21A10.059,10.059,0,0,1-.323,48.612l.21-38.374A10.331,10.331,0,0,1,10.03-.116Z" transform="matrix(-0.945, 0.327, -0.327, -0.945, 299.983, 479.479)" fill="#8d6af2"/>
      <path id="Trazado_125870" data-name="Trazado 125870" d="M5.836-.067,34.254-.226a5.853,5.853,0,0,1,5.837,5.959l-.159,29.01a6.011,6.011,0,0,1-5.9,6.025l-28.418.159A5.853,5.853,0,0,1-.225,34.967l.159-29.01A6.011,6.011,0,0,1,5.836-.067Z" transform="matrix(-0.945, 0.327, -0.327, -0.945, 446.51, 778.326)" fill="#8d6af2"/>
      <path id="Trazado_125871" data-name="Trazado 125871" d="M10.03-.116l37.591-.21A10.059,10.059,0,0,1,57.652,9.915l-.21,38.374A10.331,10.331,0,0,1,47.3,58.643l-37.591.21A10.059,10.059,0,0,1-.323,48.612l.21-38.374A10.331,10.331,0,0,1,10.03-.116Z" transform="matrix(-0.945, 0.327, -0.327, -0.945, 216.266, 209.411)" fill="#8d6af2"/>
      <path id="Trazado_125872" data-name="Trazado 125872" d="M10.03-.116,34.3-.251A10.059,10.059,0,0,1,44.331,9.99L44.2,34.765A10.331,10.331,0,0,1,34.052,45.119l-24.27.136A10.059,10.059,0,0,1-.249,35.013l.136-24.775A10.331,10.331,0,0,1,10.03-.116Z" transform="matrix(-0.945, 0.327, -0.327, -0.945, 592.293, 122.326)" fill="#8d6af2"/>
      <path id="Trazado_125873" data-name="Trazado 125873" d="M10.671.107a10.859,10.859,0,0,1,10.669,10.9A10.611,10.611,0,0,1,10.773,21.8,10.859,10.859,0,0,1,.1,10.9,10.611,10.611,0,0,1,10.671.107Z" transform="translate(138.095 296.463) rotate(-172.964)" fill="#8d6af2" stroke="#fff" stroke-width="1" style="mix-blend-mode: overlay;isolation: isolate"/>
      <path id="Trazado_125853-2" data-name="Trazado 125853" d="M.044,10.88A10.683,10.683,0,0,1,10.631.045,10.788,10.788,0,0,1,21.262,10.924,10.682,10.682,0,0,1,10.674,21.757,10.787,10.787,0,0,1,.044,10.88Z" transform="translate(204.672 105.314)" fill="#8d6af2" stroke="#d1c3fa" stroke-miterlimit="10" stroke-width="1" style="mix-blend-mode: multiply;isolation: isolate"/>
      <path id="Trazado_125874" data-name="Trazado 125874" d="M17.482.075A17.739,17.739,0,0,1,34.964,17.962a17.566,17.566,0,0,1-17.41,17.816A17.739,17.739,0,0,1,.073,17.891,17.566,17.566,0,0,1,17.482.075Z" transform="translate(382.947 73.095)" fill="#8d6af2" stroke="#d1c3fa" stroke-width="1" style="mix-blend-mode: multiply;isolation: isolate"/>
      <path id="Trazado_125875" data-name="Trazado 125875" d="M29.307.431C45.374.545,58.491,13.908,58.6,30.278A28.877,28.877,0,0,1,29.72,59.712C13.653,59.6.536,46.235.423,29.865A28.877,28.877,0,0,1,29.307.431Z" transform="translate(77.318 228.745) rotate(-166.552)" fill="#8d6af2" stroke="#e8e1fc" stroke-width="1" style="mix-blend-mode: multiply;isolation: isolate"/>
    </g>
  </g>
</svg>
