<svg xmlns="http://www.w3.org/2000/svg" width="113.5" height="106" viewBox="0 0 113.5 106">
  <g id="Grupo_963996" data-name="Grupo 963996" transform="translate(-180.333 -326)">
    <circle id="Elipse_5977" data-name="Elipse 5977" cx="53" cy="53" r="53" transform="translate(180.333 326)" fill="#ffd41c"/>
    <g id="ventas" transform="translate(188.833 346.821)">
      <path id="Trazado_124474" data-name="Trazado 124474" d="M73.378,85.8v0l-.013,0Zm-.237,60.851v0l-.027-.01Zm-.575-.239c-25.648-10.724-25.48-15.126-50.692-15.126-19.875,0-19.875-30.046,0-30.046,25.056,0,25.273-4.417,50.451-15C67.454,89,63.78,101.39,63.78,116.262c0,15.116,3.8,27.671,8.785,30.149Z" transform="translate(-5.511 -84.197)" fill="#77cedb" fill-rule="evenodd"/>
      <path id="Trazado_124475" data-name="Trazado 124475" d="M97.15,302.58l5.923,22.771,9.2.807-4.133-22.752a90.687,90.687,0,0,0-10.989-.825Z" transform="translate(-76.753 -255.448)" fill="#77cedb" fill-rule="evenodd"/>
      <path id="Trazado_657800" data-name="Trazado 657800" d="M10.594,0c5.851,0,10.594,13.7,10.594,30.595S16.445,61.189,10.594,61.189,0,47.492,0,30.595,4.743,0,10.594,0Z" transform="translate(58.267 1.47)" fill="#fcb13c"/>
      <path id="Trazado_124476" data-name="Trazado 124476" d="M68.9,139.359c2.233,0,4.4-3.045,6.108-7.968,4.039-11.663,4.039-30.653,0-42.314C73.3,84.154,71.13,81.108,68.9,81.108c-3.117,0-5.4,5.937-6.108,7.968a56.412,56.412,0,0,0-2.539,12.106h9.657c1.64,0,3.037,1.161,3.965,3.041a15.042,15.042,0,0,1,0,12.018c-.928,1.88-2.325,3.041-3.965,3.041H60.251a56.383,56.383,0,0,0,2.539,12.106C63.513,133.478,65.789,139.359,68.9,139.359Zm-41.148-12.19,1.624,7.343,2.319,1.3-1.521-8.37c-.775-.1-1.579-.193-2.422-.273Zm9.222,21.32a1.472,1.472,0,0,1-1.544,1.855l-9.2-.806v0a1.466,1.466,0,0,1-1.292-1.092L19.3,126.749c-.928-.015-1.892-.021-2.9-.021-21.82,0-21.82-32.987,0-32.987,18.132,0,23.015-2.352,34.207-7.739C53.435,84.639,65.869,78.17,68.9,78.17c3.619,0,6.746,3.8,8.876,9.955,4.266,12.32,4.266,31.9,0,44.221-2.13,6.15-5.257,9.955-8.876,9.955-3.234,0-15.384-6.4-18.55-7.92-6.555-3.163-10.9-5.261-17.113-6.448q1.868,10.277,3.736,20.555Zm-4.6-8.932,1.4,7.689L27.51,146.7l-5.167-19.871q1.222.044,2.354.111l1.955,8.848a1.467,1.467,0,0,0,.714.962l0,0Zm18.2-22.834a47.262,47.262,0,0,0,1.287,11.488,28.782,28.782,0,0,0,1.426,4.327q-.854-.41-1.659-.8c-9.014-4.35-14.015-6.763-24.764-7.6a9.466,9.466,0,0,1-4.6-2.065,9.137,9.137,0,0,1-2.686-4.379,1.465,1.465,0,0,0-2.8.851,12.253,12.253,0,0,0,3.064,5.278c-1.092-.019-2.235-.029-3.434-.029-17.922,0-17.924-27.106,0-27.106,2,0,3.833-.027,5.543-.084a15.686,15.686,0,0,0-3.222,3.875,22.092,22.092,0,0,0-2.659,11.858,1.465,1.465,0,0,0,2.93-.057,19.266,19.266,0,0,1,2.258-10.306A13.756,13.756,0,0,1,28.2,96.22c9.92-.947,14.952-3.371,23.681-7.574q1.15-.554,2.4-1.151a31.012,31.012,0,0,0-1.991,5.748,66.45,66.45,0,0,0-1.729,15.895,1.465,1.465,0,1,0,2.93-.01,63.367,63.367,0,0,1,1.649-15.172c.97-3.869,2.338-6.971,4.087-8.548a1.443,1.443,0,0,0,.3-.368q1.09-.5,2.26-1.023a29.437,29.437,0,0,0-1.756,4.112c-4.266,12.32-4.266,31.9,0,44.221a29.494,29.494,0,0,0,1.779,4.156c-1.367-.609-2.648-1.2-3.856-1.756q-.028-.041-.063-.082A18.738,18.738,0,0,1,54.7,127.5,44.409,44.409,0,0,1,53.5,116.739a1.465,1.465,0,0,0-2.93-.017Zm36.251,14.324a1.469,1.469,0,0,1,.758-2.837L97.2,131.5a1.469,1.469,0,0,1-.758,2.837Zm-.086-37.154a1.469,1.469,0,0,1-.758-2.837l12.65-3.273a1.469,1.469,0,1,1,.758,2.837Zm1.455,17.424a1.47,1.47,0,0,1,0-2.94h15.374a1.47,1.47,0,0,1,0,2.94Zm-22.2,5.028H59.986a86.625,86.625,0,0,1,0-12.221h6.007l-.05.1a15.042,15.042,0,0,0,0,12.018C65.959,116.277,65.976,116.311,65.993,116.344Zm5.251-10.823a12.232,12.232,0,0,1,0,9.422c-.428.865-.907,1.4-1.336,1.4s-.907-.536-1.336-1.4a12.232,12.232,0,0,1,0-9.422c.428-.865.907-1.4,1.336-1.4S70.815,104.659,71.244,105.522Z" transform="translate(-0.033 -78.17)" fill="#010101" fill-rule="evenodd"/>
    </g>
  </g>
</svg>
