<svg xmlns="http://www.w3.org/2000/svg" xmlns:xlink="http://www.w3.org/1999/xlink" width="112.778" height="144.299" viewBox="0 0 112.778 144.299">
  <defs>
    <linearGradient id="linear-gradient" x1="-50.226" y1="-1.231" x2="-50.628" y2="-0.174" gradientUnits="objectBoundingBox">
      <stop offset="0.076" stop-color="#fff"/>
      <stop offset="0.16" stop-color="#fff" stop-opacity="0.945"/>
      <stop offset="0.32" stop-color="#fff" stop-opacity="0.804"/>
      <stop offset="0.537" stop-color="#fff" stop-opacity="0.573"/>
      <stop offset="0.801" stop-color="#fff" stop-opacity="0.255"/>
      <stop offset="1" stop-color="#fff" stop-opacity="0"/>
    </linearGradient>
    <linearGradient id="linear-gradient-2" x1="-193.243" y1="-3.996" x2="-193.643" y2="-2.602" gradientUnits="objectBoundingBox">
      <stop offset="0.001" stop-color="#fff"/>
      <stop offset="0.878" stop-color="#ffc1ff"/>
      <stop offset="1" stop-color="#ffb9ff"/>
    </linearGradient>
    <linearGradient id="linear-gradient-3" x1="1.012" y1="2.397" x2="1.795" y2="3.34" gradientUnits="objectBoundingBox">
      <stop offset="0" stop-color="#f2f9ff"/>
      <stop offset="0.064" stop-color="#dbe9f5"/>
      <stop offset="0.088" stop-color="#d0e2f1"/>
      <stop offset="0.148" stop-color="#bdd6ea"/>
      <stop offset="0.217" stop-color="#b0cde5"/>
      <stop offset="0.305" stop-color="#a8c8e2"/>
      <stop offset="0.47" stop-color="#a6c7e2"/>
      <stop offset="0.769" stop-color="#a0c4df"/>
      <stop offset="0.874" stop-color="#88adcf"/>
      <stop offset="0.919" stop-color="#8aafd0"/>
      <stop offset="0.951" stop-color="#94b7d6"/>
      <stop offset="0.978" stop-color="#a3c4e0"/>
      <stop offset="0.982" stop-color="#a6c7e2"/>
    </linearGradient>
    <linearGradient id="linear-gradient-4" x1="6.025" y1="9.352" x2="4.884" y2="6.744" gradientUnits="objectBoundingBox">
      <stop offset="0" stop-color="#f2f9ff"/>
      <stop offset="0.017" stop-color="#eff7fe"/>
      <stop offset="0.024" stop-color="#e8f2fb"/>
      <stop offset="0.029" stop-color="#dceaf5"/>
      <stop offset="0.029" stop-color="#dbe9f5"/>
      <stop offset="0.154" stop-color="#d8e7f4"/>
      <stop offset="0.214" stop-color="#d1e2f1"/>
      <stop offset="0.26" stop-color="#c4daec"/>
      <stop offset="0.298" stop-color="#b1cee6"/>
      <stop offset="0.317" stop-color="#a6c7e2"/>
      <stop offset="0.769" stop-color="#a0c4df"/>
      <stop offset="0.874" stop-color="#88adcf"/>
      <stop offset="0.919" stop-color="#8aafd0"/>
      <stop offset="0.951" stop-color="#94b7d6"/>
      <stop offset="0.978" stop-color="#a3c4e0"/>
      <stop offset="0.982" stop-color="#a6c7e2"/>
    </linearGradient>
    <linearGradient id="linear-gradient-5" x1="-1.133" y1="-0.167" x2="-1.801" y2="0.597" gradientUnits="objectBoundingBox">
      <stop offset="0" stop-color="#f2f9ff"/>
      <stop offset="0.795" stop-color="#c0d6f2"/>
      <stop offset="0.999" stop-color="#b3cdec"/>
    </linearGradient>
    <linearGradient id="linear-gradient-6" x1="-1.195" y1="-0.188" x2="-1.765" y2="0.681" xlink:href="#linear-gradient-5"/>
    <radialGradient id="radial-gradient" cx="0.605" cy="1.138" r="1.121" gradientTransform="matrix(1.188, -0.137, 0.164, 0.991, -0.916, 0.261)" gradientUnits="objectBoundingBox">
      <stop offset="0.301" stop-color="#42c352"/>
      <stop offset="0.477" stop-color="#57ce5e"/>
      <stop offset="0.995" stop-color="#95ee81"/>
    </radialGradient>
  </defs>
  <g id="Grupo_963994" data-name="Grupo 963994" transform="translate(-1253.92 -368.722)">
    <g id="Grupo_962839" data-name="Grupo 962839" transform="translate(688.558 98)" style="isolation: isolate">
      <path id="Trazado_657879" data-name="Trazado 657879" d="M635.847,289.1l5.848-10.484c2.058-3.689,6.556-5.732,10.049-4.561l19.782,6.631c3.493,1.171,4.654,5.111,2.6,8.8l-5.847,10.484c-2.058,3.689-6.556,5.732-10.05,4.561L638.444,297.9C634.951,296.727,633.79,292.787,635.847,289.1Z" fill="#1377d4"/>
      <path id="Trazado_657880" data-name="Trazado 657880" d="M638.444,297.9l19.782,6.631c3.493,1.171,7.992-.872,10.05-4.561l5.847-10.484c2.058-3.689.9-7.629-2.6-8.8l-19.782-6.631c-3.493-1.171-7.991.872-10.049,4.561L635.847,289.1C633.79,292.787,634.951,296.727,638.444,297.9Zm-3.17-3.06a6.772,6.772,0,0,1,.636-5.7l5.848-10.484a9.552,9.552,0,0,1,7.585-4.848,6.572,6.572,0,0,1,2.38.32l19.782,6.631a5.066,5.066,0,0,1,3.193,2.993,6.777,6.777,0,0,1-.636,5.7l-5.848,10.484a9.551,9.551,0,0,1-7.585,4.848h0a6.57,6.57,0,0,1-2.379-.32l-19.782-6.631A5.067,5.067,0,0,1,635.274,294.837Z" fill="url(#linear-gradient)" style="mix-blend-mode: overlay;isolation: isolate"/>
      <g id="Grupo_962722" data-name="Grupo 962722" transform="translate(649.889 285.31)">
        <path id="Trazado_657881" data-name="Trazado 657881" d="M668.741,291.838a.323.323,0,0,1,.146.494l-4.96,8.892a.505.505,0,0,1-.564.257.29.29,0,0,1-.149-.111l-4.81-6.889c-.157-.222.045-.583.362-.649l9.77-2a.389.389,0,0,1,.2.008" transform="translate(-658.35 -291.82)" fill="url(#linear-gradient-2)"/>
      </g>
      <path id="Trazado_657882" data-name="Trazado 657882" d="M675.54,288.3l-.914-1.123c1.459,1.792,1.618,4.532.159,7.147l-5.847,10.484c-2.058,3.689-6.556,5.732-10.05,4.561l-19.782-6.631a5.245,5.245,0,0,1-2.437-1.653l.914,1.122a5.246,5.246,0,0,0,2.437,1.653l19.782,6.631c3.493,1.17,7.992-.873,10.05-4.561l5.848-10.484C677.158,292.831,677,290.09,675.54,288.3Z" transform="translate(-0.662 -4.84)" fill="#19499f"/>
    </g>
    <g id="Grupo_962842" data-name="Grupo 962842" transform="translate(1203.138 213.925)" style="isolation: isolate">
      <path id="Trazado_657873" data-name="Trazado 657873" d="M123.277,284.372l-6.265,4.752a23.982,23.982,0,0,1-4.264,2.58,29.094,29.094,0,0,1-17.328,2.039l6.265-4.752a29.093,29.093,0,0,0,17.328-2.039A23.98,23.98,0,0,0,123.277,284.372Zm-48.547.006L81,279.626c-.7-.533-1.4-1.089-2.079-1.657-.209-.173-.414-.351-.62-.528q-.718-.613-1.419-1.25c-.236-.215-.472-.43-.706-.649q-.709-.665-1.4-1.357c-.189-.189-.381-.373-.568-.565q-.954-.978-1.872-2c-.082-.091-.159-.187-.24-.279q-.79-.894-1.548-1.819c-.191-.234-.378-.473-.566-.709q-.588-.74-1.157-1.5-.295-.393-.584-.791-.565-.78-1.106-1.579c-.164-.241-.331-.479-.492-.722-.51-.772-1.008-1.552-1.484-2.346-.43-.717-.838-1.437-1.233-2.158-.121-.221-.237-.443-.355-.665q-.411-.772-.8-1.546c-.119-.24-.238-.481-.354-.721q-.4-.829-.765-1.659c-.079-.177-.163-.355-.239-.533q-.469-1.086-.888-2.171c-.064-.165-.12-.33-.182-.495q-.318-.849-.606-1.7c-.081-.24-.159-.479-.236-.718q-.249-.77-.472-1.538c-.066-.226-.133-.452-.2-.677-.187-.675-.362-1.349-.519-2.02-.01-.045-.023-.09-.034-.135-.166-.716-.311-1.429-.443-2.139-.04-.213-.073-.424-.11-.636q-.131-.761-.239-1.518c-.033-.235-.065-.469-.094-.7q-.1-.788-.167-1.568c-.016-.179-.037-.36-.051-.539q-.08-1.034-.113-2.053c0-.14,0-.278-.005-.418q-.017-.813,0-1.616c0-.22.012-.438.019-.657q.024-.705.073-1.4c.014-.208.028-.417.045-.624q.075-.868.187-1.719c.01-.072.016-.146.026-.217.088-.636.2-1.262.317-1.882.035-.18.076-.357.114-.536.094-.445.2-.886.307-1.322.07-.274.139-.548.216-.819.035-.124.069-.247.105-.37.133-.451.274-.9.426-1.338.017-.048.036-.1.052-.144.138-.394.285-.782.438-1.166.049-.123.1-.246.151-.368q.216-.522.451-1.031c.038-.082.074-.166.113-.248q.291-.614.61-1.207c.052-.1.108-.193.161-.291q.257-.466.532-.92c.064-.107.128-.214.194-.319.237-.38.481-.755.737-1.12l.049-.067c.242-.343.494-.677.751-1.006.078-.1.158-.2.237-.3q.337-.417.692-.818c.064-.072.126-.146.19-.217q.444-.49.914-.954c.074-.073.15-.143.225-.215q.38-.366.778-.716c.094-.083.188-.166.283-.247.34-.29.685-.574,1.043-.845l-6.265,4.752c-.358.271-.7.555-1.043.845-.1.082-.189.165-.284.247q-.4.35-.778.716c-.074.072-.151.142-.225.215q-.47.465-.914.954c-.065.072-.126.145-.19.217q-.355.4-.692.819c-.08.1-.159.2-.237.3-.258.329-.51.663-.751,1.006l-.049.067c-.255.365-.5.74-.737,1.12-.066.105-.13.212-.194.319q-.275.453-.532.92c-.054.1-.109.192-.161.29q-.318.594-.61,1.207c-.039.082-.075.166-.113.248q-.235.509-.452,1.031-.076.183-.15.368-.23.576-.438,1.166c-.017.048-.036.1-.052.144-.152.44-.293.887-.426,1.338-.036.123-.07.247-.105.37-.047.168-.1.333-.143.5-.028.1-.047.212-.074.317q-.166.654-.306,1.322c-.038.179-.079.356-.114.536-.121.619-.229,1.246-.317,1.882-.01.072-.016.145-.026.217q-.113.851-.187,1.72c-.018.207-.031.416-.045.624q-.049.7-.073,1.4c-.007.218-.015.437-.019.657q-.014.8,0,1.616c0,.14,0,.278.006.418q.031,1.019.113,2.054c.014.179.034.359.051.538q.07.781.167,1.568c.029.234.061.469.094.7q.106.756.239,1.518c.037.212.07.424.11.636.132.711.277,1.423.443,2.139.01.045.023.091.034.135.157.671.332,1.345.519,2.02.062.225.13.451.2.677q.224.767.472,1.538c.078.239.155.478.236.718q.287.848.607,1.7c.062.165.118.33.182.495q.418,1.086.888,2.171c.077.178.16.355.239.533q.369.83.766,1.659c.116.241.235.481.354.721q.385.775.8,1.546c.118.221.234.444.355.665.4.721.8,1.441,1.233,2.158.477.794.975,1.574,1.485,2.346.161.243.328.482.492.723q.543.8,1.105,1.578.29.4.584.792.567.758,1.157,1.5c.189.237.374.476.566.709q.758.924,1.547,1.817c.082.093.16.189.242.281q.915,1.023,1.871,2c.187.191.379.376.568.565q.69.689,1.4,1.356c.234.22.47.436.707.651.2.186.4.379.61.561.265.235.539.458.808.688.207.176.412.354.62.528C73.336,283.289,74.027,283.845,74.731,284.378Z" transform="translate(0 -7.681)" fill="url(#linear-gradient-3)"/>
      <path id="Trazado_657874" data-name="Trazado 657874" d="M116.97,382.9l-6.265,4.752,7.955,22.4,6.265-4.752Z" transform="translate(-35.973 -110.956)" fill="url(#linear-gradient-4)"/>
      <path id="Trazado_657875" data-name="Trazado 657875" d="M135.013,225.685c-6.308-10.508-15.385-18.9-25.555-23.639s-20.219-5.253-28.3-1.435c-16.657,7.867-19.615,31.9-6.6,53.586A63.032,63.032,0,0,0,90.4,271.946l7.954,22.4,12.735-13.035a29.094,29.094,0,0,0,17.328-2.039C145.068,271.407,148.027,247.363,135.013,225.685Z" transform="translate(-9.401)" fill="url(#linear-gradient-5)"/>
      <path id="Trazado_657876" data-name="Trazado 657876" d="M135.013,225.685c-6.308-10.508-15.385-18.9-25.555-23.639s-20.219-5.253-28.3-1.435c-16.657,7.867-19.615,31.9-6.6,53.586A63.032,63.032,0,0,0,90.4,271.946l7.954,22.4,12.735-13.035a29.094,29.094,0,0,0,17.328-2.039C145.068,271.407,148.027,247.363,135.013,225.685Zm-6.682,53.409a26.015,26.015,0,0,1-7.56,2.219,31.993,31.993,0,0,1-9.652-.2l-.1-.017L98.431,293.983l-7.869-22.159-.047-.035A63.011,63.011,0,0,1,74.726,254.1c-7.486-12.471-9.959-26.5-6.614-37.531,2.218-7.313,6.757-12.769,13.128-15.778a26.185,26.185,0,0,1,7.6-2.239c6.376-.882,13.475.388,20.531,3.674,10.136,4.721,19.181,13.089,25.469,23.563,7.485,12.468,9.957,26.5,6.611,37.531C139.238,270.631,134.7,276.087,128.331,279.094Z" transform="translate(-9.401)" fill="url(#linear-gradient-6)"/>
      <path id="Trazado_657877" data-name="Trazado 657877" d="M139.63,238.705a49.994,49.994,0,0,0-21.238-19.649c-8.452-3.937-16.8-4.36-23.517-1.2C81.024,224.4,78.565,244.383,89.381,262.4a52.142,52.142,0,0,0,14.291,15.575l1.342.957,4.7,13.256,7.559-7.73,1.343.274a24.64,24.64,0,0,0,15.531-1.487C147.994,276.711,150.453,256.729,139.63,238.705Z" transform="translate(-19.124 -10.614)" fill="url(#radial-gradient)"/>
      <path id="Trazado_657878" data-name="Trazado 657878" d="M151.059,288.907a12.749,12.749,0,0,0-2.367-4.879,5,5,0,0,0-2.133-.461c-1.051-.135-6.192-.76-7.085-.763a2.353,2.353,0,0,0-.96.129c-.319.151-.49.475-.438,1.169.086,1.222-.031,4.117-.078,4.977-.028.495-.167.8-.477.947a1.87,1.87,0,0,1-1.014.072,26.049,26.049,0,0,1-9-2.01,40.236,40.236,0,0,1-8.289-4.819,1.974,1.974,0,0,1-.874-2.163c.077-.6.068-1.5.1-2.256a7.8,7.8,0,0,0-.227-1.992,2.857,2.857,0,0,0-1.1-1.692c-.484-.4-4.874-4.571-6.711-6.2-1.549-1.368-2.164-1.123-2.722-.9-.325.13-.673.292-1.029.46l-.428.2a2.468,2.468,0,0,0-1.278,2.181c-.1,1.309-.621,4.609,2.282,9.44s8.418,8.23,9.191,8.708,11.768,8.426,21.805,8.741c5.568.175,7.826-.329,9.094-.928a11.161,11.161,0,0,0,1.446-.894C150.057,295.171,151.812,291.5,151.059,288.907Z" transform="translate(-32.46 -41.914)" fill="#fbfbfb"/>
    </g>
  </g>
</svg>
