<svg xmlns="http://www.w3.org/2000/svg" xmlns:xlink="http://www.w3.org/1999/xlink" width="52.098" height="52.098" viewBox="0 0 52.098 52.098">
  <defs>
    <radialGradient id="radial-gradient" cx="0.697" cy="0.171" r="0.8" gradientTransform="translate(0)" gradientUnits="objectBoundingBox">
      <stop offset="0" stop-color="#fff1bf"/>
      <stop offset="0.204" stop-color="#ffd640"/>
      <stop offset="0.866" stop-color="#e07612"/>
      <stop offset="1" stop-color="#ffa322"/>
    </radialGradient>
    <linearGradient id="linear-gradient" x1="0.408" y1="0.174" x2="0.643" y2="1.141" gradientUnits="objectBoundingBox">
      <stop offset="0" stop-color="#ff1212"/>
      <stop offset="1" stop-color="#a41f3c"/>
    </linearGradient>
  </defs>
  <g id="Grupo_80229" data-name="Grupo 80229" transform="translate(-307.238 -437.833)">
    <path id="Trazado_113573" data-name="Trazado 113573" d="M385.668,463.882a26.049,26.049,0,1,1-26.049-26.049A26.049,26.049,0,0,1,385.668,463.882Z" transform="translate(-26.332)" fill="url(#radial-gradient)"/>
    <g id="Grupo_80228" data-name="Grupo 80228" transform="translate(311.58 443.751)" style="isolation: isolate">
      <path id="Trazado_113574" data-name="Trazado 113574" d="M370.9,489.773c-7.921,6.9-17.374,6.4-22.987-1.215,2.013-4.639,5.677-6.92,11.2-6.976a14.805,14.805,0,0,1,12.476,7.47c-.207.215-.471.515-.69.72" transform="translate(-345.581 -467.15)" fill="url(#linear-gradient)"/>
      <path id="Trazado_113575" data-name="Trazado 113575" d="M356.051,452.844a2.785,2.785,0,0,1-1.009.944,34.327,34.327,0,0,0-4.582,2.968c-.817.61-1.246.3-1.123-.351.214-1.136,1.191-1.772,3.332-3.163-.3-.187-.7-.436-1-.63-.351-.445.93-1.739,1.851-2.046.157-.04.157-.04,2.487,1.226.412.293.206.784.046,1.052" transform="translate(-346.333 -450.555)" fill="#252c37"/>
      <path id="Trazado_113576" data-name="Trazado 113576" d="M399.2,453.223c-.137.358-.137.358-3.046,1.052.69.49,1.611,1.142,2.29,1.648,1.221,1.1.524,2.288-.547,2.305a1.741,1.741,0,0,1-.918-.259c-.05-.033-.116-.077-.163-.113-1.848-1.378-2.288-1.705-4.508-3.178-.8-.592-.787-1.381.021-1.877a47.868,47.868,0,0,1,4.992-1.2,1.519,1.519,0,0,1,.629.014c1.1.307,1.433,1.128,1.25,1.6" transform="translate(-369.009 -451.103)" fill="#252c37"/>
      <path id="Trazado_113577" data-name="Trazado 113577" d="M373.616,476.516a18.792,18.792,0,0,1-4.7,6.981c-3.151-4.836-6.65-6.93-12.479-7.466-4.961.22-8.56,1.455-11.174,6.919-2.639-4.152-3.165-9.311-1.043-10.222a37.089,37.089,0,0,1,11.935-1.524,70.356,70.356,0,0,1,16.421,2.183c1.936.614,1.541,1.723,1.043,3.129" transform="translate(-342.904 -461.598)" fill="#252c37"/>
    </g>
  </g>
</svg>
