<svg xmlns="http://www.w3.org/2000/svg" width="70.203" height="71.791" viewBox="0 0 70.203 71.791">
  <g id="Video_Promotion" transform="translate(-2.708 -2)">
    <g id="Grupo_95678" data-name="Grupo 95678" transform="translate(2.708 2)">
      <path id="Trazado_123387" data-name="Trazado 123387" d="M64.827,17.095a6.167,6.167,0,0,0,.782-3.47,6.4,6.4,0,0,0-.485-2.026,6.291,6.291,0,0,0-7.038-3.745L56.7,4.561a3.659,3.659,0,0,0-5.926-1.19l-8.734,8.59a2.067,2.067,0,0,0-.341-.187,2.4,2.4,0,0,0-1.773.022L31.41,15.4a5.022,5.022,0,0,0-2.016,1.52H26.817a6.486,6.486,0,0,0-6.476,6.476v4.119H9.558A6.491,6.491,0,0,0,3.071,34V59.08a6.489,6.489,0,0,0,6.487,6.476h1.267V71.25a2.5,2.5,0,0,0,4.02,1.982l9.946-7.676H44.462a6.487,6.487,0,0,0,6.476-6.476V57.119l7.148,5.518a2.5,2.5,0,0,0,4.02-1.982V54.961h1.267a6.492,6.492,0,0,0,6.487-6.488V23.394a6.459,6.459,0,0,0-5.033-6.3Zm2.831,31.378a4.289,4.289,0,0,1-4.284,4.285H61a1.1,1.1,0,0,0-1.1,1.1v6.8a.291.291,0,0,1-.474.231L49.187,52.978a1.114,1.114,0,0,0-.672-.22h-21.7a4.287,4.287,0,0,1-4.273-4.285V23.394a4.278,4.278,0,0,1,4.273-4.273h1.542a5.03,5.03,0,0,0,.308,3.029l3.436,8.14a5.129,5.129,0,0,0,6.333,2.9l5.232,6.454a4.01,4.01,0,1,0,6.245-5.034l-3.767-4.648,1.234-.517a2.158,2.158,0,0,0,.87-.684,1.7,1.7,0,0,0,.374-.595,1.169,1.169,0,0,0,.077-.209l12.336-.265a3.651,3.651,0,0,0,3.282-5.066L62.9,19.253c.649-.436,4.758.246,4.758,4.141ZM32.269,17.424l8.547-3.6c.158,0,5.8,13.449,5.771,13.5-.228.215-8.887,3.854-9.549,3.9a2.934,2.934,0,0,1-2.908-1.8l-3.436-8.14a2.946,2.946,0,0,1,1.575-3.866ZM54.661,5.408l7.633,18.074a1.445,1.445,0,0,1-1.311,2.005l-12.622.276L43.305,13.8l9.01-8.855a1.445,1.445,0,0,1,2.346.462Z" transform="translate(-2.663 -1.96)"/>
      <path id="Trazado_123388" data-name="Trazado 123388" d="M60.018,9.066a1.1,1.1,0,0,0,1.479.489L63.9,8.344a1.1,1.1,0,1,0-.99-1.968L60.507,7.587A1.1,1.1,0,0,0,60.018,9.066Z" transform="translate(4.254 -1.481)"/>
      <path id="Trazado_123389" data-name="Trazado 123389" d="M58.991,5.869l1.741-2.056A1.1,1.1,0,1,0,59.051,2.39L57.31,4.446a1.1,1.1,0,1,0,1.681,1.423Z" transform="translate(3.907 -2)"/>
      <path id="Trazado_123390" data-name="Trazado 123390" d="M64.933,11.843l-2.642-.531a1.1,1.1,0,1,0-.433,2.16L64.5,14a1.1,1.1,0,1,0,.433-2.16Z" transform="translate(4.385 -0.869)"/>
      <path id="Trazado_123391" data-name="Trazado 123391" d="M60.547,40.006H34.774v-.583a1.1,1.1,0,1,0-2.2,0v.583h-4.1a1.1,1.1,0,0,0,0,2.2h4.1v.583a1.1,1.1,0,1,0,2.2,0v-.583H60.547a1.1,1.1,0,0,0,0-2.2Z" transform="translate(0.295 2.422)"/>
      <path id="Trazado_123392" data-name="Trazado 123392" d="M11.233,20.044a8.531,8.531,0,1,0-8.525-8.536A8.541,8.541,0,0,0,11.233,20.044ZM9.415,9.4a1.08,1.08,0,0,1,1.729-.87l2.82,2.1a1.1,1.1,0,0,1,0,1.741l-2.82,2.114a1.083,1.083,0,0,1-1.729-.87Z" transform="translate(-2.708 -1.88)"/>
    </g>
  </g>
</svg>
