<svg xmlns="http://www.w3.org/2000/svg" width="56.197" height="56.197" viewBox="0 0 56.197 56.197">
  <g id="video_1_" data-name="video (1)" transform="translate(-1 -1)">
    <g id="Grupo_99007" data-name="Grupo 99007" transform="translate(1.906 1.906)">
      <g id="Grupo_98988" data-name="Grupo 98988" transform="translate(0 7.251)">
        <path id="Trazado_126267" data-name="Trazado 126267" d="M2,10H50.946V37.192H2Z" transform="translate(-2 -10)" fill="#96cc7f"/>
      </g>
      <g id="Grupo_98989" data-name="Grupo 98989" transform="translate(0 34.443)">
        <path id="Trazado_126268" data-name="Trazado 126268" d="M34.63,48.067V44.006a5.537,5.537,0,0,0-.571-2.438L33.271,40H2v9.064a1.818,1.818,0,0,0,1.813,1.813H35.419A5.368,5.368,0,0,1,34.63,48.067Z" transform="translate(-2 -40)" fill="#169b62"/>
      </g>
      <g id="Grupo_98990" data-name="Grupo 98990">
        <path id="Trazado_126269" data-name="Trazado 126269" d="M49.133,2H3.813A1.818,1.818,0,0,0,2,3.813V9.251H31a1.818,1.818,0,0,1,1.813-1.813H50.946V3.813A1.818,1.818,0,0,0,49.133,2Z" transform="translate(-2 -2)" fill="#b4dd7f"/>
      </g>
      <g id="Grupo_98991" data-name="Grupo 98991" transform="translate(34.443 48.946)">
        <path id="Trazado_126270" data-name="Trazado 126270" d="M54.5,61.438H40a9.022,9.022,0,0,1,1.5-4.985L41.813,56H52.69l.308.453A9.022,9.022,0,0,1,54.5,61.438Z" transform="translate(-40 -56)" fill="#169b62"/>
      </g>
      <g id="Grupo_98992" data-name="Grupo 98992" transform="translate(7.488 38.501)">
        <circle id="Elipse_5919" data-name="Elipse 5919" cx="1.574" cy="1.574" r="1.574" transform="translate(0 0)" fill="#ffe07d"/>
      </g>
      <g id="Grupo_98993" data-name="Grupo 98993" transform="translate(4.541 27.691)">
        <path id="Trazado_126271" data-name="Trazado 126271" d="M22.419,36.583l1.613-4.024V32.55c.381.073.8.163,1.215.245a6.612,6.612,0,0,1,5.321,6.5V39.3H7.01v-.018a6.62,6.62,0,0,1,5.321-6.49l1.224-.245v.009l1.613,4.024,3.626-1.813Z" transform="translate(-7.01 -32.55)" fill="#ffe07d"/>
      </g>
      <g id="Grupo_98994" data-name="Grupo 98994" transform="translate(16.324 27.183)">
        <path id="Trazado_126272" data-name="Trazado 126272" d="M25.249,32.507l-1.613,4.024L20.01,34.718,22.729,32V31.99s1.1.218,2.52.508Z" transform="translate(-20.01 -31.99)" fill="#ffd064"/>
      </g>
      <g id="Grupo_98995" data-name="Grupo 98995" transform="translate(11.085 27.183)">
        <path id="Trazado_126273" data-name="Trazado 126273" d="M19.469,34.718l-3.626,1.813L14.23,32.507V32.5l2.52-.508V32Z" transform="translate(-14.23 -31.99)" fill="#ffd064"/>
      </g>
      <g id="Grupo_98996" data-name="Grupo 98996" transform="translate(8.167 10.877)">
        <path id="Trazado_126274" data-name="Trazado 126274" d="M12.823,21.251a1.806,1.806,0,0,0-1.414.68l-.227-.915a5.345,5.345,0,0,1-.172-1.369A5.648,5.648,0,0,1,16.657,14h5.021a5.648,5.648,0,0,1,5.647,5.647,5.345,5.345,0,0,1-.172,1.369l-.227.915a1.806,1.806,0,0,0-1.414-.68H22.639A10.764,10.764,0,0,1,17.781,20.1l-1.024-.508a1.467,1.467,0,0,0-2.121,1.314v.344Z" transform="translate(-11.01 -14)" fill="#656d78"/>
      </g>
      <g id="Grupo_98997" data-name="Grupo 98997" transform="translate(29.005 5.438)">
        <path id="Trazado_126275" data-name="Trazado 126275" d="M57.566,8H35.813A1.818,1.818,0,0,0,34,9.813v14.5a1.818,1.818,0,0,0,1.813,1.813H57.566a1.818,1.818,0,0,0,1.813-1.813V9.813A1.818,1.818,0,0,0,57.566,8Z" transform="translate(-34 -8)" fill="#ffeaa7"/>
      </g>
      <g id="Grupo_98998" data-name="Grupo 98998" transform="translate(36.256 9.064)">
        <path id="Trazado_126276" data-name="Trazado 126276" d="M52.07,16.124a1.474,1.474,0,0,1,0,2.629l-7.949,3.97A1.467,1.467,0,0,1,42,21.408v-7.94a1.467,1.467,0,0,1,2.121-1.314Z" transform="translate(-42 -12)" fill="#35e298"/>
      </g>
      <g id="Grupo_98999" data-name="Grupo 98999" transform="translate(30.818 19.941)">
        <path id="Trazado_126277" data-name="Trazado 126277" d="M52.315,34.877l1.813.453.444.109A1.805,1.805,0,0,1,55.941,37.2v9.372a5.417,5.417,0,0,1-1.187,3.39L52.315,53H41.438L39,49.959a5.06,5.06,0,0,1-.4-.58,5.368,5.368,0,0,1-.789-2.81V42.509a5.537,5.537,0,0,0-.571-2.438L36.453,38.5l-.3-.6a1.467,1.467,0,0,1,1.314-2.121,3.961,3.961,0,0,1,3.97,3.97V25.813A1.818,1.818,0,0,1,43.251,24a1.826,1.826,0,0,1,1.813,1.813v7.251l3.626.906Z" transform="translate(-36 -24)" fill="#f0d0b4"/>
      </g>
      <g id="Grupo_99000" data-name="Grupo 99000" transform="translate(20.856 18.128)">
        <path id="Trazado_126278" data-name="Trazado 126278" d="M28.1,25.091a1.772,1.772,0,0,1-1.278.535H25.01V22h1.813a1.806,1.806,0,0,1,1.414.68,1.831,1.831,0,0,1,.4,1.133A1.809,1.809,0,0,1,28.1,25.091Z" transform="translate(-25.01 -22)" fill="#f0d0b4"/>
      </g>
      <g id="Grupo_99001" data-name="Grupo 99001" transform="translate(13.605 25.134)">
        <path id="Trazado_126279" data-name="Trazado 126279" d="M22.448,31.778v.009l-2.719,2.719L17.01,31.788v-.009l.517-2.048a3.579,3.579,0,0,0,1.3.236h1.813a3.579,3.579,0,0,0,1.3-.236Z" transform="translate(-17.01 -29.73)" fill="#f0d0b4"/>
      </g>
      <g id="Grupo_99002" data-name="Grupo 99002" transform="translate(11.792 16.315)">
        <path id="Trazado_126280" data-name="Trazado 126280" d="M24.074,21.813v3.626a3.631,3.631,0,0,1-2.329,3.381,3.579,3.579,0,0,1-1.3.236H18.636a3.579,3.579,0,0,1-1.3-.236,3.631,3.631,0,0,1-2.329-3.381v-3.97a1.467,1.467,0,0,1,2.121-1.314l1.024.508a10.764,10.764,0,0,0,4.858,1.151Z" transform="translate(-15.01 -20)" fill="#f0d0b4"/>
      </g>
      <g id="Grupo_99003" data-name="Grupo 99003" transform="translate(8.167 18.128)">
        <path id="Trazado_126281" data-name="Trazado 126281" d="M14.636,25.617v.009H12.823a1.772,1.772,0,0,1-1.278-.535,1.809,1.809,0,0,1-.535-1.278,1.831,1.831,0,0,1,.4-1.133A1.806,1.806,0,0,1,12.823,22h1.813Z" transform="translate(-11.01 -22)" fill="#f0d0b4"/>
      </g>
      <g id="Grupo_99004" data-name="Grupo 99004" transform="translate(18.128 3.626)">
        <path id="Trazado_126282" data-name="Trazado 126282" d="M22,6h3.626V9.626H22Z" transform="translate(-22 -6)" fill="#169b62"/>
      </g>
      <g id="Grupo_99005" data-name="Grupo 99005" transform="translate(10.877 3.626)">
        <path id="Trazado_126283" data-name="Trazado 126283" d="M14,6h3.626V9.626H14Z" transform="translate(-14 -6)" fill="#169b62"/>
      </g>
      <g id="Grupo_99006" data-name="Grupo 99006" transform="translate(3.626 3.626)">
        <path id="Trazado_126284" data-name="Trazado 126284" d="M6,6H9.626V9.626H6Z" transform="translate(-6 -6)" fill="#169b62"/>
      </g>
    </g>
    <g id="Grupo_99008" data-name="Grupo 99008" transform="translate(1 1)">
      <path id="Trazado_126285" data-name="Trazado 126285" d="M54.478,6.438H51.758V3.719A2.723,2.723,0,0,0,49.039,1H3.719A2.723,2.723,0,0,0,1,3.719V45.414a2.723,2.723,0,0,0,2.719,2.719H34.858c.057.079.1.167.163.244L37.043,50.9a9.85,9.85,0,0,0-1.6,5.386V57.2H51.758V56.29a9.85,9.85,0,0,0-1.6-5.386l2.022-2.528a6.371,6.371,0,0,0,1.39-3.964V35.046a2.707,2.707,0,0,0-1.813-2.553V26.379h2.719A2.723,2.723,0,0,0,57.2,23.66V9.158A2.723,2.723,0,0,0,54.478,6.438ZM3.719,2.813h45.32a.907.907,0,0,1,.906.906V6.438H32.724a2.716,2.716,0,0,0-2.552,1.813H24.566V4.626H19.128V8.251H17.315V4.626H11.877V8.251H10.064V4.626H4.626V8.251H2.813V3.719a.907.907,0,0,1,.906-.906Zm35.35,17.568V12.437a.56.56,0,0,1,.81-.5l7.943,3.972a.56.56,0,0,1,0,1l-7.944,3.972a.575.575,0,0,1-.81-.5ZM37.256,33.839a4.828,4.828,0,0,0-3.065-1.115,2.282,2.282,0,0,0-2.332,2.719H30.852a7.545,7.545,0,0,0-5.989-6.493l-3.172-.636-.2-.807a4.531,4.531,0,0,0,2.087-2.94h1a2.723,2.723,0,0,0,2.719-2.719,2.684,2.684,0,0,0-.334-1.277l.137-.547a6.552,6.552,0,0,0-6.359-8.146H15.722a6.555,6.555,0,0,0-6.359,8.145l.137.549a2.693,2.693,0,0,0-.333,1.276,2.723,2.723,0,0,0,2.719,2.719h1a4.529,4.529,0,0,0,2.087,2.939l-.2.807-3.18.635A7.546,7.546,0,0,0,5.6,35.442H2.813V10.064H30v13.6a2.723,2.723,0,0,0,2.719,2.719h4.532ZM12.792,22.754h-.906a.906.906,0,1,1,0-1.813h.906Zm.074-3.626h-.981a2.663,2.663,0,0,0-.823.141,4.7,4.7,0,0,1,4.659-5.579h5.017a4.7,4.7,0,0,1,4.66,5.579,2.663,2.663,0,0,0-.823-.141H21.7a10.014,10.014,0,0,1-4.459-1.052l-1.02-.51a2.4,2.4,0,0,0-1.061-.25,2.372,2.372,0,0,0-2.3,1.813Zm10.8,1.813h.906a.906.906,0,1,1,0,1.813h-.906Zm-9.064-1.253a.56.56,0,0,1,.81-.5l1.02.51a11.854,11.854,0,0,0,5.27,1.244h.151v2.71a2.723,2.723,0,0,1-2.719,2.719H17.324a2.723,2.723,0,0,1-2.719-2.719Zm6.649,10.387.969.194-.844,2.109-1.62-.809Zm-3.93-1.893h1.813a4.452,4.452,0,0,0,.635-.064l.175.7-1.717,1.717-1.717-1.717.175-.7a4.451,4.451,0,0,0,.635.064Zm-2.118,1.892L16.7,31.569l-1.62.809-.844-2.11Zm-2.777.556,1.7,4.252,4.1-2.051,4.1,2.051,1.7-4.25.475.1a5.724,5.724,0,0,1,4.514,4.716H7.433a5.725,5.725,0,0,1,4.515-4.717ZM8.251,8.251H6.438V6.438H8.251Zm7.251,0H13.69V6.438H15.5Zm7.251,0H20.941V6.438h1.813ZM3.719,46.32a.907.907,0,0,1-.906-.906V37.256h29.8l.535,1.07a4.557,4.557,0,0,1,.479,2.026v4.06a6.316,6.316,0,0,0,.309,1.907H3.719Zm33.588,9.064a8.053,8.053,0,0,1,1.305-3.572l.035-.053h9.907l.035.053a8.053,8.053,0,0,1,1.305,3.572ZM51.758,44.413a4.545,4.545,0,0,1-.993,2.831l-2.162,2.7h-10l-2.162-2.7a4.547,4.547,0,0,1-.993-2.831v-4.06a6.369,6.369,0,0,0-.67-2.837l-1.084-2.168a.561.561,0,0,1,.5-.811A3.069,3.069,0,0,1,37.256,37.6v4.186h1.813V23.66a.906.906,0,1,1,1.813,0V41.788h1.813V32.072l1.813.453v9.262H46.32V32.979l1.813.453v8.356h1.813v-7.9l1.126.282a.907.907,0,0,1,.687.88Zm-1.813-12.4L46.32,31.11l-1.813-.453L42.694,30.2V26.379h7.251Zm5.438-8.356a.907.907,0,0,1-.906.906H42.694V23.66a2.7,2.7,0,0,0-.7-1.807l6.643-3.321a2.374,2.374,0,0,0,0-4.246L40.69,10.314a2.374,2.374,0,0,0-3.434,2.123v7.944a2.355,2.355,0,0,0,.615,1.579,2.692,2.692,0,0,0-.615,1.7v.906H32.724a.907.907,0,0,1-.906-.906V9.158a.907.907,0,0,1,.906-.906H54.478a.907.907,0,0,1,.906.906Z" transform="translate(-1 -1)"/>
      <path id="Trazado_126286" data-name="Trazado 126286" d="M11.345,43a2.716,2.716,0,0,0-2.552,1.813H5v1.813H8.792a2.7,2.7,0,0,0,5.1,0H32.192V44.813H13.9A2.716,2.716,0,0,0,11.345,43Zm0,3.626a.906.906,0,1,1,.906-.906A.907.907,0,0,1,11.345,46.626Z" transform="translate(-1.374 -4.931)"/>
    </g>
  </g>
</svg>
