<svg xmlns="http://www.w3.org/2000/svg" width="59" height="54.347" viewBox="0 0 59 54.347">
  <g id="Grupo_99009" data-name="Grupo 99009" transform="translate(-609 -4185.5)">
    <path id="Trazado_126287" data-name="Trazado 126287" d="M28.389,63.808H8.923A2.923,2.923,0,0,1,6,60.885V30.923A2.923,2.923,0,0,1,8.923,28H60.077A2.923,2.923,0,0,1,63,30.923V60.885a2.923,2.923,0,0,1-2.923,2.923H36.925" transform="translate(604 4174.077)" fill="#169b62" stroke="#131313" stroke-width="2"/>
    <path id="Trazado_126288" data-name="Trazado 126288" d="M29.5,61.962h-13.3A2.192,2.192,0,0,1,14,59.769V34.192A2.192,2.192,0,0,1,16.192,32H55.654a2.192,2.192,0,0,1,2.192,2.192V59.769a2.192,2.192,0,0,1-2.192,2.192H39.266" transform="translate(601.846 4173)" fill="#35e298"/>
    <path id="Trazado_126289" data-name="Trazado 126289" d="M33.769,28H8.923A2.923,2.923,0,0,0,6,30.923V60.885a2.923,2.923,0,0,0,2.923,2.923H33.769Z" transform="translate(604 4174.077)" stroke="#1f1c1d" stroke-width="1" opacity="0.1"/>
    <path id="Trazado_126290" data-name="Trazado 126290" d="M31.668,48.917a.723.723,0,0,1-.365-.1l-4.226-2.447a.73.73,0,1,1,.732-1.264l4.226,2.447a.731.731,0,0,1-.367,1.363Z" transform="translate(598.424 4169.498)" fill="#c0feff" stroke="#231f20" stroke-width="1"/>
    <path id="Trazado_126291" data-name="Trazado 126291" d="M37.731,40.546A.731.731,0,0,1,37,39.815V23.731a.731.731,0,1,1,1.462,0V39.815A.731.731,0,0,1,37.731,40.546Z" transform="translate(595.654 4175.423)" fill="#c0feff" stroke="#231f20" stroke-width="1"/>
    <path id="Trazado_126292" data-name="Trazado 126292" d="M41.731,46.238a.73.73,0,0,1-.463-1.3l9.138-7.462a.731.731,0,0,1,.924,1.132l-9.138,7.462a.728.728,0,0,1-.462.164Z" transform="translate(594.577 4171.569)" fill="#c0feff" stroke="#231f20" stroke-width="1"/>
    <circle id="Elipse_5920" data-name="Elipse 5920" cx="4.291" cy="4.291" r="4.291" transform="translate(629.094 4215.03)" fill="#fff" stroke="#231f20" stroke-width="1"/>
    <path id="Trazado_126293" data-name="Trazado 126293" d="M78.462,55.5A1.461,1.461,0,0,1,77,54.038V47.462a1.462,1.462,0,0,1,2.923,0v6.577A1.461,1.461,0,0,1,78.462,55.5Z" transform="translate(584.885 4169.231)" fill="#fff" stroke="#231f20" stroke-width="1"/>
    <path id="Trazado_126294" data-name="Trazado 126294" d="M9.731,54.115A.731.731,0,0,1,9,53.385V49.731a.731.731,0,0,1,1.462,0v3.654A.731.731,0,0,1,9.731,54.115Z" transform="translate(603.192 4168.423)" fill="#fff" stroke="#231f20" stroke-width="1"/>
    <path id="Trazado_126295" data-name="Trazado 126295" d="M36,70h8.769v6.577H36Z" transform="translate(595.923 4162.77)" fill="#0e6540" stroke="#231f20" stroke-width="1"/>
    <path id="Trazado_126296" data-name="Trazado 126296" d="M40,59.525v-4" transform="translate(594.846 4166.667)" fill="none" stroke="#231f20" stroke-linecap="round" stroke-linejoin="round" stroke-miterlimit="10" stroke-width="2"/>
    <path id="Trazado_126297" data-name="Trazado 126297" d="M44,59.453V57.97" transform="translate(593.769 4166.008)" fill="none" stroke="#231f20" stroke-linecap="round" stroke-linejoin="round" stroke-miterlimit="10" stroke-width="2"/>
    <path id="Trazado_126298" data-name="Trazado 126298" d="M40,58.794V55.52" transform="translate(594.846 4166.667)" fill="none" stroke="#231f20" stroke-linecap="round" stroke-linejoin="round" stroke-miterlimit="10" stroke-width="2"/>
    <path id="Trazado_126299" data-name="Trazado 126299" d="M43.21,54.749v9.522H34.441c-.146-1.622-.709-3.932-2.821-4.765l-1.367-.336s-.643-3.785,2.9-2.4l1.286.475v-7.11a1.418,1.418,0,0,1,1.41-1.418h.1a1.418,1.418,0,0,1,1.41,1.418v2.821a1.416,1.416,0,0,1,1.41-1.41h.1a1.416,1.416,0,0,1,1.41,1.41v1.79a1.418,1.418,0,0,1,1.41-1.418h.1a1.418,1.418,0,0,1,1.41,1.418Z" transform="translate(597.483 4168.499)" fill="#f2d78c" stroke="#231f20" stroke-width="1"/>
    <path id="Trazado_126300" data-name="Trazado 126300" d="M42.077,19.154H27.462A1.461,1.461,0,0,1,26,17.692V7.462A1.461,1.461,0,0,1,27.462,6H42.077a1.461,1.461,0,0,1,1.462,1.462V17.692A1.461,1.461,0,0,1,42.077,19.154Z" transform="translate(598.615 4180)" fill="#138a57" stroke="#000" stroke-width="1"/>
    <path id="Trazado_126301" data-name="Trazado 126301" d="M34.769,6H27.462A1.461,1.461,0,0,0,26,7.462V17.692a1.461,1.461,0,0,0,1.462,1.462h7.308Z" transform="translate(598.615 4180)" stroke="#000" stroke-width="1" opacity="0.1"/>
    <path id="Trazado_126302" data-name="Trazado 126302" d="M36.115,17.106a7.727,7.727,0,0,0-5.115,0V11.06a5.559,5.559,0,0,1,5.115,0Z" transform="translate(597.269 4178.806)" fill="#ffec39"/>
    <path id="Trazado_126303" data-name="Trazado 126303" d="M38,17.106a7.727,7.727,0,0,1,5.115,0V11.06a5.559,5.559,0,0,0-5.115,0Z" transform="translate(595.385 4178.806)" fill="#ffcd38"/>
    <path id="Trazado_126304" data-name="Trazado 126304" d="M74.462,34.692h-19A1.461,1.461,0,0,1,54,33.231V24.462A1.461,1.461,0,0,1,55.462,23h19a1.461,1.461,0,0,1,1.462,1.462v8.769A1.461,1.461,0,0,1,74.462,34.692Z" transform="translate(591.077 4175.423)" fill="#ffcd38" stroke="#000" stroke-width="1"/>
    <path id="Trazado_126305" data-name="Trazado 126305" d="M62,28H72.231" transform="translate(588.923 4174.077)" fill="#fff" stroke="#231f20" stroke-linecap="round" stroke-linejoin="round" stroke-miterlimit="10" stroke-width="2"/>
    <path id="Trazado_126306" data-name="Trazado 126306" d="M62,34H72.231" transform="translate(588.923 4172.461)" fill="#fff" stroke="#231f20" stroke-linecap="round" stroke-linejoin="round" stroke-miterlimit="10" stroke-width="2"/>
    <circle id="Elipse_5921" data-name="Elipse 5921" cx="4.198" cy="4.198" r="4.198" transform="translate(618.163 4208.731)" fill="#ffcd38" stroke="#231f20" stroke-width="1"/>
    <path id="Trazado_126307" data-name="Trazado 126307" d="M64.962,23h-9.5A1.461,1.461,0,0,0,54,24.462v8.769a1.461,1.461,0,0,0,1.462,1.462h9.5Z" transform="translate(591.077 4175.423)" stroke="#000" stroke-width="1" opacity="0.1"/>
  </g>
</svg>
