<svg xmlns="http://www.w3.org/2000/svg" width="44.404" height="57" viewBox="0 0 44.404 57">
  <g id="objetivo_1_" data-name="objetivo (1)" transform="translate(-56.571)">
    <g id="Grupo_98950" data-name="Grupo 98950" transform="translate(61.342 4.434)">
      <path id="Trazado_126154" data-name="Trazado 126154" d="M116.856,39.825a17.431,17.431,0,1,0,17.431,17.431A17.432,17.432,0,0,0,116.856,39.825Zm0,31.263a13.832,13.832,0,1,1,13.832-13.832A13.848,13.848,0,0,1,116.856,71.088Z" transform="translate(-99.425 -39.825)" fill="#169b62"/>
    </g>
    <g id="Grupo_98951" data-name="Grupo 98951" transform="translate(61.342 17.366)">
      <path id="Trazado_126155" data-name="Trazado 126155" d="M103.024,160.491a13.772,13.772,0,0,1,.752-4.5h-3.763a17.522,17.522,0,0,0,0,9h3.763A13.772,13.772,0,0,1,103.024,160.491Z" transform="translate(-99.425 -155.993)" fill="#96cc7f"/>
    </g>
    <g id="Grupo_98952" data-name="Grupo 98952" transform="translate(74.274 4.434)">
      <path id="Trazado_126156" data-name="Trazado 126156" d="M215.593,40.412v3.763a13.838,13.838,0,0,1,9,0V40.412a17.522,17.522,0,0,0-9,0Z" transform="translate(-215.593 -39.825)" fill="#96cc7f"/>
    </g>
    <g id="Grupo_98953" data-name="Grupo 98953" transform="translate(91.854 17.366)">
      <path id="Trazado_126157" data-name="Trazado 126157" d="M374.251,160.491a13.772,13.772,0,0,1-.752,4.5h3.763a17.523,17.523,0,0,0,0-9H373.5A13.773,13.773,0,0,1,374.251,160.491Z" transform="translate(-373.499 -155.993)" fill="#96cc7f"/>
    </g>
    <g id="Grupo_98954" data-name="Grupo 98954" transform="translate(68.539 11.631)">
      <path id="Trazado_126158" data-name="Trazado 126158" d="M174.309,104.476a10.234,10.234,0,1,0,10.234,10.234A10.245,10.245,0,0,0,174.309,104.476Zm0,16.869a6.635,6.635,0,1,1,6.635-6.635A6.643,6.643,0,0,1,174.309,121.345Z" transform="translate(-164.075 -104.476)" fill="#35e298"/>
    </g>
    <g id="Grupo_98955" data-name="Grupo 98955" transform="translate(75.736 18.828)">
      <circle id="Elipse_5912" data-name="Elipse 5912" cx="3.036" cy="3.036" r="3.036" transform="translate(0)" fill="#96cc7f"/>
    </g>
    <g id="Grupo_98956" data-name="Grupo 98956" transform="translate(76.973 0.835)">
      <path id="Trazado_126159" data-name="Trazado 126159" d="M242.311,18.3h-1.35a1.125,1.125,0,0,1-1.125-1.125V8.625A1.125,1.125,0,0,1,240.962,7.5h1.35a1.125,1.125,0,0,1,1.125,1.125v8.547A1.125,1.125,0,0,1,242.311,18.3Z" transform="translate(-239.837 -7.5)" fill="#35e298"/>
    </g>
    <g id="Grupo_98957" data-name="Grupo 98957" transform="translate(57.743 20.065)">
      <path id="Trazado_126160" data-name="Trazado 126160" d="M77.9,181.362v1.35a1.125,1.125,0,0,1-1.125,1.125H68.225a1.125,1.125,0,0,1-1.125-1.125v-1.35a1.125,1.125,0,0,1,1.125-1.125h8.547A1.125,1.125,0,0,1,77.9,181.362Z" transform="translate(-67.1 -180.237)" fill="#35e298"/>
    </g>
    <g id="Grupo_98958" data-name="Grupo 98958" transform="translate(89.007 20.065)">
      <path id="Trazado_126161" data-name="Trazado 126161" d="M347.926,182.711v-1.35a1.125,1.125,0,0,1,1.125-1.125H357.6a1.125,1.125,0,0,1,1.125,1.125v1.35a1.125,1.125,0,0,1-1.125,1.125h-8.547A1.125,1.125,0,0,1,347.926,182.711Z" transform="translate(-347.926 -180.237)" fill="#35e298"/>
    </g>
    <g id="Grupo_98964" data-name="Grupo 98964" transform="translate(83.496 35.247)">
      <g id="Grupo_98959" data-name="Grupo 98959" transform="translate(13.045 16.644)">
        <path id="Trazado_126162" data-name="Trazado 126162" d="M415.606,466.114h3.6v4.273h-3.6Z" transform="translate(-415.606 -466.114)" fill="#f1d0a5"/>
      </g>
      <g id="Grupo_98960" data-name="Grupo 98960" transform="translate(4.161)">
        <circle id="Elipse_5913" data-name="Elipse 5913" cx="4.161" cy="4.161" r="4.161" fill="#f1d0a5"/>
      </g>
      <g id="Grupo_98961" data-name="Grupo 98961" transform="translate(4.64 0.479)">
        <path id="Trazado_126163" data-name="Trazado 126163" d="M345.728,320.915a4.161,4.161,0,0,1-5.62,5.62,4.161,4.161,0,1,0,5.62-5.62Z" transform="translate(-340.108 -320.915)" fill="#f1b986"/>
      </g>
      <g id="Grupo_98962" data-name="Grupo 98962" transform="translate(0 8.322)">
        <path id="Trazado_126164" data-name="Trazado 126164" d="M310.572,391.362h-7.647a4.5,4.5,0,0,0-4.5,4.5v3.824h3.6v4.273h9.447v-4.273h3.6V395.86A4.5,4.5,0,0,0,310.572,391.362Z" transform="translate(-298.426 -391.362)" fill="#ffe07d"/>
      </g>
      <g id="Grupo_98963" data-name="Grupo 98963" transform="translate(0 8.322)">
        <path id="Trazado_126165" data-name="Trazado 126165" d="M304.5,403.957V393.611a6.937,6.937,0,0,0-.374-2.249h-1.2a4.5,4.5,0,0,0-4.5,4.5v3.824h3.6v4.273Z" transform="translate(-298.427 -391.362)" fill="#ffd064"/>
      </g>
    </g>
    <g id="Grupo_98970" data-name="Grupo 98970" transform="translate(57.406 35.247)">
      <g id="Grupo_98965" data-name="Grupo 98965" transform="translate(0 16.644)">
        <path id="Trazado_126166" data-name="Trazado 126166" d="M0,0H3.6V4.273H0Z" transform="translate(3.599 4.273) rotate(180)" fill="#f1d0a5"/>
      </g>
      <g id="Grupo_98966" data-name="Grupo 98966" transform="translate(4.161)">
        <circle id="Elipse_5914" data-name="Elipse 5914" cx="4.161" cy="4.161" r="4.161" fill="#f1d0a5"/>
      </g>
      <g id="Grupo_98967" data-name="Grupo 98967" transform="translate(4.64 0.479)">
        <path id="Trazado_126167" data-name="Trazado 126167" d="M105.75,326.535a4.161,4.161,0,0,0,5.62-5.62,4.161,4.161,0,1,1-5.62,5.62Z" transform="translate(-105.75 -320.915)" fill="#f1b986"/>
      </g>
      <g id="Grupo_98968" data-name="Grupo 98968" transform="translate(0 8.322)">
        <path id="Trazado_126168" data-name="Trazado 126168" d="M68.567,391.362h7.647a4.5,4.5,0,0,1,4.5,4.5v3.824h-3.6v4.273H67.668v-4.273h-3.6V395.86A4.5,4.5,0,0,1,68.567,391.362Z" transform="translate(-64.069 -391.362)" fill="#ffe07d"/>
      </g>
      <g id="Grupo_98969" data-name="Grupo 98969" transform="translate(10.571 8.322)">
        <path id="Trazado_126169" data-name="Trazado 126169" d="M159.024,403.957V393.611a6.938,6.938,0,0,1,.374-2.249h1.2a4.5,4.5,0,0,1,4.5,4.5v3.824h-3.6v4.273Z" transform="translate(-159.024 -391.362)" fill="#ffd064"/>
      </g>
    </g>
    <g id="Grupo_98977" data-name="Grupo 98977" transform="translate(70.451 32.998)">
      <g id="Grupo_98971" data-name="Grupo 98971" transform="translate(13.045 16.644)">
        <path id="Trazado_126170" data-name="Trazado 126170" d="M298.427,445.911h3.6v6.523h-3.6Z" transform="translate(-298.427 -445.911)" fill="#f1d0a5"/>
      </g>
      <g id="Grupo_98972" data-name="Grupo 98972" transform="translate(0 16.644)">
        <path id="Trazado_126171" data-name="Trazado 126171" d="M0,0H3.6V6.523H0Z" transform="translate(3.599 6.523) rotate(180)" fill="#f1d0a5"/>
      </g>
      <g id="Grupo_98973" data-name="Grupo 98973" transform="translate(4.161)">
        <circle id="Elipse_5915" data-name="Elipse 5915" cx="4.161" cy="4.161" r="4.161" fill="#f1d0a5"/>
      </g>
      <g id="Grupo_98974" data-name="Grupo 98974" transform="translate(4.64 0.479)">
        <path id="Trazado_126172" data-name="Trazado 126172" d="M228.549,300.712a4.161,4.161,0,0,1-5.62,5.62,4.161,4.161,0,1,0,5.62-5.62Z" transform="translate(-222.929 -300.712)" fill="#f1b986"/>
      </g>
      <g id="Grupo_98975" data-name="Grupo 98975" transform="translate(0 8.322)">
        <path id="Trazado_126173" data-name="Trazado 126173" d="M193.394,371.159h-7.647a4.5,4.5,0,0,0-4.5,4.5v3.824h3.6V386h9.447v-6.523h3.6v-3.824A4.5,4.5,0,0,0,193.394,371.159Z" transform="translate(-181.249 -371.159)" fill="#35e298"/>
      </g>
      <g id="Grupo_98976" data-name="Grupo 98976" transform="translate(3.599 8.576)">
        <path id="Trazado_126174" data-name="Trazado 126174" d="M223.61,373.437a18.77,18.77,0,0,1-10.037,10.21v4.381h9.447v-6.523h3.6v-3.824A4.5,4.5,0,0,0,223.61,373.437Z" transform="translate(-213.573 -373.437)" fill="#2fd68f"/>
      </g>
    </g>
    <g id="Grupo_98978" data-name="Grupo 98978" transform="translate(56.571 0)">
      <path id="Trazado_126175" data-name="Trazado 126175" d="M196.37,144.24a7.47,7.47,0,1,0-7.47-7.47A7.479,7.479,0,0,0,196.37,144.24Zm0-13.27a5.8,5.8,0,1,1-5.8,5.8A5.807,5.807,0,0,1,196.37,130.97Z" transform="translate(-174.168 -114.905)"/>
      <path id="Trazado_126176" data-name="Trazado 126176" d="M225.1,169.37a3.871,3.871,0,1,0-3.871-3.871A3.876,3.876,0,0,0,225.1,169.37Zm0-6.073a2.2,2.2,0,1,1-2.2,2.2A2.2,2.2,0,0,1,225.1,163.3Z" transform="translate(-202.895 -143.634)"/>
      <path id="Trazado_126177" data-name="Trazado 126177" d="M100.975,48.068a5.34,5.34,0,0,0-5.334-5.334h-.1a4.992,4.992,0,0,0-3.5-8.316c.115-.122.23-.245.343-.371A18.106,18.106,0,0,0,96.85,24.5h1.828a1.962,1.962,0,0,0,1.96-1.96V21.19a1.962,1.962,0,0,0-1.96-1.96H96.849A18.273,18.273,0,0,0,81.407,3.789V1.96A1.962,1.962,0,0,0,79.448,0H78.1a1.962,1.962,0,0,0-1.96,1.96v1.83A18.273,18.273,0,0,0,60.7,19.23H58.868a1.962,1.962,0,0,0-1.96,1.96v1.35a1.962,1.962,0,0,0,1.96,1.96H60.7a18.105,18.105,0,0,0,4.467,9.548c.113.126.227.249.343.371A4.992,4.992,0,0,0,62,42.734h-.1a5.34,5.34,0,0,0-5.334,5.334v8.1a.835.835,0,0,0,.835.835h5.675a.835.835,0,0,0,0-1.67H61.839V49.642a.835.835,0,1,0-1.67,0v1.414H58.241V48.068A3.668,3.668,0,0,1,61.9,44.4h7.647c.085,0,.169,0,.253.01a5.318,5.318,0,0,0-.189,1.4v9.511H66.978a.835.835,0,0,0,0,1.67h23.25a.835.835,0,0,0,0-1.67h-2.3V45.818a5.323,5.323,0,0,0-.189-1.4c.084-.006.168-.01.253-.01h7.647A3.668,3.668,0,0,1,99.3,48.068v2.988H97.376V49.642a.835.835,0,1,0-1.67,0v5.688H94.124a.835.835,0,1,0,0,1.67h6.016a.835.835,0,0,0,.835-.835ZM60.169,52.726v2.6H58.241v-2.6ZM95.144,39.408a3.33,3.33,0,0,1-3.317,3.326h-.017a3.326,3.326,0,1,1,3.335-3.326Zm-11.406-1.7a4.961,4.961,0,0,0-.179-1.978A14.7,14.7,0,0,0,93.2,24.5h1.96A16.543,16.543,0,0,1,83.738,37.706Zm-4.965-25.24a9.4,9.4,0,1,1-9.4,9.4v0a9.409,9.409,0,0,1,9.4-9.4Zm2.634-1.96V9.138A13,13,0,0,1,91.5,19.23H90.131a1.954,1.954,0,0,0-.585.09,11.106,11.106,0,0,0-8.228-8.228A1.949,1.949,0,0,0,81.407,10.506Zm-.381,22.2a11.1,11.1,0,0,0,8.519-8.293,1.953,1.953,0,0,0,.585.09H91.5a12.958,12.958,0,0,1-8.693,9.72A5.03,5.03,0,0,0,81.026,32.7Zm-4.507,0a5.029,5.029,0,0,0-1.782,1.517,12.958,12.958,0,0,1-8.693-9.72h1.371A1.952,1.952,0,0,0,68,24.409,11.1,11.1,0,0,0,76.519,32.7Zm-1.072,4.457a3.326,3.326,0,1,1,3.326,3.326A3.33,3.33,0,0,1,75.447,37.159ZM98.968,21.19v1.35a.29.29,0,0,1-.29.29H90.131a.29.29,0,0,1-.29-.29V21.19a.29.29,0,0,1,.29-.29h8.547A.29.29,0,0,1,98.968,21.19ZM95.16,19.23H93.2A14.668,14.668,0,0,0,81.407,7.436V5.479A16.648,16.648,0,0,1,95.16,19.23ZM78.1,1.67h1.35a.29.29,0,0,1,.29.29V8.126s0,0,0,.006v2.374a.29.29,0,0,1-.29.29H78.1a.29.29,0,0,1-.29-.29V1.96a.29.29,0,0,1,.29-.29Zm-1.96,3.809V7.438a14.623,14.623,0,0,0-6.4,2.882.835.835,0,1,0,1.031,1.314,12.957,12.957,0,0,1,5.373-2.5v1.368a1.953,1.953,0,0,0,.089.585A11.106,11.106,0,0,0,68,19.32a1.952,1.952,0,0,0-.585-.089H66.046a12.991,12.991,0,0,1,2.186-4.961.835.835,0,0,0-1.353-.978,14.662,14.662,0,0,0-2.534,5.94H62.386A16.648,16.648,0,0,1,76.138,5.479ZM58.578,22.539V21.19a.29.29,0,0,1,.29-.29h8.547a.29.29,0,0,1,.29.29v1.35a.29.29,0,0,1-.29.29H58.868a.29.29,0,0,1-.29-.29Zm3.807,1.96h1.96a14.7,14.7,0,0,0,9.642,11.229,4.961,4.961,0,0,0-.179,1.978A16.543,16.543,0,0,1,62.385,24.5ZM62.4,39.408a3.326,3.326,0,1,1,3.335,3.326h-.017A3.33,3.33,0,0,1,62.4,39.408Zm7.15,3.326h-.1A4.985,4.985,0,0,0,70.574,38.2a18.17,18.17,0,0,0,3.847,1.413,5.025,5.025,0,0,0,.628.876h-.1a5.332,5.332,0,0,0-4.412,2.341,5.353,5.353,0,0,0-.986-.092Zm3.663,12.6H71.286V50.477h1.929Zm1.67-7.937a.835.835,0,1,0-1.67,0v1.414H71.286V45.818a3.667,3.667,0,0,1,3.663-3.663H82.6a3.667,3.667,0,0,1,3.663,3.663v2.989H84.331V47.393a.835.835,0,0,0-1.67,0v7.937H74.884V47.393ZM86.26,55.329H84.331V50.477H86.26Zm.749-12.5A5.332,5.332,0,0,0,82.6,40.485h-.1a5.02,5.02,0,0,0,.628-.876A18.164,18.164,0,0,0,86.972,38.2a4.985,4.985,0,0,0,1.123,4.538h-.1a5.353,5.353,0,0,0-.986.092Zm10.368,12.5v-2.6H99.3v2.6Z" transform="translate(-56.571 0)"/>
    </g>
  </g>
</svg>
