<svg xmlns="http://www.w3.org/2000/svg" width="85" height="69" viewBox="0 0 85 69">
  <g id="Grupo_962083" data-name="Grupo 962083" transform="translate(-179.5 -13189)">
    <rect id="Rectángulo_337757" data-name="Rectángulo 337757" width="85" height="69" transform="translate(179.5 13189)" fill="#d2c6f3"/>
    <g id="medios-de-comunicacion-social" transform="translate(194.5 13195)">
      <g id="Grupo_98571" data-name="Grupo 98571" transform="translate(30.928 30.928)">
        <path id="Trazado_125481" data-name="Trazado 125481" d="M11.33,0A11.33,11.33,0,1,1,0,11.33,11.33,11.33,0,0,1,11.33,0Z" fill="#4e7ee0"/>
      </g>
      <g id="Grupo_98572" data-name="Grupo 98572" transform="translate(30.928 2.413)">
        <circle id="Elipse_5881" data-name="Elipse 5881" cx="11.33" cy="11.33" r="11.33" transform="translate(0 0)" fill="#a488f5"/>
      </g>
      <g id="Grupo_98573" data-name="Grupo 98573" transform="translate(2.413 30.928)">
        <path id="Trazado_125480" data-name="Trazado 125480" d="M11.33,0A11.33,11.33,0,1,1,0,11.33,11.33,11.33,0,0,1,11.33,0Z" transform="translate(0)" fill="#a488f5"/>
      </g>
      <g id="Grupo_98574" data-name="Grupo 98574" transform="translate(8.52 37.055)">
        <path id="Trazado_125447" data-name="Trazado 125447" d="M42.294,182.577H35.6a2,2,0,0,1-2-2v-6.7a2,2,0,0,1,2-2h6.7a2,2,0,0,1,2,2v6.7A2,2,0,0,1,42.294,182.577Z" transform="translate(-33.599 -171.883)" fill="#f4efed"/>
      </g>
      <g id="Grupo_98575" data-name="Grupo 98575" transform="translate(2.413 2.413)">
        <circle id="Elipse_5883" data-name="Elipse 5883" cx="11.33" cy="11.33" r="11.33" transform="translate(0 0)" fill="#4e7ee0"/>
      </g>
      <g id="Grupo_98576" data-name="Grupo 98576" transform="translate(10.402 7.554)">
        <path id="Trazado_125448" data-name="Trazado 125448" d="M47.346,30.941H48.6V28.914H47.346a2.706,2.706,0,0,0-2.7,2.7v.974H42.716v2.027h1.927v6.275H46.67V34.617H48.6V32.59H46.67v-.974A.676.676,0,0,1,47.346,30.941Z" transform="translate(-42.716 -28.914)" fill="#f4efed"/>
      </g>
      <g id="Grupo_98577" data-name="Grupo 98577" transform="translate(9.989 7.141)">
        <path id="Trazado_125449" data-name="Trazado 125449" d="M45.083,39.717H43.056a.413.413,0,0,1-.413-.413V33.442H41.129a.413.413,0,0,1-.413-.413V31a.413.413,0,0,1,.413-.413h1.515v-.561a3.119,3.119,0,0,1,3.115-3.115h1.252a.413.413,0,0,1,.413.413v2.027a.413.413,0,0,1-.413.413H45.759a.263.263,0,0,0-.263.263v.561h1.515a.413.413,0,0,1,.413.413v2.027a.413.413,0,0,1-.413.413H45.5V39.3A.413.413,0,0,1,45.083,39.717Zm-1.614-.825h1.2V33.029a.413.413,0,0,1,.413-.413H46.6v-1.2H45.083A.413.413,0,0,1,44.67,31v-.974a1.09,1.09,0,0,1,1.088-1.088H46.6v-1.2h-.839a2.293,2.293,0,0,0-2.29,2.29V31a.413.413,0,0,1-.413.413H41.541v1.2h1.515a.413.413,0,0,1,.413.413v5.862Z" transform="translate(-40.716 -26.913)" fill="#690589"/>
      </g>
      <g id="Grupo_98578" data-name="Grupo 98578" transform="translate(41.258 2.413)">
        <path id="Trazado_125450" data-name="Trazado 125450" d="M193.25,4c-.337,0-.67.018-1,.046a11.327,11.327,0,0,1,0,22.567c.33.029.662.046,1,.046a11.33,11.33,0,1,0,0-22.66Z" transform="translate(-192.25 -4)" fill="#8d6af2"/>
      </g>
      <g id="Grupo_98579" data-name="Grupo 98579" transform="translate(41.258 30.928)">
        <path id="Trazado_125451" data-name="Trazado 125451" d="M193.25,142.188c-.337,0-.67.018-1,.046a11.327,11.327,0,0,1,0,22.567c.33.029.662.046,1,.046a11.33,11.33,0,1,0,0-22.66Z" transform="translate(-192.25 -142.188)" fill="#2f61c9"/>
      </g>
      <g id="Grupo_98580" data-name="Grupo 98580" transform="translate(2.413 30.928)">
        <path id="Trazado_125452" data-name="Trazado 125452" d="M15.33,164.848c.337,0,.67-.018,1-.046a11.327,11.327,0,0,1,0-22.567c-.33-.029-.662-.046-1-.046a11.33,11.33,0,0,0,0,22.66Z" transform="translate(-4 -142.188)" fill="#8d6af2"/>
      </g>
      <g id="Grupo_98581" data-name="Grupo 98581" transform="translate(2.413 2.413)">
        <path id="Trazado_125453" data-name="Trazado 125453" d="M15.33,26.66c.337,0,.67-.018,1-.046a11.327,11.327,0,0,1,0-22.567C16,4.018,15.667,4,15.33,4a11.33,11.33,0,0,0,0,22.66Z" transform="translate(-4 -4)" fill="#2f61c9"/>
      </g>
      <g id="Grupo_98582" data-name="Grupo 98582" transform="translate(36.581 9.388)">
        <path id="Trazado_125454" data-name="Trazado 125454" d="M169.586,45.634s2.327.277,3.2-.982a3.015,3.015,0,0,1-1.929-1.568h.669a3.978,3.978,0,0,1-1.62-2.288l.9.231a2.774,2.774,0,0,1-.283-3.034A6.114,6.114,0,0,0,175,40.409a2.354,2.354,0,0,1,4.114-1.826,2.986,2.986,0,0,0,1.466-.669l-.334,1.234.694.1a3.453,3.453,0,0,1-1.157,1.08C179.447,42.929,177.517,48.706,169.586,45.634Z" transform="translate(-169.586 -37.802)" fill="#f4efed"/>
      </g>
      <g id="Grupo_98583" data-name="Grupo 98583" transform="translate(36.169 8.974)">
        <path id="Trazado_125455" data-name="Trazado 125455" d="M172.094,45.334a11.892,11.892,0,0,1-4.244-.906.413.413,0,0,1,.2-.795,4.223,4.223,0,0,0,2.378-.4,3.637,3.637,0,0,1-1.526-1.56.412.412,0,0,1,.025-.4.421.421,0,0,1,.049-.063,4.312,4.312,0,0,1-1.053-1.9.413.413,0,0,1,.473-.506,3.57,3.57,0,0,1,.163-2.552.413.413,0,0,1,.346-.255.408.408,0,0,1,.385.192,5.636,5.636,0,0,0,3.676,2.175,2.58,2.58,0,0,1,1.415-2.229,2.881,2.881,0,0,1,3.258.407,2.589,2.589,0,0,0,1.05-.49.406.406,0,0,1,.5-.09.417.417,0,0,1,.2.477l-.213.786.235.035a.413.413,0,0,1,.291.625,3.894,3.894,0,0,1-1.127,1.117c-.2,1.323-.893,4.1-3.272,5.513a6.165,6.165,0,0,1-3.21.827Zm-1.989-1.066a6.366,6.366,0,0,0,4.776-.47c2.257-1.343,2.793-4.25,2.9-5.11a.412.412,0,0,1,.21-.309,2.78,2.78,0,0,0,.566-.42.413.413,0,0,1-.3-.509l.075-.278a6.1,6.1,0,0,1-.708.221.414.414,0,0,1-.39-.106,2.064,2.064,0,0,0-2.472-.428,1.743,1.743,0,0,0-.947,1.887.413.413,0,0,1-.422.486,6.886,6.886,0,0,1-4.292-1.948,2.151,2.151,0,0,0,.408,1.861.413.413,0,0,1-.395.691l-.138-.035a3.563,3.563,0,0,0,1.174,1.34.413.413,0,0,1-.111.753,2.252,2.252,0,0,0,1.237.763.413.413,0,0,1,.26.64,2.635,2.635,0,0,1-1.434.972Z" transform="translate(-167.586 -35.797)" fill="#690589"/>
      </g>
      <g id="Grupo_98584" data-name="Grupo 98584" transform="translate(2 30.515)">
        <path id="Trazado_125456" data-name="Trazado 125456" d="M13.743,163.673A11.743,11.743,0,1,1,25.485,151.93,11.756,11.756,0,0,1,13.743,163.673Zm0-22.66A10.917,10.917,0,1,0,24.659,151.93,10.929,10.929,0,0,0,13.743,141.013Z" transform="translate(-2 -140.188)" fill="#690589"/>
      </g>
      <g id="Grupo_98585" data-name="Grupo 98585" transform="translate(2 2)">
        <path id="Trazado_125457" data-name="Trazado 125457" d="M13.743,25.485A11.743,11.743,0,1,1,25.485,13.743,11.756,11.756,0,0,1,13.743,25.485Zm0-22.66A10.917,10.917,0,1,0,24.659,13.743,10.929,10.929,0,0,0,13.743,2.825Z" transform="translate(-2 -2)" fill="#690589"/>
      </g>
      <g id="Grupo_98586" data-name="Grupo 98586" transform="translate(3.764 11.078)">
        <path id="Trazado_125458" data-name="Trazado 125458" d="M10.96,49.3a.413.413,0,0,1-.413-.413,15.305,15.305,0,0,1,.213-2.545.413.413,0,1,1,.814.138,14.5,14.5,0,0,0-.2,2.407A.413.413,0,0,1,10.96,49.3Z" transform="translate(-10.547 -45.996)" fill="#690589"/>
      </g>
      <g id="Grupo_98587" data-name="Grupo 98587" transform="translate(30.515 2)">
        <path id="Trazado_125459" data-name="Trazado 125459" d="M151.931,25.485a11.743,11.743,0,1,1,11.743-11.743A11.756,11.756,0,0,1,151.931,25.485Zm0-22.66a10.917,10.917,0,1,0,10.917,10.917A10.929,10.929,0,0,0,151.931,2.825Z" transform="translate(-140.189 -2)" fill="#690589"/>
      </g>
      <g id="Grupo_98588" data-name="Grupo 98588" transform="translate(30.515 30.515)">
        <path id="Trazado_125460" data-name="Trazado 125460" d="M151.931,163.673a11.743,11.743,0,1,1,11.743-11.743A11.756,11.756,0,0,1,151.931,163.673Zm0-22.66a10.917,10.917,0,1,0,10.917,10.917A10.929,10.929,0,0,0,151.931,141.013Z" transform="translate(-140.189 -140.188)" fill="#690589"/>
      </g>
      <g id="Grupo_98589" data-name="Grupo 98589" transform="translate(38.414 36.21)">
        <path id="Trazado_125461" data-name="Trazado 125461" d="M183.805,177.483a.991.991,0,0,1-.991-.991v-3.329h3.1v-2.4h-3.1v-2.977h-2.4v1.532a1.446,1.446,0,0,1-1.446,1.446h-.5v2.4h1.948v3.981a2.738,2.738,0,0,0,2.738,2.738h.983a5.291,5.291,0,0,0,2.018-.4v-2.4a5.3,5.3,0,0,1-2.018.4h-.331Z" transform="translate(-178.467 -167.787)" fill="#f4efed"/>
      </g>
      <g id="Grupo_98590" data-name="Grupo 98590" transform="translate(38.001 35.797)">
        <path id="Trazado_125462" data-name="Trazado 125462" d="M182.549,178.707h-.983a3.154,3.154,0,0,1-3.151-3.151v-3.568H176.88a.413.413,0,0,1-.413-.413v-2.4a.413.413,0,0,1,.413-.413h.5a1.034,1.034,0,0,0,1.033-1.033V166.2a.413.413,0,0,1,.413-.413h2.4a.413.413,0,0,1,.413.413v2.565h2.686a.413.413,0,0,1,.413.413v2.4a.413.413,0,0,1-.413.413h-2.686V174.9a.579.579,0,0,0,.578.578h.331a4.855,4.855,0,0,0,1.861-.369.413.413,0,0,1,.57.382v2.4a.413.413,0,0,1-.255.382,5.679,5.679,0,0,1-2.176.431Zm-5.256-7.544h1.535a.413.413,0,0,1,.413.413v3.981a2.328,2.328,0,0,0,2.325,2.325h.983a4.855,4.855,0,0,0,1.605-.271v-1.532a5.677,5.677,0,0,1-1.605.23h-.331a1.405,1.405,0,0,1-1.4-1.4v-3.329a.413.413,0,0,1,.413-.413h2.686V169.59h-2.686a.413.413,0,0,1-.413-.413v-2.565h-1.573v1.119a1.86,1.86,0,0,1-1.858,1.858h-.09Z" transform="translate(-176.467 -165.787)" fill="#690589"/>
      </g>
      <g id="Grupo_98591" data-name="Grupo 98591" transform="translate(8.108 36.642)">
        <path id="Trazado_125463" data-name="Trazado 125463" d="M40.707,181.4h-6.7A2.415,2.415,0,0,1,31.6,178.99v-6.7a2.415,2.415,0,0,1,2.412-2.412h6.7a2.415,2.415,0,0,1,2.412,2.412v6.7A2.414,2.414,0,0,1,40.707,181.4Zm-6.7-10.694a1.588,1.588,0,0,0-1.586,1.586v6.7a1.588,1.588,0,0,0,1.586,1.586h6.7a1.588,1.588,0,0,0,1.586-1.586v-6.7a1.588,1.588,0,0,0-1.586-1.586Z" transform="translate(-31.599 -169.882)" fill="#690589"/>
      </g>
      <g id="Grupo_98592" data-name="Grupo 98592" transform="translate(11.011 39.546)">
        <path id="Trazado_125464" data-name="Trazado 125464" d="M48.526,189.667a2.856,2.856,0,1,1,2.856-2.856A2.859,2.859,0,0,1,48.526,189.667Zm0-4.887a2.031,2.031,0,1,0,2.031,2.031A2.033,2.033,0,0,0,48.526,184.779Z" transform="translate(-45.67 -183.954)" fill="#690589"/>
      </g>
      <g id="Grupo_98593" data-name="Grupo 98593" transform="translate(16.311 38.605)">
        <path id="Trazado_125465" data-name="Trazado 125465" d="M72.032,179.4a.677.677,0,1,1-.677.677A.677.677,0,0,1,72.032,179.4Z" transform="translate(-71.355 -179.395)" fill="#690589"/>
      </g>
      <g id="Grupo_98594" data-name="Grupo 98594" transform="translate(14.335 12.309)">
        <path id="Trazado_125466" data-name="Trazado 125466" d="M89.106,65.623A13.665,13.665,0,1,0,73.078,79.081l.642,1.113,1.721,2.981,1.721-2.981.642-1.113a13.666,13.666,0,0,0,11.3-13.457Z" transform="translate(-61.776 -51.958)" fill="#ffdb42"/>
      </g>
      <g id="Grupo_98596" data-name="Grupo 98596" transform="translate(26.811 12.309)">
        <g id="Grupo_98595" data-name="Grupo 98595">
          <path id="Trazado_125467" data-name="Trazado 125467" d="M123.427,51.958c-.4,0-.8.021-1.189.055a14.1,14.1,0,0,1,4.923,26.752,13.663,13.663,0,0,0-3.734-26.806Z" transform="translate(-122.238 -51.958)" fill="#dea42e"/>
        </g>
      </g>
      <g id="Grupo_98598" data-name="Grupo 98598" transform="translate(14.335 12.309)">
        <g id="Grupo_98597" data-name="Grupo 98597">
          <path id="Trazado_125468" data-name="Trazado 125468" d="M75.441,51.958c.4,0,.8.021,1.189.055a14.1,14.1,0,0,0-4.923,26.752,13.663,13.663,0,0,1,3.734-26.807Z" transform="translate(-61.776 -51.958)" fill="#fce06a"/>
        </g>
      </g>
      <g id="Grupo_98599" data-name="Grupo 98599" transform="translate(17.487 22.417)">
        <path id="Trazado_125469" data-name="Trazado 125469" d="M79.753,106.343h1.333v-5.4H79.753a2.7,2.7,0,0,0,0,5.4Z" transform="translate(-77.053 -100.943)" fill="#f4efed"/>
      </g>
      <g id="Grupo_98600" data-name="Grupo 98600" transform="translate(29.117 18.32)">
        <path id="Trazado_125470" data-name="Trazado 125470" d="M133.412,84.809l7.017-3.718V94.684l-7.017-3.718Z" transform="translate(-133.412 -81.091)" fill="#f4efed"/>
      </g>
      <g id="Grupo_98601" data-name="Grupo 98601" transform="translate(24.135 25.977)">
        <path id="Trazado_125471" data-name="Trazado 125471" d="M110.452,128.033a1.184,1.184,0,0,1-1.183-1.183v-8.655h2.367v8.655A1.184,1.184,0,0,1,110.452,128.033Z" transform="translate(-109.269 -118.195)" fill="#f4efed"/>
      </g>
      <g id="Grupo_98602" data-name="Grupo 98602" transform="translate(23.722 25.564)">
        <path id="Trazado_125472" data-name="Trazado 125472" d="M108.865,126.86a1.6,1.6,0,0,1-1.6-1.6v-8.655a.413.413,0,0,1,.413-.413h2.367a.413.413,0,0,1,.413.413v8.655A1.6,1.6,0,0,1,108.865,126.86Zm-.771-9.839v8.242a.771.771,0,1,0,1.541,0v-8.242Z" transform="translate(-107.269 -116.196)" fill="#690589"/>
      </g>
      <g id="Grupo_98603" data-name="Grupo 98603" transform="translate(21.52 21.095)">
        <path id="Trazado_125473" data-name="Trazado 125473" d="M103.075,102.582H97.712a1.117,1.117,0,0,1-1.117-1.117V95.656a1.117,1.117,0,0,1,1.117-1.117h5.363a1.117,1.117,0,0,1,1.117,1.117v5.809A1.117,1.117,0,0,1,103.075,102.582Z" transform="translate(-96.595 -94.539)" fill="#8852a8"/>
      </g>
      <g id="Grupo_98604" data-name="Grupo 98604" transform="translate(36.134 23.658)">
        <path id="Trazado_125474" data-name="Trazado 125474" d="M167.9,109.877h-.483V106.96h.483a1.458,1.458,0,1,1,0,2.917Z" transform="translate(-167.418 -106.96)" fill="#f4efed"/>
      </g>
      <g id="Grupo_98605" data-name="Grupo 98605" transform="translate(35.721 23.246)">
        <path id="Trazado_125475" data-name="Trazado 125475" d="M166.314,108.7h-.483a.413.413,0,0,1-.413-.413v-2.917a.413.413,0,0,1,.413-.413h.483a1.871,1.871,0,0,1,0,3.742Zm-.07-.825h.07a1.046,1.046,0,0,0,0-2.092h-.07Z" transform="translate(-165.418 -104.96)" fill="#690589"/>
      </g>
      <g id="Grupo_98606" data-name="Grupo 98606" transform="translate(28.704 17.908)">
        <path id="Trazado_125476" data-name="Trazado 125476" d="M138.842,93.509a.412.412,0,0,1-.193-.048l-7.017-3.718a.413.413,0,0,1-.219-.365V83.222a.413.413,0,0,1,.219-.365l7.017-3.718a.413.413,0,0,1,.606.365V93.1a.413.413,0,0,1-.413.413Zm-6.6-4.379,6.192,3.281V80.189l-6.192,3.281Z" transform="translate(-131.412 -79.091)" fill="#690589"/>
      </g>
      <g id="Grupo_98607" data-name="Grupo 98607" transform="translate(17.074 22.004)">
        <path id="Trazado_125477" data-name="Trazado 125477" d="M79.5,105.169H78.166a3.113,3.113,0,1,1,0-6.225H79.5a.413.413,0,0,1,.413.413v5.4A.413.413,0,0,1,79.5,105.169Zm-1.332-5.4a2.287,2.287,0,1,0,0,4.574h.92V99.769Z" transform="translate(-75.053 -98.944)" fill="#690589"/>
      </g>
      <g id="Grupo_98608" data-name="Grupo 98608" transform="translate(21.107 20.683)">
        <path id="Trazado_125478" data-name="Trazado 125478" d="M101.488,101.407H96.125a1.531,1.531,0,0,1-1.53-1.53V94.069a1.531,1.531,0,0,1,1.53-1.53h5.363a1.531,1.531,0,0,1,1.53,1.53v5.809A1.531,1.531,0,0,1,101.488,101.407Zm-5.363-8.043a.705.705,0,0,0-.7.7v5.809a.705.705,0,0,0,.7.7h5.363a.705.705,0,0,0,.7-.7V94.069a.705.705,0,0,0-.7-.7Z" transform="translate(-94.595 -92.539)" fill="#690589"/>
      </g>
      <g id="Grupo_98609" data-name="Grupo 98609" transform="translate(13.922 11.896)">
        <path id="Trazado_125479" data-name="Trazado 125479" d="M73.855,82a.412.412,0,0,1-.357-.206L71.23,77.865a14.078,14.078,0,1,1,5.25,0l-2.267,3.928a.414.414,0,0,1-.358.206Zm0-31.216a13.251,13.251,0,0,0-2.292,26.3.413.413,0,0,1,.287.2l2.006,3.474,2.006-3.474a.413.413,0,0,1,.287-.2,13.251,13.251,0,0,0-2.292-26.3Z" transform="translate(-59.777 -49.958)" fill="#690589"/>
      </g>
    </g>
  </g>
</svg>
