<svg xmlns="http://www.w3.org/2000/svg" xmlns:xlink="http://www.w3.org/1999/xlink" width="505" height="442.628" viewBox="0 0 505 442.628">
  <defs>
    <clipPath id="clip-path">
      <path id="Trazado_658639" data-name="Trazado 658639" d="M-492.351,328.892l-6.367,3.137-1.037.512a.013.013,0,0,0-.013.013l-.289.144h-.013l-8.414,4.148-21.646,10.672-3.728,1.838h-.013l-.092.053-21.948,10.83-58.677,28.932L-636.6,400.026l-11.21,5.526L-684.2,423.5l-2.127,1.063-1.181.578-25.007,12.326-16.33,8.06a29.359,29.359,0,0,1-4.332,1.707h-.013c-.2.066-.394.118-.591.171a18.865,18.865,0,0,1-1.851.433,5.078,5.078,0,0,1-.643.131,27.924,27.924,0,0,1-29.982-15.135l-10.016-20.307-8.756-17.761-9.95-20.163H-911.4l-26.424-37.753,108.843-31.19-9.95-20.176-6.655-13.494L-895.428,309.5l-42.392-87.916,58.58-17.826-1-2.035-.683-1.378-1.982-4a27.105,27.105,0,0,1-1.641-4.161c-.052-.131-.092-.263-.131-.381v-.013a28.59,28.59,0,0,1-.787-3.544,26.39,26.39,0,0,1-.289-2.862c-.538-10.79-35.949-18.417-25.645-23.5,0,0-29.358-39.169-29.358-74.3S-911.4,21.37-911.4,21.37l126.525,6.272,34.629,72.105,14.374-7.089.354-.171-14.728-25.681,21.4-39.165,95.131,14.636A27.941,27.941,0,0,1-596.29,54.985l43.345,87.9,3.085,6.235,1.654,3.347.394.788v.039l1.011,2.035,3.229,6.55v.013l2.192,4.437.853,1.733,3.045,6.17,2.022,4.109.276.564v.013l18.273,37.018.63,1.273.092.2,1,2.008,6.8,13.8v.013l28.735,58.244A27.947,27.947,0,0,1-492.351,328.892Z" transform="translate(1202.49 -1483.902)" fill="#ffd41c"/>
    </clipPath>
  </defs>
  <g id="Grupo_963733" data-name="Grupo 963733" transform="translate(-915 -10248.472)">
    <g id="Grupo_963732" data-name="Grupo 963732" transform="translate(653.265 11711.004)">
      <g id="Grupo_963731" data-name="Grupo 963731">
        <path id="Trazado_125426" data-name="Trazado 125426" d="M-492.351,328.892l-6.367,3.137-1.037.512a.013.013,0,0,0-.013.013l-.289.144h-.013l-8.414,4.148-21.646,10.672-3.728,1.838h-.013l-.092.053-21.948,10.83-58.677,28.932L-636.6,400.026l-11.21,5.526L-684.2,423.5l-2.127,1.063-1.181.578-25.007,12.326-16.33,8.06a29.359,29.359,0,0,1-4.332,1.707h-.013c-.2.066-.394.118-.591.171a18.865,18.865,0,0,1-1.851.433,5.078,5.078,0,0,1-.643.131,27.924,27.924,0,0,1-29.982-15.135l-10.016-20.307-8.756-17.761-9.95-20.163-12.838-26.044-11.447-23.2-9.714-19.7-9.95-20.176-6.655-13.494-24.862-50.407-.131-.263-8.664-17.564-1-2.035-.683-1.378-1.982-4a27.105,27.105,0,0,1-1.641-4.161c-.052-.131-.092-.263-.131-.381v-.013a28.59,28.59,0,0,1-.787-3.544,26.39,26.39,0,0,1-.289-2.862A27.932,27.932,0,0,1-870.2,158.924l3.872-1.917,8.375-4.122.8-.407,7.18-3.531.2-.092.341-.171h.013l1.076-.551h.013l9.058-4.463,61.92-30.546,4.332-2.14,3.466-1.707,19.31-9.53,14.374-7.089.354-.171.669-.328,7.509-3.7,93.621-46.181A27.941,27.941,0,0,1-596.29,54.985l43.345,87.9,3.085,6.235,1.654,3.347.394.788v.039l1.011,2.035,3.229,6.55v.013l2.192,4.437.853,1.733,3.045,6.17,2.022,4.109.276.564v.013l18.273,37.018.63,1.273.092.2,1,2.008,6.8,13.8v.013l28.735,58.244A27.947,27.947,0,0,1-492.351,328.892Z" transform="translate(1202.49 -1483.902)" fill="#ffd41c"/>
        <path id="Trazado_125427" data-name="Trazado 125427" d="M-585.715,272.83a162.488,162.488,0,0,1-30.034,94.383l-114.257,56.354a27.936,27.936,0,0,1-37.412-12.694L-882.082,178.382A163.053,163.053,0,0,1-748.935,109.61,163.222,163.222,0,0,1-585.715,272.83Z" transform="translate(1203.648 -1461.945)" fill="#21155c"/>
        <g id="Grupo_963711" data-name="Grupo 963711" transform="translate(-23.166 11.439)">
          <g id="Grupo_98195" data-name="Grupo 98195" transform="translate(638.817 -1237.05)">
            <g id="Grupo_98179" data-name="Grupo 98179">
              <rect id="Rectángulo_35696" data-name="Rectángulo 35696" width="151.085" height="31.699" rx="7.798" fill="#26d19e"/>
            </g>
            <g id="Grupo_98182" data-name="Grupo 98182" transform="translate(13.506 4.669)">
              <g id="Grupo_98180" data-name="Grupo 98180">
                <path id="Trazado_125462" data-name="Trazado 125462" d="M-618.87,201.249l3.3,5.811a.154.154,0,0,0,.1.074l6.567,1.356a.506.506,0,0,1,.28.862l-4.61,4.862a.149.149,0,0,0-.04.131l1.154,6.778a.506.506,0,0,1-.734.532l-6.4-3.256a.154.154,0,0,0-.14,0l-6.271,3.256a.5.5,0,0,1-.733-.532l1.062-6.764a.155.155,0,0,0-.04-.129l-4.649-4.878a.506.506,0,0,1,.281-.862l6.613-1.356a.158.158,0,0,0,.1-.075l3.25-5.81A.505.505,0,0,1-618.87,201.249Z" transform="translate(630.177 -200.968)" fill="#764cf0"/>
              </g>
              <g id="Grupo_98181" data-name="Grupo 98181" transform="translate(3.074 6.876)">
                <path id="Trazado_125463" data-name="Trazado 125463" d="M-627.714,207.257a.134.134,0,0,1-.132-.107.135.135,0,0,1,.1-.16l3.917-.814a.137.137,0,0,1,.16.106.134.134,0,0,1-.1.158l-3.919.814Z" transform="translate(627.849 -206.174)" fill="#764cf0"/>
              </g>
            </g>
            <g id="Grupo_98185" data-name="Grupo 98185" transform="translate(39.098 4.669)">
              <g id="Grupo_98183" data-name="Grupo 98183">
                <path id="Trazado_125464" data-name="Trazado 125464" d="M-599.494,201.249l3.3,5.811a.15.15,0,0,0,.1.074l6.566,1.356a.505.505,0,0,1,.28.862l-4.61,4.862a.152.152,0,0,0-.04.131l1.154,6.778a.5.5,0,0,1-.733.532l-6.4-3.256a.154.154,0,0,0-.14,0l-6.271,3.256a.5.5,0,0,1-.733-.532l1.062-6.764a.155.155,0,0,0-.041-.129l-4.648-4.878a.506.506,0,0,1,.28-.862l6.613-1.356a.155.155,0,0,0,.1-.075l3.252-5.81A.505.505,0,0,1-599.494,201.249Z" transform="translate(610.801 -200.968)" fill="#764cf0"/>
              </g>
              <g id="Grupo_98184" data-name="Grupo 98184" transform="translate(3.073 6.876)">
                <path id="Trazado_125465" data-name="Trazado 125465" d="M-608.339,207.257a.135.135,0,0,1-.132-.107.136.136,0,0,1,.106-.16l3.917-.814a.135.135,0,0,1,.159.106.133.133,0,0,1-.1.158l-3.918.814Z" transform="translate(608.474 -206.174)" fill="#764cf0"/>
              </g>
            </g>
            <g id="Grupo_98188" data-name="Grupo 98188" transform="translate(64.689 4.669)">
              <g id="Grupo_98186" data-name="Grupo 98186">
                <path id="Trazado_125466" data-name="Trazado 125466" d="M-580.119,201.249l3.3,5.811a.157.157,0,0,0,.1.074l6.567,1.356a.506.506,0,0,1,.28.862l-4.609,4.862a.152.152,0,0,0-.04.131l1.154,6.778a.506.506,0,0,1-.734.532l-6.4-3.256a.151.151,0,0,0-.139,0l-6.272,3.256a.505.505,0,0,1-.733-.532l1.062-6.764a.155.155,0,0,0-.04-.129l-4.648-4.878a.506.506,0,0,1,.28-.862l6.613-1.356a.158.158,0,0,0,.1-.075l3.25-5.81A.505.505,0,0,1-580.119,201.249Z" transform="translate(591.425 -200.968)" fill="#764cf0"/>
              </g>
              <g id="Grupo_98187" data-name="Grupo 98187" transform="translate(3.073 6.876)">
                <path id="Trazado_125467" data-name="Trazado 125467" d="M-588.963,207.257a.134.134,0,0,1-.132-.107.136.136,0,0,1,.1-.16l3.917-.814a.136.136,0,0,1,.16.106.134.134,0,0,1-.106.158l-3.916.814Z" transform="translate(589.098 -206.174)" fill="#764cf0"/>
              </g>
            </g>
            <g id="Grupo_98191" data-name="Grupo 98191" transform="translate(90.279 4.669)">
              <g id="Grupo_98189" data-name="Grupo 98189">
                <path id="Trazado_125468" data-name="Trazado 125468" d="M-560.743,201.249l3.3,5.811a.151.151,0,0,0,.1.074l6.566,1.356a.506.506,0,0,1,.281.862l-4.611,4.862a.153.153,0,0,0-.04.131l1.154,6.778a.5.5,0,0,1-.733.532l-6.4-3.256a.154.154,0,0,0-.14,0l-6.271,3.256a.5.5,0,0,1-.733-.532l1.062-6.764a.155.155,0,0,0-.041-.129l-4.648-4.878a.506.506,0,0,1,.28-.862l6.615-1.356a.152.152,0,0,0,.1-.075l3.252-5.81A.505.505,0,0,1-560.743,201.249Z" transform="translate(572.05 -200.968)" fill="#764cf0"/>
              </g>
              <g id="Grupo_98190" data-name="Grupo 98190" transform="translate(3.074 6.876)">
                <path id="Trazado_125469" data-name="Trazado 125469" d="M-569.588,207.257a.135.135,0,0,1-.132-.107.137.137,0,0,1,.106-.16l3.918-.814a.136.136,0,0,1,.16.106.135.135,0,0,1-.106.158l-3.917.814Z" transform="translate(569.723 -206.174)" fill="#764cf0"/>
              </g>
            </g>
            <g id="Grupo_98194" data-name="Grupo 98194" transform="translate(115.871 4.669)">
              <g id="Grupo_98192" data-name="Grupo 98192">
                <path id="Trazado_125470" data-name="Trazado 125470" d="M-541.367,201.249l3.3,5.811a.157.157,0,0,0,.1.074l6.567,1.356a.506.506,0,0,1,.28.862l-4.61,4.862a.153.153,0,0,0-.04.131l1.154,6.778a.505.505,0,0,1-.733.532l-6.4-3.256a.151.151,0,0,0-.139,0l-6.272,3.256a.505.505,0,0,1-.733-.532l1.062-6.764a.151.151,0,0,0-.04-.129l-4.648-4.878a.506.506,0,0,1,.28-.862l6.613-1.356a.158.158,0,0,0,.1-.075l3.251-5.81A.506.506,0,0,1-541.367,201.249Z" transform="translate(552.674 -200.968)" fill="#764cf0"/>
              </g>
              <g id="Grupo_98193" data-name="Grupo 98193" transform="translate(3.073 6.876)">
                <path id="Trazado_125471" data-name="Trazado 125471" d="M-550.212,207.257a.135.135,0,0,1-.132-.107.136.136,0,0,1,.106-.16l3.916-.814a.137.137,0,0,1,.16.106.134.134,0,0,1-.1.158l-3.917.814Z" transform="translate(550.347 -206.174)" fill="#764cf0"/>
              </g>
            </g>
          </g>
        </g>
        <g id="Grupo_98199" data-name="Grupo 98199" transform="translate(324.988 -1115.225)">
          <g id="Grupo_98196" data-name="Grupo 98196">
            <circle id="Elipse_5883" data-name="Elipse 5883" cx="22.33" cy="22.33" r="22.33" transform="translate(0 38.43) rotate(-59.372)" fill="#764cf0"/>
          </g>
          <g id="Grupo_98197" data-name="Grupo 98197" transform="translate(11.083 7.531)">
            <path id="Trazado_125472" data-name="Trazado 125472" d="M-827.065,279.278a22.33,22.33,0,0,1-16.088,27.174,22.33,22.33,0,0,1-27.174-16.088,22.33,22.33,0,0,1,16.088-27.174A22.33,22.33,0,0,1-827.065,279.278Z" transform="translate(871.032 -262.486)" fill="#a488f5"/>
          </g>
          <g id="Grupo_98198" data-name="Grupo 98198" transform="translate(21.006 18.919)">
            <path id="Trazado_125473" data-name="Trazado 125473" d="M-844.014,271.273c-2.711-.757-6.032,2.4-7.951,7.287-4.034-3.362-8.464-4.533-10.475-2.565-2.293,2.243-.659,7.795,3.83,12.221a23.791,23.791,0,0,0,8.446,5.042c2.154.74,2.688.319,3.687-.945a21.817,21.817,0,0,0,4.98-8.483C-839.715,277.782-840.925,272.136-844.014,271.273Z" transform="translate(863.473 -271.161)" fill="#fff"/>
          </g>
        </g>
        <g id="Grupo_98210" data-name="Grupo 98210" transform="translate(640.734 -1124.958)">
          <g id="Grupo_98204" data-name="Grupo 98204" transform="translate(68.107)">
            <path id="Trazado_125476" data-name="Trazado 125476" d="M-642.668,333.152s4.459-36.824,15.84-36.635,7.131,37.926,7.131,37.926Z" transform="translate(642.668 -296.516)" fill="#ffe1c2"/>
          </g>
          <g id="Grupo_98205" data-name="Grupo 98205" transform="translate(0 16.686)">
            <path id="Trazado_125477" data-name="Trazado 125477" d="M-618.369,307.551s-32.694-8.584-41.117-2.014c-5.568,4.344,3.712,13.2,3.712,13.2s-13.754-.77-12.8,6.292,5.986,9.191,5.986,9.191-11.483,1.91-4.584,12.439c6.29,9.6,54.655,27.343,67.963,28.778s21.553-49.64,20.781-53.987S-618.369,307.551-618.369,307.551Z" transform="translate(669.383 -303.061)" fill="#ffe1c2"/>
          </g>
          <g id="Grupo_98206" data-name="Grupo 98206" transform="translate(21.469 74.38)">
            <path id="Trazado_125478" data-name="Trazado 125478" d="M-613.665,348.425l-42.39-10.132a6.388,6.388,0,0,1-4.729-7.7,6.388,6.388,0,0,1,7.7-4.727L-610.7,336a6.389,6.389,0,0,1,4.729,7.7A6.388,6.388,0,0,1-613.665,348.425Z" transform="translate(660.961 -325.691)" fill="#764cf0"/>
          </g>
          <g id="Grupo_98207" data-name="Grupo 98207" transform="translate(12.55 31.302)">
            <path id="Trazado_125479" data-name="Trazado 125479" d="M-647.565,315.219a1.061,1.061,0,0,1-.28-.038l-15.835-4.311a1.057,1.057,0,0,1-.742-1.3,1.06,1.06,0,0,1,1.3-.742l15.835,4.311a1.057,1.057,0,0,1,.742,1.3A1.057,1.057,0,0,1-647.565,315.219Z" transform="translate(664.46 -308.794)" fill="#fff"/>
          </g>
          <g id="Grupo_98208" data-name="Grupo 98208" transform="translate(5.733 46.784)">
            <path id="Trazado_125480" data-name="Trazado 125480" d="M-646.273,322.414a1.078,1.078,0,0,1-.28-.038l-19.8-5.433a1.06,1.06,0,0,1-.739-1.3,1.051,1.051,0,0,1,1.3-.739l19.8,5.433a1.053,1.053,0,0,1,.739,1.3A1.055,1.055,0,0,1-646.273,322.414Z" transform="translate(667.134 -314.866)" fill="#fff"/>
          </g>
          <g id="Grupo_98209" data-name="Grupo 98209" transform="translate(66.467 24.909)">
            <path id="Trazado_125481" data-name="Trazado 125481" d="M-633.23,311.25a1.052,1.052,0,0,1-.316-.051l-9.028-2.848a1.053,1.053,0,0,1-.688-1.323,1.046,1.046,0,0,1,1.323-.691l9.028,2.848a1.056,1.056,0,0,1,.688,1.326A1.06,1.06,0,0,1-633.23,311.25Z" transform="translate(643.311 -306.286)" fill="#fff"/>
          </g>
        </g>
        <g id="Grupo_98212" data-name="Grupo 98212" transform="translate(352.146 -1340.14)">
          <path id="Trazado_117090" data-name="Trazado 117090" d="M709.272,219.724l7.211,2.219-7.211,2.218-2.219,7.211-2.218-7.211-7.211-2.218,7.211-2.219,2.218-7.211Z" transform="translate(-677.933 -212.513)" fill="#764cf0"/>
          <path id="Trazado_117091" data-name="Trazado 117091" d="M686.442,244.444l5.261,1.619-5.261,1.619-1.619,5.261-1.619-5.261-5.261-1.619,5.261-1.619,1.619-5.261Z" transform="translate(-677.943 -211.306)" fill="#764cf0"/>
          <path id="Trazado_117092" data-name="Trazado 117092" d="M903.381,271.06l5.261,1.619-5.261,1.619-1.619,5.261-1.619-5.261-5.262-1.619,5.262-1.619,1.619-5.261Z" transform="translate(-665.241 -125.352)" fill="#764cf0"/>
          <path id="Trazado_117093" data-name="Trazado 117093" d="M923.241,292.32l5.868,1.805-5.868,1.805-1.805,5.868-1.805-5.868-5.868-1.805,5.868-1.805,1.805-5.868Z" transform="translate(-637.114 -129.074)" fill="#764cf0"/>
          <path id="Trazado_117094" data-name="Trazado 117094" d="M812.147,181.226l5.868,1.805-5.868,1.805-1.805,5.868-1.805-5.868-5.868-1.805,5.868-1.805,1.805-5.868Z" transform="translate(-769.052 -46.257)" fill="#764cf0"/>
          <path id="Trazado_117095" data-name="Trazado 117095" d="M911.571,314.642l7.2,2.215-7.2,2.215-2.215,7.2-2.215-7.2-7.2-2.215,7.2-2.215,2.215-7.2Z" transform="translate(-645.419 -111.092)" fill="#764cf0"/>
        </g>
        <g id="Enmascarar_grupo_453" data-name="Enmascarar grupo 453" clip-path="url(#clip-path)">
          <g id="Grupo_963730" data-name="Grupo 963730">
            <g id="Grupo_963725" data-name="Grupo 963725" transform="translate(268.37 -1459.52)">
              <path id="Trazado_658599" data-name="Trazado 658599" d="M674.806,809.161S699.487,822.2,696.718,846.2s48.921,15.691,55.381,30.46,36.921,41.536,11.076,84.919-36,60-4.615,104.3,11.077,31.383,5.539,40.613,9.23,100.61,9.23,100.61l-50.766,1.846-57.228-159.684s-9.23-87.687-9.23-90.457.923-37.844.923-37.844Z" transform="translate(-426.113 -786.335)" fill="#e6e6e6" style="mix-blend-mode: multiply;isolation: isolate"/>
              <g id="Grupo_963724" data-name="Grupo 963724" transform="translate(0 0)">
                <path id="Trazado_658600" data-name="Trazado 658600" d="M1153.869,990.688l10.977-4.384,4.473,9.6-4.6,3.813S1153.81,1003.676,1153.869,990.688Z" transform="translate(-1044.695 -883.428)" fill="#f2b694"/>
                <path id="Trazado_658601" data-name="Trazado 658601" d="M1060.28,972.11s-31.141,6.958-32.2,9.4-6.432,60.424-6.432,60.424l-44.387-52.422-15.9,13.946,73.419,89.949Z" transform="translate(-848.66 -875.648)" fill="#26d19e"/>
                <g id="Grupo_963720" data-name="Grupo 963720" transform="translate(165.195 22.826)">
                  <g id="Grupo_963719" data-name="Grupo 963719">
                    <path id="Trazado_658602" data-name="Trazado 658602" d="M765.615,1529.864l-40.873-125.5,99.686-12.225,4.73,137.73Z" transform="translate(-675.806 -1128.689)" fill="#1a4583"/>
                    <path id="Trazado_658603" data-name="Trazado 658603" d="M880.971,1582.923,885,1517.437l78.332-28.5-24.618,93.984Z" transform="translate(-880.576 -1181.749)" fill="#1a4583"/>
                    <path id="Trazado_658604" data-name="Trazado 658604" d="M759.283,969.229l-.9,19.11-6.2,102.959-20.007,76.622,20.73-3.773,128.248,1.218-21.8-74.9,22.813-79.344-31.2-45.212-12.947-4.33-36.37,33.346,1.826-37.428Z" transform="translate(-732.173 -890.465)" fill="#51dab1"/>
                    <path id="Trazado_658605" data-name="Trazado 658605" d="M717.86,986.109l-9.548,93.819,10.439,86.856,81.356-2.342-33.6-73.158,27.25-84.754-18.431-39.557-36.471-7.985Z" transform="translate(-639.333 -891.282)" fill="#26d19e"/>
                    <path id="Trazado_658606" data-name="Trazado 658606" d="M901.585,946.538l-31.3,28.475a36.393,36.393,0,0,0-11.805,24.236l3.328,80.313L843.9,1196.343l65.337-4.113L897.214,1073.1l30.524-121.721-25.556,16.171Z" transform="translate(-828.234 -884.458)" fill="#f6f6f6"/>
                    <path id="Trazado_658607" data-name="Trazado 658607" d="M743.783,1477.122,727.9,1418.984l30.484-.168,11.172,57.5,60.211.47,1.122,10.91Z" transform="translate(-678.965 -1143.314)" fill="#1a4583"/>
                    <path id="Trazado_658608" data-name="Trazado 658608" d="M970.626,1417.082l-.283,57.86-68.713,2.661,11.64-61.34Z" transform="translate(-897.211 -1141.915)" fill="#1a4583"/>
                    <path id="Trazado_658609" data-name="Trazado 658609" d="M908.2,1563.046l2.678-61.193-2.313-49.179,13.743,56.381-13.8,53.991Z" transform="translate(-851.861 -1161.872)" fill="#123261"/>
                    <path id="Trazado_658610" data-name="Trazado 658610" d="M734.419,1226.615l10.44,86.855,69.559-.6-72.781,5.915Z" transform="translate(-665.439 -1037.968)" fill="#ccc" style="mix-blend-mode: multiply;isolation: isolate"/>
                    <path id="Trazado_658611" data-name="Trazado 658611" d="M904.593,1416.083l54.752.9-57.714,4.4Z" transform="translate(-885.929 -1141.816)" fill="#ccc" style="mix-blend-mode: multiply;isolation: isolate"/>
                    <path id="Trazado_658612" data-name="Trazado 658612" d="M750.092,1048.324l-7.994-30.761,4.064,30.1-20.438,71.494Z" transform="translate(-597.185 -923.386)" fill="#e6e6e6" style="mix-blend-mode: multiply;isolation: isolate"/>
                    <path id="Trazado_658613" data-name="Trazado 658613" d="M987.173,1003.873l10.176-7.961-6.549,13.143-7.784,62.437Z" transform="translate(-960.711 -911.52)" fill="#e6e6e6" style="mix-blend-mode: multiply;isolation: isolate"/>
                    <g id="Grupo_963718" data-name="Grupo 963718" transform="translate(33.514)">
                      <g id="Grupo_963716" data-name="Grupo 963716" transform="translate(11.776)">
                        <path id="Trazado_658614" data-name="Trazado 658614" d="M851.91,889.471l22.141-33.482,4.785-.57s10.076-1.2,5.371,10.394l-5.672,13.974,13.625,22.16L854.57,927.766l5.437-33.315S850.073,896,851.91,889.471Z" transform="translate(-841.462 -834.496)" fill="#dea788"/>
                        <g id="Grupo_963714" data-name="Grupo 963714" transform="translate(0.944 7.672)">
                          <path id="Trazado_658615" data-name="Trazado 658615" d="M895.015,827.391s-8.881,37.008,2.672,46.591c0,0,19.345.789,25.712-34.023C923.4,839.959,910.872,821.2,895.015,827.391Z" transform="translate(-891.755 -826.138)" fill="#f2b694"/>
                        </g>
                        <g id="Grupo_963715" data-name="Grupo 963715" transform="translate(0)">
                          <path id="Trazado_658616" data-name="Trazado 658616" d="M898.632,809.161s-14.513,5.267-27.341,2.167c-5.182-1.254-11.976,4.54-10.714,9.722,1.249,5.127-.278,3.711,7.706,3.076,0,0,16.1-7.964,19.793,9.044,0,0,.121,19.225-24.868,22.59,0,0-2.149-5.329,2.116,12.422,0,0,14.4,13.736,26.278-18.661,3.377-5.114-2.52-16.13,7.113-13.009,0,0,5.676,5.666-4.177,16.268l.085,5.738S919.954,834.933,898.632,809.161Z" transform="translate(-860.424 -809.161)" fill="#002868"/>
                        </g>
                      </g>
                      <g id="Grupo_963717" data-name="Grupo 963717" transform="translate(9.059 27.466)">
                        <path id="Trazado_658617" data-name="Trazado 658617" d="M958.8,869.941l-7.119,9.751a.9.9,0,0,0,.737,1.436l7.391-.059Z" transform="translate(-951.508 -869.941)" fill="#f2b694"/>
                      </g>
                      <path id="Trazado_658618" data-name="Trazado 658618" d="M989.928,893.789" transform="translate(-989.928 -855.546)"/>
                    </g>
                  </g>
                </g>
                <path id="Trazado_658619" data-name="Trazado 658619" d="M877.523,1137.785l-5.4,16.517L843.3,1196.708l-97.332,31.786,100.79-46.583S874.715,1148.308,877.523,1137.785Z" transform="translate(-568.569 -966.455)" fill="#e6e6e6" style="mix-blend-mode: multiply;isolation: isolate"/>
                <g id="Grupo_963721" data-name="Grupo 963721" transform="translate(24.396 189.785)">
                  <path id="Trazado_658620" data-name="Trazado 658620" d="M1017.072,1181.4l.768,24.633.172,5.572.244-.009-.176-5.608-.759-24.434,34.7-1.08.633,20.339.3,9.7,53.257-1.659a41.37,41.37,0,0,1,41.633,32.433q.271,1.214.465,2.463c.014.095.032.194.041.294.117.768.213,1.545.28,2.331.027.258.045.52.063.782.045.56.072,1.13.09,1.7a.124.124,0,0,0,0,.041l1.252-.041,1.048-.031,5.011-.153h0l.258-.01,2.313-.072,2.73-.086h0l2.8-.086,3.3-.1.89-.027.321-.009,7.325-.23,2.8-.087.145,0v-.04c-.013-.4-.027-.8-.045-1.207a71.274,71.274,0,0,0-3.15-17.882q-.6-1.925-1.315-3.813v0q-.9-2.4-1.979-4.75a71.484,71.484,0,0,0-67.229-41.611l-53.256,1.658Z" transform="translate(-1016.945 -1178.622)" fill="#4d6e9f"/>
                  <path id="Trazado_658621" data-name="Trazado 658621" d="M1016.992,1377.2l.3,9.748.637,20.453,53.256-1.659a71.325,71.325,0,0,0,49.9-22.513,71.13,71.13,0,0,0,14.605-23.2,70.96,70.96,0,0,0,4.794-25.614c0-.529,0-1.057-.018-1.59,0-.1,0-.213-.009-.317,0-.149,0-.3-.009-.447l-.145,0-2.8.086-7.325.231-.321.009-.89.027-3.3.1-2.8.086h0l-2.729.086-2.314.072-.257.009h0l-5.012.153-1.048.031-1.251.041q.013.38.013.759c.013.8,0,1.591-.041,2.382-.018.416-.041.832-.077,1.247a41.371,41.371,0,0,1-39.9,38.149Z" transform="translate(-978.409 -1262.727)" fill="#4d6e9f"/>
                  <path id="Trazado_658622" data-name="Trazado 658622" d="M1364.992,1434.344l.253,8.134.687,22.071.24-.009-.687-22.057-.253-8.143Z" transform="translate(-1361.35 -1318.781)" fill="#fff"/>
                  <path id="Trazado_658623" data-name="Trazado 658623" d="M1295.952,1250.29l0,.217,0,.1,34.7-1.08,0-.1,0-.217Z" transform="translate(-1294.642 -1217.311)" fill="#f33"/>
                  <path id="Trazado_658624" data-name="Trazado 658624" d="M1295.963,1183.283l.768,24.732.181,5.771.366-.014,34.7-1.08,0-.217-.3-9.7-.632-20.34,0-.163,0-.082Z" transform="translate(-1295.963 -1180.577)" fill="#26d19e"/>
                  <path id="Trazado_658625" data-name="Trazado 658625" d="M1290.282,1432.849l0,.082,34.7-1.08,0-.082Z" transform="translate(-1286.405 -1317.372)" fill="#f33"/>
                  <rect id="Rectángulo_337924" data-name="Rectángulo 337924" width="0.08" height="34.718" transform="translate(4.824 145.841) rotate(-91.784)" fill="#f33"/>
                  <rect id="Rectángulo_337925" data-name="Rectángulo 337925" width="30.218" height="34.719" transform="translate(4.822 145.761) rotate(-91.784)" fill="#26d19e"/>
                </g>
                <g id="Grupo_963723" data-name="Grupo 963723">
                  <path id="Trazado_658626" data-name="Trazado 658626" d="M1061.826,869.286c5.322,3.543,61.854-17.121,76.751-21.122,6.2-1.664,18.772-.693,31.328,1.009,6.281.85,12.557,1.884,18.034,2.861,5.316.949,9.878,1.844,12.956,2.468a4.679,4.679,0,0,0,5.435-3.309c1.982-6.972,5.319-20.5,2.309-23.324-1.355-1.273-7.444-2.592-15.494-4.122-5.379-1.022-11.632-2.138-17.934-3.4-12.8-2.56-25.791-5.715-32.064-9.879-13.986-9.285-59.653-42.767-59.653-42.767S1056.5,865.743,1061.826,869.286Z" transform="translate(-1043.311 -763.61)" fill="#feca40"/>
                  <ellipse id="Elipse_6520" data-name="Elipse 6520" cx="18.85" cy="51.993" rx="18.85" ry="51.993" transform="translate(37.029 109.216) rotate(-169.174)" fill="#fea614"/>
                  <path id="Trazado_658627" data-name="Trazado 658627" d="M1098.083,913.026c6.281.85,12.557,1.884,18.034,2.861l5.206-28.287c-5.38-1.022-11.632-2.138-17.934-3.4Z" transform="translate(-971.49 -827.464)" fill="#fefefe"/>
                  <g id="Grupo_963722" data-name="Grupo 963722" transform="translate(102.869 61.9)">
                    <path id="Trazado_658628" data-name="Trazado 658628" d="M1122.509,961.688a5.416,5.416,0,0,0,1.159-.163c9.468-2.388,17-7.261,22.373-14.485a47.674,47.674,0,0,0,8.4-20.906,78.9,78.9,0,0,0-.336-26.2,5.405,5.405,0,0,0-10.585,2.2h0a68.831,68.831,0,0,1,.212,22.5c-2.462,14.349-10.1,23.237-22.711,26.417a5.406,5.406,0,0,0,1.485,10.645Z" transform="translate(-1116.94 -895.629)" fill="#fefefe"/>
                  </g>
                  <path id="Trazado_658629" data-name="Trazado 658629" d="M1368.921,874.128c-.327-.046-.655-.1-.983-.16-8.65-1.637-14.672-8.2-13.451-14.649s9.224-10.358,17.873-8.722c.329.062.653.134.974.21Z" transform="translate(-1339.298 -808.842)" fill="#fefefe"/>
                  <path id="Trazado_658630" data-name="Trazado 658630" d="M1215.85,822.556l40.256,25.256-43-18.69Z" transform="translate(-1158.253 -793.677)" fill="#feea60"/>
                </g>
                <path id="Trazado_658631" data-name="Trazado 658631" d="M1152.5,996.16l1.081,2.5a4.718,4.718,0,0,0,6.161,2.479l8.02-3.375-5.565-11.074Z" transform="translate(-1042.524 -883.64)" fill="#f2b694"/>
                <path id="Trazado_658632" data-name="Trazado 658632" d="M826.422,987.543s9.532-22.261,31.228-6.557c30.216,21.872-49.3,121.739-49.3,121.739l-93.424,38.157-7.9-15.522,85.244-47.642S818.062,1002.556,826.422,987.543Z" transform="translate(-537.948 -877.439)" fill="#51dab1"/>
                <path id="Trazado_658633" data-name="Trazado 658633" d="M1012.842,1320.574l-16.614,10.153-.462,2.538,14.768-8.076,6.461,9,18.692-12.461-17.537,8.769Z" transform="translate(-839.616 -1066.642)" fill="#e6e6e6" style="mix-blend-mode: multiply;isolation: isolate"/>
                <path id="Trazado_658634" data-name="Trazado 658634" d="M1061.454,1229.323l.181,5.771.366-.014,0,.1,34.7-1.08,0-.1,0-.217,53.256-1.659a41.369,41.369,0,0,1,41.634,32.432l-4.542,1.849s-1.066,2.729,5.007.615c.013.095.032.194.041.294l-3.755,2.427s-.8,1.794,4.035-.1c.027.258.045.52.063.782l-4.456,3.534s.768,1.247,4.564-1.035c.014.8,0,1.591-.041,2.382l-1.5,2.079,1.423-.831a41.371,41.371,0,0,1-39.9,38.149l-53.256,1.659,0-.082-34.7,1.08,0,.081-.239,0,.253,8.134c.081,0,.162,0,.239,0,12.942.33,24.47.5,34.751.524,93.574.212,84.008-11.9,97.022-29.387,4.849-6.512,6.611-14.817,5.947-23.521q-.048-.672-.122-1.342c-.045-.447-.1-.9-.158-1.347,0-.014,0-.032,0-.045a56.064,56.064,0,0,0-1.988-9.007c-4.325-14.081-14.136-27.611-26.753-34.887-13.977-8.066-49.713-5.8-77.121-2.495-17.687,2.129-31.909,4.687-34.575,5.174-.1.018-.176.037-.239.046S1061.485,1229.318,1061.454,1229.323Z" transform="translate(-1036.289 -1012.1)" fill="#e6e6e6" style="mix-blend-mode: multiply;isolation: isolate"/>
                <path id="Trazado_658635" data-name="Trazado 658635" d="M1054.671,1314.576c.366-.127.755-.276,1.175-.438l-1.134.732-3.755,2.427s-.8,1.794,4.035-.1c.651-.248,1.405-.569,2.277-.971l-2.214,1.753-4.456,3.534s.768,1.247,4.564-1.035c.38-.226.791-.493,1.238-.8q.82-.562,1.8-1.319c.145-.113.281-.217.411-.321l-1.161,1.608-2.327,3.214-1.5,2.079,1.424-.831.456-.262,5.142-3,2.079-1.365,2.156-1.419,1.1-.723.027-.018,4.645-3.05-1.771-4.93,0-.018-.538-1.5-.2.046-5.251,1.143-2.282.5-6.4,2.6-4.542,1.849S1048.6,1316.691,1054.671,1314.576Z" transform="translate(-898.908 -1059.656)" fill="#f2b694"/>
              </g>
            </g>
            <g id="Grupo_963729" data-name="Grupo 963729" transform="translate(10 32.594)">
              <g id="Grupo_963726" data-name="Grupo 963726" transform="translate(473.871 -1449.118)">
                <path id="Trazado_658636" data-name="Trazado 658636" d="M-779.419,86.722a.686.686,0,0,0,.37-.106.7.7,0,0,0,.221-.963,5.784,5.784,0,0,0-7.141-2.621.7.7,0,0,0-.373.91.706.706,0,0,0,.912.378,4.4,4.4,0,0,1,5.419,2.074A.7.7,0,0,0-779.419,86.722Z" transform="translate(786.396 -82.647)"/>
              </g>
              <g id="Grupo_963727" data-name="Grupo 963727" transform="translate(473.871 -1443.624)">
                <path id="Trazado_658637" data-name="Trazado 658637" d="M-781.074,92.974a.619.619,0,0,0,.578-.4l1.418-3.722a.62.62,0,0,0-.359-.8.619.619,0,0,0-.8.358l-1.418,3.722a.621.621,0,0,0,.359.8A.627.627,0,0,0-781.074,92.974Z" transform="translate(781.694 -88.014)"/>
              </g>
              <g id="Grupo_963728" data-name="Grupo 963728" transform="translate(470.827 -1431.355)">
                <path id="Trazado_658638" data-name="Trazado 658638" d="M-779.4,106.714a6.447,6.447,0,0,0,5.747-3.1.657.657,0,0,0-.229-.9.658.658,0,0,0-.9.23,5.321,5.321,0,0,1-5.451,2.4.666.666,0,0,0-.767.522.658.658,0,0,0,.518.768A6.539,6.539,0,0,0-779.4,106.714Z" transform="translate(781.008 -102.622)"/>
              </g>
            </g>
          </g>
        </g>
        <g id="Grupo_963712" data-name="Grupo 963712" transform="translate(662.621 -1062.277)">
          <g id="Grupo_963712-2" data-name="Grupo 963712" transform="translate(-192.872 -87.086)">
            <path id="Trazado_125453" data-name="Trazado 125453" d="M-739.291,59.246l-22.124,34.589a.938.938,0,0,1-.65.422l-40.735,6.2a3.106,3.106,0,0,0-2,5.2l26.716,31.324a.939.939,0,0,1,.2.816l-9.276,41.222a3.106,3.106,0,0,0,4.328,3.506l40.34-17.911a.938.938,0,0,1,.857.049l37.432,22.006a3.105,3.105,0,0,0,4.672-3.032l-4.329-41.849a.94.94,0,0,1,.29-.779l30.1-28.43a3.106,3.106,0,0,0-1.44-5.381l-40.147-10.467a.942.942,0,0,1-.606-.494l-18.071-36.7A3.105,3.105,0,0,0-739.291,59.246Z" transform="translate(805.625 -57.659)" fill="#764cf0"/>
          </g>
          <g id="Grupo_963713" data-name="Grupo 963713" transform="translate(-103.885 -43.678)">
            <path id="Trazado_125454" data-name="Trazado 125454" d="M-620.018,144.109a.867.867,0,0,1-.211-.027l-23.777-6.259a.829.829,0,0,1-.59-1.013.832.832,0,0,1,1.011-.59l23.777,6.259a.829.829,0,0,1,.59,1.013A.829.829,0,0,1-620.018,144.109Z" transform="translate(644.624 -136.195)" fill="#21155c"/>
          </g>
        </g>
      </g>
    </g>
    <g id="Grupo_98136" data-name="Grupo 98136" transform="translate(1263.546 10291.472)">
      <g id="Grupo_92514" data-name="Grupo 92514" transform="translate(0 35.984)">
        <circle id="Elipse_5397" data-name="Elipse 5397" cx="60.235" cy="60.235" r="60.235" fill="#764cf0"/>
        <circle id="Elipse_5398" data-name="Elipse 5398" cx="45.977" cy="45.977" r="45.977" transform="translate(14.258 14.258)" fill="#fff"/>
        <circle id="Elipse_5399" data-name="Elipse 5399" cx="32.856" cy="32.856" r="32.856" transform="matrix(0.232, -0.973, 0.973, 0.232, 20.657, 84.578)" fill="#764cf0"/>
        <circle id="Elipse_5400" data-name="Elipse 5400" cx="18.164" cy="18.164" r="18.164" transform="matrix(0.224, -0.975, 0.975, 0.224, 38.47, 73.878)" fill="#fff"/>
        <path id="Trazado_117157" data-name="Trazado 117157" d="M746.338,102.56a8.21,8.21,0,1,1-8.211-8.211A8.211,8.211,0,0,1,746.338,102.56Z" transform="translate(-677.892 -42.325)" fill="#764cf0"/>
      </g>
      <g id="Grupo_92517" data-name="Grupo 92517" transform="translate(60.235)">
        <g id="Grupo_92516" data-name="Grupo 92516" transform="translate(0 12.088)">
          <rect id="Rectángulo_34541" data-name="Rectángulo 34541" width="110.079" height="2.641" transform="translate(4.426 77.838) rotate(-45)" fill="#455a64"/>
          <g id="Grupo_92515" data-name="Grupo 92515" transform="translate(0 73.957)">
            <path id="Trazado_117158" data-name="Trazado 117158" d="M745.387,100.532l-10.175,2.726,2.726-10.175Z" transform="translate(-735.212 -93.082)" fill="#263238"/>
          </g>
        </g>
        <path id="Trazado_117159" data-name="Trazado 117159" d="M806.517,45.541,791.922,60.136l-11.448,3.492,3.492-11.448,14.594-14.595-3.492,11.448Z" transform="translate(-710.298 -37.586)" fill="#263238"/>
      </g>
    </g>
    <rect id="Rectángulo_35695" data-name="Rectángulo 35695" width="41.433" height="41.433" rx="8" transform="matrix(0.985, 0.174, -0.174, 0.985, 1324.968, 10540.984)" fill="#26d19e"/>
    <circle id="Elipse_5882" data-name="Elipse 5882" cx="20.909" cy="20.909" r="20.909" transform="translate(1242.636 10281.246)" fill="#764cf0"/>
  </g>
</svg>
