<svg xmlns="http://www.w3.org/2000/svg" xmlns:xlink="http://www.w3.org/1999/xlink" width="71" height="73" viewBox="0 0 71 73">
  <defs>
    <filter id="Rect치ngulo_336176" x="0" y="0" width="71" height="73" filterUnits="userSpaceOnUse">
      <feOffset dy="3" input="SourceAlpha"/>
      <feGaussianBlur stdDeviation="3" result="blur"/>
      <feFlood flood-opacity="0.161"/>
      <feComposite operator="in" in2="blur"/>
      <feComposite in="SourceGraphic"/>
    </filter>
  </defs>
  <g id="Grupo_962140" data-name="Grupo 962140" transform="translate(-223 -1165)">
    <g transform="matrix(1, 0, 0, 1, 223, 1165)" filter="url(#Rect치ngulo_336176)">
      <rect id="Rect치ngulo_336176-2" data-name="Rect치ngulo 336176" width="53" height="55" rx="6" transform="translate(9 6)" fill="#5832c7"/>
    </g>
    <path id="Trazado_658939" data-name="Trazado 658939" d="M5.428,17.119H7.6a2.26,2.26,0,0,0,2.584-2.529,2.187,2.187,0,0,0-.615-1.606,2.333,2.333,0,0,0-1.736-.622,2.5,2.5,0,0,0-1.593.533,1.627,1.627,0,0,0-.677,1.326H.957a4.716,4.716,0,0,1,.875-2.8A5.778,5.778,0,0,1,4.259,9.5a8.3,8.3,0,0,1,3.411-.69,8.152,8.152,0,0,1,5.223,1.518,5.045,5.045,0,0,1,1.9,4.17,4.2,4.2,0,0,1-.786,2.427,5.6,5.6,0,0,1-2.29,1.853,5.352,5.352,0,0,1,2.488,1.743,4.591,4.591,0,0,1,.9,2.892,5.137,5.137,0,0,1-2.051,4.266,8.512,8.512,0,0,1-5.387,1.6,8.828,8.828,0,0,1-3.63-.745A5.687,5.687,0,0,1,1.5,26.464a5.367,5.367,0,0,1-.861-3H5.277a2.075,2.075,0,0,0,.738,1.586,2.606,2.606,0,0,0,1.818.67,2.73,2.73,0,0,0,1.941-.677,2.262,2.262,0,0,0,.725-1.729,2.644,2.644,0,0,0-.752-2.133,3.143,3.143,0,0,0-2.078-.629H5.428Z" transform="translate(249 1180)" fill="#fff"/>
  </g>
</svg>
