<svg xmlns="http://www.w3.org/2000/svg" width="85" height="86" viewBox="0 0 85 86">
  <g id="Grupo_963282" data-name="Grupo 963282" transform="translate(-180 -14411)">
    <rect id="Rectángulo_337771" data-name="Rectángulo 337771" width="85" height="86" rx="3" transform="translate(180 14411)" fill="#d2c6f3"/>
    <g id="redes-sociales" transform="translate(196 14426.302)">
      <g id="Grupo_962113" data-name="Grupo 962113" transform="translate(0.754 3.452)">
        <g id="Grupo_962101" data-name="Grupo 962101" transform="translate(10.043)">
          <g id="Grupo_962100" data-name="Grupo 962100">
            <g id="Grupo_962099" data-name="Grupo 962099">
              <g id="Grupo_962098" data-name="Grupo 962098">
                <g id="Grupo_962097" data-name="Grupo 962097">
                  <path id="Trazado_657757" data-name="Trazado 657757" d="M134.338,60.162H111.416a4.021,4.021,0,0,1-4.021-4.021V14.218a4.021,4.021,0,0,1,4.021-4.021h22.922a4.021,4.021,0,0,1,4.021,4.021V56.141A4.021,4.021,0,0,1,134.338,60.162Z" transform="translate(-107.395 -10.197)" fill="#138957"/>
                  <path id="Trazado_657758" data-name="Trazado 657758" d="M348.411,10.2h-3.016a4.021,4.021,0,0,1,4.021,4.021V56.141a4.021,4.021,0,0,1-4.021,4.021h3.016a4.021,4.021,0,0,0,4.021-4.021V14.218a4.021,4.021,0,0,0-4.021-4.021Z" transform="translate(-321.468 -10.197)" fill="#097e4c"/>
                  <path id="Trazado_657759" data-name="Trazado 657759" d="M157.246,41a1.359,1.359,0,0,1-1.359,1.359H143.836A1.359,1.359,0,0,1,142.477,41a.8.8,0,0,0-.8-.8H138.9a1.508,1.508,0,0,0-1.508,1.508V82.622A1.508,1.508,0,0,0,138.9,84.13h21.916a1.508,1.508,0,0,0,1.508-1.508V41.7a1.508,1.508,0,0,0-1.508-1.508H158.05A.8.8,0,0,0,157.246,41Z" transform="translate(-134.379 -37.181)" fill="#d5eaff"/>
                </g>
              </g>
            </g>
          </g>
        </g>
        <g id="Grupo_962104" data-name="Grupo 962104" transform="translate(0.542 5.49)">
          <g id="Grupo_962102" data-name="Grupo 962102">
            <circle id="Elipse_5971" data-name="Elipse 5971" cx="8.693" cy="8.693" r="8.693" transform="translate(0 0)" fill="#f2b707"/>
            <path id="Trazado_657760" data-name="Trazado 657760" d="M85.871,64.8a8.738,8.738,0,0,0-1.508.133,8.691,8.691,0,0,1,0,17.12A8.692,8.692,0,1,0,85.871,64.8Z" transform="translate(-77.178 -64.802)" fill="#f7a30a"/>
          </g>
          <g id="Grupo_962103" data-name="Grupo 962103" transform="translate(4.169 4.169)">
            <path id="Trazado_657761" data-name="Trazado 657761" d="M61.9,115.318H55.87a1.508,1.508,0,0,1-1.508-1.508v-6.032a1.508,1.508,0,0,1,1.508-1.508H61.9a1.508,1.508,0,0,1,1.508,1.508v6.032A1.508,1.508,0,0,1,61.9,115.318Z" transform="translate(-54.362 -106.27)" fill="#8278c0"/>
            <path id="Trazado_657762" data-name="Trazado 657762" d="M102.379,106.27H99.363a1.508,1.508,0,0,1,1.508,1.508v6.032a1.508,1.508,0,0,1-1.508,1.508h3.016a1.508,1.508,0,0,0,1.508-1.508v-6.032A1.508,1.508,0,0,0,102.379,106.27Z" transform="translate(-94.839 -106.27)" fill="#695dae"/>
            <circle id="Elipse_5972" data-name="Elipse 5972" cx="1.508" cy="1.508" r="1.508" transform="translate(3.016 3.016)" fill="#fff"/>
          </g>
        </g>
        <g id="Grupo_962106" data-name="Grupo 962106" transform="translate(0 26.005)">
          <g id="Grupo_962105" data-name="Grupo 962105">
            <path id="Trazado_657771" data-name="Trazado 657771" d="M8.693,0A8.693,8.693,0,1,1,0,8.693,8.693,8.693,0,0,1,8.693,0Z" fill="#a488f5"/>
            <path id="Trazado_657763" data-name="Trazado 657763" d="M79.578,268.866a8.73,8.73,0,0,0-1.608.151,8.692,8.692,0,0,1,0,17.084,8.693,8.693,0,1,0,1.608-17.235Z" transform="translate(-70.885 -268.866)" fill="#695dae"/>
          </g>
          <g id="Shape_2_" transform="translate(3.852 4.699)">
            <path id="Trazado_657764" data-name="Trazado 657764" d="M53.428,316.268a1.921,1.921,0,0,0-3.37,1.286v.429a4.571,4.571,0,0,1-3.576-1.58.257.257,0,0,0-.442.092,3.99,3.99,0,0,0,2.3,5.12,4.991,4.991,0,0,1-2.007.8c-.186.03-.094.373-.047.5.324.844,3.973,1.195,6.209-.644a5.863,5.863,0,0,0,1.932-3.6,3.953,3.953,0,0,0,1.063-2.09.459.459,0,0,0-.657-.487,2.2,2.2,0,0,1-.482.168A2.245,2.245,0,0,1,53.428,316.268Z" transform="translate(-45.819 -315.608)" fill="#fff"/>
          </g>
        </g>
        <g id="Grupo_962109" data-name="Grupo 962109" transform="translate(33.122 26.005)">
          <g id="Grupo_962107" data-name="Grupo 962107">
            <path id="Trazado_657772" data-name="Trazado 657772" d="M8.693,0A8.693,8.693,0,1,1,0,8.693,8.693,8.693,0,0,1,8.693,0Z" transform="translate(0 0)" fill="#f2b707"/>
            <path id="Trazado_657765" data-name="Trazado 657765" d="M409.935,268.866a8.739,8.739,0,0,0-1.508.133,8.691,8.691,0,0,1,0,17.12,8.692,8.692,0,1,0,1.508-17.253Z" transform="translate(-401.242 -268.866)" fill="#f7a30a"/>
          </g>
          <g id="Grupo_962108" data-name="Grupo 962108" transform="translate(6.559 5.444)">
            <path id="Trazado_657766" data-name="Trazado 657766" d="M402.2,323.308a.292.292,0,0,1,.438-.253l5.287,3.054a.292.292,0,0,1,0,.506l-5.287,3.054a.292.292,0,0,1-.438-.253Z" transform="translate(-402.196 -323.015)" fill="#fff"/>
          </g>
        </g>
        <g id="Grupo_962111" data-name="Grupo 962111" transform="translate(33.122 5.49)">
          <g id="Grupo_962110" data-name="Grupo 962110">
            <circle id="Elipse_5975" data-name="Elipse 5975" cx="8.693" cy="8.693" r="8.693" fill="#8fd8fa"/>
            <path id="Trazado_657767" data-name="Trazado 657767" d="M409.935,64.8a8.738,8.738,0,0,0-1.508.133,8.691,8.691,0,0,1,0,17.12A8.692,8.692,0,1,0,409.935,64.8Z" transform="translate(-401.242 -64.802)" fill="#6bcdfe"/>
          </g>
        </g>
        <path id="Trazado_657768" data-name="Trazado 657768" d="M202.286,198.261a6.076,6.076,0,0,0-5.589,8.033.694.694,0,0,1,0,.454l-.809,2.3a.4.4,0,0,0,.513.513l1.619-.569a.71.71,0,0,1,.676.117,6.076,6.076,0,1,0,3.594-10.848Z" transform="translate(-176.924 -179.352)" fill="#96cc7f"/>
        <g id="Grupo_962112" data-name="Grupo 962112" transform="translate(24.013 18.906)">
          <path id="Trazado_657769" data-name="Trazado 657769" d="M247.7,198.261a6,6,0,0,0-1.342.189,6.074,6.074,0,0,1-.007,11.77,6.076,6.076,0,1,0,1.349-11.959Z" transform="translate(-246.35 -198.259)" fill="#78b75b"/>
        </g>
      </g>
      <g id="Grupo_962114" data-name="Grupo 962114" transform="translate(0 2.698)">
        <path id="Trazado_657770" data-name="Trazado 657770" d="M39.932,18.151h1.214v4.793a.754.754,0,0,0,1.508,0V18.151h1.214a.754.754,0,0,0,0-1.508H42.655V14.452a.764.764,0,0,1,.763-.763H45.2a.754.754,0,1,0,0-1.508H43.418a2.274,2.274,0,0,0-2.271,2.271v2.191H39.932a.754.754,0,0,0,0,1.508ZM26.279,6.8a.754.754,0,1,0-.754-.754A.754.754,0,0,0,26.279,6.8ZM9.989,19.9a2.262,2.262,0,1,0-2.262-2.262A2.265,2.265,0,0,0,9.989,19.9Zm0-3.016a.754.754,0,1,1-.754.754A.755.755,0,0,1,9.989,16.881Zm3.016,6.032a2.265,2.265,0,0,0,2.262-2.262V14.619a2.265,2.265,0,0,0-2.262-2.262H6.973a2.265,2.265,0,0,0-2.262,2.262v6.032a2.265,2.265,0,0,0,2.262,2.262ZM6.219,20.651V14.619a.755.755,0,0,1,.754-.754h6.032a.755.755,0,0,1,.754.754v6.032a.755.755,0,0,1-.754.754H6.973A.755.755,0,0,1,6.219,20.651Zm8.34,13.431a1.214,1.214,0,0,0-1.265-.121,1.464,1.464,0,0,1-.317.111,1.446,1.446,0,0,1-.4.032A2.675,2.675,0,0,0,8.113,35.73,3.8,3.8,0,0,1,5.84,34.459,1.01,1.01,0,0,0,4.1,34.83a4.835,4.835,0,0,0,1.439,5.261c-.425.13-.91.12-1.158.551a1.3,1.3,0,0,0-.013,1.084,1.843,1.843,0,0,0,1.381.995,6.119,6.119,0,0,0,1.523.175,7.136,7.136,0,0,0,4.487-1.5,6.479,6.479,0,0,0,2.157-3.83,4.707,4.707,0,0,0,1.1-2.312,1.205,1.205,0,0,0-.465-1.172Zm-1.883,2.61a.754.754,0,0,0-.2.4,5.084,5.084,0,0,1-1.667,3.137A5.927,5.927,0,0,1,6.53,41.338a5.744,5.744,0,0,0,1.023-.551.754.754,0,0,0-.117-1.313A3.107,3.107,0,0,1,5.38,36.1a5.29,5.29,0,0,0,3.485,1.18.754.754,0,0,0,.734-.754V36.1s0-.007,0-.01a1.167,1.167,0,0,1,2.047-.781.754.754,0,0,0,.422.245A2.976,2.976,0,0,0,13.4,35.52a3.208,3.208,0,0,1-.726,1.172ZM42.569,28.7h-.053V27.081h.053a9.447,9.447,0,1,0-.053-18.893V7.473A4.781,4.781,0,0,0,37.74,2.7H14.818a4.781,4.781,0,0,0-4.775,4.775v.715A9.406,9.406,0,0,0,4.859,9.7a.754.754,0,1,0,.82,1.266A7.937,7.937,0,1,1,3.4,13.206a.754.754,0,0,0-1.251-.842A9.448,9.448,0,0,0,9.989,27.081h.053v1.641c-.2-.012-.4-.019-.6-.019a9.447,9.447,0,0,0,0,18.894c.2,0,.4-.007.6-.019V49.4a4.781,4.781,0,0,0,4.775,4.775H37.74A4.781,4.781,0,0,0,42.515,49.4V47.6h.053a9.447,9.447,0,0,0,0-18.894Zm0-19.007a7.939,7.939,0,1,1-7.939,7.939A7.948,7.948,0,0,1,42.569,9.7ZM41.007,26.952v1.879a9.4,9.4,0,0,0-1.508.379V26.569a9.351,9.351,0,0,0,1.508.383ZM13.059,7.976V8.7a9.364,9.364,0,0,0-1.508-.383V7.473a3.271,3.271,0,0,1,3.267-3.267H37.74a3.271,3.271,0,0,1,3.267,3.267v.844A9.364,9.364,0,0,0,39.5,8.7V7.976a2.265,2.265,0,0,0-2.262-2.262h-2.77a1.56,1.56,0,0,0-1.558,1.558.606.606,0,0,1-.605.605H20.254a.606.606,0,0,1-.605-.605A1.557,1.557,0,0,0,18.09,5.714h-2.77A2.265,2.265,0,0,0,13.059,7.976ZM11.551,26.952a9.365,9.365,0,0,0,1.508-.383v2.852a9.36,9.36,0,0,0-1.508-.482Zm-2.1,19.137a7.939,7.939,0,1,1,7.939-7.939A7.847,7.847,0,0,1,9.447,46.089ZM41.007,49.4a3.271,3.271,0,0,1-3.267,3.267H14.818A3.271,3.271,0,0,1,11.551,49.4V47.36a9.361,9.361,0,0,0,1.508-.482v2.015a2.265,2.265,0,0,0,2.262,2.262H37.237A2.265,2.265,0,0,0,39.5,48.893V47.084a9.364,9.364,0,0,0,1.508.383Zm1.561-3.307a7.946,7.946,0,0,1-7.683-9.946.754.754,0,1,0-1.459-.38,9.455,9.455,0,0,0,4.565,10.649v2.482a.755.755,0,0,1-.754.754H15.321a.755.755,0,0,1-.754-.754V46.085a9.44,9.44,0,0,0,0-15.871V25.9a9.443,9.443,0,0,0,0-16.522v-1.4a.755.755,0,0,1,.754-.754h2.77a.05.05,0,0,1,.036.014.048.048,0,0,1,.014.036,2.116,2.116,0,0,0,2.113,2.113H32.3a2.116,2.116,0,0,0,2.113-2.113.05.05,0,0,1,.05-.05h2.77a.755.755,0,0,1,.754.754v1.4A9.443,9.443,0,0,0,38,25.9a.77.77,0,0,0-.005.087v3.894a9.466,9.466,0,0,0-2.908,2.507.754.754,0,1,0,1.194.921,7.842,7.842,0,0,1,6.291-3.1,7.939,7.939,0,1,1,0,15.878Zm-13.527-17.9a.754.754,0,0,0-1.036.253,1.811,1.811,0,0,1-.563.574.685.685,0,0,1-.723.01l-1.128-.685a.7.7,0,0,1-.323-.665,1.77,1.77,0,0,1,.248-.746.754.754,0,0,0-1.289-.783,3.29,3.29,0,0,0-.46,1.388v.015a2.2,2.2,0,0,0,1.043,2.08l1.128.685a2.2,2.2,0,0,0,2.326-.034A3.326,3.326,0,0,0,29.3,29.221.754.754,0,0,0,29.042,28.185Zm17.494,9.156-5.287-3.054a1.054,1.054,0,0,0-1.569.906V41.3a1.056,1.056,0,0,0,1.569.906l5.287-3.054A1.058,1.058,0,0,0,46.536,37.341ZM41.188,40.5V35.994l3.9,2.254ZM26.1,21.607a6.83,6.83,0,0,0-6.29,9.007L19,32.9a1.156,1.156,0,0,0,1.474,1.474l1.592-.56A6.83,6.83,0,1,0,26.1,21.607Zm.331,12.148a5.34,5.34,0,0,1-3.439-1.138,1.469,1.469,0,0,0-.911-.319,1.451,1.451,0,0,0-.482.083l-.927.326.566-1.609a1.453,1.453,0,0,0,.006-.947,5.322,5.322,0,1,1,5.187,3.6Z" transform="translate(0 -2.698)"/>
      </g>
    </g>
  </g>
</svg>
