<svg xmlns="http://www.w3.org/2000/svg" xmlns:xlink="http://www.w3.org/1999/xlink" width="85" height="118" viewBox="0 0 85 118">
  <defs>
    <clipPath id="clip-path">
      <rect id="Rect치ngulo_337770" data-name="Rect치ngulo 337770" width="64.073" height="64.072" fill="#fff"/>
    </clipPath>
    <filter id="Trazado_657734" x="4.269" y="20.545" width="79.259" height="82.463" filterUnits="userSpaceOnUse">
      <feOffset dy="3" input="SourceAlpha"/>
      <feGaussianBlur stdDeviation="3" result="blur"/>
      <feFlood flood-opacity="0.161"/>
      <feComposite operator="in" in2="blur"/>
      <feComposite in="SourceGraphic"/>
    </filter>
  </defs>
  <g id="Grupo_963280" data-name="Grupo 963280" transform="translate(-180 -13488)">
    <rect id="Rect치ngulo_337769" data-name="Rect치ngulo 337769" width="85" height="118" rx="3" transform="translate(180 13488)" fill="#d2c6f3"/>
    <g id="Enmascarar_grupo_401" data-name="Enmascarar grupo 401" transform="translate(190 13515)" clip-path="url(#clip-path)">
      <g id="plan-de-marketing" transform="translate(0.064 -0.456)">
        <ellipse id="Elipse_5969" data-name="Elipse 5969" cx="3.066" cy="3.066" rx="3.066" ry="3.066" transform="translate(13.454 43.411)" fill="#fec108"/>
        <path id="Trazado_657715" data-name="Trazado 657715" d="M12.658,64.33a3.066,3.066,0,0,1-3.066-3.066V50.747h6.133V61.263A3.066,3.066,0,0,1,12.658,64.33Z" transform="translate(-1.665 -8.807)" fill="#169b62"/>
        <path id="Trazado_657716" data-name="Trazado 657716" d="M15.321,52.643h-4.1a6.235,6.235,0,1,1,0-12.47h4.1a1.52,1.52,0,0,1,1.52,1.52v9.429A1.52,1.52,0,0,1,15.321,52.643Z" transform="translate(-0.865 -6.972)" fill="#14905b"/>
        <path id="Trazado_657717" data-name="Trazado 657717" d="M16.7,40.173H12.921a1.52,1.52,0,0,1,1.52,1.52v9.429a1.52,1.52,0,0,1-1.52,1.52H16.7a1.52,1.52,0,0,0,1.52-1.52V41.693A1.52,1.52,0,0,0,16.7,40.173Z" transform="translate(-2.242 -6.972)" fill="#0a8651"/>
        <path id="Trazado_657718" data-name="Trazado 657718" d="M35.89,30.34V59.062s-5.24-6.234-16.559-9.719V40.06C30.651,36.914,35.89,30.34,35.89,30.34Z" transform="translate(-3.355 -5.266)" fill="#96cc7f"/>
        <path id="Trazado_657719" data-name="Trazado 657719" d="M34.8,33.826V55.7a24.27,24.27,0,0,1,3.777,3.362V30.34A23.123,23.123,0,0,1,34.8,33.826Z" transform="translate(-6.039 -5.266)" fill="#78b75b"/>
        <path id="Trazado_657720" data-name="Trazado 657720" d="M41.256,61a1.889,1.889,0,0,1-1.889-1.889V28.645a1.889,1.889,0,0,1,3.777,0V59.114A1.889,1.889,0,0,1,41.256,61Z" transform="translate(-6.832 -4.644)" fill="#169b62"/>
        <path id="Trazado_657721" data-name="Trazado 657721" d="M71.275,17.258H54.907A1.511,1.511,0,0,1,53.4,15.747V2.653a1.511,1.511,0,0,1,1.511-1.511H71.275a1.511,1.511,0,0,1,1.511,1.511V15.747A1.511,1.511,0,0,1,71.275,17.258Z" transform="translate(-9.266 -0.198)" fill="#8379c1"/>
        <path id="Trazado_657722" data-name="Trazado 657722" d="M74.236,1.143H70.459A1.511,1.511,0,0,1,71.97,2.653V15.747a1.511,1.511,0,0,1-1.511,1.511h3.777a1.511,1.511,0,0,0,1.511-1.511V2.653A1.511,1.511,0,0,0,74.236,1.143Z" transform="translate(-12.227 -0.198)" fill="#6e61b6"/>
        <path id="Trazado_657723" data-name="Trazado 657723" d="M71.275,73.968H54.907A1.511,1.511,0,0,1,53.4,72.457V61.722a1.511,1.511,0,0,1,1.511-1.511H71.275a1.511,1.511,0,0,1,1.511,1.511V72.457A1.511,1.511,0,0,1,71.275,73.968Z" transform="translate(-9.266 -10.45)" fill="#fec108"/>
        <path id="Trazado_657724" data-name="Trazado 657724" d="M74.236,60.211H70.459a1.511,1.511,0,0,1,1.511,1.511V72.457a1.511,1.511,0,0,1-1.511,1.511h3.777a1.511,1.511,0,0,0,1.511-1.511V61.722A1.511,1.511,0,0,0,74.236,60.211Z" transform="translate(-12.227 -10.45)" fill="#ffa90b"/>
        <path id="Trazado_657725" data-name="Trazado 657725" d="M25.013,23.08H2.653A1.511,1.511,0,0,1,1.143,21.57V6.583A1.511,1.511,0,0,1,2.653,5.072H25.013a1.511,1.511,0,0,1,1.511,1.511V21.57A1.511,1.511,0,0,1,25.013,23.08Z" transform="translate(-0.198 -0.88)" fill="#96cc7f"/>
        <path id="Trazado_657726" data-name="Trazado 657726" d="M29.232,5.072H25.454a1.511,1.511,0,0,1,1.511,1.511V21.57a1.511,1.511,0,0,1-1.511,1.511h3.777a1.511,1.511,0,0,0,1.511-1.511V6.583A1.511,1.511,0,0,0,29.232,5.072Z" transform="translate(-4.417 -0.88)" fill="#78b75b"/>
        <g id="Grupo_962094" data-name="Grupo 962094">
          <path id="Trazado_657727" data-name="Trazado 657727" d="M58.831,9.817h5.036a.944.944,0,0,0,0-1.889H58.831a.944.944,0,1,0,0,1.889Z" transform="translate(-10.046 -1.376)"/>
          <path id="Trazado_657728" data-name="Trazado 657728" d="M68.111,12.194H58.833a.944.944,0,0,0,0,1.889h9.278A.944.944,0,0,0,68.111,12.194Z" transform="translate(-10.047 -2.116)"/>
          <path id="Trazado_657729" data-name="Trazado 657729" d="M58.831,65.069a.944.944,0,1,0,0,1.889h5.036a.944.944,0,0,0,0-1.889Z" transform="translate(-10.046 -11.293)"/>
          <path id="Trazado_657730" data-name="Trazado 657730" d="M57.887,70.279a.944.944,0,0,0,.944.944h9.278a.944.944,0,1,0,0-1.889H58.831A.944.944,0,0,0,57.887,70.279Z" transform="translate(-10.046 -12.033)"/>
          <path id="Trazado_657731" data-name="Trazado 657731" d="M6.621,11.949h6.592a.944.944,0,0,0,0-1.889H6.621a.944.944,0,1,0,0,1.889Z" transform="translate(-0.985 -1.746)"/>
          <path id="Trazado_657732" data-name="Trazado 657732" d="M18.6,14.824H6.623a.944.944,0,0,0,0,1.889H18.6A.944.944,0,0,0,18.6,14.824Z" transform="translate(-0.987 -2.573)"/>
          <path id="Trazado_657733" data-name="Trazado 657733" d="M18.6,19.588H6.623a.944.944,0,0,0,0,1.889H18.6A.944.944,0,0,0,18.6,19.588Z" transform="translate(-0.987 -3.4)"/>
          <g transform="matrix(1, 0, 0, 1, -10.06, -26.54)" filter="url(#Trazado_657734)">
            <path id="Trazado_657734-2" data-name="Trazado 657734" d="M54.5,31.2a.944.944,0,0,0,.944-.944V18h7.24a2.458,2.458,0,0,0,2.455-2.455V2.455A2.458,2.458,0,0,0,62.682,0H46.314a2.458,2.458,0,0,0-2.455,2.455V15.549A2.458,2.458,0,0,0,46.314,18h7.24v11.3H37.93V24a2.833,2.833,0,0,0-5.666,0v.723c-1.026,1.147-5.883,6.136-14.936,8.889a2.465,2.465,0,0,0-2.2-1.357h-4.1A7.191,7.191,0,0,0,7.656,45.771v6.685a4.011,4.011,0,0,0,8.021,0V50.189a4.032,4.032,0,0,0,5.515-3.417,34.738,34.738,0,0,1,11.072,7.389,2.84,2.84,0,1,0,5.666.309V52.725a.944.944,0,0,0-1.889,0V54.47a.944.944,0,0,1-1.889,0V24a.944.944,0,0,1,1.889,0V48.334a.944.944,0,0,0,1.889,0V41.543H53.554v7.273h-7.24a2.458,2.458,0,0,0-2.455,2.455V62.008a2.458,2.458,0,0,0,2.455,2.455H62.682a2.458,2.458,0,0,0,2.455-2.455V51.272a2.458,2.458,0,0,0-2.455-2.455h-7.24V40.6a.944.944,0,0,0-.944-.944H37.93V31.2H54.5ZM45.748,15.549V2.455a.567.567,0,0,1,.567-.567H62.682a.567.567,0,0,1,.567.567V15.549a.567.567,0,0,1-.567.567H46.314A.567.567,0,0,1,45.748,15.549ZM5.737,39.436a5.3,5.3,0,0,1,5.291-5.291h4.1a.577.577,0,0,1,.576.576V44.15a.577.577,0,0,1-.576.576h-4.1a5.3,5.3,0,0,1-5.291-5.291Zm5.93,15.142a2.124,2.124,0,0,1-2.122-2.122v-6a26.719,26.719,0,0,0,4.244.155v5.841a2.125,2.125,0,0,1-2.122,2.122Zm7.649-8.1a2.126,2.126,0,0,1-3.638,1.481V46.551a2.471,2.471,0,0,0,1.639-1.269q1,.333,1.938.692a2.121,2.121,0,0,1,.061.5Zm-1.722-3.092v-7.88a36.787,36.787,0,0,0,14.67-8.085v24.1a40.618,40.618,0,0,0-14.67-8.136Zm45.654,7.887V62.008a.567.567,0,0,1-.567.567H46.314a.567.567,0,0,1-.567-.567V51.272a.567.567,0,0,1,.567-.567H62.682A.567.567,0,0,1,63.248,51.272Z" transform="translate(9.39 26.54)"/>
          </g>
          <path id="Trazado_657735" data-name="Trazado 657735" d="M12.686,29.375a.944.944,0,0,0,1.889,0V23.826H24.814a2.458,2.458,0,0,0,2.455-2.455V6.384a2.458,2.458,0,0,0-2.455-2.455h-2.3a.944.944,0,1,0,0,1.889h2.3a.567.567,0,0,1,.567.567V21.371a.567.567,0,0,1-.567.567H2.455a.567.567,0,0,1-.567-.567V6.384a.567.567,0,0,1,.567-.567H18.224a.944.944,0,1,0,0-1.889H2.455A2.458,2.458,0,0,0,0,6.384V21.371a2.458,2.458,0,0,0,2.455,2.455H12.686Z" transform="translate(0 -0.682)"/>
        </g>
      </g>
    </g>
  </g>
</svg>
