<svg xmlns="http://www.w3.org/2000/svg" width="85" height="96" viewBox="0 0 85 96">
  <g id="Grupo_963223" data-name="Grupo 963223" transform="translate(-180 -1674)">
    <rect id="Rectángulo_34162" data-name="Rectángulo 34162" width="85" height="96" rx="2" transform="translate(180 1674)" fill="#21155c"/>
    <g id="content" transform="translate(191 1693)">
      <path id="Trazado_125880" data-name="Trazado 125880" d="M36.395,335.831H13.167A3.167,3.167,0,0,1,10,332.664V317.548a3.167,3.167,0,0,1,3.167-3.167H36.395a3.167,3.167,0,0,1,3.167,3.167v15.115A3.167,3.167,0,0,1,36.395,335.831Z" transform="translate(-8.779 -277.455)" fill="#fa9084"/>
      <path id="Trazado_125881" data-name="Trazado 125881" d="M252.064,253.466h.18a3.168,3.168,0,0,0,3.168-3.168V233.65a3.168,3.168,0,0,0-3.168-3.168H224.287a3.167,3.167,0,0,0-3.166,3.168v7.075h.62a3.167,3.167,0,0,1,3.168,3.167v9.574h27.156Z" transform="translate(-194.126 -203.799)" fill="#4ed5ea"/>
      <path id="Trazado_125882" data-name="Trazado 125882" d="M73.006,21.925a3.168,3.168,0,0,0-3.159,3.168V48.5a3.167,3.167,0,0,0,3.168,3.167h15.3V50.555a3.167,3.167,0,0,1,3.166-3.168h22.747V25.093a3.167,3.167,0,0,0-3.166-3.168H73.006Z" transform="translate(-61.32 -20.704)" fill="#f9f5f3"/>
      <path id="Trazado_125883" data-name="Trazado 125883" d="M332.713,270.738v6.132l11.435,1.821v-9.774Z" transform="translate(-292.094 -237.542)" fill="#f9f5f3"/>
      <path id="Trazado_125884" data-name="Trazado 125884" d="M299.541,289.968h-3.187a1.426,1.426,0,0,1-1.426-1.426v-3.279a1.426,1.426,0,0,1,1.426-1.426h3.187v6.132Z" transform="translate(-258.922 -250.639)" fill="#62a6fd"/>
      <path id="Trazado_125885" data-name="Trazado 125885" d="M332.713,334.062v5.646H336.2l1.558-4.843Z" transform="translate(-292.094 -294.734)" fill="#f9f5f3"/>
      <path id="Trazado_125886" data-name="Trazado 125886" d="M105.369,366.947v8.529l7.448-4.533Z" transform="translate(-92.505 -323.604)" fill="#f9f5f3"/>
      <path id="Trazado_125887" data-name="Trazado 125887" d="M103.332,124.828H91.482A3.167,3.167,0,0,0,88.316,128v1.116h-15.3a3.167,3.167,0,0,1-3.168-3.167v-2.957L85.7,110.135Z" transform="translate(-61.321 -98.145)" fill="#ebe1dc"/>
      <path id="Trazado_125888" data-name="Trazado 125888" d="M299.287,149.775l7.953-6.028,8.418,6v4.589h-10.9Z" transform="translate(-262.749 -127.653)" fill="#ebe1dc"/>
      <ellipse id="Elipse_5896" data-name="Elipse 5896" cx="2.97" cy="2.97" rx="2.97" ry="2.97" transform="translate(33.566 6.301)" fill="#ffce69"/>
      <path id="Trazado_125889" data-name="Trazado 125889" d="M58.118,37.387H54.129V16.314a4.393,4.393,0,0,0-4.387-4.389H22.428a1.221,1.221,0,0,0,0,2.442H49.742a1.948,1.948,0,0,1,1.946,1.947V31.649L45.2,27.024a1.221,1.221,0,0,0-1.446.021l-7.179,5.441-11.411-9.51a1.221,1.221,0,0,0-1.55-.01L9.748,34.207V16.314a1.95,1.95,0,0,1,1.941-1.947,1.221,1.221,0,0,0,0-2.442h0a4.4,4.4,0,0,0-4.376,4.388V39.725a4.393,4.393,0,0,0,4.389,4.388H25.774V47.63H4.388A4.393,4.393,0,0,0,0,52.018V67.133a4.393,4.393,0,0,0,4.388,4.388H27.615A4.393,4.393,0,0,0,32,67.133V62.812H47.2a1.221,1.221,0,0,0,0-2.442H32V52.017a4.436,4.436,0,0,0-3.788-4.346v-5.9a1.948,1.948,0,0,1,1.946-1.947H58.118a1.949,1.949,0,0,1,1.947,1.947V58.424a1.949,1.949,0,0,1-1.947,1.947h-.18a1.221,1.221,0,0,0,0,2.442h.18a4.393,4.393,0,0,0,4.389-4.389V41.775a4.394,4.394,0,0,0-4.389-4.389ZM29.562,67.133a1.949,1.949,0,0,1-1.946,1.946H4.388a1.948,1.948,0,0,1-1.946-1.946V52.018a1.948,1.948,0,0,1,1.946-1.946h22.6a3.287,3.287,0,0,1,1.452.185,1.965,1.965,0,0,1,1.118,1.761V67.133Zm.6-29.746a4.435,4.435,0,0,0-4.386,4.283H11.695a1.948,1.948,0,0,1-1.947-1.946V37.35L24.371,25.5,38.639,37.387H30.162Zm12.292,0-3.954-3.3,6.014-4.558,7.174,5.114v2.739Z" transform="translate(0 -11.925)"/>
      <path id="Trazado_125890" data-name="Trazado 125890" d="M131.474,14.383a1.22,1.22,0,1,0-.73-1.366A1.232,1.232,0,0,0,131.474,14.383Z" transform="translate(-114.762 -12.034)"/>
      <path id="Trazado_125891" data-name="Trazado 125891" d="M290.761,274.957h3.482a1.221,1.221,0,0,0,1.162-.847l1.238-3.847,5.361.854a1.221,1.221,0,0,0,1.413-1.206v-3.952h.234a1.221,1.221,0,1,0,0-2.442h-.234v-3.381A1.221,1.221,0,0,0,302,258.932l-11.34,1.806h-3.09a2.65,2.65,0,0,0-2.647,2.647v3.279a2.65,2.65,0,0,0,2.647,2.647h1.966v4.425A1.221,1.221,0,0,0,290.761,274.957Zm2.593-2.442h-1.372v-2.994l.241.038,1.981.315Zm7.621-4.034-8.993-1.432V263l8.993-1.432Zm-13.606-1.817v-3.279a.206.206,0,0,1,.206-.206h1.966v3.69h-1.966A.206.206,0,0,1,287.369,266.664Z" transform="translate(-250.142 -228.762)"/>
      <path id="Trazado_125892" data-name="Trazado 125892" d="M422.25,408.973a1.22,1.22,0,1,0,.471,1.426A1.233,1.233,0,0,0,422.25,408.973Z" transform="translate(-369.035 -360.321)"/>
      <path id="Trazado_125893" data-name="Trazado 125893" d="M104.615,361.114l-7.448-4a1.233,1.233,0,0,0-1.8,1.076v8.529a1.232,1.232,0,0,0,1.856,1.043l7.448-4.533a1.221,1.221,0,0,0-.057-2.119Zm-6.8,3.437v-4.317l3.769,2.022Z" transform="translate(-83.726 -314.851)"/>
      <path id="Trazado_125894" data-name="Trazado 125894" d="M273.325,57.724a4.191,4.191,0,1,0-4.191,4.191A4.2,4.2,0,0,0,273.325,57.724Zm-5.94,0a1.749,1.749,0,1,1,1.749,1.749A1.751,1.751,0,0,1,267.385,57.724Z" transform="translate(-232.598 -48.453)"/>
    </g>
  </g>
</svg>
