<svg xmlns="http://www.w3.org/2000/svg" xmlns:xlink="http://www.w3.org/1999/xlink" width="120" height="120" viewBox="0 0 120 120">
  <defs>
    <filter id="Elipse_5228" x="0" y="0" width="120" height="120" filterUnits="userSpaceOnUse">
      <feOffset dy="3" input="SourceAlpha"/>
      <feGaussianBlur stdDeviation="3" result="blur"/>
      <feFlood flood-opacity="0.161"/>
      <feComposite operator="in" in2="blur"/>
      <feComposite in="SourceGraphic"/>
    </filter>
  </defs>
  <g id="Grupo_963418" data-name="Grupo 963418" transform="translate(-740 -1373.625)">
    <g transform="matrix(1, 0, 0, 1, 740, 1373.63)" filter="url(#Elipse_5228)">
      <circle id="Elipse_5228-2" data-name="Elipse 5228" cx="51" cy="51" r="51" transform="translate(9 6)" fill="#a488f5"/>
    </g>
    <g id="objetivo" transform="translate(707.429 1384.625)">
      <g id="Grupo_95617" data-name="Grupo 95617" transform="translate(64.271 7.156)">
        <path id="Trazado_123358" data-name="Trazado 123358" d="M127.559,39.825a28.134,28.134,0,1,0,28.134,28.134,28.135,28.135,0,0,0-28.134-28.134Zm0,50.46a22.326,22.326,0,1,1,22.326-22.326A22.352,22.352,0,0,1,127.559,90.285Z" transform="translate(-99.425 -39.825)" fill="#e278b1"/>
      </g>
      <g id="Grupo_95618" data-name="Grupo 95618" transform="translate(64.271 28.03)">
        <path id="Trazado_123359" data-name="Trazado 123359" d="M105.233,163.254a22.229,22.229,0,0,1,1.213-7.261h-6.074a28.282,28.282,0,0,0,0,14.521h6.074A22.229,22.229,0,0,1,105.233,163.254Z" transform="translate(-99.425 -155.993)" fill="#dd5ca2"/>
      </g>
      <g id="Grupo_95619" data-name="Grupo 95619" transform="translate(85.145 7.156)">
        <path id="Trazado_123360" data-name="Trazado 123360" d="M215.593,40.773v6.074a22.334,22.334,0,0,1,14.521,0V40.773a28.281,28.281,0,0,0-14.521,0Z" transform="translate(-215.593 -39.825)" fill="#dd5ca2"/>
      </g>
      <g id="Grupo_95620" data-name="Grupo 95620" transform="translate(113.519 28.03)">
        <path id="Trazado_123361" data-name="Trazado 123361" d="M374.712,163.254a22.229,22.229,0,0,1-1.213,7.261h6.074a28.282,28.282,0,0,0,0-14.521H373.5A22.231,22.231,0,0,1,374.712,163.254Z" transform="translate(-373.499 -155.993)" fill="#dd5ca2"/>
      </g>
      <g id="Grupo_95621" data-name="Grupo 95621" transform="translate(75.888 18.773)">
        <path id="Trazado_123362" data-name="Trazado 123362" d="M180.593,104.476a16.518,16.518,0,1,0,16.518,16.517A16.536,16.536,0,0,0,180.593,104.476Zm0,27.227A10.709,10.709,0,1,1,191.3,120.993,10.722,10.722,0,0,1,180.593,131.7Z" transform="translate(-164.075 -104.476)" fill="#ffe07d"/>
      </g>
      <g id="Grupo_95622" data-name="Grupo 95622" transform="translate(87.505 30.39)">
        <circle id="Elipse_5855" data-name="Elipse 5855" cx="4.901" cy="4.901" r="4.901" fill="#e278b1"/>
      </g>
      <g id="Grupo_95623" data-name="Grupo 95623" transform="translate(89.501 1.348)">
        <path id="Trazado_123363" data-name="Trazado 123363" d="M243.83,24.925h-2.178a1.815,1.815,0,0,1-1.815-1.815V9.315A1.815,1.815,0,0,1,241.652,7.5h2.178a1.815,1.815,0,0,1,1.815,1.815V23.11A1.815,1.815,0,0,1,243.83,24.925Z" transform="translate(-239.837 -7.5)" fill="#f9f6ff"/>
      </g>
      <g id="Grupo_95624" data-name="Grupo 95624" transform="translate(58.463 32.386)">
        <path id="Trazado_123364" data-name="Trazado 123364" d="M84.525,182.052v2.178a1.815,1.815,0,0,1-1.815,1.815H68.915A1.815,1.815,0,0,1,67.1,184.23v-2.178a1.815,1.815,0,0,1,1.815-1.815H82.71A1.815,1.815,0,0,1,84.525,182.052Z" transform="translate(-67.1 -180.237)" fill="#f9f6ff"/>
      </g>
      <g id="Grupo_95625" data-name="Grupo 95625" transform="translate(108.923 32.386)">
        <path id="Trazado_123365" data-name="Trazado 123365" d="M347.926,184.23v-2.178a1.815,1.815,0,0,1,1.815-1.815h13.795a1.815,1.815,0,0,1,1.815,1.815v2.178a1.815,1.815,0,0,1-1.815,1.815H349.741A1.815,1.815,0,0,1,347.926,184.23Z" transform="translate(-347.926 -180.237)" fill="#f9f6ff"/>
      </g>
      <g id="Grupo_95631" data-name="Grupo 95631" transform="translate(100.029 56.89)">
        <g id="Grupo_95626" data-name="Grupo 95626" transform="translate(21.056 26.864)">
          <path id="Trazado_123366" data-name="Trazado 123366" d="M415.606,466.114h5.808v6.9h-5.808Z" transform="translate(-415.606 -466.114)" fill="#f1d0a5"/>
        </g>
        <g id="Grupo_95627" data-name="Grupo 95627" transform="translate(6.716)">
          <circle id="Elipse_5856" data-name="Elipse 5856" cx="6.716" cy="6.716" r="6.716" fill="#f1d0a5"/>
        </g>
        <g id="Grupo_95628" data-name="Grupo 95628" transform="translate(7.49 0.774)">
          <path id="Trazado_123367" data-name="Trazado 123367" d="M349.179,320.915a6.716,6.716,0,0,1-9.071,9.071,6.716,6.716,0,1,0,9.071-9.071Z" transform="translate(-340.108 -320.915)" fill="#f1b986"/>
        </g>
        <g id="Grupo_95629" data-name="Grupo 95629" transform="translate(0 13.432)">
          <path id="Trazado_123368" data-name="Trazado 123368" d="M318.029,391.362H305.687a7.261,7.261,0,0,0-7.261,7.26v6.172h5.808v6.9h15.247v-6.9h5.808v-6.172A7.26,7.26,0,0,0,318.029,391.362Z" transform="translate(-298.426 -391.362)" fill="#a2f4c1"/>
        </g>
        <g id="Grupo_95630" data-name="Grupo 95630" transform="translate(0 13.432)">
          <path id="Trazado_123369" data-name="Trazado 123369" d="M308.229,411.691v-16.7a11.2,11.2,0,0,0-.6-3.63h-1.937a7.261,7.261,0,0,0-7.261,7.26v6.172h5.808v6.9Z" transform="translate(-298.427 -391.362)" fill="#78d0b1"/>
        </g>
      </g>
      <g id="Grupo_95637" data-name="Grupo 95637" transform="translate(57.918 56.89)">
        <g id="Grupo_95632" data-name="Grupo 95632" transform="translate(0 26.864)">
          <path id="Trazado_123370" data-name="Trazado 123370" d="M0,0H5.808V6.9H0Z" transform="translate(5.808 6.897) rotate(180)" fill="#f1d0a5"/>
        </g>
        <g id="Grupo_95633" data-name="Grupo 95633" transform="translate(6.716)">
          <circle id="Elipse_5857" data-name="Elipse 5857" cx="6.716" cy="6.716" r="6.716" fill="#f1d0a5"/>
        </g>
        <g id="Grupo_95634" data-name="Grupo 95634" transform="translate(7.49 0.774)">
          <path id="Trazado_123371" data-name="Trazado 123371" d="M105.75,329.986a6.716,6.716,0,0,0,9.071-9.071,6.716,6.716,0,1,1-9.071,9.071Z" transform="translate(-105.75 -320.915)" fill="#f1b986"/>
        </g>
        <g id="Grupo_95635" data-name="Grupo 95635" transform="translate(0 13.432)">
          <path id="Trazado_123372" data-name="Trazado 123372" d="M71.33,391.362H83.672a7.26,7.26,0,0,1,7.26,7.26v6.172H85.124v6.9H69.877v-6.9H64.069v-6.172A7.26,7.26,0,0,1,71.33,391.362Z" transform="translate(-64.069 -391.362)" fill="#e3e5e8"/>
        </g>
        <g id="Grupo_95636" data-name="Grupo 95636" transform="translate(17.062 13.432)">
          <path id="Trazado_123373" data-name="Trazado 123373" d="M159.024,411.691v-16.7a11.2,11.2,0,0,1,.6-3.63h1.937a7.26,7.26,0,0,1,7.26,7.26v6.172h-5.808v6.9Z" transform="translate(-159.024 -391.362)" fill="#b5b9bd"/>
        </g>
      </g>
      <g id="Grupo_95644" data-name="Grupo 95644" transform="translate(78.974 53.26)">
        <g id="Grupo_95638" data-name="Grupo 95638" transform="translate(21.055 26.864)">
          <path id="Trazado_123374" data-name="Trazado 123374" d="M298.427,445.911h5.808v10.528h-5.808Z" transform="translate(-298.427 -445.911)" fill="#f1d0a5"/>
        </g>
        <g id="Grupo_95639" data-name="Grupo 95639" transform="translate(0 26.864)">
          <path id="Trazado_123375" data-name="Trazado 123375" d="M0,0H5.808V10.528H0Z" transform="translate(5.808 10.528) rotate(180)" fill="#f1d0a5"/>
        </g>
        <g id="Grupo_95640" data-name="Grupo 95640" transform="translate(6.716)">
          <circle id="Elipse_5858" data-name="Elipse 5858" cx="6.716" cy="6.716" r="6.716" fill="#f1d0a5"/>
        </g>
        <g id="Grupo_95641" data-name="Grupo 95641" transform="translate(7.489 0.774)">
          <path id="Trazado_123376" data-name="Trazado 123376" d="M232,300.712a6.716,6.716,0,0,1-9.071,9.071A6.716,6.716,0,1,0,232,300.712Z" transform="translate(-222.929 -300.712)" fill="#f1b986"/>
        </g>
        <g id="Grupo_95642" data-name="Grupo 95642" transform="translate(0 13.432)">
          <path id="Trazado_123377" data-name="Trazado 123377" d="M200.852,371.159H188.509a7.26,7.26,0,0,0-7.26,7.26v6.171h5.808v10.528H202.3V384.591h5.808v-6.171A7.261,7.261,0,0,0,200.852,371.159Z" transform="translate(-181.249 -371.159)" fill="#80b4fb"/>
        </g>
        <g id="Grupo_95643" data-name="Grupo 95643" transform="translate(5.808 13.841)">
          <path id="Trazado_123378" data-name="Trazado 123378" d="M229.772,373.437a30.3,30.3,0,0,1-16.2,16.479v7.071H228.82V386.46h5.808v-6.171a7.262,7.262,0,0,0-4.856-6.851Z" transform="translate(-213.573 -373.437)" fill="#61a2f9"/>
        </g>
      </g>
      <g id="Grupo_95645" data-name="Grupo 95645" transform="translate(56.571 0)">
        <path id="Trazado_123379" data-name="Trazado 123379" d="M200.957,153.414A12.057,12.057,0,1,0,188.9,141.357,12.071,12.071,0,0,0,200.957,153.414Zm0-21.418a9.362,9.362,0,1,1-9.362,9.362A9.372,9.372,0,0,1,200.957,132Z" transform="translate(-165.122 -106.067)"/>
        <path id="Trazado_123380" data-name="Trazado 123380" d="M227.474,174.124a6.248,6.248,0,1,0-6.248-6.248,6.255,6.255,0,0,0,6.248,6.248Zm0-9.8a3.553,3.553,0,1,1-3.553,3.553,3.557,3.557,0,0,1,3.553-3.553Z" transform="translate(-191.64 -132.585)"/>
        <path id="Trazado_123381" data-name="Trazado 123381" d="M128.241,77.583a8.618,8.618,0,0,0-8.609-8.609h-.16a8.057,8.057,0,0,0-5.652-13.422c.186-.2.371-.4.553-.6a29.224,29.224,0,0,0,7.21-15.411h2.951a3.166,3.166,0,0,0,3.163-3.163V34.2a3.166,3.166,0,0,0-3.163-3.163h-2.952A29.494,29.494,0,0,0,96.657,6.116V3.163A3.166,3.166,0,0,0,93.495,0H91.317a3.166,3.166,0,0,0-3.163,3.163V6.116A29.494,29.494,0,0,0,63.229,31.039H60.278A3.166,3.166,0,0,0,57.115,34.2V36.38a3.166,3.166,0,0,0,3.163,3.163h2.95a29.223,29.223,0,0,0,7.21,15.411c.182.2.367.4.553.6A8.057,8.057,0,0,0,65.34,68.975h-.16a8.618,8.618,0,0,0-8.609,8.609V90.652A1.348,1.348,0,0,0,57.919,92h9.16a1.348,1.348,0,1,0,0-2.7H65.074v-9.18a1.348,1.348,0,0,0-2.7,0v2.282H59.266V77.583A5.92,5.92,0,0,1,65.18,71.67H77.522c.137,0,.273.006.409.016a8.583,8.583,0,0,0-.305,2.267V89.3H73.368a1.348,1.348,0,1,0,0,2.7h37.526a1.348,1.348,0,0,0,0-2.7h-3.708V73.953a8.591,8.591,0,0,0-.305-2.267c.136-.009.272-.016.409-.016h12.342a5.92,5.92,0,0,1,5.913,5.913v4.823h-3.113V80.124a1.348,1.348,0,0,0-2.7,0V89.3h-2.555a1.348,1.348,0,0,0,0,2.7h9.71a1.348,1.348,0,0,0,1.348-1.348ZM62.378,85.1v4.2H59.266V85.1Zm56.451-21.495a5.374,5.374,0,0,1-5.354,5.368h-.028a5.368,5.368,0,1,1,5.382-5.368Zm-18.41-2.747a8.007,8.007,0,0,0-.289-3.192,23.726,23.726,0,0,0,15.562-18.124h3.164A26.7,26.7,0,0,1,100.42,60.859ZM92.406,20.121a15.17,15.17,0,1,1-15.17,15.173v-.007a15.187,15.187,0,0,1,15.17-15.166Zm4.252-3.163V14.75a20.976,20.976,0,0,1,16.29,16.289h-2.209a3.154,3.154,0,0,0-.945.144A17.925,17.925,0,0,0,96.513,17.9,3.146,3.146,0,0,0,96.658,16.958Zm-.615,35.825A17.923,17.923,0,0,0,109.794,39.4a3.152,3.152,0,0,0,.945.144h2.212A20.915,20.915,0,0,1,98.92,55.231a8.118,8.118,0,0,0-2.877-2.448Zm-7.275,0a8.117,8.117,0,0,0-2.877,2.448A20.915,20.915,0,0,1,71.86,39.542h2.213a3.151,3.151,0,0,0,.945-.144A17.923,17.923,0,0,0,88.768,52.783Zm-1.731,7.193a5.368,5.368,0,1,1,5.368,5.368A5.374,5.374,0,0,1,87.037,59.976ZM125,34.2v2.178a.468.468,0,0,1-.468.468H110.739a.468.468,0,0,1-.468-.468V34.2a.468.468,0,0,1,.468-.468h13.8A.468.468,0,0,1,125,34.2Zm-6.146-3.163H115.7A23.675,23.675,0,0,0,96.658,12V8.843a26.871,26.871,0,0,1,22.2,22.2ZM91.317,2.7h2.178a.468.468,0,0,1,.468.468v9.954s0,.006,0,.01v3.832a.468.468,0,0,1-.468.468H91.317a.468.468,0,0,1-.468-.468V3.163a.468.468,0,0,1,.468-.468ZM88.154,8.843v3.162a23.6,23.6,0,0,0-10.337,4.652,1.348,1.348,0,1,0,1.664,2.12,20.913,20.913,0,0,1,8.673-4.028v2.209a3.152,3.152,0,0,0,.144.945,17.925,17.925,0,0,0-13.28,13.28,3.151,3.151,0,0,0-.945-.144H71.864a20.968,20.968,0,0,1,3.529-8.008,1.348,1.348,0,1,0-2.184-1.579,23.665,23.665,0,0,0-4.09,9.587H65.956a26.871,26.871,0,0,1,22.2-22.2ZM59.811,36.379V34.2a.468.468,0,0,1,.468-.468H74.073a.468.468,0,0,1,.468.468v2.178a.468.468,0,0,1-.468.468H60.278a.468.468,0,0,1-.468-.468Zm6.144,3.163h3.164A23.725,23.725,0,0,0,84.681,57.667a8.007,8.007,0,0,0-.289,3.192A26.7,26.7,0,0,1,65.955,39.542Zm.027,24.064a5.368,5.368,0,1,1,5.382,5.368h-.028A5.374,5.374,0,0,1,65.982,63.606Zm11.54,5.368h-.162a8.046,8.046,0,0,0,1.812-7.325,29.327,29.327,0,0,0,6.21,2.281A8.112,8.112,0,0,0,86.4,65.345h-.161a8.606,8.606,0,0,0-7.121,3.778,8.64,8.64,0,0,0-1.591-.148ZM83.434,89.3H80.321V81.472h3.113Zm2.7-12.81a1.348,1.348,0,0,0-2.7,0v2.283H80.321V73.953a5.919,5.919,0,0,1,5.913-5.913H98.577a5.919,5.919,0,0,1,5.913,5.913v4.824h-3.113V76.494a1.348,1.348,0,1,0-2.7,0V89.3H86.13V76.494ZM104.49,89.3h-3.113V81.472h3.113ZM105.7,69.122a8.606,8.606,0,0,0-7.121-3.778h-.161a8.1,8.1,0,0,0,1.013-1.414,29.317,29.317,0,0,0,6.21-2.281,8.046,8.046,0,0,0,1.812,7.325h-.161A8.639,8.639,0,0,0,105.7,69.122ZM122.433,89.3V85.1h3.112v4.2Z" transform="translate(-56.571 0)"/>
      </g>
    </g>
  </g>
</svg>
