<svg xmlns="http://www.w3.org/2000/svg" xmlns:xlink="http://www.w3.org/1999/xlink" width="820" height="438" viewBox="0 0 820 438">
  <defs>
    <clipPath id="clip-path">
      <rect id="Rectángulo_337868" data-name="Rectángulo 337868" width="820" height="438" rx="35" transform="translate(390 3214.521)" fill="#fff"/>
    </clipPath>
    <clipPath id="clip-path-2">
      <path id="Rectángulo_337066" data-name="Rectángulo 337066" d="M179,0h851a0,0,0,0,1,0,0V486a0,0,0,0,1,0,0H179A179,179,0,0,1,0,307V179A179,179,0,0,1,179,0Z" transform="translate(0 -0.225)" fill="#ccfff0" opacity="0.3"/>
    </clipPath>
    <filter id="Rectángulo_337096" x="106.972" y="188.63" width="233.819" height="75.389" filterUnits="userSpaceOnUse">
      <feOffset dy="3" input="SourceAlpha"/>
      <feGaussianBlur stdDeviation="3" result="blur"/>
      <feFlood flood-opacity="0.161"/>
      <feComposite operator="in" in2="blur"/>
      <feComposite in="SourceGraphic"/>
    </filter>
    <filter id="Rectángulo_337094" x="482.926" y="189" width="233.818" height="75.389" filterUnits="userSpaceOnUse">
      <feOffset dy="3" input="SourceAlpha"/>
      <feGaussianBlur stdDeviation="3" result="blur-2"/>
      <feFlood flood-opacity="0.161"/>
      <feComposite operator="in" in2="blur-2"/>
      <feComposite in="SourceGraphic"/>
    </filter>
    <filter id="Rectángulo_337097" x="297.481" y="341" width="233.819" height="75.389" filterUnits="userSpaceOnUse">
      <feOffset dy="3" input="SourceAlpha"/>
      <feGaussianBlur stdDeviation="3" result="blur-3"/>
      <feFlood flood-opacity="0.161"/>
      <feComposite operator="in" in2="blur-3"/>
      <feComposite in="SourceGraphic"/>
    </filter>
    <filter id="Rectángulo_337095" x="297.481" y="30" width="233.819" height="75.389" filterUnits="userSpaceOnUse">
      <feOffset dy="3" input="SourceAlpha"/>
      <feGaussianBlur stdDeviation="3" result="blur-4"/>
      <feFlood flood-opacity="0.161"/>
      <feComposite operator="in" in2="blur-4"/>
      <feComposite in="SourceGraphic"/>
    </filter>
  </defs>
  <g id="Grupo_963690" data-name="Grupo 963690" transform="translate(-390 -3189)">
    <g id="Enmascarar_grupo_448" data-name="Enmascarar grupo 448" transform="translate(0 -25.521)" clip-path="url(#clip-path)">
      <g id="Grupo_98839" data-name="Grupo 98839" transform="translate(285 3190.745)">
        <rect id="Rectángulo_34296" data-name="Rectángulo 34296" width="1030" height="486" transform="translate(0 -0.225)" fill="#e8e1fc"/>
        <g id="Enmascarar_grupo_371" data-name="Enmascarar grupo 371" transform="translate(0 0)" clip-path="url(#clip-path-2)">
          <g id="Grupo_98705" data-name="Grupo 98705" transform="translate(538.644 -73.959)">
            <path id="Trazado_114475" data-name="Trazado 114475" d="M121.07,172.592c16.16,17.193,36.908,31.408,50.388,50.123,23.572,32.746,21.3,73.393,24.741,111.482,1.419,15.823,4.218,32.055,10.59,46.907a87.323,87.323,0,0,0,17.975,27.145c16.148,16.373,39.247,26.141,63.857,32.5,9.959,2.579,20.168,4.6,30.259,6.282a627.456,627.456,0,0,0,218.545-2.493V53.89H87.407C78.445,95.055,90.021,139.566,121.07,172.592Z" transform="translate(-43.102 13.375)" fill="#fff" opacity="0.3"/>
            <g id="Grupo_90966" data-name="Grupo 90966" transform="translate(0 0)" opacity="0.06">
              <path id="Trazado_114480" data-name="Trazado 114480" d="M720.054,59.559C712.045,54.965,704,50.513,696,46.1c-40.031-22.1-81.418-44.97-112.241-84.621-23.42-30.13-39.016-69.662-43.913-111.3a237.338,237.338,0,0,1,1.122-65.044h-5.96a246.049,246.049,0,0,0-.956,66.053c5.072,43.082,21.215,83.991,45.454,115.178,31.613,40.66,73.536,63.822,114.074,86.211,8.808,4.867,17.674,9.758,26.473,14.875Z" transform="translate(-247.282 300.62)" fill="#764cf0"/>
              <ellipse id="Elipse_4927" data-name="Elipse 4927" cx="34.88" cy="42.451" rx="34.88" ry="42.451" transform="translate(430.566 251.204)" fill="#764cf0"/>
              <path id="Trazado_125690" data-name="Trazado 125690" d="M39.032-.781C59.825-2.022,75.675,16.8,74.434,41.268s-19.1,45.3-39.9,46.543S-2.106,70.226-.865,45.762,18.238.46,39.032-.781Z" transform="translate(198.107 63.577) rotate(-17.032)" fill="#21155c"/>
              <path id="Trazado_125691" data-name="Trazado 125691" d="M24.005,3.708l82.287-6.741c10.48-.858,18.28,8.036,17.421,19.867l-6.741,92.892c-.858,11.83-10.05,22.117-20.53,22.975l-82.287,6.741c-10.48.858-18.28-8.036-17.421-19.867L3.475,26.683C4.334,14.852,13.525,4.566,24.005,3.708Z" transform="translate(350.117 57.521) rotate(-25.905)" fill="#8d6af2"/>
              <path id="Trazado_125692" data-name="Trazado 125692" d="M15.878-.4l.777-.064C24.982-1.142,31.178,5.925,30.5,15.324l-.064.877c-.682,9.4-7.984,17.571-16.31,18.253l-.777.064C5.019,35.2-1.178,28.133-.5,18.734l.064-.877C.25,8.458,7.552.286,15.878-.4Z" transform="translate(117.401 267.596) rotate(-25.905)" fill="#a488f5"/>
              <path id="Trazado_125693" data-name="Trazado 125693" d="M15.878-.4l.777-.064C24.982-1.142,31.178,5.925,30.5,15.324l-.064.877c-.682,9.4-7.984,17.571-16.31,18.253l-.777.064C5.019,35.2-1.178,28.133-.5,18.734l.064-.877C.25,8.458,7.552.286,15.878-.4Z" transform="translate(69.52 498.179) rotate(-25.905)" fill="#a488f5"/>
              <path id="Trazado_125694" data-name="Trazado 125694" d="M11.272.266,38.607,2.059C45.1,2.484,50.7,8.966,51.126,16.537L52.919,48.43c.426,7.571-4.49,13.363-10.978,12.937L14.606,59.575C8.117,59.149,2.512,52.667,2.087,45.1L.294,13.2C-.132,5.633,4.784-.16,11.272.266Z" transform="matrix(0.945, 0.327, -0.327, 0.945, 270.26, 430.662)" fill="#8d6af2"/>
              <path id="Trazado_125695" data-name="Trazado 125695" d="M11.272.266,38.607,2.059C45.1,2.484,50.7,8.966,51.126,16.537L52.919,48.43c.426,7.571-4.49,13.363-10.978,12.937L14.606,59.575C8.117,59.149,2.512,52.667,2.087,45.1L.294,13.2C-.132,5.633,4.784-.16,11.272.266Z" transform="matrix(0.945, 0.327, -0.327, 0.945, 395.975, 516.042)" fill="#8d6af2"/>
              <path id="Trazado_125696" data-name="Trazado 125696" d="M11.272.266,38.607,2.059C45.1,2.484,50.7,8.966,51.126,16.537L52.919,48.43c.426,7.571-4.49,13.363-10.978,12.937L14.606,59.575C8.117,59.149,2.512,52.667,2.087,45.1L.294,13.2C-.132,5.633,4.784-.16,11.272.266Z" transform="matrix(0.945, 0.327, -0.327, 0.945, 341.878, 154.26)" fill="#a488f5"/>
              <path id="Trazado_658930" data-name="Trazado 658930" d="M11.272.266,38.607,2.059C45.1,2.484,50.7,8.966,51.126,16.537L52.919,48.43c.426,7.571-4.49,13.363-10.978,12.937L14.606,59.575C8.117,59.149,2.512,52.667,2.087,45.1L.294,13.2C-.132,5.633,4.784-.16,11.272.266Z" transform="matrix(0.945, 0.327, -0.327, 0.945, -403.122, 348.26)" fill="#4e2bb3"/>
              <path id="Trazado_125697" data-name="Trazado 125697" d="M11.272.266,26.885,1.29C33.373,1.715,38.978,8.2,39.4,15.768l1.024,18.216c.426,7.571-4.49,13.363-10.978,12.937L13.837,45.9C7.348,45.472,1.743,38.99,1.318,31.419L.294,13.2C-.132,5.633,4.784-.16,11.272.266Z" transform="matrix(0.945, 0.327, -0.327, 0.945, 14.199, 77.46)" fill="#a488f5"/>
              <path id="Elipse_4929" data-name="Elipse 4929" d="M9.88-.088c5.361-.141,9.608,5.021,9.467,11.508S14.729,23.3,9.368,23.44-.24,18.418-.1,11.932,4.518.053,9.88-.088ZM9.4,22.088c4.745-.125,8.707-4.9,8.832-10.638S14.6,1.139,9.85,1.264,1.143,6.161,1.018,11.9,4.652,22.213,9.4,22.088Z" transform="translate(389.87 277.172) rotate(-7.036)" fill="#fff" style="mix-blend-mode: overlay;isolation: isolate"/>
              <path id="Trazado_114481" data-name="Trazado 114481" d="M577.47-174.713c-5.344,0-9.692-5.291-9.692-11.795s4.348-11.8,9.692-11.8,9.691,5.292,9.691,11.8S582.814-174.713,577.47-174.713Zm0-22.235c-4.73,0-8.578,4.684-8.578,10.441s3.848,10.44,8.578,10.44,8.578-4.683,8.578-10.44S582.2-196.949,577.47-196.949Z" transform="translate(-251.415 301.794)" fill="#d1c3fa" style="mix-blend-mode: multiply;isolation: isolate"/>
              <path id="Elipse_4930" data-name="Elipse 4930" d="M15.078-.5A14.23,14.23,0,0,1,26.094,5.053,21.087,21.087,0,0,1,30.656,18.46a21.087,21.087,0,0,1-4.563,13.407A14.23,14.23,0,0,1,15.078,37.42,14.23,14.23,0,0,1,4.063,31.867,21.087,21.087,0,0,1-.5,18.46,21.086,21.086,0,0,1,4.063,5.053,14.23,14.23,0,0,1,15.078-.5Zm0,36.565c7.976,0,14.465-7.9,14.465-17.6S23.054.855,15.078.855.614,8.753.614,18.46,7.1,36.065,15.078,36.065Z" transform="translate(151.516 70.634)" fill="#d1c3fa" style="mix-blend-mode: multiply;isolation: isolate"/>
              <path id="Elipse_4931" data-name="Elipse 4931" d="M26.621-.434A20.982,20.982,0,0,1,36.585,1.5a22.873,22.873,0,0,1,7.948,6.2,28.192,28.192,0,0,1,5.141,9.52,34.328,34.328,0,0,1,1.543,11.889A37.467,37.467,0,0,1,48.7,41.2a35.388,35.388,0,0,1-5.939,10.058,29.6,29.6,0,0,1-8.486,7,23.637,23.637,0,0,1-10.161,2.909,20.982,20.982,0,0,1-9.964-1.932,22.873,22.873,0,0,1-7.948-6.2,28.192,28.192,0,0,1-5.141-9.52A34.328,34.328,0,0,1-.484,31.618a37.467,37.467,0,0,1,2.52-12.087A35.389,35.389,0,0,1,7.975,9.474a29.6,29.6,0,0,1,8.486-7A23.637,23.637,0,0,1,26.621-.434ZM24.167,59.82C37.8,59.158,49.43,45.406,50.091,29.164S40.2.247,26.567.908,1.3,15.322.642,31.564,10.534,60.481,24.167,59.82Z" transform="translate(431.98 170.25) rotate(-13.448)" fill="#e8e1fc" style="mix-blend-mode: multiply;isolation: isolate"/>
            </g>
          </g>
          <g id="Grupo_98706" data-name="Grupo 98706" transform="translate(139.697 680.649) rotate(-74)">
            <path id="Trazado_114475-2" data-name="Trazado 114475" d="M506.036,90.914c-20.215,15.289-45.8,28.354-62.865,44.76C413.323,164.38,414.132,198.2,408.2,230.206c-2.451,13.3-6.579,27.015-14.931,39.785A90.156,90.156,0,0,1,370.4,293.7c-20.161,14.6-48.355,24.09-78.2,30.815-12.078,2.727-24.431,5-36.625,6.987-87,14.138-177,17.73-262.265,10.488L11.773,15.723,552.061-10.161C560.875,23.7,544.873,61.545,506.036,90.914Z" transform="translate(-65.549 -170.461)" fill="#fff" opacity="0.3"/>
            <g id="Grupo_90966-2" data-name="Grupo 90966" transform="translate(0 0)" opacity="0.06">
              <path id="Trazado_114480-2" data-name="Trazado 114480" d="M-4.363,235.591c9.832-4.3,19.7-8.479,29.515-12.627,49.105-20.764,99.874-42.241,138.754-77.13,29.541-26.511,50.135-60.425,57.981-95.479A138.569,138.569,0,0,0,223.614-3.9l7.155-.343A143.787,143.787,0,0,1,228.8,50.865c-8.125,36.273-29.44,71.369-60.015,98.81-39.876,35.777-91.3,57.533-141.031,78.564-10.8,4.572-21.681,9.167-32.486,13.946Z" transform="translate(80.423 -192.153)" fill="#764cf0"/>
              <path id="Trazado_125634" data-name="Trazado 125634" d="M2.879,269.226c7.924-4.306,15.891-8.468,23.81-12.6,39.634-20.666,80.611-42.042,110.5-80.487,22.714-29.213,37.3-68.05,41.079-109.337a235.292,235.292,0,0,0-2.92-64.8l5.991.2A243.809,243.809,0,0,1,184.126,68c-3.912,42.724-19.013,82.913-42.521,113.151-30.66,39.422-72.168,61.077-112.3,82.009-8.721,4.551-17.5,9.123-26.2,13.922Z" transform="translate(258.057 815.134) rotate(-97)" fill="#764cf0"/>
              <path id="Trazado_125698" data-name="Trazado 125698" d="M43.186-.773c23.128-1.108,40.978,13.868,39.87,33.449S62.3,69.029,39.173,70.137-1.8,56.27-.7,36.688,20.058.335,43.186-.773Z" transform="translate(1.891 219.491)" fill="#764cf0"/>
              <path id="Trazado_125699" data-name="Trazado 125699" d="M44.952-1.367C68.48-3.558,85.911,13.726,83.886,37.238s-22.74,44.349-46.267,46.54S-3.34,68.686-1.315,45.173,21.425.824,44.952-1.367Z" transform="translate(279.279 142.177) rotate(-162.968)" fill="#21155c"/>
              <path id="Trazado_125700" data-name="Trazado 125700" d="M26.9,4.475l88.514-8.526c11.273-1.086,19.531,6.981,18.445,18.019l-8.526,86.665c-1.086,11.037-11.1,20.865-22.378,21.951L14.445,131.11C3.172,132.2-5.086,124.129-4,113.091L4.526,26.426C5.612,15.389,15.631,5.561,26.9,4.475Z" transform="translate(120.876 169.931) rotate(-154.095)" fill="#ffd41c"/>
              <path id="Trazado_125701" data-name="Trazado 125701" d="M12.554.235,23.369-.807c6.2-.6,10.742,3.84,10.145,9.911L32.472,19.693c-.6,6.071-6.108,11.476-12.308,12.074L9.349,32.809c-6.2.6-10.742-3.84-10.145-9.911L.246,12.309C.843,6.238,6.353.833,12.554.235Z" transform="translate(444.34 242.454) rotate(-154.095)" fill="#8d6af2"/>
              <path id="Trazado_125702" data-name="Trazado 125702" d="M13.879.052l32.5.313c7.714.074,14.028,5.278,14.1,11.624L60.79,38.72c.074,6.345-6.119,11.429-13.833,11.355l-32.5-.313C6.746,49.688.433,44.484.359,38.138L.046,11.407C-.028,5.062,6.165-.022,13.879.052Z" transform="matrix(-0.945, 0.327, -0.327, -0.945, 288.007, 403.563)" fill="#26d19e"/>
              <path id="Trazado_125703" data-name="Trazado 125703" d="M13.879.052l32.5.313c7.714.074,14.028,5.278,14.1,11.624L60.79,38.72c.074,6.345-6.119,11.429-13.833,11.355l-32.5-.313C6.746,49.688.433,44.484.359,38.138L.046,11.407C-.028,5.062,6.165-.022,13.879.052Z" transform="matrix(-0.945, 0.327, -0.327, -0.945, 215.085, 176.835)" fill="#26d19e"/>
              <path id="Trazado_125704" data-name="Trazado 125704" d="M13.879.052l18.56.179c7.714.074,14.028,5.278,14.1,11.624l.179,15.268c.074,6.345-6.119,11.429-13.833,11.355L14.326,38.3C6.612,38.224.3,33.02.224,26.674L.046,11.407C-.028,5.062,6.165-.022,13.879.052Z" transform="matrix(-0.945, 0.327, -0.327, -0.945, 617.725, -58.027)" fill="#764cf0"/>
              <path id="Elipse_4929-2" data-name="Elipse 4929" d="M11.964-.29C18.291-.707,23.1,3.445,22.68,8.966s-5.9,10.353-12.231,10.771S-.684,16-.266,10.481,5.638.128,11.964-.29ZM10.536,18.587c5.6-.37,10.456-4.646,10.825-9.534S17.477.491,11.877.861,1.422,5.507,1.052,10.394,4.937,18.957,10.536,18.587Z" transform="translate(130.84 256.407) rotate(-172.964)" fill="#fff" style="mix-blend-mode: overlay;isolation: isolate"/>
              <path id="Trazado_114481-2" data-name="Trazado 114481" d="M10.884,19.488C4.468,19.8-.5,15.626-.194,10.194S5.583.093,12-.215,23.385,3.647,23.077,9.08,17.3,19.181,10.884,19.488ZM11.935.917C6.256,1.189,1.415,5.322,1.143,10.13s4.126,8.5,9.8,8.226,10.52-4.4,10.793-9.212S17.614.645,11.935.917Z" transform="translate(207.41 87.546)" fill="#d1c3fa" style="mix-blend-mode: multiply;isolation: isolate"/>
              <path id="Elipse_4930-2" data-name="Elipse 4930" d="M19.288-.345a18.628,18.628,0,0,1,12.963,4,13.062,13.062,0,0,1,4.844,10.935,16.445,16.445,0,0,1-6.112,11.46A22.5,22.5,0,0,1,17.5,31.325a18.628,18.628,0,0,1-12.963-4A13.062,13.062,0,0,1-.311,16.386,16.445,16.445,0,0,1,5.8,4.926,22.5,22.5,0,0,1,19.288-.345ZM17.56,30.193c9.576-.459,17.739-7.428,18.2-15.535S28.8.328,19.224.787,1.485,8.215,1.026,16.322,7.984,30.652,17.56,30.193Z" transform="translate(393.144 50.646)" fill="#d1c3fa" style="mix-blend-mode: multiply;isolation: isolate"/>
              <path id="Elipse_4931-2" data-name="Elipse 4931" d="M31.287-.9A30.006,30.006,0,0,1,42.683.29,24.062,24.062,0,0,1,51.633,5.3a21.11,21.11,0,0,1,5.622,8.039,22.4,22.4,0,0,1,1.414,10.281,27.628,27.628,0,0,1-3.263,10.654,34.026,34.026,0,0,1-7.132,9.057,37.493,37.493,0,0,1-9.967,6.518,35.766,35.766,0,0,1-11.77,3.038,30.006,30.006,0,0,1-11.4-1.189,24.062,24.062,0,0,1-8.95-5.008A21.11,21.11,0,0,1,.57,38.648,22.4,22.4,0,0,1-.845,28.367,27.628,27.628,0,0,1,2.418,17.713,34.026,34.026,0,0,1,9.55,8.656a37.493,37.493,0,0,1,9.967-6.518A35.766,35.766,0,0,1,31.287-.9ZM26.641,51.712C42.334,50.46,56.12,37.9,57.373,23.721S46.877-.98,31.183.273,1.7,14.081.452,28.263,10.948,52.964,26.641,51.712Z" transform="translate(71.942 202.747) rotate(-166.552)" fill="#e8e1fc" style="mix-blend-mode: multiply;isolation: isolate"/>
            </g>
          </g>
        </g>
      </g>
    </g>
    <g id="Grupo_963502" data-name="Grupo 963502" transform="translate(-202.154 -7.721)">
      <g id="plan-de-negocios" transform="translate(958.343 3375.076)">
        <g id="Grupo_91597" data-name="Grupo 91597" transform="translate(1.362 1.362)">
          <g id="Grupo_91596" data-name="Grupo 91596" transform="translate(17.115)">
            <path id="Trazado_115621" data-name="Trazado 115621" d="M245.42,380.258a2.347,2.347,0,0,1-2.347-2.347V356.037L245.42,355l2.347,1.037v21.875A2.347,2.347,0,0,1,245.42,380.258Z" transform="translate(-217.417 -293.792)" fill="#678d98"/>
            <path id="Trazado_115622" data-name="Trazado 115622" d="M344.376,380.258a2.429,2.429,0,0,1-2.245-1.5l-9.394-22.721L334.48,355,338,356.037l8.626,20.864A2.429,2.429,0,0,1,344.376,380.258Z" transform="translate(-290.802 -293.792)" fill="#678d98"/>
            <path id="Trazado_115623" data-name="Trazado 115623" d="M104.2,380.258a2.429,2.429,0,0,0,2.245-1.5l9.393-22.721L113.248,355l-2.668,1.037L101.954,376.9A2.429,2.429,0,0,0,104.2,380.258Z" transform="translate(-101.767 -293.792)" fill="#678d98"/>
            <path id="Trazado_115624" data-name="Trazado 115624" d="M245.42,17.883a2.347,2.347,0,0,0-2.347,2.347v6.76l2.347,1.022,2.347-1.021V20.23A2.347,2.347,0,0,0,245.42,17.883Z" transform="translate(-217.417 -17.883)" fill="#678d98"/>
          </g>
          <path id="Trazado_115625" data-name="Trazado 115625" d="M97.737,70.883v47.451a2.843,2.843,0,0,1-2.843,2.843H10.343A2.843,2.843,0,0,1,7.5,118.335V70.883a2.843,2.843,0,0,1,2.843-2.843h84.55A2.843,2.843,0,0,1,97.737,70.883Z" transform="translate(-7.5 -58.933)" fill="#eaf6ff"/>
          <path id="Trazado_115626" data-name="Trazado 115626" d="M468.489,70.883v47.451a2.843,2.843,0,0,1-2.843,2.843H460.5a2.845,2.845,0,0,0,2.845-2.843V70.883A2.845,2.845,0,0,0,460.5,68.04h5.146A2.843,2.843,0,0,1,468.489,70.883Z" transform="translate(-378.252 -58.933)" fill="#c8effe"/>
          <path id="Trazado_115627" data-name="Trazado 115627" d="M70.671,113.027v5.5a3.617,3.617,0,0,1-3.619,3.617H55.887a3.617,3.617,0,0,1-3.617-3.617v-5.5a3.617,3.617,0,0,1,3.617-3.617H67.053A3.617,3.617,0,0,1,70.671,113.027Z" transform="translate(-44.141 -92.792)" fill="#5986cb"/>
          <path id="Trazado_115628" data-name="Trazado 115628" d="M114.433,113.027v5.5a3.617,3.617,0,0,1-3.619,3.617H105.74a3.617,3.617,0,0,0,3.619-3.617v-5.5a3.617,3.617,0,0,0-3.619-3.617h5.075A3.617,3.617,0,0,1,114.433,113.027Z" transform="translate(-87.903 -92.792)" fill="#4278c3"/>
          <path id="Trazado_115629" data-name="Trazado 115629" d="M139.565,152.452v4.156a2.731,2.731,0,0,1-2.732,2.731H128.4a2.73,2.73,0,0,1-2.731-2.731v-4.156a2.731,2.731,0,0,1,2.731-2.733h8.432A2.733,2.733,0,0,1,139.565,152.452Z" transform="translate(-104.215 -125.783)" fill="#fff9df"/>
          <path id="Trazado_115630" data-name="Trazado 115630" d="M171.288,152.452v4.156a2.731,2.731,0,0,1-2.733,2.731H164.43a2.73,2.73,0,0,0,2.731-2.731v-4.156a2.731,2.731,0,0,0-2.731-2.733h4.125A2.733,2.733,0,0,1,171.288,152.452Z" transform="translate(-135.937 -125.783)" fill="#fff0ad"/>
          <path id="Trazado_115631" data-name="Trazado 115631" d="M338.249,68.04v43.566a3,3,0,0,1-3,3h-22.47a3,3,0,0,1-3-3V68.04Z" transform="translate(-254.896 -58.933)" fill="#fff9df"/>
          <path id="Trazado_115632" data-name="Trazado 115632" d="M427.982,68.04v43.566a3,3,0,0,1-3,3h-5.563a3,3,0,0,0,3-3V68.04Z" transform="translate(-344.629 -58.933)" fill="#fff0ad"/>
          <path id="Trazado_115633" data-name="Trazado 115633" d="M364.047,45.843v3.341a2.882,2.882,0,0,1-2.881,2.883h-7.994a2.883,2.883,0,0,1-2.883-2.883V45.843a2.883,2.883,0,0,1,2.883-2.883h7.994A2.882,2.882,0,0,1,364.047,45.843Z" transform="translate(-288.051 -38.407)" fill="#7ca1b1"/>
          <path id="Trazado_115634" data-name="Trazado 115634" d="M393.085,45.843v3.341a2.882,2.882,0,0,1-2.881,2.883h-4.436a2.883,2.883,0,0,0,2.883-2.883V45.843a2.883,2.883,0,0,0-2.883-2.883H390.2A2.882,2.882,0,0,1,393.085,45.843Z" transform="translate(-317.089 -38.407)" fill="#678d98"/>
          <path id="Trazado_115635" data-name="Trazado 115635" d="M341.836,123.868h4.694v4.694h-4.694Z" transform="translate(-281.133 -104.625)" fill="#4278c3"/>
          <path id="Trazado_115636" data-name="Trazado 115636" d="M341.836,209.421h4.694v4.694h-4.694Z" transform="translate(-281.133 -174.645)" fill="#ffd064"/>
          <path id="Trazado_115637" data-name="Trazado 115637" d="M341.836,265.124h4.694v4.694h-4.694Z" transform="translate(-281.133 -220.234)" fill="#4278c3"/>
        </g>
        <g id="Grupo_91598" data-name="Grupo 91598" transform="translate(0 0)">
          <path id="Trazado_115638" data-name="Trazado 115638" d="M88.754,19.49H78.721a4.33,4.33,0,0,0-4.244-4.553H66.482a4.33,4.33,0,0,0-4.244,4.553H50.189v-5.4a3.709,3.709,0,0,0-7.418,0v5.4H4.205A4.21,4.21,0,0,0,0,23.7v47.45a4.21,4.21,0,0,0,4.206,4.206H25.253L17.405,94.333a3.791,3.791,0,0,0,7.007,2.9L26.9,91.218a1.362,1.362,0,0,0-2.517-1.041L21.9,96.189a1.068,1.068,0,0,1-1.973-.816L28.2,75.351h2.31L26.877,84.14a1.362,1.362,0,1,0,2.517,1.041l4.064-9.83h9.313V95.864a3.709,3.709,0,1,0,7.418,0V75.351H59.5L68.547,97.23a3.791,3.791,0,0,0,7.007-2.9L67.706,75.351h8.378a1.362,1.362,0,0,0,0-2.723H4.205a1.484,1.484,0,0,1-1.482-1.482V23.7a1.484,1.484,0,0,1,1.482-1.482H54.882v42.2a4.368,4.368,0,0,0,4.363,4.363H81.714a4.368,4.368,0,0,0,4.363-4.363v-42.2h2.678A1.484,1.484,0,0,1,90.237,23.7v47.45a1.484,1.484,0,0,1-1.482,1.482H82.611a1.362,1.362,0,1,0,0,2.723h6.144a4.21,4.21,0,0,0,4.206-4.206V23.7a4.211,4.211,0,0,0-4.206-4.206ZM64.76,75.351l8.278,20.023a1.068,1.068,0,0,1-1.973.816L62.449,75.351Zm-17.294,0V95.864a.986.986,0,0,1-1.971,0V75.351Zm17.5-56.17a1.523,1.523,0,0,1,1.521-1.521h7.994A1.523,1.523,0,0,1,76,19.181v3.341a1.523,1.523,0,0,1-1.521,1.521H66.482a1.523,1.523,0,0,1-1.521-1.521Zm-19.467.309v-5.4a.986.986,0,0,1,1.971,0v5.4ZM83.353,64.416a1.641,1.641,0,0,1-1.639,1.639H59.245a1.641,1.641,0,0,1-1.639-1.639v-42.2h4.632a4.33,4.33,0,0,0,4.244,4.553h7.994a4.33,4.33,0,0,0,4.244-4.553h4.632v42.2Z" transform="translate(0 -10.383)"/>
          <path id="Trazado_115639" data-name="Trazado 115639" d="M47.132,258.892H76.677a1.362,1.362,0,1,0,0-2.723H48.493V244.95a1.362,1.362,0,1,0-2.723,0v12.58A1.362,1.362,0,0,0,47.132,258.892Z" transform="translate(-37.46 -201.247)"/>
          <path id="Trazado_115640" data-name="Trazado 115640" d="M112.449,196.7a1.362,1.362,0,1,0-1.926-1.926l-7.765,7.765H97.509l-3.456-1.9a1.362,1.362,0,0,0-1.62.23l-3.542,3.542H85.515a1.361,1.361,0,0,0-.963.4l-6.325,6.325a1.362,1.362,0,1,0,1.926,1.926l5.926-5.926h3.377a1.361,1.361,0,0,0,.963-.4l3.217-3.217L96.5,205.1a1.363,1.363,0,0,0,.657.169h6.163a1.361,1.361,0,0,0,.963-.4Z" transform="translate(-63.698 -160.972)"/>
          <path id="Trazado_115641" data-name="Trazado 115641" d="M335.7,123.786h4.694a1.362,1.362,0,0,0,1.362-1.362V117.73a1.362,1.362,0,0,0-1.362-1.362H335.7a1.362,1.362,0,0,0-1.362,1.362v4.694A1.362,1.362,0,0,0,335.7,123.786Zm1.362-4.694h1.971v1.971h-1.971Z" transform="translate(-273.633 -97.125)"/>
          <path id="Trazado_115642" data-name="Trazado 115642" d="M340.392,201.92H335.7a1.362,1.362,0,0,0-1.362,1.362v4.694a1.362,1.362,0,0,0,1.362,1.362h4.694a1.362,1.362,0,0,0,1.362-1.362v-4.694A1.362,1.362,0,0,0,340.392,201.92Zm-1.362,4.694h-1.971v-1.971h1.971Z" transform="translate(-273.633 -167.144)"/>
          <path id="Trazado_115643" data-name="Trazado 115643" d="M340.392,257.624H335.7a1.362,1.362,0,0,0-1.362,1.362v4.694a1.362,1.362,0,0,0,1.362,1.362h4.694a1.362,1.362,0,0,0,1.362-1.362v-4.694A1.362,1.362,0,0,0,340.392,257.624Zm-1.362,4.694h-1.971v-1.971h1.971Z" transform="translate(-273.633 -212.734)"/>
          <path id="Trazado_115644" data-name="Trazado 115644" d="M387.751,129.294a1.362,1.362,0,1,0,0,2.723h7.636a1.362,1.362,0,0,0,0-2.723Z" transform="translate(-316.235 -107.704)"/>
          <path id="Trazado_115645" data-name="Trazado 115645" d="M395.387,214.848h-7.636a1.362,1.362,0,1,0,0,2.723h7.636a1.362,1.362,0,0,0,0-2.723Z" transform="translate(-316.235 -177.725)"/>
          <path id="Trazado_115646" data-name="Trazado 115646" d="M415.982,270.551h-3.067a1.362,1.362,0,1,0,0,2.723h3.067a1.362,1.362,0,0,0,0-2.723Z" transform="translate(-336.831 -223.314)"/>
          <path id="Trazado_115647" data-name="Trazado 115647" d="M335.7,174.794h12.2a1.362,1.362,0,1,0,0-2.723H335.7a1.362,1.362,0,0,0,0,2.723Z" transform="translate(-273.633 -142.715)"/>
          <ellipse id="Elipse_5232" data-name="Elipse 5232" cx="1.408" cy="1.408" rx="1.408" ry="1.408" transform="translate(69.816 47.522) rotate(-13.3)"/>
          <ellipse id="Elipse_5233" data-name="Elipse 5233" cx="1.408" cy="1.408" rx="1.408" ry="1.408" transform="translate(77.34 31.481) rotate(-67.486)"/>
          <path id="Trazado_115648" data-name="Trazado 115648" d="M196.691,112.167H182.529a1.362,1.362,0,1,0,0,2.723h14.162a1.362,1.362,0,0,0,0-2.723Z" transform="translate(-148.274 -93.687)"/>
          <path id="Trazado_115649" data-name="Trazado 115649" d="M239.52,148.862a1.362,1.362,0,0,0-1.362-1.362H233.2a1.362,1.362,0,1,0,0,2.723h4.963A1.362,1.362,0,0,0,239.52,148.862Z" transform="translate(-189.742 -122.605)"/>
          <path id="Trazado_115650" data-name="Trazado 115650" d="M49.748,104.633H60.914a2.249,2.249,0,0,1,1.758.841,1.362,1.362,0,0,0,2.119-1.71,4.961,4.961,0,0,0-3.878-1.854H49.747a4.984,4.984,0,0,0-4.978,4.978v5.5a4.984,4.984,0,0,0,4.978,4.978H58.1a4.144,4.144,0,0,0,4.093,4.2H70.62a4.1,4.1,0,0,0,4.093-4.093v-4.156a4.1,4.1,0,0,0-4.093-4.093H62.188a4.1,4.1,0,0,0-4.093,4.093v1.326H49.748a2.258,2.258,0,0,1-2.255-2.255v-5.5A2.258,2.258,0,0,1,49.748,104.633Zm22.242,8.689v4.156a1.371,1.371,0,0,1-1.37,1.37H62.189a1.4,1.4,0,0,1-1.37-1.477c3.089.033,5.075-2.5,5.075-5.419H70.62A1.371,1.371,0,0,1,71.99,113.322Zm-11.171,0a1.371,1.371,0,0,1,1.37-1.37h.982c0,1.417-.756,2.743-2.352,2.7Z" transform="translate(-36.641 -85.292)"/>
        </g>
      </g>
      <g id="Trazado_658544" data-name="Trazado 658544" transform="translate(824.45 3245.282)" fill="none">
        <path d="M183.576,0C284.962,0,367.152,77.686,367.152,173.517s-82.19,173.517-183.576,173.517S0,269.348,0,173.517,82.19,0,183.576,0Z" stroke="none"/>
        <path d="M 183.5761413574219 2.000030517578125 C 171.2478942871094 2.000030517578125 158.9280853271484 3.173828125 146.9589385986328 5.488861083984375 C 135.2959899902344 7.744659423828125 123.8242340087891 11.11056518554688 112.8624420166016 15.492919921875 C 102.1009826660156 19.79525756835938 91.72183227539062 25.1201171875 82.01339721679688 31.31967163085938 C 72.398681640625 37.45925903320312 63.35784912109375 44.50985717773438 55.14202880859375 52.27545166015625 C 46.92819213867188 60.03921508789062 39.47149658203125 68.58151245117188 32.97903442382812 77.66506958007812 C 26.42623901367188 86.8330078125 20.79840087890625 96.63316345214844 16.25189208984375 106.7933654785156 C 11.62240600585938 117.138916015625 8.066986083984375 127.9648590087891 5.684326171875 138.9705657958984 C 3.239593505859375 150.2631225585938 2 161.8862609863281 2 173.5171661376953 C 2 185.1480712890625 3.239593505859375 196.7712097167969 5.684326171875 208.0637664794922 C 8.066986083984375 219.0694580078125 11.62240600585938 229.8954162597656 16.25189208984375 240.240966796875 C 20.79840087890625 250.4011688232422 26.42623901367188 260.2013244628906 32.97903442382812 269.3692626953125 C 39.47149658203125 278.4528198242188 46.92819213867188 286.9951171875 55.14202880859375 294.7588500976562 C 63.35784912109375 302.5244750976562 72.398681640625 309.5750732421875 82.01339721679688 315.7146606445312 C 91.72183227539062 321.9142150878906 102.1009826660156 327.2390747070312 112.8624420166016 331.5414123535156 C 123.8242340087891 335.9237670898438 135.2959899902344 339.2896728515625 146.9589385986328 341.5454711914062 C 158.9280853271484 343.8605041503906 171.2478942871094 345.0343017578125 183.5761413574219 345.0343017578125 C 195.9043884277344 345.0343017578125 208.2241973876953 343.8605041503906 220.1933441162109 341.5454711914062 C 231.8562927246094 339.2896728515625 243.3280334472656 335.9237670898438 254.2898406982422 331.5414123535156 C 265.0513000488281 327.2390747070312 275.4304504394531 321.9142150878906 285.1388854980469 315.7146606445312 C 294.7536010742188 309.5750732421875 303.79443359375 302.5244750976562 312.01025390625 294.7588500976562 C 320.2240905761719 286.9951171875 327.6807861328125 278.4528198242188 334.1732482910156 269.3692626953125 C 340.7260437011719 260.2013244628906 346.3538818359375 250.4011688232422 350.900390625 240.240966796875 C 355.5298767089844 229.8954162597656 359.0852966308594 219.0694580078125 361.4679565429688 208.0637664794922 C 363.9126892089844 196.7712097167969 365.1522827148438 185.1480712890625 365.1522827148438 173.5171661376953 C 365.1522827148438 161.8862609863281 363.9126892089844 150.2631225585938 361.4679565429688 138.9705657958984 C 359.0852966308594 127.9648590087891 355.5298767089844 117.138916015625 350.900390625 106.7933654785156 C 346.3538818359375 96.63316345214844 340.7260437011719 86.8330078125 334.1732482910156 77.66506958007812 C 327.6807861328125 68.58151245117188 320.2240905761719 60.03921508789062 312.01025390625 52.27545166015625 C 303.79443359375 44.50985717773438 294.7536010742188 37.45925903320312 285.1388854980469 31.31967163085938 C 275.4304504394531 25.1201171875 265.0513000488281 19.79525756835938 254.2898406982422 15.492919921875 C 243.3280334472656 11.11056518554688 231.8562927246094 7.744659423828125 220.1933441162109 5.488861083984375 C 208.2241973876953 3.173828125 195.9043884277344 2.000030517578125 183.5761413574219 2.000030517578125 M 183.5761413574219 3.0517578125e-05 C 284.9624328613281 3.0517578125e-05 367.1522827148438 77.686279296875 367.1522827148438 173.5171661376953 C 367.1522827148438 269.3480834960938 284.9624328613281 347.0343017578125 183.5761413574219 347.0343017578125 C 82.18984985351562 347.0343017578125 0 269.3480834960938 0 173.5171661376953 C 0 77.686279296875 82.18984985351562 3.0517578125e-05 183.5761413574219 3.0517578125e-05 Z" stroke="none" fill="#21155c"/>
      </g>
      <g id="Grupo_963424" data-name="Grupo 963424" transform="translate(705 3376.385)">
        <g transform="matrix(1, 0, 0, 1, -112.85, -179.66)" filter="url(#Rectángulo_337096)">
          <rect id="Rectángulo_337096-2" data-name="Rectángulo 337096" width="215.819" height="57.389" rx="5" transform="translate(115.97 194.63)" fill="#4627a0"/>
        </g>
        <path id="Trazado_658932" data-name="Trazado 658932" d="M8.78,13.287H3.524v3.938H9.668V19H1.3V6.2H9.606V8H3.524v3.533H8.78Zm4.474-3.8.062,1.1a3.419,3.419,0,0,1,2.769-1.274q2.971,0,3.023,3.4V19H16.972V12.839a1.958,1.958,0,0,0-.391-1.34,1.645,1.645,0,0,0-1.279-.435,2.058,2.058,0,0,0-1.925,1.169V19H11.241V9.49Zm11.936,7.98A1.931,1.931,0,0,0,26.517,17a1.591,1.591,0,0,0,.563-1.151h2.013a3.137,3.137,0,0,1-.554,1.657,3.632,3.632,0,0,1-1.406,1.217,4.191,4.191,0,0,1-1.916.448,4.055,4.055,0,0,1-3.164-1.292,5.124,5.124,0,0,1-1.169-3.568V14.1a5.039,5.039,0,0,1,1.16-3.476,4.018,4.018,0,0,1,3.164-1.305,3.907,3.907,0,0,1,2.764.989,3.542,3.542,0,0,1,1.121,2.6H27.079a1.956,1.956,0,0,0-.558-1.345,1.8,1.8,0,0,0-1.332-.527,1.879,1.879,0,0,0-1.6.751,3.834,3.834,0,0,0-.571,2.281V14.4a3.9,3.9,0,0,0,.558,2.307A1.878,1.878,0,0,0,25.189,17.471ZM36.387,19a3.3,3.3,0,0,1-.246-.888,3.593,3.593,0,0,1-4.834.246,2.615,2.615,0,0,1-.905-2.021A2.7,2.7,0,0,1,31.531,14a5.473,5.473,0,0,1,3.23-.813h1.31v-.624a1.666,1.666,0,0,0-.413-1.182A1.638,1.638,0,0,0,34.4,10.94a1.881,1.881,0,0,0-1.2.365,1.129,1.129,0,0,0-.466.927H30.6a2.37,2.37,0,0,1,.519-1.463A3.455,3.455,0,0,1,32.533,9.7a4.955,4.955,0,0,1,1.991-.387,3.99,3.99,0,0,1,2.663.839,2.993,2.993,0,0,1,1.02,2.36V16.8a4.861,4.861,0,0,0,.36,2.048V19ZM34.04,17.462a2.429,2.429,0,0,0,1.191-.308,2.055,2.055,0,0,0,.839-.826V14.535H34.919a3.148,3.148,0,0,0-1.784.413,1.338,1.338,0,0,0-.6,1.169,1.248,1.248,0,0,0,.409.98A1.583,1.583,0,0,0,34.04,17.462ZM42.425,9.49l.062,1.1a3.419,3.419,0,0,1,2.769-1.274q2.971,0,3.023,3.4V19H46.143V12.839a1.958,1.958,0,0,0-.391-1.34,1.645,1.645,0,0,0-1.279-.435,2.058,2.058,0,0,0-1.925,1.169V19H40.412V9.49ZM53.13,7.179V9.49h1.679v1.582H53.13v5.309a1.169,1.169,0,0,0,.215.787,1,1,0,0,0,.769.242,3.29,3.29,0,0,0,.747-.088v1.652a5.26,5.26,0,0,1-1.406.2q-2.461,0-2.461-2.716V11.072H49.43V9.49h1.564V7.179ZM62.121,19a3.3,3.3,0,0,1-.246-.888,3.593,3.593,0,0,1-4.834.246,2.615,2.615,0,0,1-.905-2.021A2.7,2.7,0,0,1,57.265,14a5.473,5.473,0,0,1,3.23-.813H61.8v-.624a1.666,1.666,0,0,0-.413-1.182,1.638,1.638,0,0,0-1.257-.444,1.881,1.881,0,0,0-1.2.365,1.129,1.129,0,0,0-.466.927H56.338a2.37,2.37,0,0,1,.519-1.463A3.455,3.455,0,0,1,58.267,9.7a4.955,4.955,0,0,1,1.991-.387,3.99,3.99,0,0,1,2.663.839,2.993,2.993,0,0,1,1.02,2.36V16.8a4.861,4.861,0,0,0,.36,2.048V19Zm-2.347-1.538a2.429,2.429,0,0,0,1.191-.308,2.055,2.055,0,0,0,.839-.826V14.535H60.653a3.148,3.148,0,0,0-1.784.413,1.338,1.338,0,0,0-.6,1.169,1.248,1.248,0,0,0,.409.98A1.583,1.583,0,0,0,59.774,17.462Zm11.382-6.021a5.285,5.285,0,0,0-.87-.07A1.959,1.959,0,0,0,68.309,12.5V19H66.173V9.49h2.039l.053,1.063a2.406,2.406,0,0,1,2.145-1.239,2,2,0,0,1,.756.123Z" transform="translate(99.885 31.66)" fill="#fff"/>
        <rect id="Rectángulo_337098" data-name="Rectángulo 337098" width="60.792" height="60.792" rx="3" transform="translate(30.396 0) rotate(30)" fill="#ffd41c"/>
        <g id="club-de-fans" transform="translate(20.73 23.015)">
          <g id="Grupo_98759" data-name="Grupo 98759" transform="translate(0.609 0.609)">
            <g id="Grupo_98758" data-name="Grupo 98758">
              <path id="Trazado_125707" data-name="Trazado 125707" d="M47.039,30.452H8.327a.827.827,0,0,1-.827-.827V10.119a.827.827,0,0,1,.827-.827H47.039a.827.827,0,0,1,.827.827V29.625A.827.827,0,0,1,47.039,30.452Z" transform="translate(-7.5 -9.292)" fill="#faf7f7"/>
            </g>
          </g>
          <g id="Grupo_98761" data-name="Grupo 98761" transform="translate(0.609 0.609)">
            <g id="Grupo_98760" data-name="Grupo 98760">
              <path id="Trazado_125708" data-name="Trazado 125708" d="M47.1,9.292H45.623V28.2a.761.761,0,0,1-.761.761H7.5v.734a.76.76,0,0,0,.761.761H47.1a.76.76,0,0,0,.761-.761V10.053A.761.761,0,0,0,47.1,9.292Z" transform="translate(-7.5 -9.292)" fill="#f3eae6"/>
            </g>
          </g>
          <g id="Grupo_98763" data-name="Grupo 98763" transform="translate(18.059 21.789)">
            <g id="Grupo_98762" data-name="Grupo 98762">
              <path id="Trazado_125709" data-name="Trazado 125709" d="M225.781,288.963H223.1a.75.75,0,0,1-.75-.75V270.069h4.179v18.145a.75.75,0,0,1-.75.75Z" transform="translate(-222.352 -270.069)" fill="#d88a55"/>
            </g>
          </g>
          <g id="Grupo_98765" data-name="Grupo 98765" transform="translate(27.145 27.597)">
            <g id="Grupo_98764" data-name="Grupo 98764">
              <path id="Trazado_125710" data-name="Trazado 125710" d="M348.054,342.156v7.2a.577.577,0,0,1-.577.577H334.225v-8.356h13.252A.577.577,0,0,1,348.054,342.156Z" transform="translate(-334.225 -341.579)" fill="#ffe5c2"/>
            </g>
          </g>
          <g id="Grupo_98767" data-name="Grupo 98767" transform="translate(27.145 27.597)">
            <g id="Grupo_98766" data-name="Grupo 98766">
              <path id="Trazado_125711" data-name="Trazado 125711" d="M334.225,341.579h3.154v8.356h-3.154Z" transform="translate(-334.225 -341.579)" fill="#fed2a4"/>
            </g>
          </g>
          <g id="Grupo_98769" data-name="Grupo 98769" transform="translate(14.504 35.398)">
            <g id="Grupo_98768" data-name="Grupo 98768">
              <path id="Trazado_125712" data-name="Trazado 125712" d="M184.535,439.133a1.5,1.5,0,0,1-1.5,1.5h-2.956a1.5,1.5,0,1,1,0-3h2.956A1.5,1.5,0,0,1,184.535,439.133Z" transform="translate(-178.582 -437.634)" fill="#ffe5c2"/>
            </g>
          </g>
          <g id="Grupo_98771" data-name="Grupo 98771" transform="translate(13.877 32.401)">
            <g id="Grupo_98770" data-name="Grupo 98770">
              <path id="Trazado_125713" data-name="Trazado 125713" d="M176.959,402.121v.221a1.388,1.388,0,0,1-1.388,1.388H172.25a1.388,1.388,0,0,1-1.388-1.388v-.221a1.388,1.388,0,0,1,1.388-1.388h3.321A1.388,1.388,0,0,1,176.959,402.121Z" transform="translate(-170.862 -400.733)" fill="#ffe5c2"/>
            </g>
          </g>
          <g id="Grupo_98773" data-name="Grupo 98773" transform="translate(12.961 29.404)">
            <g id="Grupo_98772" data-name="Grupo 98772">
              <path id="Trazado_125714" data-name="Trazado 125714" d="M165.582,365.219v.221a1.388,1.388,0,0,1-1.388,1.388h-3.225a1.388,1.388,0,0,1-1.388-1.388v-.221a1.388,1.388,0,0,1,1.388-1.388h3.225A1.388,1.388,0,0,1,165.582,365.219Z" transform="translate(-159.581 -363.831)" fill="#ffe5c2"/>
            </g>
          </g>
          <g id="Grupo_98775" data-name="Grupo 98775" transform="translate(12.961 26.407)">
            <g id="Grupo_98774" data-name="Grupo 98774">
              <path id="Trazado_125715" data-name="Trazado 125715" d="M164.334,326.928h-3.255a1.5,1.5,0,0,0,0,3h2.133Z" transform="translate(-159.581 -326.928)" fill="#ffe5c2"/>
            </g>
          </g>
          <g id="Grupo_98777" data-name="Grupo 98777" transform="translate(16.869 24.108)">
            <g id="Grupo_98776" data-name="Grupo 98776">
              <path id="Trazado_125716" data-name="Trazado 125716" d="M219.3,306.286a7.487,7.487,0,0,0-.75-5.276,5.546,5.546,0,0,0-5.5-2.307l-3.176.592a1.375,1.375,0,0,0-1.041.884l-1.089,3.015a.742.742,0,0,0,.744.994,3.635,3.635,0,0,0,1.934-.667l-1.231,9.394h6.27a3.84,3.84,0,0,0,3.84-3.84v-2.633l-.073-.142Z" transform="translate(-207.702 -298.628)" fill="#ffe5c2"/>
            </g>
          </g>
          <g id="Grupo_98779" data-name="Grupo 98779" transform="translate(16.869 27.507)">
            <g id="Grupo_98778" data-name="Grupo 98778">
              <path id="Trazado_125717" data-name="Trazado 125717" d="M208.165,340.487l-.417,1.154a.741.741,0,0,0,.18.784l.256-1.952Z" transform="translate(-207.703 -340.474)" fill="#fed2a4"/>
            </g>
          </g>
          <g id="Grupo_98781" data-name="Grupo 98781" transform="translate(18.36 24.435)">
            <g id="Grupo_98780" data-name="Grupo 98780">
              <path id="Trazado_125718" data-name="Trazado 125718" d="M235.425,304.705a5.042,5.042,0,0,0-2.66-2.055,5.021,5.021,0,0,1,.419.561c1.491,2.319.973,8.233.973,8.233a3.9,3.9,0,0,1-4.063,3.672h-3.832l-.2,1.495h6.27a3.84,3.84,0,0,0,3.84-3.84v-2.633A7.9,7.9,0,0,0,235.425,304.705Z" transform="translate(-226.065 -302.65)" fill="#fed2a4"/>
            </g>
          </g>
          <g id="Grupo_98783" data-name="Grupo 98783" transform="translate(14.504 36.149)">
            <g id="Grupo_98782" data-name="Grupo 98782">
              <path id="Trazado_125719" data-name="Trazado 125719" d="M183.036,447.635h-2.956a1.5,1.5,0,0,1-1.3-.751,1.5,1.5,0,0,0,1.3,2.246h2.956a1.5,1.5,0,0,0,1.3-2.246A1.5,1.5,0,0,1,183.036,447.635Z" transform="translate(-178.582 -446.884)" fill="#fed2a4"/>
            </g>
          </g>
          <g id="Grupo_98785" data-name="Grupo 98785" transform="translate(18.759 27.314)">
            <g id="Grupo_98784" data-name="Grupo 98784">
              <path id="Trazado_125720" data-name="Trazado 125720" d="M234.454,350.062V338.1l-2.09.81-1.389,2.026.822,3.581.715,5.55Z" transform="translate(-230.975 -338.095)" fill="#d88a55"/>
            </g>
          </g>
          <g id="Grupo_98787" data-name="Grupo 98787" transform="translate(16.058 4.996)">
            <g id="Grupo_98786" data-name="Grupo 98786">
              <path id="Trazado_125721" data-name="Trazado 125721" d="M208.346,63.307a4.329,4.329,0,0,0-3.147,1.351,4.342,4.342,0,1,0-6.234,6.047c.787.8,6.234,4.988,6.234,4.988s5.42-4.18,6.2-4.959a4.343,4.343,0,0,0-3.058-7.427Z" transform="translate(-197.71 -63.307)" fill="#fe646f"/>
            </g>
          </g>
          <g id="Grupo_98788" data-name="Grupo 98788" transform="translate(0 0)">
            <path id="Trazado_125722" data-name="Trazado 125722" d="M40.214,24.17a1.371,1.371,0,0,0,1.37-1.37V3.162a1.371,1.371,0,0,0-1.37-1.37H11.066a.609.609,0,0,0,0,1.218H40.214a.152.152,0,0,1,.151.151V22.8a.152.152,0,0,1-.151.151H1.37a.152.152,0,0,1-.151-.151V3.162A.152.152,0,0,1,1.37,3.01H8.824a.609.609,0,0,0,0-1.218H1.37A1.371,1.371,0,0,0,0,3.162V22.8a1.371,1.371,0,0,0,1.37,1.37H17.45V27.2c-.006.016-.013.032-.019.048l-.125.345H14.459a2.106,2.106,0,0,0-1.48,3.606,2.106,2.106,0,0,0,.555,3.392,1.984,1.984,0,0,0-.266.994V35.8a2,2,0,0,0,.981,1.719A2.106,2.106,0,0,0,16,40.8h1.447v.929a1.36,1.36,0,0,0,1.359,1.359h2.68a1.36,1.36,0,0,0,1.359-1.359V40.8H24.63A4.453,4.453,0,0,0,28.6,38.354H40.443a1.141,1.141,0,0,0,1.14-1.14V29.92a1.141,1.141,0,0,0-1.14-1.14h-4.39a.609.609,0,0,0,0,1.218h4.312v7.138H29.008a4.451,4.451,0,0,0,.071-.789v-2.74A9.837,9.837,0,0,0,28.925,30h4.887a.609.609,0,0,0,0-1.218H28.488a5.269,5.269,0,0,0-.278-.506,6.5,6.5,0,0,0-5.364-2.961V24.17H40.214Zm-18.585,1.3-2.7.5a1.959,1.959,0,0,0-.265.069V24.19h2.961ZM13.57,29.7a.89.89,0,0,1,.889-.889h2.406l-.525,1.452a1.358,1.358,0,0,0-.074.327H14.459a.89.89,0,0,1-.889-.889ZM16.806,31.8a1.34,1.34,0,0,0,.892.264c.124-.008.245-.021.365-.038.012.015.025.03.039.045a.889.889,0,0,1-.639,1.508h-3a.889.889,0,0,1,0-1.779h2.346Zm2.559,4a.78.78,0,0,1-.779.779H15.265a.78.78,0,0,1-.779-.779v-.221a.78.78,0,0,1,.779-.779h3.321a.78.78,0,0,1,.779.779Zm-4.252,2.887A.89.89,0,0,1,16,37.8h2.956a.889.889,0,1,1,0,1.779H16A.89.89,0,0,1,15.113,38.689Zm6.516,3.037a.141.141,0,0,1-.141.14h-2.68a.141.141,0,0,1-.141-.14V40.8h.29A2.107,2.107,0,0,0,20.2,36.984a1.986,1.986,0,0,0,.388-1.182v-.221A2,2,0,0,0,19.3,33.718a2.1,2.1,0,0,0,0-2.048,3.919,3.919,0,0,0,2.012-2.253,7.52,7.52,0,0,0,.316,1.2.616.616,0,0,0-.005.075v9.343a.55.55,0,0,1,0,.151v1.538Zm5.549-12.8a7.526,7.526,0,0,1,.692,4.535c0,.007,0,.014,0,.021s0,.019,0,.029,0,2.841,0,2.841a3.235,3.235,0,0,1-3.231,3.231H22.847V32.685c.083.091.171.179.263.266a.609.609,0,0,0,.831-.891,5.2,5.2,0,0,1-1.424-2.854,1.218,1.218,0,0,0-2.339-.222,2.722,2.722,0,0,1-2.561,1.868.124.124,0,0,1-.112-.052.13.13,0,0,1-.019-.127l1.089-3.015a.768.768,0,0,1,.58-.493l3.134-.585a.6.6,0,0,0,.1-.017,5.209,5.209,0,0,1,4.79,2.357Z" transform="translate(0 -1.792)"/>
            <path id="Trazado_125723" data-name="Trazado 125723" d="M198.309,69.412a.609.609,0,0,0,.372-.127c.222-.172,5.459-4.213,6.261-5.009a4.952,4.952,0,0,0-6.633-7.34,4.9,4.9,0,0,0-3.147-1.128,4.952,4.952,0,0,0-3.52,8.436c.807.815,6.071,4.87,6.295,5.042A.609.609,0,0,0,198.309,69.412Zm-6.881-8.652a3.738,3.738,0,0,1,3.734-3.734,3.7,3.7,0,0,1,2.705,1.162.609.609,0,0,0,.883,0,3.7,3.7,0,0,1,2.705-1.162,3.734,3.734,0,0,1,2.629,6.385c-.576.571-4.072,3.3-5.776,4.622-1.711-1.322-5.224-4.064-5.8-4.647A3.71,3.71,0,0,1,191.428,60.76Z" transform="translate(-174.762 -51.421)"/>
            <path id="Trazado_125724" data-name="Trazado 125724" d="M123.914,68.194h-.949a.609.609,0,0,0,0,1.218h3.115a.609.609,0,1,0,0-1.218h-.949V57.128a.613.613,0,0,0-.009-.1h.958a.609.609,0,1,0,0-1.218h-3.115a.609.609,0,0,0,0,1.218h.958a.616.616,0,0,0-.009.1Z" transform="translate(-112.419 -51.421)"/>
          </g>
        </g>
      </g>
      <g id="Grupo_963423" data-name="Grupo 963423" transform="translate(1084.08 3376.385)">
        <g transform="matrix(1, 0, 0, 1, -491.93, -179.66)" filter="url(#Rectángulo_337094)">
          <rect id="Rectángulo_337094-2" data-name="Rectángulo 337094" width="215.819" height="57.389" rx="5" transform="translate(491.93 195)" fill="#4627a0"/>
        </g>
        <path id="Trazado_658933" data-name="Trazado 658933" d="M21.087,14.834a4.621,4.621,0,0,1-1.512,3.195,5.154,5.154,0,0,1-3.507,1.147,4.99,4.99,0,0,1-2.694-.725,4.759,4.759,0,0,1-1.8-2.061,7.438,7.438,0,0,1-.659-3.1v-1.2A7.491,7.491,0,0,1,11.56,8.9,4.835,4.835,0,0,1,13.4,6.774a5.136,5.136,0,0,1,2.773-.747,4.946,4.946,0,0,1,3.41,1.147,4.793,4.793,0,0,1,1.5,3.248H18.872a3.161,3.161,0,0,0-.8-1.991,2.658,2.658,0,0,0-1.894-.611,2.6,2.6,0,0,0-2.228,1.06,5.3,5.3,0,0,0-.8,3.11v1.135a5.62,5.62,0,0,0,.743,3.167,2.464,2.464,0,0,0,2.175,1.091,2.875,2.875,0,0,0,1.969-.589,3.071,3.071,0,0,0,.835-1.96Zm1.38-.677a5.607,5.607,0,0,1,.554-2.518,4.044,4.044,0,0,1,1.556-1.723,4.383,4.383,0,0,1,2.3-.6A4.154,4.154,0,0,1,30,10.554a4.874,4.874,0,0,1,1.3,3.287l.009.5a5.658,5.658,0,0,1-.541,2.514,4,4,0,0,1-1.547,1.714,4.415,4.415,0,0,1-2.325.606,4.125,4.125,0,0,1-3.221-1.34,5.133,5.133,0,0,1-1.208-3.573Zm2.136.185a3.832,3.832,0,0,0,.606,2.3,1.971,1.971,0,0,0,1.688.831,1.95,1.95,0,0,0,1.683-.844,4.232,4.232,0,0,0,.6-2.47,3.782,3.782,0,0,0-.62-2.285,2.089,2.089,0,0,0-3.344-.013A4.152,4.152,0,0,0,24.6,14.342ZM35.1,9.49l.062,1.1a3.419,3.419,0,0,1,2.769-1.274q2.971,0,3.023,3.4V19H38.815V12.839a1.958,1.958,0,0,0-.391-1.34,1.645,1.645,0,0,0-1.279-.435,2.058,2.058,0,0,0-1.925,1.169V19H33.084V9.49Zm11.382,6.8,2.013-6.8H50.7L47.4,19H45.547L42.225,9.49H44.44Zm9.738,2.883A4.419,4.419,0,0,1,52.926,17.9a4.639,4.639,0,0,1-1.261-3.406v-.264a5.706,5.706,0,0,1,.549-2.544,4.181,4.181,0,0,1,1.542-1.745,4.078,4.078,0,0,1,2.215-.624,3.733,3.733,0,0,1,3,1.239,5.24,5.24,0,0,1,1.059,3.507v.861H53.818a2.856,2.856,0,0,0,.787,1.863,2.362,2.362,0,0,0,1.736.686,2.892,2.892,0,0,0,2.391-1.187l1.151,1.1a3.845,3.845,0,0,1-1.525,1.323A4.774,4.774,0,0,1,56.217,19.176Zm-.255-8.147a1.8,1.8,0,0,0-1.419.615,3.189,3.189,0,0,0-.69,1.714h4.069V13.2a2.6,2.6,0,0,0-.571-1.622A1.785,1.785,0,0,0,55.962,11.028Zm10.705.413a5.285,5.285,0,0,0-.87-.07A1.959,1.959,0,0,0,63.82,12.5V19H61.684V9.49h2.039l.053,1.063A2.406,2.406,0,0,1,65.92,9.314a2,2,0,0,1,.756.123Zm4.465-4.263V9.49h1.679v1.582H71.132v5.309a1.169,1.169,0,0,0,.215.787,1,1,0,0,0,.769.242,3.29,3.29,0,0,0,.747-.088v1.652a5.26,5.26,0,0,1-1.406.2Q69,19.176,69,16.46V11.072H67.432V9.49H69V7.179ZM76.713,19H74.577V9.49h2.136ZM74.446,7.021a1.133,1.133,0,0,1,.312-.817,1.179,1.179,0,0,1,.892-.325,1.193,1.193,0,0,1,.9.325,1.125,1.125,0,0,1,.316.817,1.1,1.1,0,0,1-.316.8,1.2,1.2,0,0,1-.9.321,1.188,1.188,0,0,1-.892-.321A1.107,1.107,0,0,1,74.446,7.021Zm9.571,4.421a5.285,5.285,0,0,0-.87-.07A1.959,1.959,0,0,0,81.169,12.5V19H79.034V9.49h2.039l.053,1.063A2.406,2.406,0,0,1,83.27,9.314a2,2,0,0,1,.756.123Z" transform="translate(97.303 32.336)" fill="#fff"/>
        <rect id="Rectángulo_337099" data-name="Rectángulo 337099" width="60.792" height="60.792" rx="3" transform="translate(38.793 0) rotate(30)" fill="#ffd41c"/>
        <g id="Convert_File" data-name="Convert File" transform="translate(25.147 24.811)">
          <path id="Trazado_125742" data-name="Trazado 125742" d="M66.228,17.755V44.844a1.783,1.783,0,0,1-1.788,1.783H40.133A1.778,1.778,0,0,1,38.6,44.864V12.043a1.783,1.783,0,0,1,1.783-1.783H58.738Z" transform="translate(-19.691 -10.073)" fill="#f7f2dd"/>
          <path id="Trazado_125744" data-name="Trazado 125744" d="M49.784,17.71V44.8A1.788,1.788,0,0,1,48,46.587H40.163a1.778,1.778,0,0,1-1.533-1.763V12a1.783,1.783,0,0,1,1.783-1.783h1.92Z" transform="translate(-19.707 -10.053)" fill="#f7ebb4"/>
          <path id="Trazado_125745" data-name="Trazado 125745" d="M53.5,56.6l-4.565,2.856a.98.98,0,0,1-1.47-.823v-.98h-6.9v.98a.98.98,0,0,1-1.47.823L34.537,56.6a.98.98,0,0,1,0-1.641L39.1,52.1a.98.98,0,0,1,1.47.818v.98h6.883v-.98a.98.98,0,0,1,1.47-.818l4.565,2.856A.98.98,0,0,1,53.5,56.6Z" transform="translate(-17.392 -31.352)" fill="#ffb999"/>
          <path id="Trazado_125746" data-name="Trazado 125746" d="M87.2,17.755H81.493a1.783,1.783,0,0,1-1.783-1.783V10.26Z" transform="translate(-40.663 -10.073)" fill="#f7ebb4"/>
          <rect id="Rectángulo_337079" data-name="Rectángulo 337079" width="13.118" height="3.645" rx="1.16" transform="translate(22.289 5.835)" fill="#ffa58a"/>
          <path id="Trazado_125747" data-name="Trazado 125747" d="M28.628,17.71V44.8a1.788,1.788,0,0,1-1.783,1.788H2.788A1.788,1.788,0,0,1,1,44.8V12A1.783,1.783,0,0,1,2.783,10.22h18.36Z" transform="translate(-0.51 -10.053)" fill="#dcf1ff"/>
          <path id="Trazado_125748" data-name="Trazado 125748" d="M23.685,53.911v-.98a.98.98,0,0,0-1.47-.818l-4.561,2.851a.98.98,0,0,0,0,1.641l4.565,2.856a.98.98,0,0,0,1.47-.823v-.98h1.842a1.024,1.024,0,0,1,.98,1.2,8.617,8.617,0,0,1-8.46,7.078H4.071A1.112,1.112,0,0,1,2.959,64.82V60.808A.981.981,0,1,0,1,60.744V66.1a1.788,1.788,0,0,0,1.788,1.788H26.845a1.783,1.783,0,0,0,1.783-1.783v-12.2Z" transform="translate(-0.51 -31.357)" fill="#b9ceff"/>
          <path id="Trazado_125752" data-name="Trazado 125752" d="M49.605,17.71H43.9a1.783,1.783,0,0,1-1.783-1.783V10.22Z" transform="translate(-21.487 -10.053)" fill="#b4c4ff"/>
          <rect id="Rectángulo_337081" data-name="Rectángulo 337081" width="3.645" height="3.645" rx="1.16" transform="translate(4.183 5.835)" fill="#b4c4ff"/>
          <path id="Trazado_125753" data-name="Trazado 125753" d="M53.5,52.05l-4.565,2.856a.98.98,0,0,1-1.47-.823v-.99h-6.9v.98a.98.98,0,0,1-1.47.823L34.537,52.05a.98.98,0,0,1,0-1.641L39.1,47.553a.98.98,0,0,1,1.47.818v.98h6.883v-.98a.98.98,0,0,1,1.47-.818l4.565,2.856a.98.98,0,0,1,.01,1.641Z" transform="translate(-17.392 -29.031)" fill="#51b89a"/>
          <g id="Grupo_98790" data-name="Grupo 98790" transform="translate(0 0)">
            <path id="Trazado_125754" data-name="Trazado 125754" d="M47.026,17.83a.49.49,0,0,0-.137-.314C39.051,9.679,39.37,9.88,39.051,9.88H2.273A2.273,2.273,0,0,0,0,12.152v32.82a2.278,2.278,0,0,0,2.278,2.278H44.749a2.278,2.278,0,0,0,2.278-2.3V17.83Zm-7.49-6.28,5.815,5.82H40.83a1.293,1.293,0,0,1-1.293-1.293Zm-18.414,0,5.82,5.82H22.416a1.293,1.293,0,0,1-1.293-1.293Zm7.48,6.29c0-.26-.078-.265-1.122-1.313,7.941,0,7.436-.034,7.436.078v2.513c0,.113.289.073-6.309.073C28.608,17.526,28.608,17.962,28.6,17.84ZM2.278,46.251a1.3,1.3,0,0,1-1.3-1.3v-32.8a1.293,1.293,0,0,1,1.293-1.293h17.87v5.217a2.273,2.273,0,0,0,2.273,2.273h5.212V30.022H23.665v-.49A1.47,1.47,0,0,0,21.436,28.3l-4.565,2.856a1.47,1.47,0,0,0,0,2.449l4.565,2.861a1.47,1.47,0,0,0,2.229-1.239v-.49h3.963V44.948a1.3,1.3,0,0,1-1.293,1.3ZM30.063,33.785H23.175a.49.49,0,0,0-.49.49v.98a.49.49,0,0,1-.73.407L17.39,32.8a.49.49,0,0,1,0-.813c4.928-3.076,4.639-2.939,4.815-2.939a.49.49,0,0,1,.49.49v.98a.49.49,0,0,0,.49.49h6.878a.49.49,0,0,0,.49-.49v-.99a.49.49,0,0,1,.73-.407l4.565,2.856a.49.49,0,0,1,0,.808l-4.565,2.856a.49.49,0,0,1-.73-.407v-.98a.49.49,0,0,0-.49-.475Zm14.7,12.462H28.2a2.293,2.293,0,0,0,.407-1.3V41.941h4.115a.49.49,0,1,0,0-.98H28.608V38.923H42.843a.49.49,0,1,0,0-.98H28.608V34.764h.98v.49a1.47,1.47,0,0,0,2.229,1.234l4.565-2.856a1.47,1.47,0,0,0,0-2.449L31.8,28.308a1.47,1.47,0,0,0-2.229,1.225v.49h-.98V26.838h14.25a.49.49,0,0,0,0-.98H28.608V23.836H42.843a.49.49,0,0,0,0-.98H28.608V20.171h6.236A1.053,1.053,0,0,0,35.9,19.118V16.605a1.058,1.058,0,0,0-1.053-1.058H26.516l-4.683-4.688H38.557v5.217a2.273,2.273,0,0,0,2.273,2.273h5.217v26.6a1.3,1.3,0,0,1-1.3,1.3Z" transform="translate(0 -9.879)" fill="#302d3d"/>
            <path id="Trazado_125755" data-name="Trazado 125755" d="M79.956,48.69H73.24a.49.49,0,0,0,0,.98h6.716a.49.49,0,1,0,0-.98Z" transform="translate(-37.113 -29.678)" fill="#302d3d"/>
            <path id="Trazado_125756" data-name="Trazado 125756" d="M82.547,54.85H78.32a.49.49,0,1,0,0,.98h4.227a.49.49,0,0,0,0-.98Z" transform="translate(-39.704 -32.821)" fill="#302d3d"/>
            <path id="Trazado_125757" data-name="Trazado 125757" d="M79.956,61H73.24a.49.49,0,0,0,0,.98h6.716a.49.49,0,1,0,0-.98Z" transform="translate(-37.113 -35.958)" fill="#302d3d"/>
            <path id="Trazado_125758" data-name="Trazado 125758" d="M28.276,67.17H8.03a.49.49,0,1,0,0,.98H28.276a.49.49,0,1,0,0-.98Z" transform="translate(-3.846 -39.106)" fill="#302d3d"/>
            <path id="Trazado_125759" data-name="Trazado 125759" d="M18.15,73.33H8.03a.49.49,0,1,0,0,.98H18.15a.49.49,0,1,0,0-.98Z" transform="translate(-3.846 -42.248)" fill="#302d3d"/>
            <path id="Trazado_125760" data-name="Trazado 125760" d="M8.593,26.074h2.513a1.058,1.058,0,0,0,1.068-1.053V22.508a1.058,1.058,0,0,0-1.058-1.058H8.593A1.058,1.058,0,0,0,7.54,22.508v2.513a1.053,1.053,0,0,0,1.053,1.053ZM8.52,22.508a.078.078,0,0,1,.073-.078h2.513a.078.078,0,0,1,.078.078v2.513a.078.078,0,0,1-.078.073H8.593a.073.073,0,0,1-.073-.073Z" transform="translate(-3.846 -15.782)" fill="#302d3d"/>
            <path id="Trazado_125761" data-name="Trazado 125761" d="M8.03,37.35H28.276a.49.49,0,1,0,0-.98H8.03a.49.49,0,1,0,0,.98Z" transform="translate(-3.846 -23.393)" fill="#302d3d"/>
            <path id="Trazado_125762" data-name="Trazado 125762" d="M8.03,43.51H28.276a.49.49,0,0,0,0-.98H8.03a.49.49,0,1,0,0,.98Z" transform="translate(-3.846 -26.536)" fill="#302d3d"/>
            <path id="Trazado_125763" data-name="Trazado 125763" d="M8.03,49.67H20.952a.49.49,0,1,0,0-.98H8.03a.49.49,0,1,0,0,.98Z" transform="translate(-3.846 -29.678)" fill="#302d3d"/>
            <path id="Trazado_125764" data-name="Trazado 125764" d="M8.03,55.83H18.542a.49.49,0,1,0,0-.98H8.03a.49.49,0,1,0,0,.98Z" transform="translate(-3.846 -32.821)" fill="#302d3d"/>
            <path id="Trazado_125765" data-name="Trazado 125765" d="M8.03,61.98H20.952a.49.49,0,1,0,0-.98H8.03a.49.49,0,1,0,0,.98Z" transform="translate(-3.846 -35.958)" fill="#302d3d"/>
          </g>
        </g>
      </g>
      <g id="Grupo_963425" data-name="Grupo 963425" transform="translate(898.635 3530.452)">
        <g transform="matrix(1, 0, 0, 1, -306.48, -333.73)" filter="url(#Rectángulo_337097)">
          <rect id="Rectángulo_337097-2" data-name="Rectángulo 337097" width="215.819" height="57.389" rx="5" transform="translate(306.48 347)" fill="#4627a0"/>
        </g>
        <path id="Trazado_658934" data-name="Trazado 658934" d="M22.8,16.214,26.048,6.2h2.443L23.886,19H21.733L17.145,6.2h2.435Zm11.118,2.962A4.419,4.419,0,0,1,30.623,17.9a4.639,4.639,0,0,1-1.261-3.406v-.264a5.706,5.706,0,0,1,.549-2.544,4.181,4.181,0,0,1,1.542-1.745,4.078,4.078,0,0,1,2.215-.624,3.733,3.733,0,0,1,3,1.239,5.24,5.24,0,0,1,1.059,3.507v.861H31.515a2.856,2.856,0,0,0,.787,1.863,2.362,2.362,0,0,0,1.736.686,2.892,2.892,0,0,0,2.391-1.187l1.151,1.1a3.845,3.845,0,0,1-1.525,1.323A4.774,4.774,0,0,1,33.914,19.176Zm-.255-8.147a1.8,1.8,0,0,0-1.419.615,3.189,3.189,0,0,0-.69,1.714H35.62V13.2a2.6,2.6,0,0,0-.571-1.622A1.785,1.785,0,0,0,33.66,11.028ZM41.368,9.49l.062,1.1A3.419,3.419,0,0,1,44.2,9.314q2.971,0,3.023,3.4V19H45.085V12.839a1.958,1.958,0,0,0-.391-1.34,1.645,1.645,0,0,0-1.279-.435,2.058,2.058,0,0,0-1.925,1.169V19H39.355V9.49ZM49,14.175a5.654,5.654,0,0,1,1.02-3.529,3.267,3.267,0,0,1,2.733-1.332,3.1,3.1,0,0,1,2.443,1.055V5.5h2.136V19H55.395l-.105-.984a3.148,3.148,0,0,1-2.558,1.16,3.248,3.248,0,0,1-2.7-1.345A5.861,5.861,0,0,1,49,14.175Zm2.136.185a3.958,3.958,0,0,0,.558,2.263,1.811,1.811,0,0,0,1.586.813,2.017,2.017,0,0,0,1.916-1.169V12.206a1.986,1.986,0,0,0-1.9-1.143,1.824,1.824,0,0,0-1.6.822A4.408,4.408,0,0,0,51.132,14.359Zm12.612,4.816A4.419,4.419,0,0,1,60.453,17.9a4.639,4.639,0,0,1-1.261-3.406v-.264a5.706,5.706,0,0,1,.549-2.544,4.181,4.181,0,0,1,1.542-1.745A4.078,4.078,0,0,1,63.5,9.314a3.733,3.733,0,0,1,3,1.239,5.24,5.24,0,0,1,1.059,3.507v.861H61.345a2.856,2.856,0,0,0,.787,1.863,2.362,2.362,0,0,0,1.736.686,2.892,2.892,0,0,0,2.391-1.187l1.151,1.1a3.845,3.845,0,0,1-1.525,1.323A4.774,4.774,0,0,1,63.745,19.176Zm-.255-8.147a1.8,1.8,0,0,0-1.419.615,3.189,3.189,0,0,0-.69,1.714H65.45V13.2a2.6,2.6,0,0,0-.571-1.622A1.785,1.785,0,0,0,63.49,11.028Zm10.705.413a5.285,5.285,0,0,0-.87-.07A1.959,1.959,0,0,0,71.347,12.5V19H69.211V9.49H71.25l.053,1.063a2.406,2.406,0,0,1,2.145-1.239,2,2,0,0,1,.756.123Z" transform="translate(99.23 31.963)" fill="#fff"/>
        <rect id="Rectángulo_337100" data-name="Rectángulo 337100" width="60.792" height="60.792" rx="3" transform="translate(41.583 0) rotate(30)" fill="#ffd41c"/>
        <g id="shopping-online" transform="translate(29.473 17.856)">
          <path id="Trazado_125781" data-name="Trazado 125781" d="M66.1,119.926H34.842A2.842,2.842,0,0,0,32,122.767v26.994H68.94V122.767A2.842,2.842,0,0,0,66.1,119.926Zm0,0" transform="translate(-29.158 -109.28)" fill="#4398d1"/>
          <path id="Trazado_125782" data-name="Trazado 125782" d="M93.836,151.926H64.71a.71.71,0,0,0-.71.71V177.5H95.257V153.347A1.421,1.421,0,0,0,93.836,151.926Zm0,0" transform="translate(-58.317 -138.439)" fill="#87ced9"/>
          <path id="Trazado_125783" data-name="Trazado 125783" d="M204.6,207.926l-20.6,20.6h20.6Zm0,0" transform="translate(-167.661 -189.466)" fill="#71c4d1"/>
          <path id="Trazado_125784" data-name="Trazado 125784" d="M242.656,7.926l2.206,2.422,3.121-.994.7,3.2,3.2.7-.994,3.121,2.422,2.206-2.422,2.206.994,3.121-3.2.7-.7,3.2-3.121-.994-2.206,2.422-2.206-2.422-3.121.994-.7-3.2-3.2-.7.994-3.121L232,18.581l2.422-2.206-.994-3.121,3.2-.7.7-3.2,3.121.994Zm0,0" transform="translate(-211.399 -7.225)" fill="#fdb62f"/>
          <g id="Grupo_98791" data-name="Grupo 98791" transform="translate(25.574 7.094)">
            <path id="Trazado_125785" data-name="Trazado 125785" d="M306.344,89.374l7.1-7.1,1,1-7.1,7.1Zm0,0" transform="translate(-304.715 -82.062)" fill="#fd6d2f"/>
            <path id="Trazado_125786" data-name="Trazado 125786" d="M290.131,84.188a2.131,2.131,0,1,1,2.131-2.131A2.131,2.131,0,0,1,290.131,84.188Zm0-2.841a.71.71,0,1,0,.71.71A.71.71,0,0,0,290.131,81.347Zm0,0" transform="translate(-288 -79.926)" fill="#fd6d2f"/>
            <path id="Trazado_125787" data-name="Trazado 125787" d="M370.131,132.188a2.131,2.131,0,1,1,2.131-2.131A2.131,2.131,0,0,1,370.131,132.188Zm0-2.841a.71.71,0,1,0,.71.71A.71.71,0,0,0,370.131,129.347Zm0,0" transform="translate(-360.896 -123.664)" fill="#fd6d2f"/>
          </g>
          <path id="Trazado_125788" data-name="Trazado 125788" d="M122.416,342.316l-2.552,1.035,1.665,3.37h2.795Zm0,0" transform="translate(-109.22 -311.923)" fill="#e0e3e6"/>
          <path id="Trazado_125789" data-name="Trazado 125789" d="M137.855,232.688l-8.826-.143-1.907-3.776,6.994-6.922Zm0,0" transform="translate(-115.833 -202.152)" fill="#e0e3e6"/>
          <path id="Trazado_125790" data-name="Trazado 125790" d="M96.111,303.234a2.06,2.06,0,0,0,2.871,1.177l1.694-.838L98.769,299.8,97,300.845A2.025,2.025,0,0,0,96.111,303.234Zm0,0" transform="translate(-87.481 -273.179)" fill="#d535c1"/>
          <path id="Trazado_125791" data-name="Trazado 125791" d="M249.281,265.586l2.349-.816.466,1.341-2.349.817Zm0,0" transform="translate(-227.146 -241.262)" fill="#5eb3d1"/>
          <path id="Trazado_125792" data-name="Trazado 125792" d="M228.492,204.023l1.567-1.633,1.025.984-1.567,1.633Zm0,0" transform="translate(-208.203 -184.422)" fill="#5eb3d1"/>
          <path id="Trazado_125793" data-name="Trazado 125793" d="M272,327.926h2.131v1.421H272Zm0,0" transform="translate(-247.847 -298.811)" fill="#5eb3d1"/>
          <path id="Trazado_125794" data-name="Trazado 125794" d="M320,279.926h13.5v8.525H320Zm0,0" transform="translate(-291.585 -255.073)" fill="#8bdf9e"/>
          <path id="Trazado_125795" data-name="Trazado 125795" d="M344,303.926h2.842v1.421H344Zm0,0" transform="translate(-313.454 -276.942)" fill="#c9433c"/>
          <path id="Trazado_125796" data-name="Trazado 125796" d="M392,303.926h4.973v1.421H392Zm0,0" transform="translate(-357.191 -276.942)" fill="#c9433c"/>
          <path id="Trazado_125797" data-name="Trazado 125797" d="M344,335.926h9.235v1.421H344Zm0,0" transform="translate(-313.454 -306.1)" fill="#c9433c"/>
          <path id="Trazado_125798" data-name="Trazado 125798" d="M8,183.926H18.656v5.683H8Zm0,0" transform="translate(-7.29 -167.597)" fill="#8bdf9e"/>
          <path id="Trazado_125799" data-name="Trazado 125799" d="M32,207.926h1.421v1.421H32Zm0,0" transform="translate(-29.158 -189.466)" fill="#e3584b"/>
          <path id="Trazado_125800" data-name="Trazado 125800" d="M64,207.926h3.552v1.421H64Zm0,0" transform="translate(-58.317 -189.466)" fill="#e3584b"/>
          <path id="Trazado_125801" data-name="Trazado 125801" d="M47.071,428.188H10.131A2.131,2.131,0,0,1,8,426.057v-2.131H24.255a1.285,1.285,0,0,1,1.15.71,1.285,1.285,0,0,0,1.15.71h4.094a1.285,1.285,0,0,0,1.15-.71,1.285,1.285,0,0,1,1.15-.71H49.2v2.131a2.131,2.131,0,0,1-2.131,2.131Zm0,0" transform="translate(-7.29 -386.286)" fill="#d6d9db"/>
          <path id="Trazado_125802" data-name="Trazado 125802" d="M69.683,199.926v4.262H64v1.421h7.1v-5.683Zm0,0" transform="translate(-58.317 -182.177)" fill="#71c4d1"/>
          <path id="Trazado_125803" data-name="Trazado 125803" d="M32,247.926h2.842v1.421H32Zm0,0" transform="translate(-29.158 -225.914)" fill="#3e8cc7"/>
          <path id="Trazado_125804" data-name="Trazado 125804" d="M416,375.926h2.841v1.421H416Zm0,0" transform="translate(-379.06 -342.548)" fill="#3e8cc7"/>
          <path id="Trazado_125805" data-name="Trazado 125805" d="M41.912,284.713H40.491v-1.421H39.07v1.421H37.649v-1.421H36.229v1.421H25.657a1.985,1.985,0,0,0-1.789,1.1.569.569,0,0,1-.514.317H19.264a.568.568,0,0,1-.514-.317,1.984,1.984,0,0,0-1.785-1.1H6.393V271.926H4.972v12.787H3.551V271.926H2.131v12.787H.71a.71.71,0,0,0-.71.71v2.131A2.842,2.842,0,0,0,2.841,290.4H39.78a2.842,2.842,0,0,0,2.842-2.842v-2.131a.71.71,0,0,0-.71-.71Zm-.71,2.841a1.421,1.421,0,0,1-1.421,1.421H2.841a1.421,1.421,0,0,1-1.421-1.421v-1.421H16.965a.568.568,0,0,1,.514.317,1.984,1.984,0,0,0,1.785,1.1h4.094a1.984,1.984,0,0,0,1.789-1.1.569.569,0,0,1,.51-.317H41.2Zm0,0" transform="translate(0.001 -247.783)"/>
          <path id="Trazado_125806" data-name="Trazado 125806" d="M40.339,113.347v-1.421H27.552A3.556,3.556,0,0,0,24,115.478v.71h1.421v-.71a2.131,2.131,0,0,1,2.131-2.131Zm0,0" transform="translate(-21.869 -101.991)"/>
          <path id="Trazado_125807" data-name="Trazado 125807" d="M56,145.347H70.918v-1.421h-13.5A1.421,1.421,0,0,0,56,145.347Zm0,0" transform="translate(-51.027 -131.149)"/>
          <path id="Trazado_125808" data-name="Trazado 125808" d="M244.4,8.97l.853-2.687a.71.71,0,0,0-.524-.91l-2.756-.6-.6-2.753a.711.711,0,0,0-.907-.528l-2.687.852L235.88.261a.732.732,0,0,0-1.05,0l-1.9,2.086-2.69-.856a.71.71,0,0,0-.91.525l-.6,2.755-2.75.6a.71.71,0,0,0-.525.91l.853,2.687-2.086,1.9a.709.709,0,0,0,0,1.05l2.086,1.9-.853,2.687a.71.71,0,0,0,.525.91l2.756.6.6,2.755a.711.711,0,0,0,.91.525l2.687-.856,1.9,2.086a.71.71,0,0,0,1.05,0l1.9-2.086,2.688.856a.71.71,0,0,0,.91-.525l.6-2.755,2.755-.6a.71.71,0,0,0,.525-.91l-.852-2.687,2.086-1.9a.71.71,0,0,0,0-1.05Zm-1.293,4.105a.71.71,0,0,0-.2.741l.754,2.379-2.439.533a.711.711,0,0,0-.541.541l-.531,2.436-2.379-.758a.714.714,0,0,0-.741.2L235.355,21l-1.681-1.847a.705.705,0,0,0-.738-.2l-2.382.756-.533-2.439a.711.711,0,0,0-.541-.541l-2.436-.531.758-2.379a.71.71,0,0,0-.2-.741l-1.848-1.681L227.6,9.714a.709.709,0,0,0,.2-.741l-.756-2.379,2.439-.533a.711.711,0,0,0,.541-.541l.531-2.436,2.379.758a.71.71,0,0,0,.741-.2l1.681-1.848,1.681,1.847a.709.709,0,0,0,.741.2l2.379-.756.533,2.439a.711.711,0,0,0,.541.541l2.439.533-.757,2.379a.71.71,0,0,0,.2.741l1.846,1.678Zm0,0" transform="translate(-204.098 -0.039)"/>
          <path id="Trazado_125809" data-name="Trazado 125809" d="M306.344,89.374l7.1-7.1,1,1-7.1,7.1Zm0,0" transform="translate(-279.141 -74.968)"/>
          <path id="Trazado_125810" data-name="Trazado 125810" d="M292.262,82.057a2.131,2.131,0,1,0-2.131,2.131A2.131,2.131,0,0,0,292.262,82.057Zm-2.842,0a.71.71,0,1,1,.71.71A.71.71,0,0,1,289.421,82.057Zm0,0" transform="translate(-262.426 -72.832)"/>
          <path id="Trazado_125811" data-name="Trazado 125811" d="M370.131,127.926a2.131,2.131,0,1,0,2.131,2.131A2.131,2.131,0,0,0,370.131,127.926Zm0,2.841a.71.71,0,1,1,.71-.71A.71.71,0,0,1,370.131,130.767Zm0,0" transform="translate(-335.323 -116.57)"/>
          <path id="Trazado_125812" data-name="Trazado 125812" d="M98.6,213.864a.7.7,0,0,0-.661.186l-6.933,6.862-1.686,1a2.73,2.73,0,0,0,1.028,5.063l1.48,2.994a.71.71,0,0,0,.639.4h2.795a.711.711,0,0,0,.652-.994l-1.471-3.4,7.723.128h.012a.71.71,0,0,0,.671-.942l-3.738-10.84A.71.71,0,0,0,98.6,213.864Zm-9.138,10.821a1.309,1.309,0,0,1,.583-1.552l1.11-.658,1.242,2.457-1.052.521a1.36,1.36,0,0,1-1.128.037A1.316,1.316,0,0,1,89.463,224.685Zm3.447,4.262-1.074-2.17c.045-.02.093-.027.138-.05L93,226.221l1.18,2.726Zm.887-4.4-1.48-2.931,5.825-5.764,3.04,8.815Zm0,0" transform="translate(-80.157 -194.86)"/>
          <path id="Trazado_125813" data-name="Trazado 125813" d="M249.281,265.586l2.349-.816.466,1.341-2.349.817Zm0,0" transform="translate(-227.146 -241.262)"/>
          <path id="Trazado_125814" data-name="Trazado 125814" d="M228.492,204.023l1.567-1.633,1.025.984-1.567,1.633Zm0,0" transform="translate(-208.203 -184.422)"/>
          <path id="Trazado_125815" data-name="Trazado 125815" d="M272,327.926h2.131v1.421H272Zm0,0" transform="translate(-247.847 -298.811)"/>
          <path id="Trazado_125816" data-name="Trazado 125816" d="M326.207,220.9h-1.421v-4.973h-1.421V220.9h-1.421v-1.421h-1.421V220.9H312.71a.71.71,0,0,0-.71.71v8.525a.71.71,0,0,0,.71.71h13.5a.71.71,0,0,0,.71-.71v-8.525A.71.71,0,0,0,326.207,220.9Zm-.71,8.525H313.421v-7.1H325.5Zm0,0" transform="translate(-284.295 -196.756)"/>
          <path id="Trazado_125817" data-name="Trazado 125817" d="M344,303.926h2.842v1.421H344Zm0,0" transform="translate(-313.454 -276.942)"/>
          <path id="Trazado_125818" data-name="Trazado 125818" d="M392,303.926h4.973v1.421H392Zm0,0" transform="translate(-357.191 -276.942)"/>
          <path id="Trazado_125819" data-name="Trazado 125819" d="M344,335.926h9.235v1.421H344Zm0,0" transform="translate(-313.454 -306.1)"/>
          <path id="Trazado_125820" data-name="Trazado 125820" d="M.71,183.03H11.366a.71.71,0,0,0,.71-.71v-5.683a.71.71,0,0,0-.71-.71H.71a.71.71,0,0,0-.71.71v5.683A.71.71,0,0,0,.71,183.03Zm.71-5.683h9.235v4.262H1.421Zm0,0" transform="translate(0 -160.308)"/>
          <path id="Trazado_125821" data-name="Trazado 125821" d="M32,207.926h1.421v1.421H32Zm0,0" transform="translate(-29.158 -189.466)"/>
          <path id="Trazado_125822" data-name="Trazado 125822" d="M64,207.926h3.552v1.421H64Zm0,0" transform="translate(-58.317 -189.466)"/>
        </g>
      </g>
      <g id="Grupo_963422" data-name="Grupo 963422" transform="translate(898.635 3219.478)">
        <g transform="matrix(1, 0, 0, 1, -306.48, -22.76)" filter="url(#Rectángulo_337095)">
          <rect id="Rectángulo_337095-2" data-name="Rectángulo 337095" width="215.819" height="57.389" rx="5" transform="translate(306.48 36)" fill="#4627a0"/>
        </g>
        <path id="Trazado_658931" data-name="Trazado 658931" d="M8.464,16.021H3.507L2.47,19H.158L4.992,6.2h2L11.83,19H9.51ZM4.131,14.228H7.84L5.985,8.919ZM15.6,7.179V9.49h1.679v1.582H15.6v5.309a1.169,1.169,0,0,0,.215.787,1,1,0,0,0,.769.242,3.29,3.29,0,0,0,.747-.088v1.652a5.26,5.26,0,0,1-1.406.2q-2.461,0-2.461-2.716V11.072H11.9V9.49h1.564V7.179Zm8.288,4.263a5.285,5.285,0,0,0-.87-.07A1.959,1.959,0,0,0,21.041,12.5V19H18.905V9.49h2.039L21,10.554a2.406,2.406,0,0,1,2.145-1.239,2,2,0,0,1,.756.123ZM30.656,19a3.3,3.3,0,0,1-.246-.888,3.593,3.593,0,0,1-4.834.246,2.615,2.615,0,0,1-.905-2.021A2.7,2.7,0,0,1,25.8,14a5.473,5.473,0,0,1,3.23-.813h1.31v-.624a1.666,1.666,0,0,0-.413-1.182,1.638,1.638,0,0,0-1.257-.444,1.881,1.881,0,0,0-1.2.365,1.129,1.129,0,0,0-.466.927H24.873a2.37,2.37,0,0,1,.519-1.463A3.455,3.455,0,0,1,26.8,9.7a4.955,4.955,0,0,1,1.991-.387,3.99,3.99,0,0,1,2.663.839,2.993,2.993,0,0,1,1.02,2.36V16.8a4.861,4.861,0,0,0,.36,2.048V19ZM28.31,17.462a2.429,2.429,0,0,0,1.191-.308,2.055,2.055,0,0,0,.839-.826V14.535H29.188a3.148,3.148,0,0,0-1.784.413,1.338,1.338,0,0,0-.6,1.169,1.248,1.248,0,0,0,.409.98A1.583,1.583,0,0,0,28.31,17.462ZM38.9,19.176A4.419,4.419,0,0,1,35.609,17.9a4.639,4.639,0,0,1-1.261-3.406v-.264a5.706,5.706,0,0,1,.549-2.544,4.181,4.181,0,0,1,1.542-1.745,4.078,4.078,0,0,1,2.215-.624,3.733,3.733,0,0,1,3,1.239,5.24,5.24,0,0,1,1.059,3.507v.861H36.5a2.856,2.856,0,0,0,.787,1.863,2.362,2.362,0,0,0,1.736.686,2.892,2.892,0,0,0,2.391-1.187l1.151,1.1a3.845,3.845,0,0,1-1.525,1.323A4.774,4.774,0,0,1,38.9,19.176Zm-.255-8.147a1.8,1.8,0,0,0-1.419.615,3.189,3.189,0,0,0-.69,1.714h4.069V13.2a2.6,2.6,0,0,0-.571-1.622A1.785,1.785,0,0,0,38.646,11.028Zm10.705.413a5.285,5.285,0,0,0-.87-.07A1.959,1.959,0,0,0,46.5,12.5V19H44.367V9.49h2.039l.053,1.063A2.406,2.406,0,0,1,48.6,9.314a2,2,0,0,1,.756.123Z" transform="translate(114.909 30.938)" fill="#fff"/>
        <rect id="Rectángulo_337101" data-name="Rectángulo 337101" width="60.792" height="60.792" rx="3" transform="translate(41.583 0) rotate(30)" fill="#ffd41c"/>
        <g id="Filled_outline" data-name="Filled outline" transform="translate(25.432 18.26)">
          <path id="Trazado_125725" data-name="Trazado 125725" d="M23.015,134.236v-4.485a1.751,1.751,0,0,0-3.449-.425l-1.228,4.91H16v12.471H29.251V134.236Z" transform="translate(-16 -117.088)" fill="#fdbf92"/>
          <path id="Trazado_125726" data-name="Trazado 125726" d="M339.118,340.471H336V328h4.677Z" transform="translate(-304.822 -297.601)" fill="#fdbf92"/>
          <path id="Trazado_125727" data-name="Trazado 125727" d="M305.313,459.118h4.923V456h-3.118l-2.123.531a1.313,1.313,0,0,0,.318,2.587Z" transform="translate(-275.94 -413.13)" fill="#f6f6f6"/>
          <path id="Trazado_125728" data-name="Trazado 125728" d="M380.677,328v3.118l4.433,7.112-2.338,1.705-5.515-5.911a4.677,4.677,0,0,1-1.257-3.19V328Z" transform="translate(-340.925 -297.601)" fill="#fdc8a2"/>
          <path id="Trazado_125729" data-name="Trazado 125729" d="M332.471,157.825H321.559v-14.03l-.732-.732a2.823,2.823,0,0,1,0-3.992L323.9,136h3.9v3.809a13.9,13.9,0,0,0,2.112,7.366,13.9,13.9,0,0,1,2.064,6.212Z" transform="translate(-290.381 -124.308)" fill="#325680"/>
          <path id="Trazado_125730" data-name="Trazado 125730" d="M332.776,34.96,332,36.44l.776.74v1.11a1.138,1.138,0,0,0,1.165,1.11h.787v2.732h3.9V39.795a6.7,6.7,0,0,1,.391-2.244,6.9,6.9,0,0,0,.388-2.28v-.31A3.035,3.035,0,0,0,336.3,32h-.417A3.035,3.035,0,0,0,332.776,34.96Z" transform="translate(-301.212 -30.441)" fill="#fdbf92"/>
          <path id="Trazado_125731" data-name="Trazado 125731" d="M353.355,30.514a4.527,4.527,0,0,1,.344-.424,1.064,1.064,0,0,0,.28-.728v-.016a.972.972,0,0,0-.936-1h-1.09c-2.512,0-2.782-2.4-2.756-3.634a.7.7,0,0,1,.675-.708h3.4a3.118,3.118,0,0,1,3.025,2.362l.5,2.017a8.771,8.771,0,0,0,1.66,3.352,8.771,8.771,0,0,1,1.922,5.479v1.6h-7.015Z" transform="translate(-316.731 -23.221)" fill="#afafaf"/>
          <path id="Trazado_125732" data-name="Trazado 125732" d="M299.118,147.692h6.865a3.268,3.268,0,0,0,3.034-4.482l-2.353-5.883A2.111,2.111,0,0,0,304.7,136h-.168a2.111,2.111,0,0,0-1.832,3.158l2.65,4.637-6.142.682A3.611,3.611,0,0,0,296,148.065v1.965h3.118Z" transform="translate(-268.719 -124.308)" fill="#fdbf92"/>
          <path id="Trazado_125733" data-name="Trazado 125733" d="M315.692,287.795H304.779L304,282.338V280h12.471v2.338Z" transform="translate(-275.94 -254.278)" fill="#95ebd2"/>
          <path id="Trazado_125734" data-name="Trazado 125734" d="M330.538,216a1.359,1.359,0,0,0-1.289.929L328,222.236h2.923l.934-4.514a1.358,1.358,0,0,0,.041-.33v-.033A1.359,1.359,0,0,0,330.538,216Z" transform="translate(-297.601 -196.514)" fill="#95ebd2"/>
          <path id="Trazado_125735" data-name="Trazado 125735" d="M369.358,216a1.359,1.359,0,0,1,1.289.929l1.249,5.306h-2.923l-.934-4.514a1.358,1.358,0,0,1-.041-.33v-.033A1.359,1.359,0,0,1,369.358,216Z" transform="translate(-333.703 -196.514)" fill="#95ebd2"/>
          <path id="Trazado_125736" data-name="Trazado 125736" d="M436.411,433l-2.338,1.705-1.135,2.085a1.085,1.085,0,0,0,1.665,1.3l3.611-2.848Z" transform="translate(-392.226 -392.371)" fill="#f6f6f6"/>
          <path id="Trazado_125737" data-name="Trazado 125737" d="M62.236,140.471a6.236,6.236,0,0,1,6.236-6.236h8.574V128H68.471a12.471,12.471,0,0,0,0,24.943h8.574v-6.236H68.471A6.236,6.236,0,0,1,62.236,140.471Z" transform="translate(-52.103 -117.088)" fill="#7ce3c5"/>
          <path id="Trazado_125738" data-name="Trazado 125738" d="M216,128h5.456v6.236H216Z" transform="translate(-196.514 -117.088)" fill="#26d19e"/>
          <path id="Trazado_125739" data-name="Trazado 125739" d="M216,320h5.456v6.236H216Z" transform="translate(-196.514 -290.381)" fill="#26d19e"/>
          <g id="Grupo_98789" data-name="Grupo 98789" transform="translate(9.356 17.149)">
            <rect id="Rectángulo_337074" data-name="Rectángulo 337074" width="6.235" height="3.118" rx="1.559" transform="translate(0 0)" fill="#fdc8a2"/>
            <rect id="Rectángulo_337075" data-name="Rectángulo 337075" width="6.235" height="3.118" rx="1.559" transform="translate(0 3.118)" fill="#fdc8a2"/>
            <rect id="Rectángulo_337076" data-name="Rectángulo 337076" width="6.235" height="3.118" rx="1.559" transform="translate(0 6.235)" fill="#fdc8a2"/>
            <rect id="Rectángulo_337077" data-name="Rectángulo 337077" width="6.235" height="3.118" rx="1.559" transform="translate(0 9.353)" fill="#fdc8a2"/>
          </g>
          <path id="Trazado_125740" data-name="Trazado 125740" d="M229.456,48,224,53.456h2.338l-.779,3.9,5.456-5.456h-2.338Z" transform="translate(-203.734 -44.882)" fill="#ffb431"/>
          <path id="Trazado_125741" data-name="Trazado 125741" d="M47.958,47.178H46.4V44.06h1.559Zm3.118-3.118H49.517v3.118h1.559Zm3.118,0H52.634v3.118h1.559ZM44.456,36.1a4.41,4.41,0,0,1,1.585-.652l-.146-.146a3.6,3.6,0,0,1,0-5.1l2.842-2.842v-1.63h-.008a1.92,1.92,0,0,1-1.944-1.89v-.776l-.535-.51a.779.779,0,0,1-.152-.926l.693-1.32A3.619,3.619,0,0,1,47.7,18.11c-.013-.209-.019-.422-.014-.638A1.471,1.471,0,0,1,49.141,16h3.4a3.891,3.891,0,0,1,3.78,2.952l.5,2.017a7.946,7.946,0,0,0,1.513,3.054L57.118,25a9.492,9.492,0,0,1-1.807-3.649l-.5-2.017a2.334,2.334,0,0,0-2.268-1.771h-3.3a5.613,5.613,0,0,0,.038.744c.218,1.828,1.211,2.04,1.939,2.04h1.09a1.752,1.752,0,0,1,1.716,1.783v.017a1.835,1.835,0,0,1-.489,1.259c-.047.051-.093.105-.134.156l0,3.732a2.88,2.88,0,0,1,1.26,1.441l.832,2.08H58.87v-.82a8.011,8.011,0,0,0-.966-3.81l1.37-.743a9.568,9.568,0,0,1,1.155,4.552v1.6a.779.779,0,0,1-.779.779H56.124l.9,2.244a4.046,4.046,0,0,1-.668,4.117A14.655,14.655,0,0,1,58.366,45l.5,4.428a.779.779,0,0,1-.775.867h-.934l1.2,1.926-1.323.824L55.32,50.3H52c.016.056.032.113.05.169l.006.019a3.869,3.869,0,0,0,.841,1.407L57.946,57.3l1.195-.871-1.135-1.821,1.323-.824,1.493,2.4,1.773,2.2a.779.779,0,0,1-.125,1.1L58.86,62.33A1.865,1.865,0,0,1,56,60.095c.007-.016.015-.032.024-.049l.866-1.592L51.815,53.01l-.739,5.909v3.069a.779.779,0,0,1-.779.779H45.374a2.093,2.093,0,0,1-.508-4.123l1.533-.383V51.855h1.559V58.09h1.65l.914-7.307q-.072-.241-.121-.488H44.84a.779.779,0,0,1-.772-.669l-.779-5.456a.787.787,0,0,1-.008-.11V42.5a.779.779,0,0,1-.779-.779V39.757A4.385,4.385,0,0,1,44.456,36.1Zm5.06,23.545H47.274l-2.03.508a.534.534,0,0,0,.129,1.051h4.143Zm8.046,1.5a.306.306,0,0,0,.328-.035l3-2.364L60.044,57.7l-1.6,1.163-1.034,1.9A.3.3,0,0,0,57.562,61.144Zm-.911-12.407h.568l-.25-2.221Zm-.9-6.236H44.84V44l.676,4.732h9.56L55.752,44Zm-7.065-1.559s.83-4.017.83-4.065v-.033a.579.579,0,0,0-1.12-.21l-1.014,4.307Zm2.406-3.924c0,.01.812,3.924.812,3.924h1.3L52.2,36.636a.579.579,0,0,0-1.12.209v.033a.579.579,0,0,0,.017.141Zm3.718,3.924h.934a13.126,13.126,0,0,0-.622-1.231,4.026,4.026,0,0,1-.547.234Zm-2.4-12.4h0l-.016,0a1.888,1.888,0,0,0-.572-.063,1.33,1.33,0,0,0-1.263.91,1.385,1.385,0,0,0,.108,1.081l2.616,4.618a1.776,1.776,0,0,1,.173.426l.764,2.907a2.488,2.488,0,0,0,1.359-3.222l-2.353-5.884A1.325,1.325,0,0,0,52.41,28.541ZM49.517,24.18a.779.779,0,0,1,.779.779v1.953h1.553l0-3.618a.779.779,0,0,1,.143-.45,5.421,5.421,0,0,1,.409-.505.288.288,0,0,0,.072-.2v-.017c0-.132-.083-.224-.157-.224h-1.09a3.188,3.188,0,0,1-2.872-1.512c0,.043,0,.086,0,.13a.78.78,0,0,1-.089.362l-.5.959.351.335a.779.779,0,0,1,.242.564v1.11a.361.361,0,0,0,.385.331ZM46.4,32.758A2.03,2.03,0,0,0,47,34.2l.732.732a.767.767,0,0,1,.079.094,2.135,2.135,0,0,1,2.2-.035l.736-.081a2.122,2.122,0,0,1,.567-.177l-2-3.5a2.884,2.884,0,0,1-.345-1.889L47,31.313a2.041,2.041,0,0,0-.6,1.445Zm-2,5.663a2.846,2.846,0,0,0-.334,1.336v1.186h1.559V39.384a.779.779,0,0,1,.712-.776l.4-1.681-.149.017a2.835,2.835,0,0,0-2.183,1.478ZM21.126,46.4H16V44.84h4.29a13.113,13.113,0,0,1-1.056-3.7,13.382,13.382,0,0,1-.116-1.759,13.24,13.24,0,0,1,3.118-8.538V28.663a.971.971,0,0,0-1.914-.236l-1.228,4.91a.779.779,0,0,1-.756.591H16V32.368h1.73l1.08-4.319a2.53,2.53,0,0,1,4.985.614v.617a13.2,13.2,0,0,1,2.777-1.814l.683,1.4a11.706,11.706,0,0,0-6.578,10.517,11.832,11.832,0,0,0,.1,1.555,11.565,11.565,0,0,0,1.461,4.291A11.763,11.763,0,0,0,24.1,47.651a11.618,11.618,0,0,0,8.267,3.424h2.338V46.4H26.912a2.337,2.337,0,0,1-1.741-3.9,2.333,2.333,0,0,1,0-3.118,2.333,2.333,0,0,1,0-3.118,2.337,2.337,0,0,1,1.741-3.9h7.795V27.692H32.369a11.681,11.681,0,0,0-3.654.582l-.487-1.481a13.237,13.237,0,0,1,4.141-.66H37.5l.156-.779H36.266a.779.779,0,0,1-.551-1.331l5.456-5.456a.779.779,0,0,1,1.315.7l-.593,2.965h1.388a.779.779,0,0,1,.551,1.331l-2.617,2.617a.779.779,0,0,1,.507.729v6.236a.779.779,0,0,1-.779.779H32.369c-.044,0-.088,0-.133,0a2.332,2.332,0,0,1-.465,2.334,2.333,2.333,0,0,1,0,3.118,2.333,2.333,0,0,1,0,3.118,2.332,2.332,0,0,1,.465,2.334c.044,0,.088,0,.133,0h8.574a.779.779,0,0,1,.779.779v6.236a.779.779,0,0,1-.779.779H32.369A13.167,13.167,0,0,1,23,48.753,13.338,13.338,0,0,1,21.126,46.4Zm17.021-22.6H38.6a.779.779,0,0,1,.764.932L39.094,26.1,41.4,23.795h-.457a.779.779,0,0,1-.764-.932l.275-1.373Zm-1.882,8.574h3.9V27.692h-.457l-1.331,1.331a.779.779,0,0,1-1.315-.7l.125-.627h-.92ZM30.81,44.06a.78.78,0,0,0-.779-.779H26.912a.779.779,0,1,0,0,1.559H30.03A.78.78,0,0,0,30.81,44.06Zm0-3.118a.78.78,0,0,0-.779-.779H26.912a.779.779,0,1,0,0,1.559H30.03A.78.78,0,0,0,30.81,40.942Zm0-3.118a.78.78,0,0,0-.779-.779H26.912a.779.779,0,1,0,0,1.559H30.03A.78.78,0,0,0,30.81,37.825Zm0-3.118a.78.78,0,0,0-.779-.779H26.912a.779.779,0,1,0,0,1.559H30.03A.78.78,0,0,0,30.81,34.707Zm5.456,16.369h3.9V46.4h-3.9Zm-3.9-28.84H26.912v1.559h5.456Zm1.559-3.118h-3.9v1.559h3.9Zm7.015,36.634H33.148v1.559h7.795Zm0,4.677V58.87H36.266v1.559Z" transform="translate(-16 -16)"/>
        </g>
      </g>
    </g>
  </g>
</svg>
