<svg xmlns="http://www.w3.org/2000/svg" xmlns:xlink="http://www.w3.org/1999/xlink" width="120" height="120" viewBox="0 0 120 120">
  <defs>
    <filter id="Trazado_123317" x="0" y="0" width="120" height="120" filterUnits="userSpaceOnUse">
      <feOffset dy="3" input="SourceAlpha"/>
      <feGaussianBlur stdDeviation="3" result="blur"/>
      <feFlood flood-opacity="0.161"/>
      <feComposite operator="in" in2="blur"/>
      <feComposite in="SourceGraphic"/>
    </filter>
  </defs>
  <g id="Grupo_963416" data-name="Grupo 963416" transform="translate(-1160 -1373.625)">
    <g transform="matrix(1, 0, 0, 1, 1160, 1373.63)" filter="url(#Trazado_123317)">
      <path id="Trazado_123317-2" data-name="Trazado 123317" d="M51,0A51,51,0,1,1,0,51,51,51,0,0,1,51,0Z" transform="translate(9 6)" fill="#a488f5"/>
    </g>
    <g id="email" transform="translate(1178 1384.625)">
      <g id="Grupo_95615" data-name="Grupo 95615" transform="translate(1.347 1.348)">
        <path id="Trazado_123341" data-name="Trazado 123341" d="M75.1,69.214a5.68,5.68,0,0,0-6.381,0L31.582,94.427,68.717,119.64a5.68,5.68,0,0,0,6.381,0l37.135-25.213Z" transform="translate(-31.582 -57.32)" fill="#7a8c98"/>
        <path id="Trazado_123342" data-name="Trazado 123342" d="M138.292,81.443H82.174a3.42,3.42,0,0,1-3.42-3.42V10.92a3.42,3.42,0,0,1,3.42-3.42h56.118a3.42,3.42,0,0,1,3.42,3.42v67.1A3.42,3.42,0,0,1,138.292,81.443Z" transform="translate(-70.278 -7.5)" fill="#d7e2f1"/>
        <path id="Trazado_123343" data-name="Trazado 123343" d="M377.282,7.5h-7.188a3.42,3.42,0,0,1,3.42,3.42v67.1a3.42,3.42,0,0,1-3.42,3.42h7.188a3.42,3.42,0,0,0,3.42-3.42V10.92a3.42,3.42,0,0,0-3.42-3.42Z" transform="translate(-309.268 -7.5)" fill="#c0d1e7"/>
        <path id="Trazado_123344" data-name="Trazado 123344" d="M75.1,239.219a5.68,5.68,0,0,1-6.381,0L31.582,214.006v48.6a3.594,3.594,0,0,0,3.594,3.594h73.462a3.594,3.594,0,0,0,3.594-3.594v-48.6Z" transform="translate(-31.582 -176.899)" fill="#e3e5e8"/>
        <path id="Trazado_123345" data-name="Trazado 123345" d="M440.417,196.608l7.188-4.88-7.187-4.88Z" transform="translate(-366.955 -154.621)" fill="#596c76"/>
        <path id="Trazado_123346" data-name="Trazado 123346" d="M447.6,214.006l-7.187,4.88V266.2h3.594a3.594,3.594,0,0,0,3.594-3.594Z" transform="translate(-366.955 -176.899)" fill="#b5b9bd"/>
        <g id="Grupo_95614" data-name="Grupo 95614" transform="translate(22.55 23.919)">
          <path id="Trazado_123347" data-name="Trazado 123347" d="M163,160.18V140.613h-5.924V160.18a2.92,2.92,0,0,0,2.916,2.92h.084A2.92,2.92,0,0,0,163,160.18Z" transform="translate(-157.076 -140.613)" fill="#8b9aa3"/>
        </g>
        <path id="Trazado_123348" data-name="Trazado 123348" d="M290.2,118.138h-7.1v-9.479h7.1a2.014,2.014,0,0,1,2.014,2.014v5.45A2.014,2.014,0,0,1,290.2,118.138Z" transform="translate(-237.899 -90.482)" fill="#60b7ff"/>
        <path id="Trazado_123349" data-name="Trazado 123349" d="M130.905,106.256h-9.842a8.067,8.067,0,1,1,0-16.135h9.842Z" transform="translate(-98.367 -75.275)" fill="#60b7ff"/>
        <path id="Trazado_123350" data-name="Trazado 123350" d="M228.626,59.774l-15.962,5.417V81.325l15.962,5.417a.82.82,0,0,0,1.084-.777V60.551A.82.82,0,0,0,228.626,59.774Z" transform="translate(-180.126 -50.345)" fill="#b3dafe"/>
        <path id="Trazado_123351" data-name="Trazado 123351" d="M66.018,326.578,37.243,357.457a3.582,3.582,0,0,0,2.576,1.092h73.463a3.58,3.58,0,0,0,2.576-1.092L87.084,326.578l-7.342,4.985a5.679,5.679,0,0,1-6.381,0Z" transform="translate(-36.226 -269.244)" fill="#b5b9bd"/>
        <path id="Trazado_123352" data-name="Trazado 123352" d="M446.588,468.2l-6.17-6.621v7.713h3.594A3.581,3.581,0,0,0,446.588,468.2Z" transform="translate(-366.955 -379.983)" fill="#c2c5c7"/>
      </g>
      <g id="Grupo_95616" data-name="Grupo 95616" transform="translate(0)">
        <path id="Trazado_123353" data-name="Trazado 123353" d="M25.43,79.422a1.348,1.348,0,0,0-1.348,1.348v6.289A4.949,4.949,0,0,0,29.023,92h73.463a4.949,4.949,0,0,0,4.941-4.941v-48.6a1.362,1.362,0,0,0-.574-1.1l-.016-.013-8.626-5.856V4.768A4.773,4.773,0,0,0,93.443,0H37.326a4.773,4.773,0,0,0-4.768,4.768V31.985c-.1.069-7.8,5.3-7.9,5.367-.019.013-.037.028-.055.043a1.354,1.354,0,0,0-.519,1.06V74.481a1.348,1.348,0,0,0,2.7,0V41L53.164,58.914,26.786,87.221c-.013-.178-.008.424-.008-6.451a1.348,1.348,0,0,0-1.348-1.348ZM104.732,41c0,.361,0,46.045-.008,46.222L78.345,58.914,104.732,41Zm-1.052-2.544-5.469,3.714V34.741ZM35.254,4.768A2.075,2.075,0,0,1,37.326,2.7H93.443a2.075,2.075,0,0,1,2.072,2.072V44L68.188,62.552a4.331,4.331,0,0,1-4.867,0L35.254,43.5V4.768Zm-2.7,30.476v6.422l-4.729-3.211ZM61.807,64.782a6.992,6.992,0,0,0,7.895,0l6.387-4.336,26.85,28.813c-.4.083-74.053.065-74.368,0l26.85-28.813Z" transform="translate(-24.082 0)"/>
        <path id="Trazado_123354" data-name="Trazado 123354" d="M113.417,76.4V87.677a4.274,4.274,0,0,0,4.264,4.268h.089a4.266,4.266,0,0,0,4.267-4.268V76.52h2.494l6.323,2.146a1.348,1.348,0,0,0,.866-2.552L126.1,74.207V60l14.351-4.87V79.077l-2.776-.942a1.348,1.348,0,1,0-.866,2.552l3.473,1.179a2.169,2.169,0,0,0,2.865-2.053V73.2h1.365a3.366,3.366,0,0,0,3.362-3.362v-5.45a3.366,3.366,0,0,0-3.362-3.362h-1.365V54.4a2.166,2.166,0,0,0-2.865-2.053L124.531,57.69h-9.619a9.415,9.415,0,0,0-1.494,18.71Zm31.1-12.684a.667.667,0,0,1,.667.667v5.45a.667.667,0,0,1-.667.667h-1.365V63.716ZM119.342,87.677a1.571,1.571,0,0,1-1.574,1.572h-.085a1.574,1.574,0,0,1-1.57-1.572V76.52h3.229Zm-4.43-27.291h8.494V73.825c-9.148,0-8.435,0-8.614,0h-.008a6.719,6.719,0,0,1,.128-13.436Z" transform="translate(-90.868 -42.844)"/>
        <path id="Trazado_123355" data-name="Trazado 123355" d="M355.565,130.229h5.36a1.348,1.348,0,1,0,0-2.7h-5.36a1.348,1.348,0,1,0,0,2.7Z" transform="translate(-294.896 -104.618)"/>
        <path id="Trazado_123356" data-name="Trazado 123356" d="M360.782,73.375l3.79-3.079a1.348,1.348,0,1,0-1.7-2.092l-3.79,3.079a1.348,1.348,0,1,0,1.7,2.092Z" transform="translate(-298.478 -55.701)"/>
        <path id="Trazado_123357" data-name="Trazado 123357" d="M364.572,173.413l-3.79-3.079a1.348,1.348,0,1,0-1.7,2.092l3.79,3.079a1.348,1.348,0,1,0,1.7-2.092Z" transform="translate(-298.479 -139.479)"/>
      </g>
    </g>
  </g>
</svg>
