<svg xmlns="http://www.w3.org/2000/svg" xmlns:xlink="http://www.w3.org/1999/xlink" width="505" height="620.413" viewBox="0 0 505 620.413">
  <defs>
    <linearGradient id="linear-gradient" x1="0.5" x2="0.5" y2="1" gradientUnits="objectBoundingBox">
      <stop offset="0" stop-color="#d1c3fa" stop-opacity="0.141"/>
      <stop offset="1" stop-color="#f2eefd"/>
    </linearGradient>
    <clipPath id="clip-path">
      <rect id="Rectángulo_337949" data-name="Rectángulo 337949" width="505" height="620.413" transform="translate(180 1805)" fill="url(#linear-gradient)"/>
    </clipPath>
    <clipPath id="clip-path-2">
      <rect id="Rectángulo_337940" data-name="Rectángulo 337940" width="306.137" height="306.137" rx="16.363" transform="translate(0 133.747) rotate(-25.905)" fill="#ffd41c"/>
    </clipPath>
    <clipPath id="clip-path-3">
      <rect id="Rectángulo_337928" data-name="Rectángulo 337928" width="386.188" height="442.507" transform="translate(0 0)" fill="#fff" stroke="#707070" stroke-width="1" opacity="0.8"/>
    </clipPath>
  </defs>
  <g id="Grupo_963995" data-name="Grupo 963995" transform="translate(-180 -1805)">
    <rect id="Rectángulo_337940-2" data-name="Rectángulo 337940" width="505" height="620.413" transform="translate(180 1805)" fill="url(#linear-gradient)"/>
    <g id="Enmascarar_grupo_458" data-name="Enmascarar grupo 458" clip-path="url(#clip-path)">
      <ellipse id="Elipse_6540" data-name="Elipse 6540" cx="218.5" cy="126.5" rx="218.5" ry="126.5" transform="translate(200 1733)" fill="#eee8fd"/>
      <ellipse id="Elipse_6541" data-name="Elipse 6541" cx="107.5" cy="86" rx="107.5" ry="86" transform="translate(547 1744)" fill="#f1ecfd"/>
    </g>
    <g id="Grupo_963807" data-name="Grupo 963807" transform="translate(349.439 11785.906)">
      <g id="Grupo_963773" data-name="Grupo 963773" transform="translate(-121.5 -9770.028)">
        <g id="Grupo_963770" data-name="Grupo 963770" transform="translate(0 0)">
          <g id="Grupo_963770-2" data-name="Grupo 963770" transform="translate(0)">
            <rect id="Rectángulo_33977" data-name="Rectángulo 33977" width="306.137" height="306.137" rx="16.363" transform="translate(0 133.747) rotate(-25.905)" fill="#ffd41c"/>
          </g>
          <ellipse id="Elipse_4918" data-name="Elipse 4918" cx="25.123" cy="25.124" rx="25.123" ry="25.124" transform="translate(351.923 204.561)" fill="#764cf0"/>
        </g>
      </g>
      <g id="Enmascarar_grupo_457" data-name="Enmascarar grupo 457" transform="translate(-121.5 -9770.028)" clip-path="url(#clip-path-2)">
        <g id="Grupo_963807-2" data-name="Grupo 963807" transform="translate(7.412 110.054)">
          <path id="Trazado_658700" data-name="Trazado 658700" d="M297.308,206.9A147.191,147.191,0,0,1,364.161,83.558c2.334-1.539,4.722-2.99,7.145-4.386l.266-.16a146.3,146.3,0,0,1,42.464-16.148,147.212,147.212,0,0,1,108.7,19.314l.584.371a148.269,148.269,0,0,1,36.821,33.231,147.022,147.022,0,0,1-2.265,185.012v.018c-.211.264-.424.529-.672.8l-.017.018q-4.485,5.358-9.5,10.274a4.444,4.444,0,0,1-.512.478c-2.334,2.3-4.722,4.493-7.216,6.616h-.018a146.775,146.775,0,0,1-37.653,23.344c-.635.283-1.273.549-1.927.814h-.018a147.563,147.563,0,0,1-80.453,8.9c-2.441-.389-4.864-.867-7.251-1.4-.353-.07-.707-.16-1.062-.23-1.857-.424-3.7-.883-5.517-1.4A147.126,147.126,0,0,1,297.308,206.9Z" transform="translate(-297.308 -59.7)" fill="#21155c"/>
          <g id="Grupo_963798" data-name="Grupo 963798" transform="translate(6.369 133.56)">
            <g id="Grupo_963796" data-name="Grupo 963796" transform="translate(0 0)">
              <path id="Trazado_658737" data-name="Trazado 658737" d="M316.871,130.475l-10.129-3.116,10.129-3.116,3.116-10.129,3.116,10.129,10.129,3.116L323.1,130.475,319.987,140.6Z" transform="translate(-62.512 -79.686)" fill="#764cf0"/>
              <path id="Trazado_658738" data-name="Trazado 658738" d="M341.675,125.05l-7.475-2.3,7.475-2.3,2.3-7.475,2.3,7.475,7.475,2.3-7.475,2.3-2.3,7.475Z" transform="translate(-133.461 -69.518)" fill="#764cf0"/>
              <path id="Trazado_658739" data-name="Trazado 658739" d="M341.675,89.378l-7.475-2.3,7.475-2.3,2.3-7.475,2.3,7.475,7.475,2.3-7.475,2.3-2.3,7.475Z" transform="translate(-208.4 -59.069)" fill="#764cf0"/>
              <path id="Trazado_658748" data-name="Trazado 658748" d="M339.506,85.873,334.2,84.241l5.305-1.632,1.632-5.305,1.632,5.305,5.305,1.632-5.305,1.632-1.632,5.305Z" transform="translate(-173.089 -36.682)" fill="#764cf0"/>
              <path id="Trazado_658749" data-name="Trazado 658749" d="M339.506,85.873,334.2,84.241l5.305-1.632,1.632-5.305,1.632,5.305,5.305,1.632-5.305,1.632-1.632,5.305Z" transform="translate(-155.603 -63.169)" fill="#764cf0"/>
              <path id="Trazado_658740" data-name="Trazado 658740" d="M435.564,137.238l-7.475-2.3,7.475-2.3,2.3-7.475,2.3,7.475,7.475,2.3-7.475,2.3-2.3,7.475Z" transform="translate(-399.792 -104.091)" fill="#764cf0"/>
              <path id="Trazado_658741" data-name="Trazado 658741" d="M450.972,148.711l-7.475-2.3,7.475-2.3,2.3-7.475,2.3,7.475,7.475,2.3-7.475,2.3-2.3,7.475Z" transform="translate(-443.496 -136.637)" fill="#764cf0"/>
            </g>
            <g id="Grupo_963797" data-name="Grupo 963797" transform="translate(9.432 12.066)">
              <ellipse id="Elipse_6526" data-name="Elipse 6526" cx="4.064" cy="4.064" rx="4.064" ry="4.064" transform="translate(197.328 64.346)" fill="#764cf0"/>
              <ellipse id="Elipse_6527" data-name="Elipse 6527" cx="4.064" cy="4.064" rx="4.064" ry="4.064" transform="translate(262.954 129.972)" fill="#764cf0"/>
              <ellipse id="Elipse_6528" data-name="Elipse 6528" cx="4.064" cy="4.064" rx="4.064" ry="4.064" transform="translate(209.069 132.682)" fill="#764cf0"/>
              <ellipse id="Elipse_6529" data-name="Elipse 6529" cx="4.064" cy="4.064" rx="4.064" ry="4.064" transform="translate(261.675 0)" fill="#764cf0"/>
              <ellipse id="Elipse_6530" data-name="Elipse 6530" cx="4.064" cy="4.064" rx="4.064" ry="4.064" transform="translate(0 26.642)" fill="#764cf0"/>
            </g>
          </g>
        </g>
      </g>
      <g id="Enmascarar_grupo_455" data-name="Enmascarar grupo 455" transform="translate(-104.068 -9803.413)" clip-path="url(#clip-path-3)">
        <g id="Grupo_963769" data-name="Grupo 963769" transform="translate(4.781 11.465)">
          <g id="Grupo_963735" data-name="Grupo 963735" transform="translate(210.268 395.152)">
            <path id="Trazado_658640" data-name="Trazado 658640" d="M361.132,465.151l6.18,6.18,15.509-15.509" transform="translate(-342.924 -455.822)" fill="none" stroke="#483d7b" stroke-miterlimit="10" stroke-width="4.345"/>
            <path id="Trazado_658641" data-name="Trazado 658641" d="M331.625,465.151l6.18,6.18,15.509-15.509" transform="translate(-331.625 -455.822)" fill="none" stroke="#483d7b" stroke-miterlimit="10" stroke-width="4.345"/>
          </g>
          <g id="Grupo_963736" data-name="Grupo 963736" transform="translate(127.676 179.722)">
            <path id="Trazado_658642" data-name="Trazado 658642" d="M188.392,322.388l-.915,3.186a10.449,10.449,0,0,0-2.378.969l-2.935-1.612-2.623,2.59,1.632,2.9a10.164,10.164,0,0,0-.981,2.348l-3.227.9v3.67l3.227.9a10.175,10.175,0,0,0,.981,2.348l-1.632,2.9,2.623,2.589,2.935-1.611a10.476,10.476,0,0,0,2.378.969l.915,3.186h3.718l.916-3.186a10.482,10.482,0,0,0,2.378-.969l2.935,1.611,2.624-2.589-1.633-2.9a10.178,10.178,0,0,0,.982-2.348l3.227-.9v-3.67l-3.227-.9a10.167,10.167,0,0,0-.982-2.348l1.633-2.9-2.624-2.59-2.935,1.612a10.455,10.455,0,0,0-2.378-.969l-.916-3.186Zm8.8,13.117a6.944,6.944,0,1,1-6.943-6.855A6.914,6.914,0,0,1,197.195,335.5Z" transform="translate(-176.964 -322.388)" fill="none" stroke="#fdfd10" stroke-miterlimit="10" stroke-width="0.777"/>
          </g>
          <g id="Grupo_963750" data-name="Grupo 963750" transform="translate(25.911)">
            <g id="Grupo_963737" data-name="Grupo 963737" transform="translate(196.649 247.809)">
              <path id="Trazado_658643" data-name="Trazado 658643" d="M244.2,359.886l18.382-18.723,15.444,21.774L261.455,373.22Z" transform="translate(-244.195 -336.495)" fill="#ffbf9d"/>
              <path id="Trazado_658644" data-name="Trazado 658644" d="M244.195,360.409s5.751-13.53,10.4-17.043,16.152-7.029,17.966-6.234.169,6.2-3.688,8.468-7.767,5.033-7.767,5.033Z" transform="translate(-244.195 -337.018)" fill="#ffbf9d"/>
            </g>
            <g id="Grupo_963749" data-name="Grupo 963749" transform="translate(0)">
              <g id="Grupo_963748" data-name="Grupo 963748">
                <path id="Trazado_658645" data-name="Trazado 658645" d="M156.3,43.546c-10.066,6.534-17.609,16.2-26.366,24.408A113.6,113.6,0,0,1,93.7,90.8c-14.185,5.541-29.5,8.234-42.971,15.342-22.5,11.874-37.8,36.327-38.645,61.752s12.8,50.839,34.464,64.179c7.373,4.541,15.536,7.749,22.669,12.659,23.4,16.105,33.681,48.885,60.242,58.948,14.477,5.486,31.184,2.637,44.741-4.842s24.339-19.151,33.545-31.6c8.879-12,17.471-25.682,31.456-30.913,9.736-3.641,20.611-2.523,30.7-5.032,21.469-5.339,36.242-27.5,36.789-49.619s-11.155-43.292-27.568-58.125c-9.866-8.916-21.646-16.159-28.789-27.375-4.689-7.362-7.033-15.93-10.455-23.96C226.616,41.089,185.9,24.33,156.3,43.546Z" transform="translate(-12.051 -32.766)" fill="#7ce3c5"/>
                <g id="Grupo_963747" data-name="Grupo 963747" transform="translate(39.077)">
                  <g id="Grupo_963738" data-name="Grupo 963738" transform="translate(49.064 202.872)">
                    <path id="Trazado_658646" data-name="Trazado 658646" d="M163,359.9l-.65,2.262a7.419,7.419,0,0,0-1.688.687l-2.083-1.144-1.862,1.838,1.159,2.057a7.2,7.2,0,0,0-.7,1.666l-2.291.641v2.605l2.291.641a7.2,7.2,0,0,0,.7,1.666l-1.159,2.057,1.862,1.838,2.083-1.144a7.421,7.421,0,0,0,1.688.687l.65,2.262h2.639l.65-2.262a7.409,7.409,0,0,0,1.688-.687l2.083,1.144,1.862-1.838-1.159-2.057a7.2,7.2,0,0,0,.7-1.666l2.291-.641v-2.605l-2.291-.641a7.2,7.2,0,0,0-.7-1.666l1.159-2.057-1.862-1.838-2.083,1.144a7.406,7.406,0,0,0-1.688-.687l-.65-2.262Zm6.248,9.31a4.929,4.929,0,1,1-4.928-4.865A4.907,4.907,0,0,1,169.245,369.214Z" transform="translate(-154.886 -359.904)" fill="#fdfd10"/>
                  </g>
                  <g id="Grupo_963746" data-name="Grupo 963746">
                    <g id="Grupo_963739" data-name="Grupo 963739" opacity="0.8">
                      <path id="Trazado_658647" data-name="Trazado 658647" d="M89.593,39.889l6.18,6.18,15.509-15.509" transform="translate(-71.384 -30.559)" fill="none" stroke="#21155c" stroke-miterlimit="10" stroke-width="4.345"/>
                      <path id="Trazado_658648" data-name="Trazado 658648" d="M60.085,39.889l6.18,6.18L81.774,30.559" transform="translate(-60.085 -30.559)" fill="none" stroke="#21155c" stroke-miterlimit="10" stroke-width="4.345"/>
                    </g>
                    <g id="Grupo_963745" data-name="Grupo 963745" transform="translate(210.226 327.403)">
                      <g id="Grupo_963742" data-name="Grupo 963742">
                        <g id="Grupo_963741" data-name="Grupo 963741">
                          <g id="Grupo_963740" data-name="Grupo 963740">
                            <path id="Trazado_658649" data-name="Trazado 658649" d="M422.79,282.231a4.743,4.743,0,0,0-4.743-4.743H340.518a4.743,4.743,0,0,0-4.743,4.743v2.736H422.79Z" transform="translate(-335.775 -277.488)" fill="#764cf0"/>
                            <path id="Trazado_658650" data-name="Trazado 658650" d="M335.775,289.607v59.2a4.743,4.743,0,0,0,4.743,4.743h77.529a4.743,4.743,0,0,0,4.743-4.743v-59.2Z" transform="translate(-335.775 -282.129)" fill="#baa6f7"/>
                          </g>
                          <path id="Trazado_658651" data-name="Trazado 658651" d="M443.648,282.451a1.768,1.768,0,1,1-1.767-1.768A1.767,1.767,0,0,1,443.648,282.451Z" transform="translate(-375.727 -278.711)" fill="#55a3f3"/>
                          <path id="Trazado_658652" data-name="Trazado 658652" d="M455.079,282.451a1.767,1.767,0,1,1-1.767-1.768A1.767,1.767,0,0,1,455.079,282.451Z" transform="translate(-380.105 -278.711)" fill="#fff"/>
                          <path id="Trazado_658653" data-name="Trazado 658653" d="M466.509,282.451a1.767,1.767,0,1,1-1.767-1.768A1.767,1.767,0,0,1,466.509,282.451Z" transform="translate(-384.481 -278.711)" fill="#ff4648"/>
                        </g>
                      </g>
                      <g id="Grupo_963744" data-name="Grupo 963744" transform="translate(20.823 14.879)">
                        <path id="Trazado_658654" data-name="Trazado 658654" d="M417.577,320.256H403.825a1.59,1.59,0,0,1-.809-2.959c5.992-3.54,9.1-7.67,9.515-12.626a3.418,3.418,0,0,1,3.414-3.071,6.721,6.721,0,0,1,6.615,6.718h0v.534c0,4.338-1.285,7.1-3.656,10.69A1.589,1.589,0,0,1,417.577,320.256Z" transform="translate(-382.046 -301.6)" fill="#ffbf9d"/>
                        <path id="Trazado_658655" data-name="Trazado 658655" d="M430.335,331.661a4.988,4.988,0,0,0-4.982-4.982H399.729a1.588,1.588,0,0,0-.809.222c-1.8,1.063-3.615,1.939-5.074,2.642-.509.246-.99.477-1.427.7a1.59,1.59,0,0,0-.879,1.422v20.352a1.591,1.591,0,0,0,.879,1.422c6.424,3.211,11.765,3.6,17.992,3.6.965,0,1.951-.009,2.965-.019,1.122-.01,2.281-.022,3.5-.022H421.9a4.98,4.98,0,0,0,4.289-7.513,4.979,4.979,0,0,0,1.7-6.784,4.976,4.976,0,0,0,1.085-7.609A4.95,4.95,0,0,0,430.335,331.661Z" transform="translate(-377.951 -311.203)" fill="#ffbf9d"/>
                        <path id="SVGCleanerId_0" data-name="SVGCleanerId 0" d="M383.692,361.281v8.374h-3.18v-8.374a1.59,1.59,0,1,1,3.18,0Z" transform="translate(-373.728 -323.844)" fill="#73c3ff"/>
                        <g id="Grupo_963743" data-name="Grupo 963743" transform="translate(6.784 35.847)">
                          <path id="SVGCleanerId_0-2" data-name="SVGCleanerId 0" d="M383.692,361.281v8.374h-3.18v-8.374a1.59,1.59,0,1,1,3.18,0Z" transform="translate(-380.512 -359.691)" fill="#73c3ff"/>
                        </g>
                        <path id="Trazado_658656" data-name="Trazado 658656" d="M384.677,326.679H371.109a1.59,1.59,0,0,0-1.59,1.59V355.4a1.62,1.62,0,0,0,1.59,1.61h10.175a5.039,5.039,0,0,0,4.457-2.779,4.937,4.937,0,0,0,.525-2.223V328.269A1.591,1.591,0,0,0,384.677,326.679Z" transform="translate(-369.519 -311.203)" fill="#764cf0"/>
                        <path id="Trazado_658657" data-name="Trazado 658657" d="M383.692,361.11v8.48h-3.18v-8.48a1.59,1.59,0,0,1,3.18,0Z" transform="translate(-373.728 -323.778)" fill="#0a2a6b"/>
                      </g>
                    </g>
                  </g>
                </g>
              </g>
            </g>
          </g>
          <path id="Trazado_658658" data-name="Trazado 658658" d="M139.72,43.293c-9.145,7.77-15.386,18.327-23.019,27.587a113.612,113.612,0,0,1-33,27.3c-13.357,7.314-28.2,11.949-40.648,20.725-20.79,14.661-32.831,40.875-30.408,66.2s19.216,48.778,42.409,59.23c7.9,3.558,16.4,5.693,24.1,9.648,25.268,12.972,39.672,44.162,67.3,50.737,15.062,3.583,31.265-1.384,43.751-10.539s21.682-22.114,29.217-35.639c7.266-13.043,14.033-27.71,27.232-34.691,9.188-4.86,20.117-5.145,29.8-8.927C297.072,206.876,308.881,183,306.587,161s-16.614-41.5-34.794-54.11c-10.928-7.577-23.539-13.249-32.062-23.457-5.594-6.7-9.018-14.9-13.44-22.421C209.144,31.839,166.617,20.439,139.72,43.293Z" transform="translate(13.749 -31.15)" fill="none" stroke="#764cf0" stroke-miterlimit="10" stroke-width="0.97" stroke-dasharray="4" opacity="0.61"/>
          <g id="Grupo_963758" data-name="Grupo 963758" transform="translate(132.143 23.263)">
            <g id="Grupo_963755" data-name="Grupo 963755" transform="translate(0)">
              <path id="Trazado_658659" data-name="Trazado 658659" d="M313.511,356.975l-16.965,9.475a7.572,7.572,0,0,1-9.873-2.237l-57.927-81.858,36.588-20.436,43.642,78.137a7.575,7.575,0,0,0,3.726,3.308h0A7.572,7.572,0,0,1,313.511,356.975Z" transform="translate(-156.293 -81.21)" fill="#21155c"/>
              <path id="Trazado_658660" data-name="Trazado 658660" d="M310,358.934l-16.965,9.475a7.571,7.571,0,0,1-9.873-2.236l-57.927-81.859,36.588-20.435,43.642,78.136a7.571,7.571,0,0,0,3.726,3.308h0A7.572,7.572,0,0,1,310,358.934Z" transform="translate(-155.398 -81.71)" fill="#21155c"/>
              <ellipse id="Elipse_6521" data-name="Elipse 6521" cx="16.034" cy="43.867" rx="16.034" ry="43.867" transform="translate(0 147.474) rotate(-29.185)" fill="#8d6af2"/>
              <g id="Grupo_963751" data-name="Grupo 963751" transform="translate(13.999 25.493)">
                <path id="Trazado_658661" data-name="Trazado 658661" d="M281.4,55.957a244.648,244.648,0,0,1-89.279,94.03c-3.331,8.285.811,26.1,10.966,44.284s23.154,31.053,31.955,32.562a244.642,244.642,0,0,1,126.883-26.7l2.712.165L282.684,53.561Z" transform="translate(-160.662 -53.561)" fill="#764cf0"/>
                <path id="Trazado_658662" data-name="Trazado 658662" d="M192.7,227.285c-10.156-18.182-14.3-36-10.966-44.284q-3.532,2.132-7.14,4.152l-24.321,13.584,42.782,76.6,24.321-13.584q3.609-2.016,7.28-3.9C215.859,258.338,202.86,245.468,192.7,227.285Z" transform="translate(-150.278 -86.575)" fill="#8d6af2"/>
              </g>
              <g id="Grupo_963752" data-name="Grupo 963752" transform="translate(94.504 201.607)" opacity="0.3">
                <path id="Trazado_658663" data-name="Trazado 658663" d="M274.912,293.6l-13.687,7.645a1.936,1.936,0,0,1-2.633-.746h0a1.935,1.935,0,0,1,.746-2.633l13.686-7.645a1.936,1.936,0,0,1,2.633.746h0A1.935,1.935,0,0,1,274.912,293.6Z" transform="translate(-258.346 -289.972)" fill="#55a3f3"/>
                <path id="Trazado_658664" data-name="Trazado 658664" d="M279.933,302.588l-13.686,7.645a1.935,1.935,0,0,1-2.633-.746h0a1.935,1.935,0,0,1,.746-2.633l13.687-7.645a1.936,1.936,0,0,1,2.633.746h0A1.936,1.936,0,0,1,279.933,302.588Z" transform="translate(-259.627 -292.265)" fill="#55a3f3"/>
                <path id="Trazado_658665" data-name="Trazado 658665" d="M284.955,311.579l-13.686,7.645a1.935,1.935,0,0,1-2.633-.746h0a1.935,1.935,0,0,1,.746-2.633l13.686-7.644a1.935,1.935,0,0,1,2.633.746h0A1.935,1.935,0,0,1,284.955,311.579Z" transform="translate(-260.908 -294.558)" fill="#55a3f3"/>
                <path id="Trazado_658666" data-name="Trazado 658666" d="M289.977,320.57l-13.686,7.645a1.937,1.937,0,0,1-2.634-.746h0a1.936,1.936,0,0,1,.746-2.633l13.686-7.644a1.935,1.935,0,0,1,2.633.746h0A1.935,1.935,0,0,1,289.977,320.57Z" transform="translate(-262.189 -296.851)" fill="#55a3f3"/>
                <path id="Trazado_658667" data-name="Trazado 658667" d="M295,329.561,281.312,337.2a1.935,1.935,0,0,1-2.633-.746h0a1.936,1.936,0,0,1,.746-2.633l13.686-7.645a1.936,1.936,0,0,1,2.633.747h0A1.936,1.936,0,0,1,295,329.561Z" transform="translate(-263.469 -299.145)" fill="#55a3f3"/>
                <path id="Trazado_658668" data-name="Trazado 658668" d="M300.02,338.552,286.334,346.2a1.935,1.935,0,0,1-2.633-.746h0a1.936,1.936,0,0,1,.746-2.633l13.687-7.645a1.936,1.936,0,0,1,2.633.746h0A1.936,1.936,0,0,1,300.02,338.552Z" transform="translate(-264.75 -301.438)" fill="#55a3f3"/>
                <path id="Trazado_658669" data-name="Trazado 658669" d="M305.042,347.542l-13.686,7.645a1.935,1.935,0,0,1-2.633-.746h0a1.935,1.935,0,0,1,.746-2.633l13.686-7.645a1.936,1.936,0,0,1,2.633.746h0A1.935,1.935,0,0,1,305.042,347.542Z" transform="translate(-266.031 -303.731)" fill="#55a3f3"/>
                <path id="Trazado_658670" data-name="Trazado 658670" d="M310.064,356.533l-13.687,7.645a1.936,1.936,0,0,1-2.633-.746h0a1.936,1.936,0,0,1,.746-2.633l13.686-7.645a1.936,1.936,0,0,1,2.633.746h0A1.935,1.935,0,0,1,310.064,356.533Z" transform="translate(-267.312 -306.024)" fill="#55a3f3"/>
                <path id="Trazado_658671" data-name="Trazado 658671" d="M315.085,365.524,301.4,373.169a1.935,1.935,0,0,1-2.633-.746h0a1.936,1.936,0,0,1,.746-2.633l13.687-7.644a1.936,1.936,0,0,1,2.633.746h0A1.935,1.935,0,0,1,315.085,365.524Z" transform="translate(-268.592 -308.317)" fill="#55a3f3"/>
              </g>
              <ellipse id="Elipse_6522" data-name="Elipse 6522" cx="33.729" cy="88.443" rx="33.729" ry="88.443" transform="translate(113.655 32.894) rotate(-29.185)" fill="#764cf0"/>
              <ellipse id="Elipse_6523" data-name="Elipse 6523" cx="30.157" cy="81.881" rx="30.157" ry="81.881" transform="matrix(0.873, -0.488, 0.488, 0.873, 119.974, 36.882)" fill="#21155c"/>
              <g id="Grupo_963753" data-name="Grupo 963753" transform="translate(150.287 56.265)">
                <path id="Trazado_658672" data-name="Trazado 658672" d="M418.069,95.863l-13.724,6.524c3.2,4.771,6.316,9.842,9.294,15.174q1.134,2.031,2.211,4.058l12.193-7.9a10.248,10.248,0,0,0,3.375-13.6h0A10.249,10.249,0,0,0,418.069,95.863Z" transform="translate(-351.367 -94.868)" fill="#ecec33"/>
                <path id="Trazado_658673" data-name="Trazado 658673" d="M386.206,104.961l-52.978,25.187c2.754,6.352,5.964,12.862,9.614,19.4q2.118,3.79,4.322,7.4l50.547-32.755q-1.078-2.027-2.211-4.058C392.523,114.8,389.405,109.732,386.206,104.961Z" transform="translate(-333.228 -97.442)" fill="#ecec33"/>
              </g>
              <g id="Grupo_963754" data-name="Grupo 963754" transform="translate(31.905 138.574)" opacity="0.3" style="mix-blend-mode: multiply;isolation: isolate">
                <path id="Trazado_658674" data-name="Trazado 658674" d="M279.487,215.743c-37.888,10.861-73.256,29.416-105.466,52.2,9.541,11.859,19.467,18.239,25.094,15.1l16.282-9.094L270.1,351.247a7.571,7.571,0,0,0,9.873,2.236l16.965-9.475h0l2.613-1.459a7.572,7.572,0,0,0-.808-13.612,7.575,7.575,0,0,1-3.726-3.308l-39.7-71.074A244.612,244.612,0,0,1,357.6,238.845l2.712.165-.04-.072c4.318.9,8.191.53,11.422-1.275,7.524-4.2,10.253-15.44,8.657-30.523C346.732,202.909,312.134,206.385,279.487,215.743Z" transform="translate(-174.021 -205.358)" fill="#21155c"/>
              </g>
            </g>
            <g id="Grupo_963757" data-name="Grupo 963757" transform="translate(170.497 15.258)">
              <g id="Grupo_963756" data-name="Grupo 963756" transform="translate(0 0)">
                <line id="Línea_223" data-name="Línea 223" x1="28.016" y2="41.906" fill="none" stroke="#ecec33" stroke-miterlimit="10" stroke-width="6"/>
                <line id="Línea_224" data-name="Línea 224" x1="60.015" y2="48.389" transform="translate(2.219 8.296)" fill="none" stroke="#ecec33" stroke-miterlimit="10" stroke-width="6"/>
                <line id="Línea_225" data-name="Línea 225" x1="41.021" y2="1.094" transform="translate(27.922 105.758)" fill="none" stroke="#ecec33" stroke-miterlimit="10" stroke-width="6"/>
                <path id="Trazado_658675" data-name="Trazado 658675" d="M52.335.972,0,22.588" transform="translate(17.275 73.863)" fill="none" stroke="#ecec33" stroke-width="6"/>
              </g>
            </g>
          </g>
          <g id="Grupo_963759" data-name="Grupo 963759" transform="translate(238.589 273.437)">
            <path id="Trazado_658676" data-name="Trazado 658676" d="M258.779,391.69l24.642-25.02,15.309,22.662a58.2,58.2,0,0,1-15.671,10.487,75.376,75.376,0,0,1-14.964,4.94Z" transform="translate(-258.779 -354.085)" fill="#ffbf9d"/>
            <path id="Trazado_658677" data-name="Trazado 658677" d="M280.38,368.6c7.26-5.707,15.126-11.285,24.242-12.752a3.859,3.859,0,0,1,2.036.063,1.449,1.449,0,0,1,.961,1.616,1.493,1.493,0,0,1-.454.668,10.844,10.844,0,0,1-2.34,1.558,147.831,147.831,0,0,0-21.967,14.067c9.1-4.18,18.083-8.351,28.054-9.269a8.809,8.809,0,0,1,4.548.463,1.294,1.294,0,0,1,.811.821c.1.547-.411,1-.88,1.3-4.145,2.672-9.048,3.832-13.725,5.4a78.564,78.564,0,0,0-15.621,7.217c10.759-3.576,20.994-6.858,32.293-7.8.181-.015.364-.029.547-.04a1.877,1.877,0,0,1,1.325,3.3,11.758,11.758,0,0,1-3.241,1.913,40.1,40.1,0,0,1-5.794,1.739c-1.282.28-2.581.5-3.841.867a33.322,33.322,0,0,0-3.908,1.511l-13.169,5.739a89.46,89.46,0,0,1,26.905-5.368c.6-.022.947.666,1.011,1.267a1.847,1.847,0,0,1-.754,1.566,4.733,4.733,0,0,1-1.566.739,30.3,30.3,0,0,1-8.5,1.445c-3.3.063-6.39,2.2-9.293,3.752-1.466.785-2.992,1.692-4.654,1.607a6.6,6.6,0,0,1-3.894-.468,17.449,17.449,0,0,1-9.223-20.983" transform="translate(-255.633 -355.743)" fill="#ffbf9d"/>
          </g>
          <g id="Grupo_963763" data-name="Grupo 963763" transform="translate(0 142.087)">
            <g id="Grupo_963762" data-name="Grupo 963762">
              <path id="Trazado_658678" data-name="Trazado 658678" d="M131.217,396.6l78.557,25.578,49.545-64.389,17.259,13.334-57.087,92.852-95.136-21.144Z" transform="translate(-36.758 -228.675)" fill="#764cf0"/>
              <path id="Trazado_658679" data-name="Trazado 658679" d="M80.871,362.3c.071,9.925.449,19.552,1.016,29.461,5.483,7.674,13,14.224,22.041,16.906,6.365,1.889,13.161,1.785,19.755,1.009,5.838-.688,11.4-2.2,16.179-5.629-2.705-4.228-5.464-8.591-6.4-13.52-.614-3.213-1.143-36.081-1.143-36.081s14.955-4.136,20.585-7.434c1.711-1,3.491-2.127,4.367-3.906a9.914,9.914,0,0,0,.448-5.674,73.82,73.82,0,0,0-2.088-10.382,31.174,31.174,0,0,1-17.135-7.258,73.986,73.986,0,0,0,13.922-1.732,40.231,40.231,0,0,1-2.054-5.268c3.463-3.965,6.991-8.035,10.157-12.242-6.482-3.312-13.045-7.21-19.185-11.118a80.942,80.942,0,0,0-10.22-18.229c-1.751-2.349-4.959-3.524-7.809-4.2a30.285,30.285,0,0,0-18.172,1.641,42.294,42.294,0,0,0-14.985,10.659A53.125,53.125,0,0,0,76.5,308.617c-.953,7.651-.218,15.405.718,23.058C78.484,341.976,80.8,351.924,80.871,362.3Z" transform="translate(-42.853 -240.223)" fill="#ffbf9d"/>
              <path id="Trazado_658680" data-name="Trazado 658680" d="M134.83,275.008s-20.34,11.062-31.994,10.9a105.33,105.33,0,0,0,4.3,11.435c2.982,7.079,5.51,13.9,8.492,20.981a49.757,49.757,0,0,1-8.16,3.046c-2.08-4.814-4.319-9.87-6.4-14.685-4.364-1.069-9.118,1.863-10.778,6.039s-.53,9.13,2.2,12.7a12.889,12.889,0,0,0,5.935,4.454c2.6.887,5.625.565,8.367.4a52.31,52.31,0,0,1-5.9,43.926,30.6,30.6,0,0,0-1.241-12.473,43,43,0,0,1-14.306,20.453c-.426-8.372-4.21-16.255-9.024-23.117s-10.68-12.912-15.984-19.4S50.208,326.054,47.97,317.974s-2.121-17.98,2.834-24.743c-3.987-4.035-4.33-10.749-1.844-15.849s7.293-8.733,12.441-11.114,10.715-3.685,16.135-5.356a121.392,121.392,0,0,0,22.8-9.676c6.105-3.364,12.2-7.351,19.141-8,5.153-.481,10.3.949,15.119,2.844,6.649,2.613,13.442,6.705,15.829,13.439,1.944,5.486,0,11.313-2.811,16.408a20.439,20.439,0,0,0-2.56-11.361c.749,6.141-.494,13.2-5.095,17.331A48.91,48.91,0,0,0,134.83,275.008Z" transform="translate(-46.574 -243.143)" fill="#12263f"/>
              <path id="Trazado_658681" data-name="Trazado 658681" d="M159.209,514.492s-1.576-60.714-7.25-85.62a131.979,131.979,0,0,0-19.43-43.7l-17.43,4.044,17.247,125.28Z" transform="translate(-37.926 -225.22)" fill="#fdfd10"/>
              <path id="Trazado_658682" data-name="Trazado 658682" d="M46.574,516.834,85.348,366.6s31.752,5.344,44.677,21.421a114.164,114.164,0,0,1,18.37,33.7L210.732,449.5l74.827-58.356,17.4,24.411-85.294,67.678-66.46-14.5,5.932,48.1Z" transform="translate(-46.574 -227.563)" fill="#764cf0"/>
              <path id="Trazado_658683" data-name="Trazado 658683" d="M269.952,395.141,204.869,445.9,93.028,398.448" transform="translate(-40.712 -223.961)" fill="none" stroke="#9ddcf9" stroke-miterlimit="10" stroke-width="1"/>
              <line id="Línea_226" data-name="Línea 226" x1="45.494" y1="11.021" transform="translate(59.138 230.147)" fill="none" stroke="#9ddcf9" stroke-miterlimit="10" stroke-width="1"/>
              <path id="Trazado_658684" data-name="Trazado 658684" d="M127.387,344.569l-12.289,3.31,12.395,2.576Z" transform="translate(-37.926 -230.343)" fill="#0a2a6b"/>
              <path id="Trazado_658685" data-name="Trazado 658685" d="M128.791,293.953a3.35,3.35,0,1,1-3.35-3.35A3.35,3.35,0,0,1,128.791,293.953Z" transform="translate(-37.044 -237.153)" fill="#0a2a6b"/>
              <path id="Trazado_658686" data-name="Trazado 658686" d="M113.723,296.016a17.9,17.9,0,0,1,16.524-16.964" transform="translate(-38.1 -238.611)" fill="none" stroke="#12263f" stroke-miterlimit="10" stroke-width="3"/>
              <g id="Grupo_963760" data-name="Grupo 963760" transform="translate(45.65 68.149)">
                <path id="Trazado_658687" data-name="Trazado 658687" d="M99.578,319.334c-1.806-.461-3.745-1-4.9-2.462a2.409,2.409,0,0,1-.6-1.8,2.7,2.7,0,0,1,2.335-1.9,6.517,6.517,0,0,1,2.81.064,25.349,25.349,0,0,0-2.979-6.292,7.388,7.388,0,0,0-3.078-2.957,4.282,4.282,0,0,0-5.9,3.286s-1.25,4.391,3.368,9.411S99.578,319.334,99.578,319.334Z" transform="translate(-87.109 -303.656)" fill="#ffbeb4"/>
                <path id="Trazado_658688" data-name="Trazado 658688" d="M87.246,307.271a4.282,4.282,0,0,1,5.9-3.286,7.388,7.388,0,0,1,3.078,2.957,25.35,25.35,0,0,1,2.979,6.292,6.518,6.518,0,0,0-2.81-.064,2.7,2.7,0,0,0-2.335,1.9,2.409,2.409,0,0,0,.6,1.8c1.16,1.46,3.1,2,4.9,2.462" transform="translate(-87.092 -303.656)" fill="none" stroke="#0a2a6b" stroke-miterlimit="10" stroke-width="1"/>
              </g>
              <path id="Trazado_658689" data-name="Trazado 658689" d="M131.387,306.843c.463,1.988-2,4.258-5.494,5.072s-6.707-.139-7.169-2.126,2-4.258,5.494-5.072S130.925,304.855,131.387,306.843Z" transform="translate(-37.476 -235.409)" fill="#ff9a6c" opacity="0.6" style="mix-blend-mode: multiply;isolation: isolate"/>
              <g id="Grupo_963761" data-name="Grupo 963761" transform="translate(3.143 8.904)" opacity="0.2">
                <path id="Trazado_658690" data-name="Trazado 658690" d="M144.371,263.879c-.99-3.286-3.51-5.884-6.2-8.013-3.536-2.8-7.817-5.1-12.314-4.789-4.352.3-8.123,2.961-11.779,5.342-7.747,5.045-16.151,9.262-25.168,11.3-4.964,1.124-10.059,1.578-15.03,2.668s-9.935,2.894-13.72,6.3-6.2,8.645-5.189,13.633" transform="translate(-48.687 -251.049)" fill="none" stroke="#9ddcf9" stroke-miterlimit="10" stroke-width="1"/>
                <path id="Trazado_658691" data-name="Trazado 658691" d="M135.973,276.624c3.633-3.957,3.062-10.576-.23-14.821a9.687,9.687,0,0,0-6.384-3.973c-2.564-.263-5.062.9-7.225,2.3-6.478,4.2-11.389,10.851-18.573,13.684-5.718,2.256-12.087,1.775-18.232,1.6s-12.693.125-17.765,3.6c-3.252,2.228-5.563,5.549-7.8,8.8" transform="translate(-48.053 -250.198)" fill="none" stroke="#9ddcf9" stroke-miterlimit="10" stroke-width="1"/>
                <path id="Trazado_658692" data-name="Trazado 658692" d="M103.372,281.1a218.941,218.941,0,0,0-37,3.629" transform="translate(-47.219 -247.257)" fill="none" stroke="#9ddcf9" stroke-miterlimit="10" stroke-width="1"/>
                <path id="Trazado_658693" data-name="Trazado 658693" d="M73.575,288.062c5.5,3.832,8.074,10.741,8.742,17.41A43.244,43.244,0,0,1,65.725,343.5" transform="translate(-47.3 -246.378)" fill="none" stroke="#9ddcf9" stroke-miterlimit="10" stroke-width="1"/>
                <path id="Trazado_658694" data-name="Trazado 658694" d="M64.771,290.845a30.378,30.378,0,0,1-10.048,37.832" transform="translate(-48.689 -246.027)" fill="none" stroke="#9ddcf9" stroke-miterlimit="10" stroke-width="1"/>
                <path id="Trazado_658695" data-name="Trazado 658695" d="M49.365,316.556A23.926,23.926,0,0,0,56.7,290.7" transform="translate(-49.365 -246.045)" fill="none" stroke="#9ddcf9" stroke-miterlimit="10" stroke-width="1"/>
              </g>
              <path id="Trazado_658696" data-name="Trazado 658696" d="M264.765,345.971l-6.646,3.192s.122,5.2-.82,7.147" transform="translate(-19.981 -230.166)" fill="none" stroke="#0a2a6b" stroke-miterlimit="10" stroke-width="1"/>
            </g>
          </g>
          <g id="Grupo_963766" data-name="Grupo 963766" transform="translate(16.118 46.818)">
            <g id="Grupo_963765" data-name="Grupo 963765">
              <g id="Grupo_963764" data-name="Grupo 963764">
                <rect id="Rectángulo_337927" data-name="Rectángulo 337927" width="79.601" height="57.764" rx="11.537" fill="#baa6f7"/>
                <path id="Trazado_658697" data-name="Trazado 658697" d="M97.086,180.506,89.6,197.66l-7.484-17.154Z" transform="translate(-49.801 -124.647)" fill="#8d6af2"/>
              </g>
              <path id="Trazado_658698" data-name="Trazado 658698" d="M80.011,146.516l-1.044-.694c-.878-.583-21.488-14.408-21.4-26.745.06-8.776,6.328-13.324,12.489-13.282a13.251,13.251,0,0,1,10.2,5.084,13.25,13.25,0,0,1,10.276-4.942c6.16.043,12.364,4.677,12.3,13.452-.085,12.338-20.885,25.876-21.77,26.447Z" transform="translate(-40.399 -96.04)" fill="#21155c"/>
            </g>
          </g>
          <g id="Grupo_963768" data-name="Grupo 963768" transform="translate(119.902 15.509)">
            <g id="Grupo_963767" data-name="Grupo 963767">
              <path id="Trazado_658699" data-name="Trazado 658699" d="M164.687,27.038l-2.366,8.236a27.028,27.028,0,0,0-6.148,2.5l-7.586-4.166-6.782,6.695,4.22,7.49a26.3,26.3,0,0,0-2.537,6.069L135.145,56.2V65.69l8.343,2.336a26.3,26.3,0,0,0,2.537,6.068l-4.22,7.49,6.782,6.694,7.586-4.166a27.03,27.03,0,0,0,6.148,2.5l2.366,8.236H174.3l2.367-8.236a27.024,27.024,0,0,0,6.147-2.5l7.587,4.166,6.782-6.694-4.22-7.49a26.294,26.294,0,0,0,2.537-6.068l8.343-2.336V56.2L195.5,53.866a26.3,26.3,0,0,0-2.537-6.069l4.22-7.49L190.4,33.612l-7.587,4.166a27.022,27.022,0,0,0-6.147-2.5L174.3,27.038Zm4.806,16.189a17.721,17.721,0,1,1-17.949,17.719A17.872,17.872,0,0,1,169.493,43.227Z" transform="translate(-135.145 -27.038)" fill="#fdfd10"/>
            </g>
            <ellipse id="Elipse_6524" data-name="Elipse 6524" cx="22.598" cy="22.308" rx="22.598" ry="22.308" transform="translate(11.751 11.6)" fill="none" stroke="#fff" stroke-miterlimit="10" stroke-width="1" stroke-dasharray="4"/>
          </g>
        </g>
      </g>
      <rect id="Rectángulo_337930" data-name="Rectángulo 337930" width="49.784" height="49.784" rx="8" transform="matrix(0.985, 0.174, -0.174, 0.985, -112.855, -9596.477)" fill="#26d19e"/>
    </g>
    <g id="Grupo_963809" data-name="Grupo 963809" transform="translate(265 1863.206)">
      <circle id="Elipse_5357" data-name="Elipse 5357" cx="37.477" cy="37.477" r="37.477" transform="translate(0 53) rotate(-45)" fill="#26d19e"/>
      <g id="Grupo_92295" data-name="Grupo 92295" transform="translate(25.491 25.49)">
        <path id="Trazado_116656" data-name="Trazado 116656" d="M-272.039,111.9a27.54,27.54,0,0,1-27.509-27.509,27.541,27.541,0,0,1,27.509-27.511A27.54,27.54,0,0,1-244.53,84.388,27.539,27.539,0,0,1-272.039,111.9Zm0-53.872A26.394,26.394,0,0,0-298.4,84.388a26.394,26.394,0,0,0,26.363,26.363,26.394,26.394,0,0,0,26.363-26.363A26.394,26.394,0,0,0-272.039,58.024Z" transform="translate(299.548 -56.877)" fill="#faf0e3"/>
      </g>
      <g id="Grupo_92296" data-name="Grupo 92296" transform="translate(52.427 26.064)">
        <rect id="Rectángulo_34446" data-name="Rectángulo 34446" width="1.146" height="53.873" fill="#faf0e3"/>
      </g>
      <g id="Grupo_92297" data-name="Grupo 92297" transform="translate(26.063 52.426)">
        <rect id="Rectángulo_34447" data-name="Rectángulo 34447" width="53.873" height="1.146" fill="#faf0e3"/>
      </g>
      <g id="Grupo_92298" data-name="Grupo 92298" transform="translate(38.914 25.424)">
        <path id="Trazado_116657" data-name="Trazado 116657" d="M-283.473,111.059c-4.039-4.331-6.678-10.363-7.849-17.927a54.953,54.953,0,0,1-.152-15.738,35.065,35.065,0,0,1,3.447-11.7,20.711,20.711,0,0,1,8.415-8.856l.54,1.013a19.57,19.57,0,0,0-7.939,8.375,33.975,33.975,0,0,0-3.329,11.319,53.825,53.825,0,0,0,.15,15.411c1.135,7.334,3.676,13.16,7.553,17.319Z" transform="translate(291.966 -56.84)" fill="#faf0e3"/>
      </g>
      <g id="Grupo_92299" data-name="Grupo 92299" transform="translate(56.532 26.104)">
        <path id="Trazado_116658" data-name="Trazado 116658" d="M-279.171,111.07l-.875-.742c4.894-5.768,6.007-13.789,6.452-20.875.459-7.358.478-16.836-3.488-24.865a18.731,18.731,0,0,0-4.934-6.468l.715-.9a19.866,19.866,0,0,1,5.248,6.856c4.086,8.274,4.072,17.944,3.6,25.444C-272.9,96.8-274.059,105.044-279.171,111.07Z" transform="translate(282.016 -57.224)" fill="#faf0e3"/>
      </g>
      <g id="Grupo_92300" data-name="Grupo 92300" transform="translate(25.478 39.316)">
        <path id="Trazado_116659" data-name="Trazado 116659" d="M-298.532,77.129l-1.023-.517a9.329,9.329,0,0,1,2.828-3.045,44.108,44.108,0,0,1,37.6-7.452c6.1,1.64,10.786,4.394,13.939,8.183l-.882.733c-3-3.6-7.493-6.232-13.355-7.81a42.95,42.95,0,0,0-36.6,7.254A8.377,8.377,0,0,0-298.532,77.129Z" transform="translate(299.555 -64.686)" fill="#faf0e3"/>
      </g>
      <g id="Grupo_92301" data-name="Grupo 92301" transform="translate(25.822 56.403)">
        <path id="Trazado_116660" data-name="Trazado 116660" d="M-274.313,85.029a64.043,64.043,0,0,1-6.719-.354,37.532,37.532,0,0,1-10.958-2.583c-3.63-1.563-6.246-3.8-7.371-6.291l.869-.393c1.027,2.277,3.47,4.338,6.879,5.807a36.689,36.689,0,0,0,10.68,2.511,59.014,59.014,0,0,0,22.321-1.785c6.025-1.74,10.6-4.441,12.888-7.6l.774.561c-3.09,4.274-8.991,6.687-13.4,7.96A57.8,57.8,0,0,1-274.313,85.029Z" transform="translate(299.361 -74.337)" fill="#faf0e3"/>
      </g>
    </g>
  </g>
</svg>
