<svg xmlns="http://www.w3.org/2000/svg" width="85" height="85" viewBox="0 0 85 85">
  <g id="Grupo_963996" data-name="Grupo 963996" transform="translate(-705 -1804.587)">
    <rect id="Rectángulo_337942" data-name="Rectángulo 337942" width="85" height="85" transform="translate(705 1804.587)" fill="#764cf0"/>
    <g id="webpage" transform="translate(716 1816.087)">
      <path id="Trazado_125935" data-name="Trazado 125935" d="M93.069,19.4V2.6a2.1,2.1,0,0,0-2.1-2.1h-46.2a2.1,2.1,0,0,0-2.1,2.1V46.7a2.1,2.1,0,0,0,2.1,2.1h46.2a2.1,2.1,0,0,0,2.1-2.1Zm0,0" transform="translate(-37.418 -0.001)" fill="#35e298" stroke="#000" stroke-width="1"/>
      <path id="Trazado_125936" data-name="Trazado 125936" d="M93.069,2.6V8.9h-50.4V2.6a2.106,2.106,0,0,1,2.1-2.1h46.2a2.106,2.106,0,0,1,2.1,2.1Zm0,0" transform="translate(-37.418)" fill="#169b62" stroke="#000" stroke-width="1"/>
      <path id="Trazado_125937" data-name="Trazado 125937" d="M351.968,188.234h14.7a2.1,2.1,0,0,1,2.1,2.1v12.6a2.1,2.1,0,0,1-2.1,2.1h-14.7a2.1,2.1,0,0,1-2.1-2.1v-12.6A2.1,2.1,0,0,1,351.968,188.234Zm0,0" transform="translate(-306.817 -164.633)" fill="#888"/>
      <path id="Trazado_125938" data-name="Trazado 125938" d="M359.182,198.6h-14.7a3.15,3.15,0,0,1-3.15-3.15v-12.6a3.15,3.15,0,0,1,3.15-3.15h14.7a3.15,3.15,0,0,1,3.15,3.15v12.6A3.15,3.15,0,0,1,359.182,198.6Zm-14.7-16.8a1.05,1.05,0,0,0-1.05,1.05v12.6a1.05,1.05,0,0,0,1.05,1.05h14.7a1.05,1.05,0,0,0,1.05-1.05v-12.6a1.05,1.05,0,0,0-1.05-1.05Zm0,0" transform="translate(-299.331 -157.149)" fill="#115d3c"/>
      <path id="Trazado_125939" data-name="Trazado 125939" d="M159.9,160.267h-5.25a1.05,1.05,0,0,1,0-2.1h5.25a1.05,1.05,0,0,0,1.05-1.05v-10.5a1.05,1.05,0,1,1,2.1,0v10.5a3.15,3.15,0,0,1-3.15,3.15Zm0,0" transform="translate(-134.702 -127.216)" fill="#ffa90b"/>
      <path id="Trazado_125940" data-name="Trazado 125940" d="M290,160.267h-5.25a3.15,3.15,0,0,1-3.15-3.15v-10.5a1.05,1.05,0,1,1,2.1,0v10.5a1.05,1.05,0,0,0,1.05,1.05H290a1.05,1.05,0,0,1,0,2.1Zm0,0" transform="translate(-246.951 -127.216)" fill="#115d3c"/>
      <path id="Trazado_125941" data-name="Trazado 125941" d="M248.515,172.867a1.05,1.05,0,0,1-1.05-1.05v-25.2a1.05,1.05,0,0,1,2.1,0v25.2A1.05,1.05,0,0,1,248.515,172.867Zm0,0" transform="translate(-217.015 -127.216)" fill="#115d3c"/>
      <path id="Trazado_125942" data-name="Trazado 125942" d="M70.366,27.151a1.05,1.05,0,1,1-1.05-1.05A1.05,1.05,0,0,1,70.366,27.151Zm0,0" transform="translate(-59.866 -22.451)" fill="#ffa90b"/>
      <path id="Trazado_125943" data-name="Trazado 125943" d="M104.5,27.151a1.05,1.05,0,1,1-1.05-1.05A1.05,1.05,0,0,1,104.5,27.151Zm0,0" transform="translate(-89.799 -22.451)" fill="#ffd993"/>
      <path id="Trazado_125944" data-name="Trazado 125944" d="M138.636,27.151a1.05,1.05,0,1,1-1.05-1.05A1.05,1.05,0,0,1,138.636,27.151Zm0,0" transform="translate(-119.736 -22.451)" fill="#fff"/>
      <path id="Trazado_125945" data-name="Trazado 125945" d="M145.584,102.767a1.05,1.05,0,0,1-1.05-1.05v-4.2a1.05,1.05,0,0,0-1.05-1.05h-29.4a1.05,1.05,0,0,0-1.05,1.05v4.2a1.05,1.05,0,0,1-2.1,0v-4.2a3.15,3.15,0,0,1,3.15-3.15h29.4a3.15,3.15,0,0,1,3.15,3.15v4.2A1.05,1.05,0,0,1,145.584,102.767Zm0,0" transform="translate(-97.283 -82.317)" fill="#115d3c"/>
      <path id="Trazado_125946" data-name="Trazado 125946" d="M413.8,224.468a2.1,2.1,0,1,1-2.1-2.1A2.1,2.1,0,0,1,413.8,224.468Zm0,0" transform="translate(-359.201 -194.567)" fill="#fff"/>
      <path id="Trazado_125947" data-name="Trazado 125947" d="M396.735,256.5a4.2,4.2,0,0,1,4.2,4.2h-8.4A4.2,4.2,0,0,1,396.735,256.5Zm0,0" transform="translate(-344.235 -224.499)" fill="#fff"/>
      <path id="Trazado_125948" data-name="Trazado 125948" d="M10.635,188.234h14.7a2.1,2.1,0,0,1,2.1,2.1v12.6a2.1,2.1,0,0,1-2.1,2.1h-14.7a2.1,2.1,0,0,1-2.1-2.1v-12.6a2.1,2.1,0,0,1,2.1-2.1Zm0,0" transform="translate(-7.485 -164.633)" fill="#ffd993"/>
      <path id="Trazado_125949" data-name="Trazado 125949" d="M17.85,198.6H3.15A3.15,3.15,0,0,1,0,195.45v-12.6a3.15,3.15,0,0,1,3.15-3.15h14.7A3.15,3.15,0,0,1,21,182.85v12.6a3.15,3.15,0,0,1-3.15,3.15ZM3.15,181.8a1.05,1.05,0,0,0-1.05,1.05v12.6a1.05,1.05,0,0,0,1.05,1.05h14.7a1.05,1.05,0,0,0,1.05-1.05v-12.6a1.05,1.05,0,0,0-1.05-1.05Zm0,0" transform="translate(0 -157.149)" fill="#ffa90b"/>
      <g id="Grupo_98867" data-name="Grupo 98867" transform="translate(4.199 26.75)">
        <path id="Trazado_125950" data-name="Trazado 125950" d="M45.683,215.932h-10.5a1.05,1.05,0,1,1,0-2.1h10.5a1.05,1.05,0,1,1,0,2.1Zm0,0" transform="translate(-34.133 -213.832)"/>
        <path id="Trazado_125951" data-name="Trazado 125951" d="M45.683,250.065h-10.5a1.05,1.05,0,1,1,0-2.1h10.5a1.05,1.05,0,1,1,0,2.1Zm0,0" transform="translate(-34.133 -243.765)"/>
        <path id="Trazado_125952" data-name="Trazado 125952" d="M45.683,284.2h-10.5a1.05,1.05,0,1,1,0-2.1h10.5a1.05,1.05,0,1,1,0,2.1Zm0,0" transform="translate(-34.133 -273.701)"/>
      </g>
      <path id="Trazado_125953" data-name="Trazado 125953" d="M181.3,358.9H196a2.1,2.1,0,0,1,2.1,2.1v12.6a2.1,2.1,0,0,1-2.1,2.1H181.3a2.1,2.1,0,0,1-2.1-2.1V361A2.1,2.1,0,0,1,181.3,358.9Zm0,0" transform="translate(-157.15 -314.297)" fill="#35e298"/>
      <path id="Trazado_125954" data-name="Trazado 125954" d="M188.518,369.268h-14.7a3.15,3.15,0,0,1-3.15-3.15v-12.6a3.15,3.15,0,0,1,3.15-3.15h14.7a3.15,3.15,0,0,1,3.15,3.15v12.6A3.15,3.15,0,0,1,188.518,369.268Zm-14.7-16.8a1.05,1.05,0,0,0-1.05,1.05v12.6a1.05,1.05,0,0,0,1.05,1.05h14.7a1.05,1.05,0,0,0,1.05-1.05v-12.6a1.05,1.05,0,0,0-1.05-1.05Zm0,0" transform="translate(-149.667 -306.817)" fill="#115d3c"/>
      <path id="Trazado_125955" data-name="Trazado 125955" d="M218.582,393.035l1.886,2.46,3.365.748-2.2,2.269.193,2.922-3.244-1.057-3.244,1.057.193-2.922-2.2-2.269,3.365-.748Zm0,0" transform="translate(-187.082 -344.234)" fill="#21155c"/>
    </g>
  </g>
</svg>
