<svg xmlns="http://www.w3.org/2000/svg" width="60.436" height="64.393" viewBox="0 0 60.436 64.393">
  <g id="social-media" transform="translate(-15.731)">
    <path id="Trazado_125823" data-name="Trazado 125823" d="M219.68,40.393a6.114,6.114,0,0,0,3.593,1.16h11.482V47.12l7.278-5.567h3.14a6.119,6.119,0,0,0,6.129-6.11V13.61a6.119,6.119,0,0,0-6.129-6.11h-21.9a6.119,6.119,0,0,0-6.129,6.11V40.393Z" transform="translate(-176.079 -6.557)" fill="#f7f3f1"/>
    <path id="Trazado_125824" data-name="Trazado 125824" d="M367.566,7.5h-5.249a6.119,6.119,0,0,1,6.129,6.11V35.443a6.119,6.119,0,0,1-6.129,6.11h-3.14L357.148,43.1V47.12l7.278-5.567h3.14a6.119,6.119,0,0,0,6.129-6.11V13.61A6.119,6.119,0,0,0,367.566,7.5Z" transform="translate(-298.472 -6.557)" fill="#ebe1dc"/>
    <path id="Trazado_125825" data-name="Trazado 125825" d="M306.272,80.619l.632.511a5.626,5.626,0,0,0,3.539,1.253h8.967a1.5,1.5,0,0,0,1.494-1.568c-.038-.8,0-8.131,0-8.957a1.5,1.5,0,0,0-1.5-1.5l-6.081-.018.745-1.763a6.38,6.38,0,0,0-.338-5.647,1,1,0,0,0-1.859.494,6.49,6.49,0,0,1-1.624,4.294l-3.877,4.388h-1.414v8.511h1.31Z" transform="translate(-252.85 -54.578)" fill="#ffd36c"/>
    <path id="Trazado_125826" data-name="Trazado 125826" d="M278.7,138.4h-4.094a.49.49,0,0,1-.49-.49V127.474a.49.49,0,0,1,.49-.49H278.7a.49.49,0,0,1,.49.49v10.437A.49.49,0,0,1,278.7,138.4Z" transform="translate(-225.887 -111.011)" fill="#8ee6f3"/>
    <path id="Trazado_125827" data-name="Trazado 125827" d="M50.166,169.354V147.318a4.826,4.826,0,0,0-4.833-4.818H28.063a4.826,4.826,0,0,0-4.833,4.818v17.217a4.826,4.826,0,0,0,4.833,4.818H37.55v4.431l5.739-4.431Z" transform="translate(-6.556 -124.576)" fill="#4ed5ea"/>
    <path id="Trazado_125828" data-name="Trazado 125828" d="M151.385,142.5h-6.844a4.826,4.826,0,0,1,4.833,4.818v22.035h6.844V147.318A4.826,4.826,0,0,0,151.385,142.5Z" transform="translate(-112.608 -124.576)" fill="#62a6fd"/>
    <path id="Trazado_125829" data-name="Trazado 125829" d="M202.683,328H190.428a3.425,3.425,0,0,0-3.43,3.419v12.218a3.425,3.425,0,0,0,3.43,3.419h6.733V350.2l4.073-3.145h1.45a3.425,3.425,0,0,0,3.43-3.419V331.417A3.425,3.425,0,0,0,202.683,328Z" transform="translate(-149.724 -286.741)" fill="#fa9084"/>
    <path id="Trazado_125830" data-name="Trazado 125830" d="M273.313,328H268.03a3.425,3.425,0,0,1,3.43,3.419v12.218a3.424,3.424,0,0,1-3.43,3.419h-.24V350.2l4.073-3.145h1.45a3.425,3.425,0,0,0,3.43-3.419V331.417A3.425,3.425,0,0,0,273.313,328Z" transform="translate(-220.354 -286.741)" fill="#ff6cb5"/>
    <path id="Trazado_125831" data-name="Trazado 125831" d="M231.864,383.611c2.949-1.563,4.477-2.894,4.477-4.955,0-2.843-3.482-3.553-4.477-1.421-1.137-2.2-4.477-1.421-4.477,1.421C227.387,380.717,228.915,382.048,231.864,383.611Z" transform="translate(-185.033 -328.674)" fill="#f7f3f1"/>
    <path id="Trazado_125832" data-name="Trazado 125832" d="M69.095,0H66.326a.944.944,0,0,0,0,1.887h2.769A5.182,5.182,0,0,1,74.28,7.053V28.886a5.182,5.182,0,0,1-5.185,5.167h-3.14a.943.943,0,0,0-.573.194L59.62,38.654V35a.943.943,0,0,0-.943-.943H47.195a5.159,5.159,0,0,1-2.641-.72V22.743a5.756,5.756,0,0,0-2.545-4.773V7.053a5.182,5.182,0,0,1,5.185-5.167h13.22a.944.944,0,0,0,0-1.887H47.195a7.071,7.071,0,0,0-7.072,7.053V17.14a5.784,5.784,0,0,0-1.345-.159H21.507a5.776,5.776,0,0,0-5.776,5.762V24.78a.944.944,0,0,0,1.887,0V22.743a3.887,3.887,0,0,1,3.89-3.875h17.27a3.887,3.887,0,0,1,3.89,3.875V33.708a.944.944,0,0,0,0,.25v6c0,.119-.007.237-.018.354H40.7a4.377,4.377,0,0,0-4.3,3.581.946.946,0,0,0-.245.136l-4.219,3.258V44.778a.943.943,0,0,0-.943-.943H21.507a3.887,3.887,0,0,1-3.89-3.875V30.44a.944.944,0,0,0-1.887,0v9.52a5.776,5.776,0,0,0,5.776,5.762h8.544V49.21a.958.958,0,0,0,1.52.747l4.759-3.675V56.895A4.373,4.373,0,0,0,40.7,61.258h5.789v2.2a.958.958,0,0,0,1.52.747l3.818-2.948h1.128a4.373,4.373,0,0,0,4.373-4.363V55.22a.944.944,0,0,0-1.887,0v1.675a2.484,2.484,0,0,1-2.486,2.476h-1.45a.943.943,0,0,0-.576.2L48.38,61.539V60.314a.943.943,0,0,0-.943-.943H40.7a2.484,2.484,0,0,1-2.486-2.476V44.677A2.484,2.484,0,0,1,40.7,42.2H52.959a2.484,2.484,0,0,1,2.486,2.476v4.631a.944.944,0,0,0,1.887,0V44.677a4.373,4.373,0,0,0-4.373-4.363H44.543c.007-.118.011-4.883.011-4.883a7.061,7.061,0,0,0,2.641.508H57.733v4.624a.958.958,0,0,0,1.517.749l7.025-5.373h2.821a7.071,7.071,0,0,0,7.072-7.053V7.053A7.071,7.071,0,0,0,69.095,0Z" transform="translate(0)"/>
    <path id="Trazado_125833" data-name="Trazado 125833" d="M279.832,54.64a1.966,1.966,0,0,0-2.418,1.878,5.543,5.543,0,0,1-1.387,3.669l-2.6,2.941a.942.942,0,0,0-.79-.429h-5.074a.943.943,0,0,0-.943.943V75.06a.943.943,0,0,0,.943.943h5.074a.943.943,0,0,0,.858-.552,6.592,6.592,0,0,0,3.429.967h8.968a2.469,2.469,0,0,0,2.436-2.556c-.029-.605,0-8.733,0-8.913a2.441,2.441,0,0,0-2.436-2.439L281.23,62.5l.193-.457a7.366,7.366,0,0,0-.388-6.482,1.922,1.922,0,0,0-1.2-.917h0Zm-8.138,19.476h-3.187v-9.53h3.187Zm14.2-9.72a.553.553,0,0,1,.552.552c0,.179,0,.667,0,1.327-.014,3.647-.023,7.1,0,7.675a.552.552,0,0,1-.552.58h-8.968a4.7,4.7,0,0,1-2.946-1.043l-.4-.322V65.8l3.86-4.368a7.428,7.428,0,0,0,1.86-4.918.053.053,0,0,1,.1-.026,5.468,5.468,0,0,1,.288,4.812l-.745,1.763a.943.943,0,0,0,.866,1.31Z" transform="translate(-219.33 -47.67)"/>
    <path id="Trazado_125834" data-name="Trazado 125834" d="M73.394,201.926a.943.943,0,1,0,0,1.887h2.781l-.519,3.142a.943.943,0,1,0,1.862.308l.57-3.45h2.276l-.52,3.142a.943.943,0,1,0,1.862.308l.57-3.45h3.785a.943.943,0,0,0,0-1.887H82.588l.38-2.3h3.093a.943.943,0,0,0,0-1.887H83.28l.52-3.142a.943.943,0,0,0-1.862-.308l-.57,3.45H79.092l.52-3.142a.943.943,0,0,0-1.862-.308l-.57,3.45H73.394a.943.943,0,1,0,0,1.887h3.473l-.38,2.3Zm5.386-2.3h2.276l-.381,2.3H78.4Z" transform="translate(-49.585 -169.159)"/>
    <path id="Trazado_125835" data-name="Trazado 125835" d="M225.3,369.179a3.172,3.172,0,0,0-2.792-.627,3.51,3.51,0,0,0-2.617,3.542,4.632,4.632,0,0,0,1.394,3.316,13.838,13.838,0,0,0,3.585,2.473.943.943,0,0,0,.884,0c2.988-1.584,4.979-3.175,4.979-5.788a3.487,3.487,0,0,0-2.71-3.523A3.163,3.163,0,0,0,225.3,369.179Zm3.545,2.914c0,1.41-.935,2.452-3.534,3.882-2.6-1.431-3.534-2.473-3.534-3.882a1.614,1.614,0,0,1,1.176-1.708,1.414,1.414,0,0,1,.332-.04,1.3,1.3,0,0,1,1.187.759.943.943,0,0,0,1.693-.034,1.226,1.226,0,0,1,1.446-.659A1.6,1.6,0,0,1,228.841,372.093Z" transform="translate(-178.476 -322.11)"/>
  </g>
</svg>
