<svg xmlns="http://www.w3.org/2000/svg" width="85" height="85" viewBox="0 0 85 85">
  <g id="Grupo_963997" data-name="Grupo 963997" transform="translate(-705 -1951.587)">
    <rect id="Rectángulo_337944" data-name="Rectángulo 337944" width="85" height="85" transform="translate(705 1951.587)" fill="#764cf0"/>
    <g id="content_1_" data-name="content (1)" transform="translate(715 1962.587)">
      <g id="Grupo_98884" data-name="Grupo 98884" transform="translate(1.922 1.922)">
        <g id="Grupo_98868" data-name="Grupo 98868" transform="translate(27.96 3.687)">
          <path id="Trazado_125956" data-name="Trazado 125956" d="M60.769,6H32.051A2.056,2.056,0,0,0,30,8.049V28.537a2.056,2.056,0,0,0,2.051,2.049H60.769a2.056,2.056,0,0,0,2.051-2.049V8.049A2.056,2.056,0,0,0,60.769,6Z" transform="translate(-30 -6)" fill="#35e298"/>
        </g>
        <g id="Grupo_98869" data-name="Grupo 98869" transform="translate(33 7.374)">
          <path id="Trazado_125957" data-name="Trazado 125957" d="M34,10h9.218v7.374H34Z" transform="translate(-34 -10)" fill="#169b62"/>
        </g>
        <g id="Grupo_98870" data-name="Grupo 98870" transform="translate(0.922 43.735)">
          <path id="Trazado_125958" data-name="Trazado 125958" d="M2,46H46.633V61.8H2Z" transform="translate(-2 -46)" fill="#35e298"/>
        </g>
        <g id="Grupo_98871" data-name="Grupo 98871" transform="translate(34.919 52.16)">
          <path id="Trazado_125959" data-name="Trazado 125959" d="M36,54h7.374v3.687H36Z" transform="translate(-36 -54)" fill="#ffa90b"/>
        </g>
        <g id="Grupo_98872" data-name="Grupo 98872" transform="translate(44.37 23.663)">
          <path id="Trazado_125960" data-name="Trazado 125960" d="M45.922,29.687l2.728-2.728a3.263,3.263,0,0,1,5.568,2.3,2.2,2.2,0,0,1-.037.424,3.2,3.2,0,0,1-.922,1.88l-3.65,3.65L45,30.609Z" transform="translate(-45 -26)" fill="#aab2bd"/>
        </g>
        <g id="Grupo_98873" data-name="Grupo 98873" transform="translate(21.526 49.395)">
          <path id="Trazado_125961" data-name="Trazado 125961" d="M29.452,55.609l-4.609,1.844A1.857,1.857,0,0,1,23,55.609L24.844,51Z" transform="translate(-23 -51)" fill="#aab2bd"/>
        </g>
        <g id="Grupo_98874" data-name="Grupo 98874" transform="translate(35.262 29.34)">
          <path id="Trazado_125962" data-name="Trazado 125962" d="M48.895,35.609l-1.318,1.318L41.52,42.983l-2.848-2.277a6.4,6.4,0,0,0-2.8-1.29l5.65-5.65L44.286,31Z" transform="translate(-35.87 -31)" fill="#ffa90b"/>
        </g>
        <g id="Grupo_98875" data-name="Grupo 98875" transform="translate(23.894 41.885)">
          <path id="Trazado_125963" data-name="Trazado 125963" d="M31.71,43.72a2.409,2.409,0,0,0,.885.94l4.618,2.775-7.6,7.6L25,50.43l4.609-4.609.092-.092Z" transform="translate(-25 -43.72)" fill="#ffa90b"/>
        </g>
        <g id="Grupo_98876" data-name="Grupo 98876" transform="translate(51.562 36.355)">
          <path id="Trazado_125964" data-name="Trazado 125964" d="M61.218,38V49.061L52,47.218V39.844Z" transform="translate(-52 -38)" fill="#ffa90b"/>
        </g>
        <g id="Grupo_98877" data-name="Grupo 98877" transform="translate(27.06 32.31)">
          <path id="Trazado_125965" data-name="Trazado 125965" d="M32.378,40.222a2.3,2.3,0,0,0-.691,1.659,2.356,2.356,0,0,0,.258,1.078l-2.009,2.009a2.641,2.641,0,0,1-1.383-.913,2.581,2.581,0,0,1-.553-1.6,2.61,2.61,0,0,1,.765-1.844l4.987-4.987A5.524,5.524,0,0,1,37.669,34H40.9l-5.65,5.65a5.921,5.921,0,0,0-1.217-.12,2.3,2.3,0,0,0-1.659.691Z" transform="translate(-28 -34)" fill="#f0d0b4"/>
        </g>
        <g id="Grupo_98878" data-name="Grupo 98878" transform="translate(30.837 35.53)">
          <path id="Trazado_125966" data-name="Trazado 125966" d="M41.567,43.486l6.285-6.056L51.133,39.8v7.374L47.307,48.4l-.574.184a8.968,8.968,0,0,1-7.232-.765l-1.521-.876-4.793-2.775a2.449,2.449,0,0,1-.918-.94A2.287,2.287,0,0,1,32,42.149a2.255,2.255,0,0,1,.717-1.659,2.428,2.428,0,0,1,1.722-.691,6.371,6.371,0,0,1,1.263.12,6.755,6.755,0,0,1,2.908,1.29Z" transform="translate(-32 -37.43)" fill="#f0d0b4"/>
        </g>
        <g id="Grupo_98879" data-name="Grupo 98879" transform="translate(1.844)">
          <path id="Trazado_125967" data-name="Trazado 125967" d="M22.435,3.844V14.9a1.849,1.849,0,0,1-1.844,1.844H5.844A1.849,1.849,0,0,1,4,14.9V3.844A1.849,1.849,0,0,1,5.844,2H20.592A1.849,1.849,0,0,1,22.435,3.844Z" transform="translate(-4 -2)" fill="#35e298"/>
        </g>
        <g id="Grupo_98880" data-name="Grupo 98880" transform="translate(0 22.494)">
          <path id="Trazado_125968" data-name="Trazado 125968" d="M2,24H22.279V40.592H2Z" transform="translate(-2 -24)" fill="#35e298"/>
        </g>
        <g id="Grupo_98881" data-name="Grupo 98881" transform="translate(7.374 3.687)">
          <path id="Trazado_125969" data-name="Trazado 125969" d="M16.554,8.351a1.5,1.5,0,0,1,0,2.673l-4.4,2.194A1.491,1.491,0,0,1,10,11.881V7.493a1.491,1.491,0,0,1,2.157-1.337Z" transform="translate(-10 -6)" fill="#127d4f"/>
        </g>
        <g id="Grupo_98882" data-name="Grupo 98882" transform="translate(5.531 30.19)">
          <path id="Trazado_125970" data-name="Trazado 125970" d="M18.167,33.576l4.581,7.641H8l4.581-7.641a3.263,3.263,0,0,1,5.586,0Z" transform="translate(-8 -32)" fill="#127d4f"/>
        </g>
        <g id="Grupo_98883" data-name="Grupo 98883" transform="translate(3.687 26.35)">
          <circle id="Elipse_5897" data-name="Elipse 5897" cx="1.844" cy="1.844" r="1.844" transform="translate(0 0)" fill="#ffd993"/>
        </g>
      </g>
      <g id="Grupo_98885" data-name="Grupo 98885" transform="translate(1 1)">
        <path id="Trazado_125971" data-name="Trazado 125971" d="M55.212,32.594a4.467,4.467,0,0,0,1.079-1.733h4.3a3.011,3.011,0,0,0,3.03-2.984V7.984A3.011,3.011,0,0,0,60.593,5H32.312a3.011,3.011,0,0,0-3.03,2.984V27.877a3.011,3.011,0,0,0,3.03,2.984h11.7l-2.02,1.989H38.862a7.076,7.076,0,0,0-5,2.039l-5.469,5.385a3.759,3.759,0,0,0-.661,4.512H1v17.9H49.483V49.813L52.578,48.8l11.046,2.176V36.611L52.757,38.751l-2.171-1.6ZM42.338,42.459l-2.415-1.9a8.04,8.04,0,0,0-1.81-1.07l7.33-7.218,3.622,3.567ZM53.784,31.188l-3.291,3.241-3.622-3.567,3.291-3.241A2.57,2.57,0,0,1,54.533,29.4,2.487,2.487,0,0,1,53.784,31.188ZM32.312,28.872a1,1,0,0,1-1.01-.995V7.984a1,1,0,0,1,1.01-.995H60.593a1,1,0,0,1,1.01.995V27.877a1,1,0,0,1-1.01.995H56.5a4.437,4.437,0,0,0-.729-1.989h3.814V24.893H33.322v1.989H48.055l-2.02,1.989Zm-2.49,12.809L35.292,36.3a5.057,5.057,0,0,1,3.571-1.456h1.112l-4.107,4.044a8.185,8.185,0,0,0-.976-.066,3.566,3.566,0,0,0-3.59,3.535,3.5,3.5,0,0,0,.121.907l-1.265,1.245a1.794,1.794,0,0,1-.336-2.825ZM25.61,52.524l2.884,2.84L25.079,56.71a1,1,0,0,1-.835-.823Zm4.682,1.8L26.67,50.755,32.518,45a3.546,3.546,0,0,0,.526.39L37,47.72ZM3.02,60.7V46.776H27.853L24.381,50.2l-2.17,5.341v.191a3.011,3.011,0,0,0,3.03,2.984h.194l5.423-2.136,7.922-7.8.926.547a10.326,10.326,0,0,0,7.755,1.123V60.7Zm50.5-20.073,8.08-1.591v9.51l-8.08-1.591Zm-2.02-.317v6.744l-3.953,1.3a8.372,8.372,0,0,1-6.8-.735L34.084,43.68a1.542,1.542,0,0,1,.807-2.872,6.1,6.1,0,0,1,3.769,1.3l3.4,2.676h5.4V42.8H44.851l4.294-4.228Z" transform="translate(-1 -1.313)"/>
        <path id="Trazado_125972" data-name="Trazado 125972" d="M5,49H18.827v1.844H5Z" transform="translate(-1.313 -1.372)"/>
        <path id="Trazado_125973" data-name="Trazado 125973" d="M5,53H18.827v1.844H5Z" transform="translate(-1.313 -0.84)"/>
        <path id="Trazado_125974" data-name="Trazado 125974" d="M5,57H18.827v1.844H5Z" transform="translate(-1.313 -1.153)"/>
        <path id="Trazado_125975" data-name="Trazado 125975" d="M35,58.531h9.218V53H35Zm1.844-3.687h5.531v1.844H36.844Z" transform="translate(-0.081 -0.84)"/>
        <path id="Trazado_125976" data-name="Trazado 125976" d="M23.123,23H1V41.435H23.123ZM2.844,24.844H21.279V37.185L18.41,32.4a4.179,4.179,0,0,0-7.166,0l-4.313,7.19H2.844ZM20.573,39.592H9.08l3.744-6.241a2.336,2.336,0,0,1,4,0Z" transform="translate(-1 -0.506)"/>
        <path id="Trazado_125977" data-name="Trazado 125977" d="M5.765,17.592H20.514a2.769,2.769,0,0,0,2.765-2.765V3.765A2.769,2.769,0,0,0,20.514,1H5.765A2.769,2.769,0,0,0,3,3.765V14.827A2.769,2.769,0,0,0,5.765,17.592ZM4.844,3.765a.922.922,0,0,1,.922-.922H20.514a.922.922,0,0,1,.922.922V14.827a.922.922,0,0,1-.922.922H5.765a.922.922,0,0,1-.922-.922Z" transform="translate(-1.156 -1)"/>
        <path id="Trazado_125978" data-name="Trazado 125978" d="M7.765,32.531A2.765,2.765,0,1,0,5,29.765,2.769,2.769,0,0,0,7.765,32.531Zm0-3.687a.922.922,0,1,1-.922.922A.922.922,0,0,1,7.765,28.844Z" transform="translate(-1.313 -1.071)"/>
        <path id="Trazado_125979" data-name="Trazado 125979" d="M11.413,14.218a2.435,2.435,0,0,0,1.079-.254l4.392-2.2a2.414,2.414,0,0,0,0-4.318l-4.391-2.2A2.414,2.414,0,0,0,9,7.413V11.8a2.417,2.417,0,0,0,2.413,2.413Zm-.57-6.8a.57.57,0,0,1,.824-.51l4.39,2.2a.569.569,0,0,1,0,1.019l-4.391,2.2a.586.586,0,0,1-.824-.51Z" transform="translate(-1.626 -1.313)"/>
        <path id="Trazado_125980" data-name="Trazado 125980" d="M44.061,9H33v9.218H44.061Zm-1.844,7.374H34.844V10.844h7.374Z" transform="translate(0 -1.626)"/>
        <path id="Trazado_125981" data-name="Trazado 125981" d="M47,9H58.061v1.844H47Z" transform="translate(0.875 -1.626)"/>
        <path id="Trazado_125982" data-name="Trazado 125982" d="M57,13h1.844v1.844H57Z" transform="translate(0.093 -1.093)"/>
        <path id="Trazado_125983" data-name="Trazado 125983" d="M47,13h7.374v1.844H47Z" transform="translate(0.875 -1.093)"/>
        <path id="Trazado_125984" data-name="Trazado 125984" d="M47,17H58.061v1.844H47Z" transform="translate(0.875 -1.124)"/>
        <path id="Trazado_125985" data-name="Trazado 125985" d="M33,21H56.966v1.844H33Z" transform="translate(1.971 -1.155)"/>
      </g>
    </g>
  </g>
</svg>
